%TF.GenerationSoftware,KiCad,Pcbnew,9.0.6*%
%TF.CreationDate,2026-01-03T15:13:41+00:00*%
%TF.ProjectId,Metaboard,4d657461-626f-4617-9264-2e6b69636164,rev?*%
%TF.SameCoordinates,Original*%
%TF.FileFunction,Copper,L2,Bot*%
%TF.FilePolarity,Positive*%
%FSLAX46Y46*%
G04 Gerber Fmt 4.6, Leading zero omitted, Abs format (unit mm)*
G04 Created by KiCad (PCBNEW 9.0.6) date 2026-01-03 15:13:41*
%MOMM*%
%LPD*%
G01*
G04 APERTURE LIST*
%TA.AperFunction,ComponentPad*%
%ADD10R,1.700000X1.700000*%
%TD*%
%TA.AperFunction,ComponentPad*%
%ADD11C,1.700000*%
%TD*%
%TA.AperFunction,HeatsinkPad*%
%ADD12O,1.000000X2.100000*%
%TD*%
%TA.AperFunction,HeatsinkPad*%
%ADD13O,1.000000X1.600000*%
%TD*%
%TA.AperFunction,ViaPad*%
%ADD14C,0.600000*%
%TD*%
%TA.AperFunction,Conductor*%
%ADD15C,0.200000*%
%TD*%
G04 APERTURE END LIST*
D10*
%TO.P,J3,1,Pin_1*%
%TO.N,VBUS*%
X120490000Y-68070000D03*
D11*
%TO.P,J3,2,Pin_2*%
%TO.N,GPIO29_ADC3*%
X120490000Y-70610000D03*
%TO.P,J3,3,Pin_3*%
%TO.N,GND*%
X120490000Y-73150000D03*
%TO.P,J3,4,Pin_4*%
%TO.N,GPIO28_ADC2*%
X120490000Y-75690000D03*
%TO.P,J3,5,Pin_5*%
%TO.N,+3V3*%
X120490000Y-78230000D03*
%TO.P,J3,6,Pin_6*%
%TO.N,GPIO27_ADC1*%
X120490000Y-80770000D03*
%TO.P,J3,7,Pin_7*%
%TO.N,GPIO26_ADC0*%
X120490000Y-83310000D03*
%TO.P,J3,8,Pin_8*%
%TO.N,GND*%
X120490000Y-85850000D03*
%TO.P,J3,9,Pin_9*%
%TO.N,GPIO24*%
X120490000Y-88390000D03*
%TO.P,J3,10,Pin_10*%
%TO.N,GPIO23*%
X120490000Y-90930000D03*
%TO.P,J3,11,Pin_11*%
%TO.N,RUN*%
X120490000Y-93470000D03*
%TO.P,J3,12,Pin_12*%
%TO.N,GPIO22*%
X120490000Y-96010000D03*
%TO.P,J3,13,Pin_13*%
%TO.N,GND*%
X120490000Y-98550000D03*
%TO.P,J3,14,Pin_14*%
%TO.N,GPIO21*%
X120490000Y-101090000D03*
%TO.P,J3,15,Pin_15*%
%TO.N,GPIO20*%
X120490000Y-103630000D03*
%TO.P,J3,16,Pin_16*%
%TO.N,GPIO19*%
X120490000Y-106170000D03*
%TO.P,J3,17,Pin_17*%
%TO.N,GPIO18*%
X120490000Y-108710000D03*
%TO.P,J3,18,Pin_18*%
%TO.N,GND*%
X120490000Y-111250000D03*
%TO.P,J3,19,Pin_19*%
%TO.N,GPIO17*%
X120490000Y-113790000D03*
%TO.P,J3,20,Pin_20*%
%TO.N,GPIO16*%
X120490000Y-116330000D03*
%TD*%
D10*
%TO.P,J2,1,Pin_1*%
%TO.N,GPIO0*%
X102710000Y-68070000D03*
D11*
%TO.P,J2,2,Pin_2*%
%TO.N,GPIO1*%
X102710000Y-70610000D03*
%TO.P,J2,3,Pin_3*%
%TO.N,GND*%
X102710000Y-73150000D03*
%TO.P,J2,4,Pin_4*%
%TO.N,GPIO2*%
X102710000Y-75690000D03*
%TO.P,J2,5,Pin_5*%
%TO.N,GPIO3*%
X102710000Y-78230000D03*
%TO.P,J2,6,Pin_6*%
%TO.N,GPIO4*%
X102710000Y-80770000D03*
%TO.P,J2,7,Pin_7*%
%TO.N,GPIO5*%
X102710000Y-83310000D03*
%TO.P,J2,8,Pin_8*%
%TO.N,GND*%
X102710000Y-85850000D03*
%TO.P,J2,9,Pin_9*%
%TO.N,GPIO6*%
X102710000Y-88390000D03*
%TO.P,J2,10,Pin_10*%
%TO.N,GPIO7*%
X102710000Y-90930000D03*
%TO.P,J2,11,Pin_11*%
%TO.N,GPIO8*%
X102710000Y-93470000D03*
%TO.P,J2,12,Pin_12*%
%TO.N,GPIO9*%
X102710000Y-96010000D03*
%TO.P,J2,13,Pin_13*%
%TO.N,GND*%
X102710000Y-98550000D03*
%TO.P,J2,14,Pin_14*%
%TO.N,GPIO10*%
X102710000Y-101090000D03*
%TO.P,J2,15,Pin_15*%
%TO.N,GPIO11*%
X102710000Y-103630000D03*
%TO.P,J2,16,Pin_16*%
%TO.N,GPIO12*%
X102710000Y-106170000D03*
%TO.P,J2,17,Pin_17*%
%TO.N,GPIO13*%
X102710000Y-108710000D03*
%TO.P,J2,18,Pin_18*%
%TO.N,GND*%
X102710000Y-111250000D03*
%TO.P,J2,19,Pin_19*%
%TO.N,GPIO14*%
X102710000Y-113790000D03*
%TO.P,J2,20,Pin_20*%
%TO.N,GPIO15*%
X102710000Y-116330000D03*
%TD*%
D10*
%TO.P,J4,1,Pin_1*%
%TO.N,SWCLK*%
X109060000Y-116090000D03*
D11*
%TO.P,J4,2,Pin_2*%
%TO.N,GND*%
X111600000Y-116090000D03*
%TO.P,J4,3,Pin_3*%
%TO.N,SWD*%
X114140000Y-116090000D03*
%TD*%
D12*
%TO.P,J1,S1,SHIELD*%
%TO.N,GND*%
X115900000Y-72330000D03*
D13*
X115900000Y-68150000D03*
D12*
X107260000Y-72330000D03*
D13*
X107260000Y-68150000D03*
%TD*%
D14*
%TO.N,GND*%
X115900000Y-82100000D03*
X112800000Y-85400000D03*
X117156036Y-91800000D03*
X118500000Y-108500000D03*
X106300000Y-91800000D03*
X115800000Y-114800000D03*
X116200000Y-74700000D03*
X116300000Y-113800000D03*
X105800000Y-98600000D03*
X104400000Y-110500000D03*
X107600000Y-76700000D03*
X119400000Y-87100000D03*
X111700000Y-107500000D03*
X104400000Y-99300000D03*
X104400000Y-74300000D03*
X119200000Y-77000000D03*
X110400000Y-108600000D03*
X108951472Y-91400000D03*
X108300000Y-85400000D03*
X106900000Y-80900000D03*
X118800000Y-110100000D03*
X108000000Y-102700000D03*
X107600000Y-110500000D03*
X111000000Y-96200000D03*
X104300000Y-77300000D03*
X119100000Y-99200000D03*
X110000000Y-112800000D03*
X115200000Y-105500000D03*
X116600000Y-88900000D03*
X118225735Y-98125735D03*
X109700000Y-102700000D03*
X111600000Y-114100000D03*
X111200000Y-76800000D03*
%TO.N,+3V3*%
X112000000Y-91869852D03*
X112000000Y-89250000D03*
%TO.N,+1V1*%
X111754011Y-98300000D03*
X111100000Y-93699000D03*
X113101376Y-93697838D03*
%TO.N,VBUS*%
X114900000Y-79600000D03*
X107400000Y-105100000D03*
%TO.N,GPIO25*%
X116000000Y-105100000D03*
X114200000Y-95600000D03*
%TO.N,GPIO1*%
X106350433Y-93802284D03*
%TO.N,GPIO8*%
X109085909Y-97659429D03*
%TO.N,GPIO0*%
X107210000Y-93700000D03*
%TO.N,GPIO2*%
X106290000Y-94600000D03*
%TO.N,GPIO28_ADC2*%
X117190000Y-94110000D03*
%TO.N,GPIO29_ADC3*%
X116380000Y-93660000D03*
%TO.N,RUN*%
X113700002Y-97100000D03*
%TO.N,SWD*%
X113506599Y-98305824D03*
%TO.N,SWCLK*%
X112706619Y-98300002D03*
%TO.N,QSPI_SS*%
X106500000Y-105200000D03*
X108500000Y-86300000D03*
%TD*%
D15*
%TO.N,GND*%
X115800000Y-82300000D02*
X115800000Y-82200000D01*
X104400000Y-110500000D02*
X107600000Y-110500000D01*
X115800000Y-112200000D02*
X115800000Y-114800000D01*
X115779000Y-93177036D02*
X117156036Y-91800000D01*
X111000000Y-99335441D02*
X111000000Y-96200000D01*
X116300000Y-112600000D02*
X116300000Y-113800000D01*
X110000000Y-112600000D02*
X110100000Y-112500000D01*
X109700000Y-102700000D02*
X109700000Y-105500000D01*
X108000000Y-102700000D02*
X108000000Y-102335441D01*
X110100000Y-108900000D02*
X110400000Y-108600000D01*
X120490000Y-98550000D02*
X120490000Y-98790000D01*
X120490000Y-98550000D02*
X120490000Y-98310000D01*
X115800000Y-82200000D02*
X115900000Y-82100000D01*
X116600000Y-88900000D02*
X117160000Y-89460000D01*
X120490000Y-98550000D02*
X120550000Y-98550000D01*
X117160000Y-89460000D02*
X117160000Y-91796036D01*
X118800000Y-110100000D02*
X116300000Y-112600000D01*
X115779000Y-95679000D02*
X115779000Y-93177036D01*
X117000000Y-107300000D02*
X117000000Y-111000000D01*
X120490000Y-98510000D02*
X121000000Y-98000000D01*
X110100000Y-112500000D02*
X110100000Y-108900000D01*
X109700000Y-105500000D02*
X111700000Y-107500000D01*
X115800000Y-82400000D02*
X115800000Y-82300000D01*
X110000000Y-112800000D02*
X110000000Y-112600000D01*
X108000000Y-102335441D02*
X111000000Y-99335441D01*
X118225735Y-98125735D02*
X115779000Y-95679000D01*
X117000000Y-111000000D02*
X115800000Y-112200000D01*
X117160000Y-91796036D02*
X117156036Y-91800000D01*
X115200000Y-105500000D02*
X117000000Y-107300000D01*
X112800000Y-85400000D02*
X115800000Y-82400000D01*
%TO.N,+3V3*%
X111740000Y-89510000D02*
X112000000Y-89250000D01*
X111740000Y-91609852D02*
X111740000Y-89510000D01*
X112000000Y-91869852D02*
X111740000Y-91609852D01*
%TO.N,+1V1*%
X111754011Y-98300000D02*
X111600000Y-98145989D01*
X111600000Y-98145989D02*
X111600000Y-94199000D01*
X111600000Y-94199000D02*
X111100000Y-93699000D01*
X111101162Y-93697838D02*
X111100000Y-93699000D01*
X113101376Y-93697838D02*
X111101162Y-93697838D01*
%TO.N,VBUS*%
X114900000Y-79600000D02*
X114900000Y-81700000D01*
X110087909Y-97270866D02*
X110087909Y-98074472D01*
X110000000Y-88599000D02*
X110001000Y-88600000D01*
X106924971Y-104775028D02*
X107249942Y-105100000D01*
X106924971Y-101237410D02*
X106924971Y-104775028D01*
X110001000Y-97183957D02*
X110087909Y-97270866D01*
X114900000Y-81700000D02*
X110600000Y-86000000D01*
X110087909Y-98074472D02*
X106924971Y-101237410D01*
X110001000Y-88600000D02*
X110001000Y-97183957D01*
X110600000Y-86700000D02*
X110000000Y-87300000D01*
X107249942Y-105100000D02*
X107400000Y-105100000D01*
X110000000Y-87300000D02*
X110000000Y-88599000D01*
X110600000Y-86000000D02*
X110600000Y-86700000D01*
%TO.N,GPIO25*%
X114050718Y-98000000D02*
X113755542Y-97704824D01*
X114100000Y-98000000D02*
X114050718Y-98000000D01*
X116000000Y-105100000D02*
X116000000Y-99900000D01*
X113404824Y-97704824D02*
X113400000Y-97700000D01*
X113100000Y-97600000D02*
X113100000Y-96700000D01*
X116000000Y-99900000D02*
X114100000Y-98000000D01*
X113755542Y-97704824D02*
X113404824Y-97704824D01*
X113400000Y-97700000D02*
X113200000Y-97700000D01*
X113100000Y-96700000D02*
X114200000Y-95600000D01*
X113200000Y-97700000D02*
X113100000Y-97600000D01*
%TO.N,GPIO1*%
X104773050Y-88565043D02*
X104773050Y-87734957D01*
X105000000Y-92742900D02*
X105000000Y-90754200D01*
X106059384Y-93802284D02*
X105000000Y-92742900D01*
X106350433Y-93802284D02*
X106059384Y-93802284D01*
X105699000Y-86368100D02*
X105699000Y-73599000D01*
X104773050Y-87734957D02*
X105125107Y-87382900D01*
X105501000Y-86931900D02*
X105501000Y-86566100D01*
X104848000Y-88639993D02*
X104773050Y-88565043D01*
X105000000Y-90754200D02*
X104848000Y-90602200D01*
X105125107Y-87307793D02*
X105501000Y-86931900D01*
X105125107Y-87382900D02*
X105125107Y-87307793D01*
X104848000Y-90602200D02*
X104848000Y-88639993D01*
X105699000Y-73599000D02*
X102710000Y-70610000D01*
X105501000Y-86566100D02*
X105699000Y-86368100D01*
%TO.N,GPIO8*%
X109085909Y-97659429D02*
X108459429Y-97659429D01*
X108459429Y-97659429D02*
X104270000Y-93470000D01*
X104270000Y-93470000D02*
X102710000Y-93470000D01*
%TO.N,GPIO0*%
X105249000Y-88473893D02*
X105174050Y-88398943D01*
X105902000Y-87098000D02*
X105902000Y-86732200D01*
X107210000Y-93700000D02*
X106711284Y-93201284D01*
X105174050Y-87901057D02*
X105526107Y-87549000D01*
X105526107Y-87473893D02*
X105902000Y-87098000D01*
X105401000Y-90588100D02*
X105249000Y-90436100D01*
X105174050Y-88398943D02*
X105174050Y-87901057D01*
X105401000Y-92576800D02*
X105401000Y-90588100D01*
X105249000Y-90436100D02*
X105249000Y-88473893D01*
X106711284Y-93201284D02*
X106025484Y-93201284D01*
X105902000Y-86732200D02*
X106100000Y-86534200D01*
X106100000Y-86534200D02*
X106100000Y-73432900D01*
X106025484Y-93201284D02*
X105401000Y-92576800D01*
X105526107Y-87549000D02*
X105526107Y-87473893D01*
X106000000Y-73332900D02*
X106000000Y-71360000D01*
X106000000Y-71360000D02*
X102710000Y-68070000D01*
X106100000Y-73432900D02*
X106000000Y-73332900D01*
%TO.N,GPIO2*%
X104447000Y-90768300D02*
X104447000Y-88806093D01*
X104599000Y-90920300D02*
X104447000Y-90768300D01*
X106290000Y-94600000D02*
X104599000Y-92909000D01*
X105298000Y-76698000D02*
X104290000Y-75690000D01*
X104724107Y-87141693D02*
X105100000Y-86765800D01*
X104724107Y-87216800D02*
X104724107Y-87141693D01*
X105298000Y-86202000D02*
X105298000Y-76698000D01*
X104447000Y-88806093D02*
X104372050Y-88731143D01*
X104599000Y-92909000D02*
X104599000Y-90920300D01*
X104290000Y-75690000D02*
X102710000Y-75690000D01*
X105100000Y-86765800D02*
X105100000Y-86400000D01*
X105100000Y-86400000D02*
X105298000Y-86202000D01*
X104372050Y-88731143D02*
X104372050Y-87568857D01*
X104372050Y-87568857D02*
X104724107Y-87216800D01*
%TO.N,GPIO28_ADC2*%
X117190000Y-94110000D02*
X117770000Y-93530000D01*
X119210000Y-75690000D02*
X120490000Y-75690000D01*
X118200000Y-76700000D02*
X119210000Y-75690000D01*
X118272000Y-93295100D02*
X118272000Y-92962900D01*
X117770000Y-93530000D02*
X118037100Y-93530000D01*
X118201000Y-78633900D02*
X118200000Y-78632900D01*
X118037100Y-93530000D02*
X118272000Y-93295100D01*
X118201000Y-92891900D02*
X118201000Y-78633900D01*
X118272000Y-92962900D02*
X118201000Y-92891900D01*
X118200000Y-78632900D02*
X118200000Y-76700000D01*
%TO.N,GPIO29_ADC3*%
X116911000Y-93129000D02*
X117471000Y-93129000D01*
X116380000Y-93660000D02*
X116911000Y-93129000D01*
X117800000Y-92800000D02*
X117800000Y-73300000D01*
X117800000Y-73300000D02*
X120490000Y-70610000D01*
X117471000Y-93129000D02*
X117800000Y-92800000D01*
%TO.N,RUN*%
X118474678Y-98726735D02*
X117976792Y-98726735D01*
X117650057Y-98400000D02*
X115067100Y-98400000D01*
X119400000Y-96547760D02*
X119400000Y-96600000D01*
X113709148Y-97091330D02*
X113700478Y-97100000D01*
X114216818Y-97599000D02*
X113709148Y-97091330D01*
X119780000Y-94180000D02*
X119780000Y-94712240D01*
X119780000Y-94712240D02*
X119400000Y-95092240D01*
X119339000Y-95533240D02*
X119339000Y-96486760D01*
X114266100Y-97599000D02*
X114216818Y-97599000D01*
X118826735Y-97876792D02*
X118826735Y-98374678D01*
X117976792Y-98726735D02*
X117650057Y-98400000D01*
X119400000Y-96600000D02*
X118700000Y-97300000D01*
X119400000Y-95472240D02*
X119339000Y-95533240D01*
X120490000Y-93470000D02*
X119780000Y-94180000D01*
X119400000Y-95092240D02*
X119400000Y-95472240D01*
X118826735Y-98374678D02*
X118474678Y-98726735D01*
X118700000Y-97750057D02*
X118826735Y-97876792D01*
X119339000Y-96486760D02*
X119400000Y-96547760D01*
X118700000Y-97300000D02*
X118700000Y-97750057D01*
X115067100Y-98400000D02*
X114266100Y-97599000D01*
X113700478Y-97100000D02*
X113700002Y-97100000D01*
%TO.N,SWD*%
X112652081Y-113400000D02*
X114140000Y-114887919D01*
X113502933Y-98309490D02*
X113502933Y-98397067D01*
X110800000Y-112900000D02*
X111300000Y-113400000D01*
X113041468Y-98858532D02*
X113041468Y-98900000D01*
X111300000Y-113400000D02*
X112652081Y-113400000D01*
X112996169Y-98945299D02*
X112996169Y-107103831D01*
X110800000Y-109300000D02*
X110800000Y-112900000D01*
X113041468Y-98900000D02*
X112996169Y-98945299D01*
X114140000Y-114887919D02*
X114140000Y-116090000D01*
X112996169Y-107103831D02*
X110800000Y-109300000D01*
X113502933Y-98397067D02*
X113041468Y-98858532D01*
X113506599Y-98305824D02*
X113502933Y-98309490D01*
%TO.N,SWCLK*%
X112706619Y-98300002D02*
X112355095Y-98651526D01*
X109060000Y-101842541D02*
X109060000Y-116090000D01*
X112251015Y-98651526D02*
X109060000Y-101842541D01*
X112355095Y-98651526D02*
X112251015Y-98651526D01*
%TO.N,QSPI_SS*%
X108834900Y-96000000D02*
X108800000Y-96000000D01*
X108800000Y-96000000D02*
X108000000Y-95200000D01*
X108500000Y-87700000D02*
X108500000Y-86300000D01*
X106500000Y-101095281D02*
X109686909Y-97908372D01*
X109686909Y-97436966D02*
X109600000Y-97350057D01*
X106500000Y-105200000D02*
X106500000Y-101095281D01*
X109686909Y-97908372D02*
X109686909Y-97436966D01*
X109600000Y-96765100D02*
X108834900Y-96000000D01*
X108000000Y-95200000D02*
X108000000Y-88200000D01*
X109600000Y-97350057D02*
X109600000Y-96765100D01*
X108000000Y-88200000D02*
X108500000Y-87700000D01*
%TD*%
%TA.AperFunction,Conductor*%
%TO.N,GND*%
G36*
X104119784Y-93890185D02*
G01*
X104140426Y-93906819D01*
X108138948Y-97905341D01*
X108138949Y-97905342D01*
X108213516Y-97979909D01*
X108304842Y-98032636D01*
X108406702Y-98059929D01*
X108512156Y-98059929D01*
X108585811Y-98059929D01*
X108615251Y-98068573D01*
X108645238Y-98075097D01*
X108650253Y-98078851D01*
X108652850Y-98079614D01*
X108673492Y-98096248D01*
X108715384Y-98138140D01*
X108748869Y-98199463D01*
X108743885Y-98269155D01*
X108715384Y-98313502D01*
X106179522Y-100849365D01*
X106179520Y-100849368D01*
X106126793Y-100940691D01*
X106111048Y-100999455D01*
X106099500Y-101042550D01*
X106099500Y-104699902D01*
X106079815Y-104766941D01*
X106063181Y-104787583D01*
X106019481Y-104831282D01*
X106019475Y-104831290D01*
X105940426Y-104968209D01*
X105940423Y-104968216D01*
X105899500Y-105120943D01*
X105899500Y-105279057D01*
X105940213Y-105430998D01*
X105940423Y-105431783D01*
X105940426Y-105431790D01*
X106019475Y-105568709D01*
X106019479Y-105568714D01*
X106019480Y-105568716D01*
X106131284Y-105680520D01*
X106131286Y-105680521D01*
X106131290Y-105680524D01*
X106214151Y-105728363D01*
X106268216Y-105759577D01*
X106420943Y-105800500D01*
X106420945Y-105800500D01*
X106579055Y-105800500D01*
X106579057Y-105800500D01*
X106731784Y-105759577D01*
X106868716Y-105680520D01*
X106924340Y-105624895D01*
X106985659Y-105591413D01*
X107055351Y-105596397D01*
X107074015Y-105605190D01*
X107168216Y-105659577D01*
X107320943Y-105700500D01*
X107320945Y-105700500D01*
X107479055Y-105700500D01*
X107479057Y-105700500D01*
X107631784Y-105659577D01*
X107768716Y-105580520D01*
X107880520Y-105468716D01*
X107959577Y-105331784D01*
X108000500Y-105179057D01*
X108000500Y-105020943D01*
X107959577Y-104868216D01*
X107938258Y-104831290D01*
X107880524Y-104731290D01*
X107880518Y-104731282D01*
X107768717Y-104619481D01*
X107768709Y-104619475D01*
X107631790Y-104540426D01*
X107631786Y-104540424D01*
X107631784Y-104540423D01*
X107479057Y-104499500D01*
X107479056Y-104499500D01*
X107449471Y-104499500D01*
X107382432Y-104479815D01*
X107336677Y-104427011D01*
X107325471Y-104375500D01*
X107325471Y-101454665D01*
X107345156Y-101387626D01*
X107361790Y-101366984D01*
X108881501Y-99847273D01*
X110408389Y-98320385D01*
X110461116Y-98229060D01*
X110488409Y-98127199D01*
X110488409Y-98021745D01*
X110488409Y-97218139D01*
X110478805Y-97182296D01*
X110477937Y-97179055D01*
X110461117Y-97116280D01*
X110461116Y-97116278D01*
X110418112Y-97041794D01*
X110401500Y-96979795D01*
X110401500Y-94148930D01*
X110421185Y-94081891D01*
X110473989Y-94036136D01*
X110543147Y-94026192D01*
X110606703Y-94055217D01*
X110613387Y-94062314D01*
X110613733Y-94061969D01*
X110619480Y-94067716D01*
X110731284Y-94179520D01*
X110731286Y-94179521D01*
X110731290Y-94179524D01*
X110866196Y-94257411D01*
X110868216Y-94258577D01*
X111020943Y-94299500D01*
X111075500Y-94299500D01*
X111142539Y-94319185D01*
X111188294Y-94371989D01*
X111199500Y-94423500D01*
X111199500Y-98032986D01*
X111195275Y-98065080D01*
X111194435Y-98068213D01*
X111194434Y-98068216D01*
X111153511Y-98220943D01*
X111153511Y-98379057D01*
X111193760Y-98529266D01*
X111194434Y-98531783D01*
X111194437Y-98531790D01*
X111273486Y-98668709D01*
X111273492Y-98668717D01*
X111382780Y-98778005D01*
X111416265Y-98839328D01*
X111411281Y-98909020D01*
X111382780Y-98953367D01*
X108739522Y-101596625D01*
X108739520Y-101596628D01*
X108686793Y-101687951D01*
X108659500Y-101789814D01*
X108659500Y-114815500D01*
X108639815Y-114882539D01*
X108587011Y-114928294D01*
X108535500Y-114939500D01*
X108165143Y-114939500D01*
X108165117Y-114939502D01*
X108140012Y-114942413D01*
X108140008Y-114942415D01*
X108037235Y-114987793D01*
X107957794Y-115067234D01*
X107912415Y-115170006D01*
X107912415Y-115170008D01*
X107909500Y-115195131D01*
X107909500Y-116984856D01*
X107909502Y-116984882D01*
X107912413Y-117009987D01*
X107912415Y-117009991D01*
X107957793Y-117112764D01*
X108032848Y-117187819D01*
X108066333Y-117249142D01*
X108061349Y-117318834D01*
X108019477Y-117374767D01*
X107954013Y-117399184D01*
X107945167Y-117399500D01*
X103566916Y-117399500D01*
X103499877Y-117379815D01*
X103454122Y-117327011D01*
X103444178Y-117257853D01*
X103473203Y-117194297D01*
X103479235Y-117187819D01*
X103510844Y-117156210D01*
X103587553Y-117079501D01*
X103693996Y-116932994D01*
X103776211Y-116771639D01*
X103832171Y-116599409D01*
X103856856Y-116443554D01*
X103860500Y-116420551D01*
X103860500Y-116239448D01*
X103844019Y-116135397D01*
X103832171Y-116060591D01*
X103804191Y-115974476D01*
X103776212Y-115888363D01*
X103776211Y-115888360D01*
X103722523Y-115782993D01*
X103693996Y-115727006D01*
X103636859Y-115648363D01*
X103587558Y-115580505D01*
X103587554Y-115580500D01*
X103459499Y-115452445D01*
X103459494Y-115452441D01*
X103312997Y-115346006D01*
X103312996Y-115346005D01*
X103312994Y-115346004D01*
X103261300Y-115319664D01*
X103151639Y-115263788D01*
X103151636Y-115263787D01*
X102979410Y-115207829D01*
X102819321Y-115182473D01*
X102756186Y-115152544D01*
X102719255Y-115093232D01*
X102720253Y-115023370D01*
X102758863Y-114965137D01*
X102819321Y-114937527D01*
X102889425Y-114926422D01*
X102979409Y-114912171D01*
X103151639Y-114856211D01*
X103312994Y-114773996D01*
X103459501Y-114667553D01*
X103587553Y-114539501D01*
X103693996Y-114392994D01*
X103776211Y-114231639D01*
X103832171Y-114059409D01*
X103846765Y-113967259D01*
X103860500Y-113880551D01*
X103860500Y-113699448D01*
X103844019Y-113595397D01*
X103832171Y-113520591D01*
X103776211Y-113348361D01*
X103776211Y-113348360D01*
X103747740Y-113292484D01*
X103693996Y-113187006D01*
X103631401Y-113100851D01*
X103587558Y-113040505D01*
X103587554Y-113040500D01*
X103459499Y-112912445D01*
X103459494Y-112912441D01*
X103312995Y-112806004D01*
X103181314Y-112738908D01*
X103130519Y-112690934D01*
X103113724Y-112623113D01*
X103136262Y-112556978D01*
X103190977Y-112513527D01*
X103199295Y-112510492D01*
X103228217Y-112501095D01*
X103417554Y-112404622D01*
X103471716Y-112365270D01*
X103471717Y-112365270D01*
X102839408Y-111732962D01*
X102902993Y-111715925D01*
X103017007Y-111650099D01*
X103110099Y-111557007D01*
X103175925Y-111442993D01*
X103192962Y-111379409D01*
X103825270Y-112011717D01*
X103825270Y-112011716D01*
X103864622Y-111957554D01*
X103961095Y-111768217D01*
X104026757Y-111566130D01*
X104026757Y-111566127D01*
X104060000Y-111356246D01*
X104060000Y-111143753D01*
X104026757Y-110933872D01*
X104026757Y-110933869D01*
X103961095Y-110731782D01*
X103864624Y-110542449D01*
X103825270Y-110488282D01*
X103825269Y-110488282D01*
X103192962Y-111120590D01*
X103175925Y-111057007D01*
X103110099Y-110942993D01*
X103017007Y-110849901D01*
X102902993Y-110784075D01*
X102839409Y-110767037D01*
X103471716Y-110134728D01*
X103417550Y-110095375D01*
X103228217Y-109998904D01*
X103199292Y-109989506D01*
X103141616Y-109950068D01*
X103114418Y-109885710D01*
X103126333Y-109816863D01*
X103173577Y-109765388D01*
X103181315Y-109761090D01*
X103312994Y-109693996D01*
X103459501Y-109587553D01*
X103587553Y-109459501D01*
X103693996Y-109312994D01*
X103776211Y-109151639D01*
X103832171Y-108979409D01*
X103846765Y-108887259D01*
X103860500Y-108800551D01*
X103860500Y-108619448D01*
X103843125Y-108509751D01*
X103832171Y-108440591D01*
X103776211Y-108268361D01*
X103776211Y-108268360D01*
X103747740Y-108212484D01*
X103693996Y-108107006D01*
X103631401Y-108020851D01*
X103587558Y-107960505D01*
X103587554Y-107960500D01*
X103459499Y-107832445D01*
X103459494Y-107832441D01*
X103312997Y-107726006D01*
X103312996Y-107726005D01*
X103312994Y-107726004D01*
X103261300Y-107699664D01*
X103151639Y-107643788D01*
X103151636Y-107643787D01*
X102979410Y-107587829D01*
X102819321Y-107562473D01*
X102756186Y-107532544D01*
X102719255Y-107473232D01*
X102720253Y-107403370D01*
X102758863Y-107345137D01*
X102819321Y-107317527D01*
X102889425Y-107306422D01*
X102979409Y-107292171D01*
X103151639Y-107236211D01*
X103312994Y-107153996D01*
X103459501Y-107047553D01*
X103587553Y-106919501D01*
X103693996Y-106772994D01*
X103776211Y-106611639D01*
X103832171Y-106439409D01*
X103846765Y-106347259D01*
X103860500Y-106260551D01*
X103860500Y-106079448D01*
X103844019Y-105975397D01*
X103832171Y-105900591D01*
X103776211Y-105728361D01*
X103776211Y-105728360D01*
X103747740Y-105672484D01*
X103693996Y-105567006D01*
X103631401Y-105480851D01*
X103587558Y-105420505D01*
X103587554Y-105420500D01*
X103459499Y-105292445D01*
X103459494Y-105292441D01*
X103312997Y-105186006D01*
X103312996Y-105186005D01*
X103312994Y-105186004D01*
X103261300Y-105159664D01*
X103151639Y-105103788D01*
X103151636Y-105103787D01*
X102979410Y-105047829D01*
X102819321Y-105022473D01*
X102756186Y-104992544D01*
X102719255Y-104933232D01*
X102720253Y-104863370D01*
X102758863Y-104805137D01*
X102819321Y-104777527D01*
X102889425Y-104766422D01*
X102979409Y-104752171D01*
X103151639Y-104696211D01*
X103312994Y-104613996D01*
X103459501Y-104507553D01*
X103587553Y-104379501D01*
X103693996Y-104232994D01*
X103776211Y-104071639D01*
X103832171Y-103899409D01*
X103846765Y-103807259D01*
X103860500Y-103720551D01*
X103860500Y-103539448D01*
X103844019Y-103435397D01*
X103832171Y-103360591D01*
X103776211Y-103188361D01*
X103776211Y-103188360D01*
X103747740Y-103132484D01*
X103693996Y-103027006D01*
X103631401Y-102940851D01*
X103587558Y-102880505D01*
X103587554Y-102880500D01*
X103459499Y-102752445D01*
X103459494Y-102752441D01*
X103312997Y-102646006D01*
X103312996Y-102646005D01*
X103312994Y-102646004D01*
X103261300Y-102619664D01*
X103151639Y-102563788D01*
X103151636Y-102563787D01*
X102979410Y-102507829D01*
X102819321Y-102482473D01*
X102756186Y-102452544D01*
X102719255Y-102393232D01*
X102720253Y-102323370D01*
X102758863Y-102265137D01*
X102819321Y-102237527D01*
X102889425Y-102226422D01*
X102979409Y-102212171D01*
X103151639Y-102156211D01*
X103312994Y-102073996D01*
X103459501Y-101967553D01*
X103587553Y-101839501D01*
X103693996Y-101692994D01*
X103776211Y-101531639D01*
X103832171Y-101359409D01*
X103846765Y-101267259D01*
X103860500Y-101180551D01*
X103860500Y-100999448D01*
X103844019Y-100895397D01*
X103832171Y-100820591D01*
X103776211Y-100648361D01*
X103776211Y-100648360D01*
X103747740Y-100592484D01*
X103693996Y-100487006D01*
X103631401Y-100400851D01*
X103587558Y-100340505D01*
X103587554Y-100340500D01*
X103459499Y-100212445D01*
X103459494Y-100212441D01*
X103312995Y-100106004D01*
X103181314Y-100038908D01*
X103130519Y-99990934D01*
X103113724Y-99923113D01*
X103136262Y-99856978D01*
X103190977Y-99813527D01*
X103199295Y-99810492D01*
X103228217Y-99801095D01*
X103417554Y-99704622D01*
X103471716Y-99665270D01*
X103471717Y-99665270D01*
X102839408Y-99032962D01*
X102902993Y-99015925D01*
X103017007Y-98950099D01*
X103110099Y-98857007D01*
X103175925Y-98742993D01*
X103192962Y-98679409D01*
X103825270Y-99311717D01*
X103825270Y-99311716D01*
X103864622Y-99257554D01*
X103961095Y-99068217D01*
X104026757Y-98866130D01*
X104026757Y-98866127D01*
X104060000Y-98656246D01*
X104060000Y-98443753D01*
X104026757Y-98233872D01*
X104026757Y-98233869D01*
X103961095Y-98031782D01*
X103864624Y-97842449D01*
X103825270Y-97788282D01*
X103825269Y-97788282D01*
X103192962Y-98420590D01*
X103175925Y-98357007D01*
X103110099Y-98242993D01*
X103017007Y-98149901D01*
X102902993Y-98084075D01*
X102839409Y-98067037D01*
X103471716Y-97434728D01*
X103417550Y-97395375D01*
X103228217Y-97298904D01*
X103199292Y-97289506D01*
X103141616Y-97250068D01*
X103114418Y-97185710D01*
X103126333Y-97116863D01*
X103173577Y-97065388D01*
X103181315Y-97061090D01*
X103312994Y-96993996D01*
X103459501Y-96887553D01*
X103587553Y-96759501D01*
X103693996Y-96612994D01*
X103776211Y-96451639D01*
X103832171Y-96279409D01*
X103846765Y-96187259D01*
X103860500Y-96100551D01*
X103860500Y-95919448D01*
X103844019Y-95815397D01*
X103832171Y-95740591D01*
X103796838Y-95631844D01*
X103776212Y-95568363D01*
X103776211Y-95568360D01*
X103713820Y-95445913D01*
X103693996Y-95407006D01*
X103665814Y-95368216D01*
X103587558Y-95260505D01*
X103587554Y-95260500D01*
X103459499Y-95132445D01*
X103459494Y-95132441D01*
X103312997Y-95026006D01*
X103312996Y-95026005D01*
X103312994Y-95026004D01*
X103260977Y-94999500D01*
X103151639Y-94943788D01*
X103151636Y-94943787D01*
X102979410Y-94887829D01*
X102819321Y-94862473D01*
X102756186Y-94832544D01*
X102719255Y-94773232D01*
X102720253Y-94703370D01*
X102758863Y-94645137D01*
X102819321Y-94617527D01*
X102889425Y-94606422D01*
X102979409Y-94592171D01*
X103151639Y-94536211D01*
X103312994Y-94453996D01*
X103459501Y-94347553D01*
X103587553Y-94219501D01*
X103693996Y-94072994D01*
X103762675Y-93938205D01*
X103773124Y-93927140D01*
X103779447Y-93913297D01*
X103796627Y-93902255D01*
X103810650Y-93887409D01*
X103826329Y-93883167D01*
X103838225Y-93875523D01*
X103873160Y-93870500D01*
X104052745Y-93870500D01*
X104119784Y-93890185D01*
G37*
%TD.AperFunction*%
%TA.AperFunction,Conductor*%
G36*
X111134075Y-116282993D02*
G01*
X111199901Y-116397007D01*
X111292993Y-116490099D01*
X111407007Y-116555925D01*
X111470590Y-116572962D01*
X110838282Y-117205269D01*
X110842768Y-117262259D01*
X110842264Y-117262298D01*
X110845515Y-117300119D01*
X110812912Y-117361916D01*
X110752075Y-117396276D01*
X110723983Y-117399500D01*
X110174833Y-117399500D01*
X110107794Y-117379815D01*
X110062039Y-117327011D01*
X110052095Y-117257853D01*
X110081120Y-117194297D01*
X110087152Y-117187819D01*
X110118761Y-117156210D01*
X110162206Y-117112765D01*
X110207585Y-117009991D01*
X110210500Y-116984865D01*
X110210499Y-116853076D01*
X110230183Y-116786040D01*
X110282987Y-116740285D01*
X110352145Y-116730341D01*
X110415701Y-116759365D01*
X110442495Y-116793600D01*
X110442829Y-116793396D01*
X110444607Y-116796297D01*
X110444977Y-116796770D01*
X110445373Y-116797547D01*
X110484728Y-116851716D01*
X111117037Y-116219408D01*
X111134075Y-116282993D01*
G37*
%TD.AperFunction*%
%TA.AperFunction,Conductor*%
G36*
X112715270Y-116851717D02*
G01*
X112715270Y-116851716D01*
X112754622Y-116797554D01*
X112851095Y-116608217D01*
X112860492Y-116579295D01*
X112899928Y-116521618D01*
X112964286Y-116494419D01*
X113033133Y-116506331D01*
X113084610Y-116553574D01*
X113088908Y-116561314D01*
X113156004Y-116692995D01*
X113262441Y-116839494D01*
X113262445Y-116839499D01*
X113390500Y-116967554D01*
X113390505Y-116967558D01*
X113518287Y-117060396D01*
X113537006Y-117073996D01*
X113698361Y-117156211D01*
X113702538Y-117157568D01*
X113760214Y-117197005D01*
X113787413Y-117261363D01*
X113775500Y-117330209D01*
X113728257Y-117381686D01*
X113664222Y-117399500D01*
X112476016Y-117399500D01*
X112408977Y-117379815D01*
X112363222Y-117327011D01*
X112353278Y-117257853D01*
X112358474Y-117246474D01*
X112361717Y-117205270D01*
X111729408Y-116572962D01*
X111792993Y-116555925D01*
X111907007Y-116490099D01*
X112000099Y-116397007D01*
X112065925Y-116282993D01*
X112082962Y-116219408D01*
X112715270Y-116851717D01*
G37*
%TD.AperFunction*%
%TA.AperFunction,Conductor*%
G36*
X114171254Y-98638888D02*
G01*
X114182289Y-98648682D01*
X115563181Y-100029573D01*
X115596666Y-100090896D01*
X115599500Y-100117254D01*
X115599500Y-104599902D01*
X115579815Y-104666941D01*
X115563181Y-104687583D01*
X115519481Y-104731282D01*
X115519475Y-104731290D01*
X115440426Y-104868209D01*
X115440423Y-104868216D01*
X115399500Y-105020943D01*
X115399500Y-105179057D01*
X115401362Y-105186004D01*
X115440423Y-105331783D01*
X115440426Y-105331790D01*
X115519475Y-105468709D01*
X115519479Y-105468714D01*
X115519480Y-105468716D01*
X115631284Y-105580520D01*
X115631286Y-105580521D01*
X115631290Y-105580524D01*
X115768209Y-105659573D01*
X115768216Y-105659577D01*
X115920943Y-105700500D01*
X115920945Y-105700500D01*
X116079055Y-105700500D01*
X116079057Y-105700500D01*
X116231784Y-105659577D01*
X116368716Y-105580520D01*
X116480520Y-105468716D01*
X116559577Y-105331784D01*
X116600500Y-105179057D01*
X116600500Y-105020943D01*
X116559577Y-104868216D01*
X116538258Y-104831290D01*
X116480524Y-104731290D01*
X116480518Y-104731282D01*
X116436819Y-104687583D01*
X116403334Y-104626260D01*
X116400500Y-104599902D01*
X116400500Y-99847275D01*
X116400500Y-99847273D01*
X116373207Y-99745413D01*
X116373207Y-99745412D01*
X116346843Y-99699750D01*
X116320480Y-99654087D01*
X116245913Y-99579520D01*
X116245910Y-99579518D01*
X115678573Y-99012181D01*
X115645088Y-98950858D01*
X115650072Y-98881166D01*
X115691944Y-98825233D01*
X115757408Y-98800816D01*
X115766254Y-98800500D01*
X117432802Y-98800500D01*
X117499841Y-98820185D01*
X117520483Y-98836819D01*
X117730879Y-99047215D01*
X117822204Y-99099942D01*
X117924065Y-99127235D01*
X117924067Y-99127235D01*
X118527403Y-99127235D01*
X118527405Y-99127235D01*
X118629266Y-99099942D01*
X118720591Y-99047215D01*
X118964105Y-98803700D01*
X119025423Y-98770218D01*
X119095115Y-98775202D01*
X119151049Y-98817073D01*
X119172356Y-98862439D01*
X119173240Y-98866123D01*
X119238904Y-99068217D01*
X119335375Y-99257550D01*
X119374728Y-99311716D01*
X120007037Y-98679408D01*
X120024075Y-98742993D01*
X120089901Y-98857007D01*
X120182993Y-98950099D01*
X120297007Y-99015925D01*
X120360590Y-99032962D01*
X119728282Y-99665269D01*
X119728282Y-99665270D01*
X119782449Y-99704624D01*
X119971780Y-99801094D01*
X120000705Y-99810492D01*
X120058381Y-99849929D01*
X120085580Y-99914287D01*
X120073667Y-99983134D01*
X120026424Y-100034610D01*
X120018685Y-100038908D01*
X119887004Y-100106004D01*
X119740505Y-100212441D01*
X119740500Y-100212445D01*
X119612445Y-100340500D01*
X119612441Y-100340505D01*
X119506006Y-100487002D01*
X119423788Y-100648360D01*
X119423787Y-100648363D01*
X119367829Y-100820589D01*
X119339500Y-100999448D01*
X119339500Y-101180551D01*
X119367829Y-101359410D01*
X119423787Y-101531636D01*
X119423788Y-101531639D01*
X119479664Y-101641300D01*
X119503435Y-101687953D01*
X119506006Y-101692997D01*
X119612441Y-101839494D01*
X119612445Y-101839499D01*
X119740500Y-101967554D01*
X119740505Y-101967558D01*
X119867459Y-102059794D01*
X119887006Y-102073996D01*
X119992484Y-102127740D01*
X120048360Y-102156211D01*
X120048363Y-102156212D01*
X120134476Y-102184191D01*
X120220591Y-102212171D01*
X120293639Y-102223740D01*
X120380678Y-102237527D01*
X120443813Y-102267456D01*
X120480744Y-102326768D01*
X120479746Y-102396631D01*
X120441136Y-102454863D01*
X120380678Y-102482473D01*
X120220589Y-102507829D01*
X120048363Y-102563787D01*
X120048360Y-102563788D01*
X119887002Y-102646006D01*
X119740505Y-102752441D01*
X119740500Y-102752445D01*
X119612445Y-102880500D01*
X119612441Y-102880505D01*
X119506006Y-103027002D01*
X119423788Y-103188360D01*
X119423787Y-103188363D01*
X119367829Y-103360589D01*
X119339500Y-103539448D01*
X119339500Y-103720551D01*
X119367829Y-103899410D01*
X119423787Y-104071636D01*
X119423788Y-104071639D01*
X119506006Y-104232997D01*
X119612441Y-104379494D01*
X119612445Y-104379499D01*
X119740500Y-104507554D01*
X119740505Y-104507558D01*
X119867607Y-104599902D01*
X119887006Y-104613996D01*
X119990916Y-104666941D01*
X120048360Y-104696211D01*
X120048363Y-104696212D01*
X120134476Y-104724191D01*
X120220591Y-104752171D01*
X120293639Y-104763740D01*
X120380678Y-104777527D01*
X120443813Y-104807456D01*
X120480744Y-104866768D01*
X120479746Y-104936631D01*
X120441136Y-104994863D01*
X120380678Y-105022473D01*
X120220589Y-105047829D01*
X120048363Y-105103787D01*
X120048360Y-105103788D01*
X119887002Y-105186006D01*
X119740505Y-105292441D01*
X119740500Y-105292445D01*
X119612445Y-105420500D01*
X119612441Y-105420505D01*
X119506006Y-105567002D01*
X119423788Y-105728360D01*
X119423787Y-105728363D01*
X119367829Y-105900589D01*
X119339500Y-106079448D01*
X119339500Y-106260551D01*
X119367829Y-106439410D01*
X119423787Y-106611636D01*
X119423788Y-106611639D01*
X119506006Y-106772997D01*
X119612441Y-106919494D01*
X119612445Y-106919499D01*
X119740500Y-107047554D01*
X119740505Y-107047558D01*
X119868287Y-107140396D01*
X119887006Y-107153996D01*
X119992484Y-107207740D01*
X120048360Y-107236211D01*
X120048363Y-107236212D01*
X120116711Y-107258419D01*
X120220591Y-107292171D01*
X120293639Y-107303740D01*
X120380678Y-107317527D01*
X120443813Y-107347456D01*
X120480744Y-107406768D01*
X120479746Y-107476631D01*
X120441136Y-107534863D01*
X120380678Y-107562473D01*
X120220589Y-107587829D01*
X120048363Y-107643787D01*
X120048360Y-107643788D01*
X119887002Y-107726006D01*
X119740505Y-107832441D01*
X119740500Y-107832445D01*
X119612445Y-107960500D01*
X119612441Y-107960505D01*
X119506006Y-108107002D01*
X119423788Y-108268360D01*
X119423787Y-108268363D01*
X119367829Y-108440589D01*
X119339500Y-108619448D01*
X119339500Y-108800551D01*
X119367829Y-108979410D01*
X119423787Y-109151636D01*
X119423788Y-109151639D01*
X119506006Y-109312997D01*
X119612441Y-109459494D01*
X119612445Y-109459499D01*
X119740500Y-109587554D01*
X119740505Y-109587558D01*
X119868287Y-109680396D01*
X119887006Y-109693996D01*
X119988780Y-109745853D01*
X120018684Y-109761090D01*
X120069480Y-109809065D01*
X120086275Y-109876886D01*
X120063737Y-109943021D01*
X120009022Y-109986472D01*
X120000708Y-109989506D01*
X119971781Y-109998905D01*
X119782439Y-110095380D01*
X119728282Y-110134727D01*
X119728282Y-110134728D01*
X120360591Y-110767037D01*
X120297007Y-110784075D01*
X120182993Y-110849901D01*
X120089901Y-110942993D01*
X120024075Y-111057007D01*
X120007037Y-111120591D01*
X119374728Y-110488282D01*
X119374727Y-110488282D01*
X119335380Y-110542439D01*
X119238904Y-110731782D01*
X119173242Y-110933869D01*
X119173242Y-110933872D01*
X119140000Y-111143753D01*
X119140000Y-111356246D01*
X119173242Y-111566127D01*
X119173242Y-111566130D01*
X119238904Y-111768217D01*
X119335375Y-111957550D01*
X119374728Y-112011716D01*
X120007037Y-111379408D01*
X120024075Y-111442993D01*
X120089901Y-111557007D01*
X120182993Y-111650099D01*
X120297007Y-111715925D01*
X120360590Y-111732962D01*
X119728282Y-112365269D01*
X119728282Y-112365270D01*
X119782449Y-112404624D01*
X119971780Y-112501094D01*
X120000705Y-112510492D01*
X120058381Y-112549929D01*
X120085580Y-112614287D01*
X120073667Y-112683134D01*
X120026424Y-112734610D01*
X120018685Y-112738908D01*
X119887004Y-112806004D01*
X119740505Y-112912441D01*
X119740500Y-112912445D01*
X119612445Y-113040500D01*
X119612441Y-113040505D01*
X119506006Y-113187002D01*
X119423788Y-113348360D01*
X119423787Y-113348363D01*
X119367829Y-113520589D01*
X119339500Y-113699448D01*
X119339500Y-113880551D01*
X119367829Y-114059410D01*
X119423787Y-114231636D01*
X119423788Y-114231639D01*
X119506006Y-114392997D01*
X119612441Y-114539494D01*
X119612445Y-114539499D01*
X119740500Y-114667554D01*
X119740505Y-114667558D01*
X119840214Y-114740000D01*
X119887006Y-114773996D01*
X119968462Y-114815500D01*
X120048360Y-114856211D01*
X120048363Y-114856212D01*
X120129392Y-114882539D01*
X120220591Y-114912171D01*
X120293639Y-114923740D01*
X120380678Y-114937527D01*
X120443813Y-114967456D01*
X120480744Y-115026768D01*
X120479746Y-115096631D01*
X120441136Y-115154863D01*
X120380678Y-115182473D01*
X120220589Y-115207829D01*
X120048363Y-115263787D01*
X120048360Y-115263788D01*
X119887002Y-115346006D01*
X119740505Y-115452441D01*
X119740500Y-115452445D01*
X119612445Y-115580500D01*
X119612441Y-115580505D01*
X119506006Y-115727002D01*
X119423788Y-115888360D01*
X119423787Y-115888363D01*
X119367829Y-116060589D01*
X119339500Y-116239448D01*
X119339500Y-116420551D01*
X119367829Y-116599410D01*
X119423787Y-116771636D01*
X119423788Y-116771639D01*
X119506006Y-116932997D01*
X119612441Y-117079494D01*
X119612445Y-117079499D01*
X119720765Y-117187819D01*
X119754250Y-117249142D01*
X119749266Y-117318834D01*
X119707394Y-117374767D01*
X119641930Y-117399184D01*
X119633084Y-117399500D01*
X114615778Y-117399500D01*
X114548739Y-117379815D01*
X114502984Y-117327011D01*
X114493040Y-117257853D01*
X114522065Y-117194297D01*
X114577461Y-117157568D01*
X114581639Y-117156211D01*
X114742994Y-117073996D01*
X114889501Y-116967553D01*
X115017553Y-116839501D01*
X115123996Y-116692994D01*
X115206211Y-116531639D01*
X115262171Y-116359409D01*
X115281171Y-116239448D01*
X115290500Y-116180551D01*
X115290500Y-115999448D01*
X115272905Y-115888361D01*
X115262171Y-115820591D01*
X115206211Y-115648361D01*
X115206211Y-115648360D01*
X115167191Y-115571780D01*
X115123996Y-115487006D01*
X115098883Y-115452441D01*
X115017558Y-115340505D01*
X115017554Y-115340500D01*
X114889499Y-115212445D01*
X114889494Y-115212441D01*
X114742997Y-115106006D01*
X114742996Y-115106005D01*
X114742994Y-115106004D01*
X114608205Y-115037325D01*
X114557409Y-114989350D01*
X114540500Y-114926840D01*
X114540500Y-114835194D01*
X114540500Y-114835192D01*
X114513207Y-114733332D01*
X114513207Y-114733331D01*
X114460480Y-114642006D01*
X112897994Y-113079520D01*
X112897991Y-113079518D01*
X112891545Y-113074572D01*
X112893138Y-113072495D01*
X112853876Y-113031319D01*
X112840654Y-112962712D01*
X112866622Y-112897847D01*
X112923536Y-112857319D01*
X112964092Y-112850499D01*
X114120307Y-112850499D01*
X114128588Y-112850499D01*
X114128608Y-112850505D01*
X114160763Y-112850502D01*
X114161009Y-112850574D01*
X114223302Y-112867433D01*
X114251130Y-112883691D01*
X114251133Y-112883691D01*
X114257277Y-112887281D01*
X114258944Y-112888112D01*
X114273078Y-112896349D01*
X114444800Y-112958420D01*
X114624921Y-112988381D01*
X114801796Y-112985337D01*
X114807491Y-112985240D01*
X114986464Y-112949105D01*
X114986466Y-112949104D01*
X114986473Y-112949103D01*
X115155958Y-112881162D01*
X115310345Y-112783664D01*
X115444531Y-112659828D01*
X115554083Y-112513748D01*
X115635382Y-112350250D01*
X115685741Y-112174736D01*
X115703496Y-111993006D01*
X115688060Y-111811064D01*
X115639944Y-111634922D01*
X115632734Y-111619899D01*
X115632690Y-111619806D01*
X115629074Y-111612256D01*
X115629019Y-111611960D01*
X115612775Y-111578223D01*
X115612774Y-111578220D01*
X115612663Y-111577988D01*
X115612518Y-111577100D01*
X115600499Y-111524429D01*
X115600499Y-110175577D01*
X115603154Y-110163908D01*
X115602120Y-110155592D01*
X115612708Y-110121924D01*
X115614036Y-110119157D01*
X115614105Y-110119012D01*
X115629019Y-110088040D01*
X115629019Y-110088037D01*
X115632318Y-110081187D01*
X115632630Y-110080411D01*
X115639981Y-110065094D01*
X115688100Y-109888945D01*
X115703537Y-109706996D01*
X115685781Y-109525258D01*
X115635421Y-109349737D01*
X115584471Y-109247273D01*
X115554121Y-109186235D01*
X115523506Y-109145412D01*
X115444562Y-109040145D01*
X115444561Y-109040144D01*
X115444558Y-109040140D01*
X115310376Y-108916309D01*
X115310372Y-108916306D01*
X115310371Y-108916305D01*
X115155978Y-108818802D01*
X115155976Y-108818801D01*
X114986488Y-108750858D01*
X114986478Y-108750856D01*
X114807493Y-108714718D01*
X114807500Y-108714718D01*
X114635795Y-108711765D01*
X114624919Y-108711578D01*
X114624918Y-108711578D01*
X114624915Y-108711578D01*
X114444797Y-108741538D01*
X114444784Y-108741541D01*
X114273063Y-108803613D01*
X114258548Y-108812070D01*
X114258460Y-108812121D01*
X114251376Y-108816239D01*
X114251130Y-108816308D01*
X114223608Y-108832386D01*
X114223087Y-108832690D01*
X114220371Y-108833357D01*
X114160746Y-108849495D01*
X114120513Y-108849492D01*
X114120391Y-108849500D01*
X112639263Y-108849500D01*
X112623694Y-108845312D01*
X112609794Y-108845947D01*
X112577524Y-108832892D01*
X112577054Y-108832766D01*
X112576769Y-108832600D01*
X112548951Y-108816342D01*
X112548540Y-108816229D01*
X112541320Y-108812042D01*
X112541286Y-108812006D01*
X112541095Y-108811911D01*
X112526923Y-108803652D01*
X112526918Y-108803649D01*
X112355202Y-108741580D01*
X112355196Y-108741578D01*
X112223974Y-108719751D01*
X112161073Y-108689333D01*
X112124603Y-108629737D01*
X112126142Y-108559884D01*
X112156638Y-108509753D01*
X113316649Y-107349744D01*
X113369376Y-107258419D01*
X113396669Y-107156558D01*
X113396669Y-107051104D01*
X113396669Y-99121086D01*
X113405313Y-99091645D01*
X113411837Y-99061659D01*
X113415591Y-99056643D01*
X113416354Y-99054047D01*
X113432988Y-99033405D01*
X113527210Y-98939183D01*
X113582798Y-98907089D01*
X113585653Y-98906324D01*
X113585656Y-98906324D01*
X113738383Y-98865401D01*
X113875315Y-98786344D01*
X113987119Y-98674540D01*
X113987218Y-98674367D01*
X113987339Y-98674251D01*
X113992069Y-98668089D01*
X113993029Y-98668826D01*
X114037781Y-98626151D01*
X114106387Y-98612924D01*
X114171254Y-98638888D01*
G37*
%TD.AperFunction*%
%TA.AperFunction,Conductor*%
G36*
X112515003Y-99056443D02*
G01*
X112570936Y-99098315D01*
X112595353Y-99163779D01*
X112595669Y-99172625D01*
X112595669Y-106886576D01*
X112575984Y-106953615D01*
X112559350Y-106974257D01*
X110479522Y-109054084D01*
X110479518Y-109054090D01*
X110426793Y-109145411D01*
X110425125Y-109151639D01*
X110399500Y-109247273D01*
X110399500Y-112847273D01*
X110399500Y-112952727D01*
X110406302Y-112978113D01*
X110426793Y-113054589D01*
X110441189Y-113079522D01*
X110479520Y-113145913D01*
X110979518Y-113645910D01*
X110979520Y-113645913D01*
X111054087Y-113720480D01*
X111099750Y-113746843D01*
X111145412Y-113773207D01*
X111247273Y-113800500D01*
X112434826Y-113800500D01*
X112501865Y-113820185D01*
X112522507Y-113836819D01*
X113585042Y-114899354D01*
X113618527Y-114960677D01*
X113613543Y-115030369D01*
X113571671Y-115086302D01*
X113553658Y-115097519D01*
X113537002Y-115106005D01*
X113390505Y-115212441D01*
X113390500Y-115212445D01*
X113262445Y-115340500D01*
X113262441Y-115340505D01*
X113156004Y-115487004D01*
X113088908Y-115618685D01*
X113040933Y-115669480D01*
X112973112Y-115686275D01*
X112906977Y-115663737D01*
X112863527Y-115609021D01*
X112860492Y-115600705D01*
X112851094Y-115571780D01*
X112754624Y-115382449D01*
X112715270Y-115328282D01*
X112715269Y-115328282D01*
X112082962Y-115960590D01*
X112065925Y-115897007D01*
X112000099Y-115782993D01*
X111907007Y-115689901D01*
X111792993Y-115624075D01*
X111729409Y-115607037D01*
X112361716Y-114974728D01*
X112307550Y-114935375D01*
X112118217Y-114838904D01*
X111916129Y-114773242D01*
X111706246Y-114740000D01*
X111493754Y-114740000D01*
X111283872Y-114773242D01*
X111283869Y-114773242D01*
X111081782Y-114838904D01*
X110892439Y-114935380D01*
X110838282Y-114974727D01*
X110838282Y-114974728D01*
X111470591Y-115607037D01*
X111407007Y-115624075D01*
X111292993Y-115689901D01*
X111199901Y-115782993D01*
X111134075Y-115897007D01*
X111117037Y-115960591D01*
X110484728Y-115328282D01*
X110484727Y-115328282D01*
X110445380Y-115382440D01*
X110445377Y-115382445D01*
X110444981Y-115383223D01*
X110444752Y-115383464D01*
X110442838Y-115386590D01*
X110442180Y-115386187D01*
X110397004Y-115434017D01*
X110329183Y-115450809D01*
X110263049Y-115428268D01*
X110219600Y-115373551D01*
X110210499Y-115326923D01*
X110210499Y-115195143D01*
X110210499Y-115195136D01*
X110210497Y-115195117D01*
X110207586Y-115170012D01*
X110207585Y-115170011D01*
X110207585Y-115170009D01*
X110162206Y-115067235D01*
X110082765Y-114987794D01*
X110082763Y-114987793D01*
X109979992Y-114942415D01*
X109954868Y-114939500D01*
X109954865Y-114939500D01*
X109584500Y-114939500D01*
X109517461Y-114919815D01*
X109471706Y-114867011D01*
X109460500Y-114815500D01*
X109460500Y-102059794D01*
X109480185Y-101992755D01*
X109496814Y-101972118D01*
X112383988Y-99084943D01*
X112445311Y-99051459D01*
X112515003Y-99056443D01*
G37*
%TD.AperFunction*%
%TA.AperFunction,Conductor*%
G36*
X121563181Y-111969627D02*
G01*
X121596666Y-112030950D01*
X121599500Y-112057308D01*
X121599500Y-112978113D01*
X121579815Y-113045152D01*
X121527011Y-113090907D01*
X121457853Y-113100851D01*
X121394297Y-113071826D01*
X121375182Y-113050998D01*
X121367558Y-113040505D01*
X121367554Y-113040500D01*
X121239499Y-112912445D01*
X121239494Y-112912441D01*
X121092995Y-112806004D01*
X120961314Y-112738908D01*
X120910519Y-112690934D01*
X120893724Y-112623113D01*
X120916262Y-112556978D01*
X120970977Y-112513527D01*
X120979295Y-112510492D01*
X121008217Y-112501095D01*
X121197554Y-112404622D01*
X121251716Y-112365270D01*
X121251717Y-112365270D01*
X120619408Y-111732962D01*
X120682993Y-111715925D01*
X120797007Y-111650099D01*
X120890099Y-111557007D01*
X120955925Y-111442993D01*
X120972962Y-111379408D01*
X121563181Y-111969627D01*
G37*
%TD.AperFunction*%
%TA.AperFunction,Conductor*%
G36*
X102244075Y-111442993D02*
G01*
X102309901Y-111557007D01*
X102402993Y-111650099D01*
X102517007Y-111715925D01*
X102580590Y-111732962D01*
X101948282Y-112365269D01*
X101948282Y-112365270D01*
X102002449Y-112404624D01*
X102191780Y-112501094D01*
X102220705Y-112510492D01*
X102278381Y-112549929D01*
X102305580Y-112614287D01*
X102293667Y-112683134D01*
X102246424Y-112734610D01*
X102238685Y-112738908D01*
X102107004Y-112806004D01*
X101960505Y-112912441D01*
X101960500Y-112912445D01*
X101832445Y-113040500D01*
X101832441Y-113040505D01*
X101824818Y-113050998D01*
X101769488Y-113093664D01*
X101699875Y-113099643D01*
X101638080Y-113067037D01*
X101603723Y-113006199D01*
X101600500Y-112978113D01*
X101600500Y-112057308D01*
X101620185Y-111990269D01*
X101636819Y-111969627D01*
X102227037Y-111379408D01*
X102244075Y-111442993D01*
G37*
%TD.AperFunction*%
%TA.AperFunction,Conductor*%
G36*
X101805703Y-109428173D02*
G01*
X101824821Y-109449004D01*
X101832446Y-109459500D01*
X101960500Y-109587554D01*
X101960505Y-109587558D01*
X102088287Y-109680396D01*
X102107006Y-109693996D01*
X102208780Y-109745853D01*
X102238684Y-109761090D01*
X102289480Y-109809065D01*
X102306275Y-109876886D01*
X102283737Y-109943021D01*
X102229022Y-109986472D01*
X102220708Y-109989506D01*
X102191781Y-109998905D01*
X102002439Y-110095380D01*
X101948282Y-110134727D01*
X101948282Y-110134728D01*
X102580591Y-110767037D01*
X102517007Y-110784075D01*
X102402993Y-110849901D01*
X102309901Y-110942993D01*
X102244075Y-111057007D01*
X102227037Y-111120591D01*
X101636819Y-110530373D01*
X101603334Y-110469050D01*
X101600500Y-110442692D01*
X101600500Y-109521886D01*
X101620185Y-109454847D01*
X101672989Y-109409092D01*
X101742147Y-109399148D01*
X101805703Y-109428173D01*
G37*
%TD.AperFunction*%
%TA.AperFunction,Conductor*%
G36*
X121561917Y-109432959D02*
G01*
X121596277Y-109493796D01*
X121599500Y-109521886D01*
X121599500Y-110442692D01*
X121579815Y-110509731D01*
X121563181Y-110530373D01*
X120972962Y-111120591D01*
X120955925Y-111057007D01*
X120890099Y-110942993D01*
X120797007Y-110849901D01*
X120682993Y-110784075D01*
X120619409Y-110767037D01*
X121251716Y-110134728D01*
X121197550Y-110095375D01*
X121008217Y-109998904D01*
X120979292Y-109989506D01*
X120921616Y-109950068D01*
X120894418Y-109885710D01*
X120906333Y-109816863D01*
X120953577Y-109765388D01*
X120961315Y-109761090D01*
X121092994Y-109693996D01*
X121239501Y-109587553D01*
X121367553Y-109459501D01*
X121375180Y-109449003D01*
X121430508Y-109406336D01*
X121500121Y-109400355D01*
X121561917Y-109432959D01*
G37*
%TD.AperFunction*%
%TA.AperFunction,Conductor*%
G36*
X121563181Y-99269627D02*
G01*
X121596666Y-99330950D01*
X121599500Y-99357308D01*
X121599500Y-100278113D01*
X121579815Y-100345152D01*
X121527011Y-100390907D01*
X121457853Y-100400851D01*
X121394297Y-100371826D01*
X121375182Y-100350998D01*
X121367558Y-100340505D01*
X121367554Y-100340500D01*
X121239499Y-100212445D01*
X121239494Y-100212441D01*
X121092995Y-100106004D01*
X120961314Y-100038908D01*
X120910519Y-99990934D01*
X120893724Y-99923113D01*
X120916262Y-99856978D01*
X120970977Y-99813527D01*
X120979295Y-99810492D01*
X121008217Y-99801095D01*
X121197554Y-99704622D01*
X121251716Y-99665270D01*
X121251717Y-99665270D01*
X120619408Y-99032962D01*
X120682993Y-99015925D01*
X120797007Y-98950099D01*
X120890099Y-98857007D01*
X120955925Y-98742993D01*
X120972962Y-98679408D01*
X121563181Y-99269627D01*
G37*
%TD.AperFunction*%
%TA.AperFunction,Conductor*%
G36*
X102244075Y-98742993D02*
G01*
X102309901Y-98857007D01*
X102402993Y-98950099D01*
X102517007Y-99015925D01*
X102580590Y-99032962D01*
X101948282Y-99665269D01*
X101948282Y-99665270D01*
X102002449Y-99704624D01*
X102191780Y-99801094D01*
X102220705Y-99810492D01*
X102278381Y-99849929D01*
X102305580Y-99914287D01*
X102293667Y-99983134D01*
X102246424Y-100034610D01*
X102238685Y-100038908D01*
X102107004Y-100106004D01*
X101960505Y-100212441D01*
X101960500Y-100212445D01*
X101832445Y-100340500D01*
X101832441Y-100340505D01*
X101824818Y-100350998D01*
X101769488Y-100393664D01*
X101699875Y-100399643D01*
X101638080Y-100367037D01*
X101603723Y-100306199D01*
X101600500Y-100278113D01*
X101600500Y-99357308D01*
X101620185Y-99290269D01*
X101636819Y-99269627D01*
X102227037Y-98679408D01*
X102244075Y-98742993D01*
G37*
%TD.AperFunction*%
%TA.AperFunction,Conductor*%
G36*
X101805703Y-96728173D02*
G01*
X101824821Y-96749004D01*
X101832446Y-96759500D01*
X101960500Y-96887554D01*
X101960505Y-96887558D01*
X102020289Y-96930993D01*
X102107006Y-96993996D01*
X102200818Y-97041796D01*
X102238684Y-97061090D01*
X102289480Y-97109065D01*
X102306275Y-97176886D01*
X102283737Y-97243021D01*
X102229022Y-97286472D01*
X102220708Y-97289506D01*
X102191781Y-97298905D01*
X102002439Y-97395380D01*
X101948282Y-97434727D01*
X101948282Y-97434728D01*
X102580591Y-98067037D01*
X102517007Y-98084075D01*
X102402993Y-98149901D01*
X102309901Y-98242993D01*
X102244075Y-98357007D01*
X102227037Y-98420591D01*
X101636819Y-97830373D01*
X101603334Y-97769050D01*
X101600500Y-97742692D01*
X101600500Y-96821886D01*
X101620185Y-96754847D01*
X101672989Y-96709092D01*
X101742147Y-96699148D01*
X101805703Y-96728173D01*
G37*
%TD.AperFunction*%
%TA.AperFunction,Conductor*%
G36*
X119760912Y-96907992D02*
G01*
X119790464Y-96923855D01*
X119887006Y-96993996D01*
X120018684Y-97061090D01*
X120069480Y-97109065D01*
X120086275Y-97176886D01*
X120063737Y-97243021D01*
X120009022Y-97286472D01*
X120000708Y-97289506D01*
X119971781Y-97298905D01*
X119782439Y-97395380D01*
X119728282Y-97434727D01*
X119728282Y-97434728D01*
X120360591Y-98067037D01*
X120297007Y-98084075D01*
X120182993Y-98149901D01*
X120089901Y-98242993D01*
X120024075Y-98357007D01*
X120007037Y-98420591D01*
X119374727Y-97788281D01*
X119321779Y-97792449D01*
X119253401Y-97778085D01*
X119207780Y-97735941D01*
X119200657Y-97724874D01*
X119199942Y-97722205D01*
X119147215Y-97630879D01*
X119127421Y-97611085D01*
X119120230Y-97599912D01*
X119113965Y-97578629D01*
X119103334Y-97559160D01*
X119100514Y-97532932D01*
X119100500Y-97532885D01*
X119100506Y-97532862D01*
X119100500Y-97532802D01*
X119100500Y-97517254D01*
X119120185Y-97450215D01*
X119136815Y-97429577D01*
X119629900Y-96936491D01*
X119691221Y-96903008D01*
X119760912Y-96907992D01*
G37*
%TD.AperFunction*%
%TA.AperFunction,Conductor*%
G36*
X121561917Y-96732959D02*
G01*
X121596277Y-96793796D01*
X121599500Y-96821886D01*
X121599500Y-97742692D01*
X121579815Y-97809731D01*
X121563181Y-97830373D01*
X120972962Y-98420591D01*
X120955925Y-98357007D01*
X120890099Y-98242993D01*
X120797007Y-98149901D01*
X120682993Y-98084075D01*
X120619409Y-98067037D01*
X121251716Y-97434728D01*
X121197550Y-97395375D01*
X121008217Y-97298904D01*
X120979292Y-97289506D01*
X120921616Y-97250068D01*
X120894418Y-97185710D01*
X120906333Y-97116863D01*
X120953577Y-97065388D01*
X120961315Y-97061090D01*
X121092994Y-96993996D01*
X121239501Y-96887553D01*
X121367553Y-96759501D01*
X121375180Y-96749003D01*
X121430508Y-96706336D01*
X121500121Y-96700355D01*
X121561917Y-96732959D01*
G37*
%TD.AperFunction*%
%TA.AperFunction,Conductor*%
G36*
X106462962Y-67020185D02*
G01*
X106508717Y-67072989D01*
X106518661Y-67142147D01*
X106489636Y-67205703D01*
X106483604Y-67212181D01*
X106483251Y-67212533D01*
X106483248Y-67212537D01*
X106373814Y-67376315D01*
X106373807Y-67376328D01*
X106298430Y-67558306D01*
X106298427Y-67558318D01*
X106260000Y-67751504D01*
X106260000Y-67900000D01*
X106960000Y-67900000D01*
X106960000Y-68400000D01*
X106260000Y-68400000D01*
X106260000Y-68548495D01*
X106298427Y-68741681D01*
X106298430Y-68741693D01*
X106373807Y-68923671D01*
X106373814Y-68923684D01*
X106483248Y-69087462D01*
X106483251Y-69087466D01*
X106622533Y-69226748D01*
X106622537Y-69226751D01*
X106786315Y-69336185D01*
X106786328Y-69336192D01*
X106968308Y-69411569D01*
X107010000Y-69419862D01*
X107010000Y-68616988D01*
X107019940Y-68634205D01*
X107075795Y-68690060D01*
X107144204Y-68729556D01*
X107220504Y-68750000D01*
X107299496Y-68750000D01*
X107375796Y-68729556D01*
X107444205Y-68690060D01*
X107500060Y-68634205D01*
X107510000Y-68616988D01*
X107510000Y-69419862D01*
X107551690Y-69411569D01*
X107551692Y-69411569D01*
X107733671Y-69336192D01*
X107733684Y-69336185D01*
X107897462Y-69226751D01*
X107897466Y-69226748D01*
X108036748Y-69087466D01*
X108036751Y-69087462D01*
X108146185Y-68923684D01*
X108146192Y-68923671D01*
X108221569Y-68741693D01*
X108221572Y-68741681D01*
X108259999Y-68548495D01*
X108260000Y-68548492D01*
X108260000Y-68400000D01*
X107560000Y-68400000D01*
X107560000Y-67900000D01*
X108260000Y-67900000D01*
X108260000Y-67751508D01*
X108259999Y-67751504D01*
X108221572Y-67558318D01*
X108221569Y-67558306D01*
X108146192Y-67376328D01*
X108146185Y-67376315D01*
X108036751Y-67212537D01*
X108036748Y-67212533D01*
X108036396Y-67212181D01*
X108036270Y-67211950D01*
X108032886Y-67207827D01*
X108033668Y-67207185D01*
X108002911Y-67150858D01*
X108007895Y-67081166D01*
X108049767Y-67025233D01*
X108115231Y-67000816D01*
X108124077Y-67000500D01*
X115035923Y-67000500D01*
X115102962Y-67020185D01*
X115148717Y-67072989D01*
X115158661Y-67142147D01*
X115129636Y-67205703D01*
X115123604Y-67212181D01*
X115123251Y-67212533D01*
X115123248Y-67212537D01*
X115013814Y-67376315D01*
X115013807Y-67376328D01*
X114938430Y-67558306D01*
X114938427Y-67558318D01*
X114900000Y-67751504D01*
X114900000Y-67900000D01*
X115600000Y-67900000D01*
X115600000Y-68400000D01*
X114900000Y-68400000D01*
X114900000Y-68548495D01*
X114938427Y-68741681D01*
X114938430Y-68741693D01*
X115013807Y-68923671D01*
X115013814Y-68923684D01*
X115123248Y-69087462D01*
X115123251Y-69087466D01*
X115262533Y-69226748D01*
X115262537Y-69226751D01*
X115426315Y-69336185D01*
X115426328Y-69336192D01*
X115608308Y-69411569D01*
X115650000Y-69419862D01*
X115650000Y-68616988D01*
X115659940Y-68634205D01*
X115715795Y-68690060D01*
X115784204Y-68729556D01*
X115860504Y-68750000D01*
X115939496Y-68750000D01*
X116015796Y-68729556D01*
X116084205Y-68690060D01*
X116140060Y-68634205D01*
X116150000Y-68616988D01*
X116150000Y-69419862D01*
X116191690Y-69411569D01*
X116191692Y-69411569D01*
X116373671Y-69336192D01*
X116373684Y-69336185D01*
X116537462Y-69226751D01*
X116537466Y-69226748D01*
X116676748Y-69087466D01*
X116676751Y-69087462D01*
X116786185Y-68923684D01*
X116786192Y-68923671D01*
X116861569Y-68741693D01*
X116861572Y-68741681D01*
X116899999Y-68548495D01*
X116900000Y-68548492D01*
X116900000Y-68400000D01*
X116200000Y-68400000D01*
X116200000Y-67900000D01*
X116900000Y-67900000D01*
X116900000Y-67751508D01*
X116899999Y-67751504D01*
X116861572Y-67558318D01*
X116861569Y-67558306D01*
X116786192Y-67376328D01*
X116786185Y-67376315D01*
X116676751Y-67212537D01*
X116676748Y-67212533D01*
X116676396Y-67212181D01*
X116676270Y-67211950D01*
X116672886Y-67207827D01*
X116673668Y-67207185D01*
X116642911Y-67150858D01*
X116647895Y-67081166D01*
X116689767Y-67025233D01*
X116755231Y-67000816D01*
X116764077Y-67000500D01*
X119220848Y-67000500D01*
X119287887Y-67020185D01*
X119333642Y-67072989D01*
X119343382Y-67140732D01*
X119343490Y-67140745D01*
X119343442Y-67141151D01*
X119343586Y-67142147D01*
X119342998Y-67144984D01*
X119339500Y-67175131D01*
X119339500Y-68964856D01*
X119339502Y-68964882D01*
X119342413Y-68989987D01*
X119342415Y-68989991D01*
X119387793Y-69092764D01*
X119387794Y-69092765D01*
X119467235Y-69172206D01*
X119570009Y-69217585D01*
X119595135Y-69220500D01*
X120332873Y-69220499D01*
X120399910Y-69240183D01*
X120445665Y-69292987D01*
X120455609Y-69362146D01*
X120426584Y-69425702D01*
X120367806Y-69463476D01*
X120352270Y-69466972D01*
X120220589Y-69487829D01*
X120048363Y-69543787D01*
X120048360Y-69543788D01*
X119887002Y-69626006D01*
X119740505Y-69732441D01*
X119740500Y-69732445D01*
X119612445Y-69860500D01*
X119612441Y-69860505D01*
X119506006Y-70007002D01*
X119423788Y-70168360D01*
X119423787Y-70168363D01*
X119367829Y-70340589D01*
X119339500Y-70519448D01*
X119339500Y-70700551D01*
X119367829Y-70879410D01*
X119414575Y-71023281D01*
X119416570Y-71093122D01*
X119384325Y-71149280D01*
X117479522Y-73054084D01*
X117479520Y-73054087D01*
X117426793Y-73145412D01*
X117405255Y-73225793D01*
X117402953Y-73234385D01*
X117399500Y-73247270D01*
X117399500Y-92582745D01*
X117390855Y-92612185D01*
X117384332Y-92642172D01*
X117380577Y-92647187D01*
X117379815Y-92649784D01*
X117363181Y-92670426D01*
X117341426Y-92692181D01*
X117280103Y-92725666D01*
X117253745Y-92728500D01*
X116858273Y-92728500D01*
X116756413Y-92755793D01*
X116756410Y-92755794D01*
X116678486Y-92800784D01*
X116665090Y-92808517D01*
X116665084Y-92808522D01*
X116450426Y-93023181D01*
X116389103Y-93056666D01*
X116362745Y-93059500D01*
X116300943Y-93059500D01*
X116148216Y-93100423D01*
X116148209Y-93100426D01*
X116011290Y-93179475D01*
X116011282Y-93179481D01*
X115899481Y-93291282D01*
X115899475Y-93291290D01*
X115820426Y-93428209D01*
X115820423Y-93428216D01*
X115779500Y-93580943D01*
X115779500Y-93739057D01*
X115789639Y-93776894D01*
X115820423Y-93891783D01*
X115820426Y-93891790D01*
X115899475Y-94028709D01*
X115899479Y-94028714D01*
X115899480Y-94028716D01*
X116011284Y-94140520D01*
X116011286Y-94140521D01*
X116011290Y-94140524D01*
X116129903Y-94209004D01*
X116148216Y-94219577D01*
X116300943Y-94260500D01*
X116300945Y-94260500D01*
X116459055Y-94260500D01*
X116459057Y-94260500D01*
X116478847Y-94255197D01*
X116548694Y-94256858D01*
X116606557Y-94296019D01*
X116626464Y-94334628D01*
X116627314Y-94334277D01*
X116630422Y-94341780D01*
X116630423Y-94341784D01*
X116630424Y-94341787D01*
X116630426Y-94341790D01*
X116709475Y-94478709D01*
X116709479Y-94478714D01*
X116709480Y-94478716D01*
X116821284Y-94590520D01*
X116821286Y-94590521D01*
X116821290Y-94590524D01*
X116873211Y-94620500D01*
X116958216Y-94669577D01*
X117110943Y-94710500D01*
X117110945Y-94710500D01*
X117269055Y-94710500D01*
X117269057Y-94710500D01*
X117421784Y-94669577D01*
X117558716Y-94590520D01*
X117670520Y-94478716D01*
X117749577Y-94341784D01*
X117790500Y-94189057D01*
X117790500Y-94127255D01*
X117799144Y-94097814D01*
X117805668Y-94067828D01*
X117809422Y-94062812D01*
X117810185Y-94060216D01*
X117826819Y-94039574D01*
X117899574Y-93966819D01*
X117960897Y-93933334D01*
X117987255Y-93930500D01*
X118089825Y-93930500D01*
X118089827Y-93930500D01*
X118191688Y-93903207D01*
X118283013Y-93850480D01*
X118517911Y-93615581D01*
X118517913Y-93615580D01*
X118592480Y-93541013D01*
X118629280Y-93477273D01*
X118645207Y-93449688D01*
X118672500Y-93347827D01*
X118672500Y-93242373D01*
X118672500Y-92910173D01*
X118650503Y-92828077D01*
X118650503Y-92828076D01*
X118650503Y-92828075D01*
X118645208Y-92808316D01*
X118645207Y-92808312D01*
X118618111Y-92761381D01*
X118601500Y-92699383D01*
X118601500Y-78580717D01*
X118600500Y-78565451D01*
X118600500Y-76917254D01*
X118620185Y-76850215D01*
X118636819Y-76829573D01*
X118898839Y-76567553D01*
X119273055Y-76193336D01*
X119334376Y-76159853D01*
X119404067Y-76164837D01*
X119460001Y-76206708D01*
X119471216Y-76224719D01*
X119503642Y-76288359D01*
X119506006Y-76292998D01*
X119612441Y-76439494D01*
X119612445Y-76439499D01*
X119740500Y-76567554D01*
X119740505Y-76567558D01*
X119868287Y-76660396D01*
X119887006Y-76673996D01*
X119992484Y-76727740D01*
X120048360Y-76756211D01*
X120048363Y-76756212D01*
X120134476Y-76784191D01*
X120220591Y-76812171D01*
X120293639Y-76823740D01*
X120380678Y-76837527D01*
X120443813Y-76867456D01*
X120480744Y-76926768D01*
X120479746Y-76996631D01*
X120441136Y-77054863D01*
X120380678Y-77082473D01*
X120220589Y-77107829D01*
X120048363Y-77163787D01*
X120048360Y-77163788D01*
X119887002Y-77246006D01*
X119740505Y-77352441D01*
X119740500Y-77352445D01*
X119612445Y-77480500D01*
X119612441Y-77480505D01*
X119506006Y-77627002D01*
X119423788Y-77788360D01*
X119423787Y-77788363D01*
X119367829Y-77960589D01*
X119339500Y-78139448D01*
X119339500Y-78320551D01*
X119367829Y-78499410D01*
X119423787Y-78671636D01*
X119423788Y-78671639D01*
X119506006Y-78832997D01*
X119612441Y-78979494D01*
X119612445Y-78979499D01*
X119740500Y-79107554D01*
X119740505Y-79107558D01*
X119868287Y-79200396D01*
X119887006Y-79213996D01*
X119992484Y-79267740D01*
X120048360Y-79296211D01*
X120048363Y-79296212D01*
X120134476Y-79324191D01*
X120220591Y-79352171D01*
X120293639Y-79363740D01*
X120380678Y-79377527D01*
X120443813Y-79407456D01*
X120480744Y-79466768D01*
X120479746Y-79536631D01*
X120441136Y-79594863D01*
X120380678Y-79622473D01*
X120220589Y-79647829D01*
X120048363Y-79703787D01*
X120048360Y-79703788D01*
X119887002Y-79786006D01*
X119740505Y-79892441D01*
X119740500Y-79892445D01*
X119612445Y-80020500D01*
X119612441Y-80020505D01*
X119506006Y-80167002D01*
X119423788Y-80328360D01*
X119423787Y-80328363D01*
X119367829Y-80500589D01*
X119339500Y-80679448D01*
X119339500Y-80860551D01*
X119367829Y-81039410D01*
X119423787Y-81211636D01*
X119423788Y-81211639D01*
X119506006Y-81372997D01*
X119612441Y-81519494D01*
X119612445Y-81519499D01*
X119740500Y-81647554D01*
X119740505Y-81647558D01*
X119868287Y-81740396D01*
X119887006Y-81753996D01*
X119992484Y-81807740D01*
X120048360Y-81836211D01*
X120048363Y-81836212D01*
X120134476Y-81864191D01*
X120220591Y-81892171D01*
X120293639Y-81903740D01*
X120380678Y-81917527D01*
X120443813Y-81947456D01*
X120480744Y-82006768D01*
X120479746Y-82076631D01*
X120441136Y-82134863D01*
X120380678Y-82162473D01*
X120220589Y-82187829D01*
X120048363Y-82243787D01*
X120048360Y-82243788D01*
X119887002Y-82326006D01*
X119740505Y-82432441D01*
X119740500Y-82432445D01*
X119612445Y-82560500D01*
X119612441Y-82560505D01*
X119506006Y-82707002D01*
X119423788Y-82868360D01*
X119423787Y-82868363D01*
X119367829Y-83040589D01*
X119339500Y-83219448D01*
X119339500Y-83400551D01*
X119367829Y-83579410D01*
X119423787Y-83751636D01*
X119423788Y-83751639D01*
X119506006Y-83912997D01*
X119612441Y-84059494D01*
X119612445Y-84059499D01*
X119740500Y-84187554D01*
X119740505Y-84187558D01*
X119868287Y-84280396D01*
X119887006Y-84293996D01*
X119988780Y-84345853D01*
X120018684Y-84361090D01*
X120069480Y-84409065D01*
X120086275Y-84476886D01*
X120063737Y-84543021D01*
X120009022Y-84586472D01*
X120000708Y-84589506D01*
X119971781Y-84598905D01*
X119782439Y-84695380D01*
X119728282Y-84734727D01*
X119728282Y-84734728D01*
X120360591Y-85367037D01*
X120297007Y-85384075D01*
X120182993Y-85449901D01*
X120089901Y-85542993D01*
X120024075Y-85657007D01*
X120007037Y-85720591D01*
X119374728Y-85088282D01*
X119374727Y-85088282D01*
X119335380Y-85142439D01*
X119238904Y-85331782D01*
X119173242Y-85533869D01*
X119173242Y-85533872D01*
X119140000Y-85743753D01*
X119140000Y-85956246D01*
X119173242Y-86166127D01*
X119173242Y-86166130D01*
X119238904Y-86368217D01*
X119335375Y-86557550D01*
X119374728Y-86611716D01*
X120007037Y-85979408D01*
X120024075Y-86042993D01*
X120089901Y-86157007D01*
X120182993Y-86250099D01*
X120297007Y-86315925D01*
X120360590Y-86332962D01*
X119728282Y-86965269D01*
X119728282Y-86965270D01*
X119782449Y-87004624D01*
X119971780Y-87101094D01*
X120000705Y-87110492D01*
X120058381Y-87149929D01*
X120085580Y-87214287D01*
X120073667Y-87283134D01*
X120026424Y-87334610D01*
X120018685Y-87338908D01*
X119887004Y-87406004D01*
X119740505Y-87512441D01*
X119740500Y-87512445D01*
X119612445Y-87640500D01*
X119612441Y-87640505D01*
X119506006Y-87787002D01*
X119423788Y-87948360D01*
X119423787Y-87948363D01*
X119367829Y-88120589D01*
X119339500Y-88299448D01*
X119339500Y-88480551D01*
X119367829Y-88659410D01*
X119423787Y-88831636D01*
X119423788Y-88831639D01*
X119451350Y-88885731D01*
X119493408Y-88968274D01*
X119506006Y-88992997D01*
X119612441Y-89139494D01*
X119612445Y-89139499D01*
X119740500Y-89267554D01*
X119740505Y-89267558D01*
X119825151Y-89329056D01*
X119887006Y-89373996D01*
X119992484Y-89427740D01*
X120048360Y-89456211D01*
X120048363Y-89456212D01*
X120127065Y-89481783D01*
X120220591Y-89512171D01*
X120293639Y-89523740D01*
X120380678Y-89537527D01*
X120443813Y-89567456D01*
X120480744Y-89626768D01*
X120479746Y-89696631D01*
X120441136Y-89754863D01*
X120380678Y-89782473D01*
X120220589Y-89807829D01*
X120048363Y-89863787D01*
X120048360Y-89863788D01*
X119887002Y-89946006D01*
X119740505Y-90052441D01*
X119740500Y-90052445D01*
X119612445Y-90180500D01*
X119612441Y-90180505D01*
X119506006Y-90327002D01*
X119423788Y-90488360D01*
X119423787Y-90488363D01*
X119367829Y-90660589D01*
X119339500Y-90839448D01*
X119339500Y-91020551D01*
X119367829Y-91199410D01*
X119423787Y-91371636D01*
X119423788Y-91371639D01*
X119479664Y-91481300D01*
X119489774Y-91501142D01*
X119506006Y-91532997D01*
X119612441Y-91679494D01*
X119612445Y-91679499D01*
X119740500Y-91807554D01*
X119740505Y-91807558D01*
X119804863Y-91854316D01*
X119887006Y-91913996D01*
X119992484Y-91967740D01*
X120048360Y-91996211D01*
X120048363Y-91996212D01*
X120134476Y-92024191D01*
X120220591Y-92052171D01*
X120293639Y-92063740D01*
X120380678Y-92077527D01*
X120443813Y-92107456D01*
X120480744Y-92166768D01*
X120479746Y-92236631D01*
X120441136Y-92294863D01*
X120380678Y-92322473D01*
X120220589Y-92347829D01*
X120048363Y-92403787D01*
X120048360Y-92403788D01*
X119887002Y-92486006D01*
X119740505Y-92592441D01*
X119740500Y-92592445D01*
X119612445Y-92720500D01*
X119612441Y-92720505D01*
X119506006Y-92867002D01*
X119423788Y-93028360D01*
X119423787Y-93028363D01*
X119367829Y-93200589D01*
X119339500Y-93379448D01*
X119339500Y-93560551D01*
X119367829Y-93739412D01*
X119424262Y-93913099D01*
X119426257Y-93982940D01*
X119413720Y-94013412D01*
X119406796Y-94025405D01*
X119406793Y-94025410D01*
X119402998Y-94039574D01*
X119395769Y-94066554D01*
X119395769Y-94066555D01*
X119395768Y-94066554D01*
X119379500Y-94127269D01*
X119379500Y-94494985D01*
X119359815Y-94562024D01*
X119343181Y-94582666D01*
X119079522Y-94846324D01*
X119079520Y-94846327D01*
X119026791Y-94937654D01*
X119021300Y-94958151D01*
X119021300Y-94958153D01*
X118999500Y-95039513D01*
X118999500Y-95287044D01*
X118996600Y-95299428D01*
X118997620Y-95308552D01*
X118988770Y-95332872D01*
X118986614Y-95342086D01*
X118984858Y-95345629D01*
X118965793Y-95378652D01*
X118965793Y-95378653D01*
X118962604Y-95390553D01*
X118962603Y-95390556D01*
X118938500Y-95480513D01*
X118938500Y-96443745D01*
X118918815Y-96510784D01*
X118902181Y-96531426D01*
X118379522Y-97054084D01*
X118379520Y-97054087D01*
X118326793Y-97145411D01*
X118326793Y-97145412D01*
X118302337Y-97236684D01*
X118299500Y-97247273D01*
X118299500Y-97697330D01*
X118299500Y-97802784D01*
X118305202Y-97824065D01*
X118326793Y-97904646D01*
X118353156Y-97950307D01*
X118379520Y-97995970D01*
X118379522Y-97995972D01*
X118389916Y-98006366D01*
X118404619Y-98033293D01*
X118421212Y-98059112D01*
X118422103Y-98065312D01*
X118423401Y-98067689D01*
X118426235Y-98094047D01*
X118426235Y-98157423D01*
X118406550Y-98224462D01*
X118389916Y-98245104D01*
X118345104Y-98289916D01*
X118283781Y-98323401D01*
X118257423Y-98326235D01*
X118194047Y-98326235D01*
X118127008Y-98306550D01*
X118106366Y-98289916D01*
X117895972Y-98079522D01*
X117895970Y-98079520D01*
X117844840Y-98050000D01*
X117804646Y-98026793D01*
X117753714Y-98013146D01*
X117702784Y-97999500D01*
X117702783Y-97999500D01*
X115284355Y-97999500D01*
X115217316Y-97979815D01*
X115196674Y-97963181D01*
X114512015Y-97278522D01*
X114512013Y-97278520D01*
X114420688Y-97225793D01*
X114420686Y-97225792D01*
X114414490Y-97222215D01*
X114413262Y-97221948D01*
X114385008Y-97200797D01*
X114336821Y-97152610D01*
X114303336Y-97091287D01*
X114300502Y-97064929D01*
X114300502Y-97020945D01*
X114300502Y-97020943D01*
X114259579Y-96868216D01*
X114196813Y-96759501D01*
X114180526Y-96731290D01*
X114180520Y-96731282D01*
X114068719Y-96619481D01*
X114068714Y-96619477D01*
X114004650Y-96582490D01*
X113987397Y-96564395D01*
X113967382Y-96549413D01*
X113963701Y-96539544D01*
X113956434Y-96531923D01*
X113951702Y-96507371D01*
X113942966Y-96483948D01*
X113945204Y-96473658D01*
X113943211Y-96463316D01*
X113952503Y-96440103D01*
X113957818Y-96415675D01*
X113967416Y-96402852D01*
X113969179Y-96398451D01*
X113978949Y-96387442D01*
X114129575Y-96236816D01*
X114190898Y-96203334D01*
X114217255Y-96200500D01*
X114279055Y-96200500D01*
X114279057Y-96200500D01*
X114431784Y-96159577D01*
X114568716Y-96080520D01*
X114680520Y-95968716D01*
X114759577Y-95831784D01*
X114800500Y-95679057D01*
X114800500Y-95520943D01*
X114759577Y-95368216D01*
X114726490Y-95310907D01*
X114680524Y-95231290D01*
X114680518Y-95231282D01*
X114568717Y-95119481D01*
X114568709Y-95119475D01*
X114431790Y-95040426D01*
X114431786Y-95040424D01*
X114431784Y-95040423D01*
X114279057Y-94999500D01*
X114120943Y-94999500D01*
X113968216Y-95040423D01*
X113968209Y-95040426D01*
X113831290Y-95119475D01*
X113831282Y-95119481D01*
X113719481Y-95231282D01*
X113719475Y-95231290D01*
X113640426Y-95368209D01*
X113640423Y-95368216D01*
X113599500Y-95520943D01*
X113599500Y-95582745D01*
X113579815Y-95649784D01*
X113563181Y-95670426D01*
X112779522Y-96454084D01*
X112779518Y-96454090D01*
X112726793Y-96545411D01*
X112725721Y-96549413D01*
X112708685Y-96612994D01*
X112699500Y-96647273D01*
X112699500Y-97585078D01*
X112679815Y-97652117D01*
X112627011Y-97697872D01*
X112607600Y-97704850D01*
X112474835Y-97740425D01*
X112474833Y-97740425D01*
X112474833Y-97740426D01*
X112474828Y-97740428D01*
X112337909Y-97819477D01*
X112337901Y-97819483D01*
X112317997Y-97839388D01*
X112256674Y-97872873D01*
X112186982Y-97867889D01*
X112159004Y-97853149D01*
X112150223Y-97846976D01*
X112122727Y-97819480D01*
X112057721Y-97781948D01*
X112053188Y-97778762D01*
X112034730Y-97755583D01*
X112014284Y-97734139D01*
X112012807Y-97728051D01*
X112009664Y-97724104D01*
X112008088Y-97708601D01*
X112000500Y-97677320D01*
X112000500Y-94222338D01*
X112020185Y-94155299D01*
X112072989Y-94109544D01*
X112124500Y-94098338D01*
X112601278Y-94098338D01*
X112668317Y-94118023D01*
X112688959Y-94134657D01*
X112732660Y-94178358D01*
X112732662Y-94178359D01*
X112732666Y-94178362D01*
X112803922Y-94219501D01*
X112869592Y-94257415D01*
X113022319Y-94298338D01*
X113022321Y-94298338D01*
X113180431Y-94298338D01*
X113180433Y-94298338D01*
X113333160Y-94257415D01*
X113470092Y-94178358D01*
X113581896Y-94066554D01*
X113660953Y-93929622D01*
X113701876Y-93776895D01*
X113701876Y-93618781D01*
X113660953Y-93466054D01*
X113651504Y-93449688D01*
X113581900Y-93329128D01*
X113581894Y-93329120D01*
X113470093Y-93217319D01*
X113470085Y-93217313D01*
X113333166Y-93138264D01*
X113333162Y-93138262D01*
X113333160Y-93138261D01*
X113180433Y-93097338D01*
X113022319Y-93097338D01*
X112869592Y-93138261D01*
X112869585Y-93138264D01*
X112732666Y-93217313D01*
X112732658Y-93217319D01*
X112688959Y-93261019D01*
X112627636Y-93294504D01*
X112601278Y-93297338D01*
X111598936Y-93297338D01*
X111531897Y-93277653D01*
X111511255Y-93261019D01*
X111468717Y-93218481D01*
X111468709Y-93218475D01*
X111331790Y-93139426D01*
X111331786Y-93139424D01*
X111331784Y-93139423D01*
X111179057Y-93098500D01*
X111020943Y-93098500D01*
X110868216Y-93139423D01*
X110868209Y-93139426D01*
X110731290Y-93218475D01*
X110731282Y-93218481D01*
X110613733Y-93336031D01*
X110611384Y-93333682D01*
X110567418Y-93365769D01*
X110497671Y-93369906D01*
X110436759Y-93335678D01*
X110404022Y-93273952D01*
X110401500Y-93249069D01*
X110401500Y-89457273D01*
X111339500Y-89457273D01*
X111339500Y-89464441D01*
X111339500Y-91662578D01*
X111366793Y-91764441D01*
X111382887Y-91792315D01*
X111399500Y-91854316D01*
X111399500Y-91948908D01*
X111440423Y-92101635D01*
X111440426Y-92101642D01*
X111519475Y-92238561D01*
X111519479Y-92238566D01*
X111519480Y-92238568D01*
X111631284Y-92350372D01*
X111631286Y-92350373D01*
X111631290Y-92350376D01*
X111768209Y-92429425D01*
X111768216Y-92429429D01*
X111920943Y-92470352D01*
X111920945Y-92470352D01*
X112079055Y-92470352D01*
X112079057Y-92470352D01*
X112231784Y-92429429D01*
X112368716Y-92350372D01*
X112480520Y-92238568D01*
X112559577Y-92101636D01*
X112600500Y-91948909D01*
X112600500Y-91790795D01*
X112559577Y-91638068D01*
X112552804Y-91626336D01*
X112480524Y-91501142D01*
X112480518Y-91501134D01*
X112368717Y-91389333D01*
X112368709Y-91389327D01*
X112231790Y-91310278D01*
X112231787Y-91310276D01*
X112231784Y-91310275D01*
X112231780Y-91310274D01*
X112224277Y-91307166D01*
X112224831Y-91305826D01*
X112172743Y-91274074D01*
X112142216Y-91211226D01*
X112140500Y-91190667D01*
X112140500Y-89929184D01*
X112160185Y-89862145D01*
X112212989Y-89816390D01*
X112230744Y-89810006D01*
X112231780Y-89809577D01*
X112231784Y-89809577D01*
X112231787Y-89809575D01*
X112231790Y-89809574D01*
X112368709Y-89730524D01*
X112368708Y-89730524D01*
X112368716Y-89730520D01*
X112480520Y-89618716D01*
X112559577Y-89481784D01*
X112600500Y-89329057D01*
X112600500Y-89170943D01*
X112559577Y-89018216D01*
X112530743Y-88968274D01*
X112480524Y-88881290D01*
X112480518Y-88881282D01*
X112368717Y-88769481D01*
X112368709Y-88769475D01*
X112231790Y-88690426D01*
X112231786Y-88690424D01*
X112231784Y-88690423D01*
X112079057Y-88649500D01*
X111920943Y-88649500D01*
X111768216Y-88690423D01*
X111768209Y-88690426D01*
X111631290Y-88769475D01*
X111631282Y-88769481D01*
X111519481Y-88881282D01*
X111519475Y-88881290D01*
X111440426Y-89018209D01*
X111440423Y-89018216D01*
X111399500Y-89170943D01*
X111399500Y-89265536D01*
X111382887Y-89327536D01*
X111366824Y-89355357D01*
X111366823Y-89355359D01*
X111366793Y-89355412D01*
X111366793Y-89355413D01*
X111339500Y-89457273D01*
X110401500Y-89457273D01*
X110401500Y-88546817D01*
X110400500Y-88531551D01*
X110400500Y-87517255D01*
X110420185Y-87450216D01*
X110436819Y-87429574D01*
X110652106Y-87214287D01*
X110920480Y-86945913D01*
X110973207Y-86854588D01*
X111000500Y-86752727D01*
X111000500Y-86647273D01*
X111000500Y-86217255D01*
X111020185Y-86150216D01*
X111036819Y-86129574D01*
X113117389Y-84049004D01*
X115220480Y-81945913D01*
X115273206Y-81854588D01*
X115273207Y-81854587D01*
X115300500Y-81752727D01*
X115300500Y-80100098D01*
X115320185Y-80033059D01*
X115336819Y-80012417D01*
X115380520Y-79968716D01*
X115459577Y-79831784D01*
X115500500Y-79679057D01*
X115500500Y-79520943D01*
X115459577Y-79368216D01*
X115418006Y-79296212D01*
X115380524Y-79231290D01*
X115380518Y-79231282D01*
X115268717Y-79119481D01*
X115268709Y-79119475D01*
X115131790Y-79040426D01*
X115131786Y-79040424D01*
X115131784Y-79040423D01*
X114979057Y-78999500D01*
X114820943Y-78999500D01*
X114668216Y-79040423D01*
X114668209Y-79040426D01*
X114531290Y-79119475D01*
X114531282Y-79119481D01*
X114419481Y-79231282D01*
X114419475Y-79231290D01*
X114340426Y-79368209D01*
X114340423Y-79368216D01*
X114299500Y-79520943D01*
X114299500Y-79679057D01*
X114328157Y-79786004D01*
X114340423Y-79831783D01*
X114340426Y-79831790D01*
X114419475Y-79968709D01*
X114419481Y-79968717D01*
X114463181Y-80012417D01*
X114496666Y-80073740D01*
X114499500Y-80100098D01*
X114499500Y-81482745D01*
X114479815Y-81549784D01*
X114463181Y-81570426D01*
X110279522Y-85754084D01*
X110279520Y-85754087D01*
X110226793Y-85845412D01*
X110203784Y-85931284D01*
X110201642Y-85939278D01*
X110199500Y-85947272D01*
X110199500Y-86482745D01*
X110179815Y-86549784D01*
X110163181Y-86570426D01*
X109679522Y-87054084D01*
X109679520Y-87054087D01*
X109626792Y-87145413D01*
X109604525Y-87228519D01*
X109599500Y-87247272D01*
X109599500Y-88652189D01*
X109600500Y-88667448D01*
X109600500Y-95899845D01*
X109580815Y-95966884D01*
X109528011Y-96012639D01*
X109458853Y-96022583D01*
X109395297Y-95993558D01*
X109388819Y-95987526D01*
X109080815Y-95679522D01*
X109080813Y-95679520D01*
X109080810Y-95679518D01*
X109080806Y-95679515D01*
X109012372Y-95640004D01*
X108986692Y-95620299D01*
X108436819Y-95070426D01*
X108403334Y-95009103D01*
X108400500Y-94982745D01*
X108400500Y-88417253D01*
X108420185Y-88350214D01*
X108436815Y-88329576D01*
X108745910Y-88020481D01*
X108745913Y-88020480D01*
X108820480Y-87945913D01*
X108864609Y-87869480D01*
X108873207Y-87854588D01*
X108900500Y-87752727D01*
X108900500Y-87647273D01*
X108900500Y-86800098D01*
X108920185Y-86733059D01*
X108936819Y-86712417D01*
X108980520Y-86668716D01*
X109059577Y-86531784D01*
X109100500Y-86379057D01*
X109100500Y-86220943D01*
X109059577Y-86068216D01*
X109041039Y-86036107D01*
X108980524Y-85931290D01*
X108980521Y-85931286D01*
X108980520Y-85931284D01*
X108868716Y-85819480D01*
X108868714Y-85819479D01*
X108868709Y-85819475D01*
X108731790Y-85740426D01*
X108731786Y-85740424D01*
X108731784Y-85740423D01*
X108579057Y-85699500D01*
X108420943Y-85699500D01*
X108268216Y-85740423D01*
X108268209Y-85740426D01*
X108131290Y-85819475D01*
X108131282Y-85819481D01*
X108019481Y-85931282D01*
X108019475Y-85931290D01*
X107940426Y-86068209D01*
X107940423Y-86068216D01*
X107899500Y-86220943D01*
X107899500Y-86379057D01*
X107926943Y-86481473D01*
X107940423Y-86531783D01*
X107940426Y-86531790D01*
X108019475Y-86668709D01*
X108019481Y-86668717D01*
X108063181Y-86712417D01*
X108096666Y-86773740D01*
X108099500Y-86800098D01*
X108099500Y-87482745D01*
X108079815Y-87549784D01*
X108063181Y-87570426D01*
X107679522Y-87954084D01*
X107679518Y-87954090D01*
X107626793Y-88045411D01*
X107622901Y-88059939D01*
X107622901Y-88059940D01*
X107599500Y-88147273D01*
X107599500Y-93021083D01*
X107579815Y-93088122D01*
X107527011Y-93133877D01*
X107457853Y-93143821D01*
X107443407Y-93140858D01*
X107438063Y-93139426D01*
X107289057Y-93099500D01*
X107289056Y-93099500D01*
X107227255Y-93099500D01*
X107160216Y-93079815D01*
X107139574Y-93063181D01*
X106957199Y-92880806D01*
X106957197Y-92880804D01*
X106911534Y-92854440D01*
X106865873Y-92828077D01*
X106792890Y-92808522D01*
X106764011Y-92800784D01*
X106764010Y-92800784D01*
X106242738Y-92800784D01*
X106175699Y-92781099D01*
X106155057Y-92764465D01*
X105837819Y-92447226D01*
X105804334Y-92385903D01*
X105801500Y-92359545D01*
X105801500Y-90535375D01*
X105801500Y-90535373D01*
X105774207Y-90433513D01*
X105721480Y-90342187D01*
X105685819Y-90306526D01*
X105652334Y-90245203D01*
X105649500Y-90218845D01*
X105649500Y-88421168D01*
X105649500Y-88421166D01*
X105622207Y-88319306D01*
X105591162Y-88265534D01*
X105587011Y-88250045D01*
X105579573Y-88238470D01*
X105574550Y-88203535D01*
X105574550Y-88118311D01*
X105594235Y-88051272D01*
X105610863Y-88030635D01*
X105772018Y-87869481D01*
X105772020Y-87869480D01*
X105846587Y-87794913D01*
X105889950Y-87719806D01*
X105899314Y-87703588D01*
X105906189Y-87677926D01*
X105909322Y-87670377D01*
X105922207Y-87654407D01*
X105936170Y-87630221D01*
X106222480Y-87343913D01*
X106275207Y-87252588D01*
X106302500Y-87150727D01*
X106302500Y-87045273D01*
X106302500Y-86949455D01*
X106322185Y-86882416D01*
X106338819Y-86861774D01*
X106346005Y-86854588D01*
X106420480Y-86780113D01*
X106473207Y-86688788D01*
X106500500Y-86586927D01*
X106500500Y-86481473D01*
X106500500Y-73807196D01*
X106520185Y-73740157D01*
X106572989Y-73694402D01*
X106642147Y-73684458D01*
X106693392Y-73704094D01*
X106786321Y-73766188D01*
X106786328Y-73766192D01*
X106968308Y-73841569D01*
X107010000Y-73849862D01*
X107010000Y-73046988D01*
X107019940Y-73064205D01*
X107075795Y-73120060D01*
X107144204Y-73159556D01*
X107220504Y-73180000D01*
X107299496Y-73180000D01*
X107375796Y-73159556D01*
X107444205Y-73120060D01*
X107500060Y-73064205D01*
X107510000Y-73046988D01*
X107510000Y-73849862D01*
X107551690Y-73841569D01*
X107551692Y-73841569D01*
X107733671Y-73766192D01*
X107733684Y-73766185D01*
X107897462Y-73656751D01*
X107897466Y-73656748D01*
X108036748Y-73517466D01*
X108036751Y-73517462D01*
X108146185Y-73353684D01*
X108146192Y-73353671D01*
X108221569Y-73171693D01*
X108221572Y-73171681D01*
X108259999Y-72978495D01*
X108260000Y-72978492D01*
X108260000Y-72580000D01*
X107560000Y-72580000D01*
X107560000Y-72080000D01*
X108115536Y-72080000D01*
X108182575Y-72099685D01*
X108222923Y-72142000D01*
X108229482Y-72153361D01*
X108229484Y-72153364D01*
X108229485Y-72153365D01*
X108336635Y-72260515D01*
X108467865Y-72336281D01*
X108614234Y-72375500D01*
X108614236Y-72375500D01*
X108765764Y-72375500D01*
X108765766Y-72375500D01*
X108912135Y-72336281D01*
X109043365Y-72260515D01*
X109150515Y-72153365D01*
X109226281Y-72022135D01*
X109265500Y-71875766D01*
X109265500Y-71724234D01*
X113894500Y-71724234D01*
X113894500Y-71875765D01*
X113933719Y-72022136D01*
X113971602Y-72087750D01*
X114009485Y-72153365D01*
X114116635Y-72260515D01*
X114247865Y-72336281D01*
X114394234Y-72375500D01*
X114394236Y-72375500D01*
X114545764Y-72375500D01*
X114545766Y-72375500D01*
X114692135Y-72336281D01*
X114823365Y-72260515D01*
X114930515Y-72153365D01*
X114937077Y-72142000D01*
X114987644Y-72093784D01*
X115044464Y-72080000D01*
X115600000Y-72080000D01*
X115600000Y-72580000D01*
X114900000Y-72580000D01*
X114900000Y-72978495D01*
X114938427Y-73171681D01*
X114938430Y-73171693D01*
X115013807Y-73353671D01*
X115013814Y-73353684D01*
X115123248Y-73517462D01*
X115123251Y-73517466D01*
X115262533Y-73656748D01*
X115262537Y-73656751D01*
X115426315Y-73766185D01*
X115426328Y-73766192D01*
X115608308Y-73841569D01*
X115650000Y-73849862D01*
X115650000Y-73046988D01*
X115659940Y-73064205D01*
X115715795Y-73120060D01*
X115784204Y-73159556D01*
X115860504Y-73180000D01*
X115939496Y-73180000D01*
X116015796Y-73159556D01*
X116084205Y-73120060D01*
X116140060Y-73064205D01*
X116150000Y-73046988D01*
X116150000Y-73849862D01*
X116191690Y-73841569D01*
X116191692Y-73841569D01*
X116373671Y-73766192D01*
X116373684Y-73766185D01*
X116537462Y-73656751D01*
X116537466Y-73656748D01*
X116676748Y-73517466D01*
X116676751Y-73517462D01*
X116786185Y-73353684D01*
X116786192Y-73353671D01*
X116861569Y-73171693D01*
X116861572Y-73171681D01*
X116899999Y-72978495D01*
X116900000Y-72978492D01*
X116900000Y-72580000D01*
X116200000Y-72580000D01*
X116200000Y-72080000D01*
X116900000Y-72080000D01*
X116900000Y-71681508D01*
X116899999Y-71681504D01*
X116861572Y-71488318D01*
X116861569Y-71488306D01*
X116786192Y-71306328D01*
X116786185Y-71306315D01*
X116676751Y-71142537D01*
X116676748Y-71142533D01*
X116537466Y-71003251D01*
X116537462Y-71003248D01*
X116373684Y-70893814D01*
X116373671Y-70893807D01*
X116191691Y-70818429D01*
X116191683Y-70818427D01*
X116150000Y-70810135D01*
X116150000Y-71613011D01*
X116140060Y-71595795D01*
X116084205Y-71539940D01*
X116015796Y-71500444D01*
X115939496Y-71480000D01*
X115860504Y-71480000D01*
X115784204Y-71500444D01*
X115715795Y-71539940D01*
X115659940Y-71595795D01*
X115650000Y-71613011D01*
X115650000Y-70810136D01*
X115649999Y-70810135D01*
X115608316Y-70818427D01*
X115608308Y-70818429D01*
X115426328Y-70893807D01*
X115426315Y-70893814D01*
X115262537Y-71003248D01*
X115262533Y-71003251D01*
X115123248Y-71142536D01*
X115010427Y-71311387D01*
X115009003Y-71310435D01*
X114965742Y-71354451D01*
X114897600Y-71369892D01*
X114831927Y-71346041D01*
X114829907Y-71344306D01*
X114829811Y-71344432D01*
X114823367Y-71339487D01*
X114823365Y-71339485D01*
X114753500Y-71299148D01*
X114692136Y-71263719D01*
X114618950Y-71244109D01*
X114545766Y-71224500D01*
X114394234Y-71224500D01*
X114247863Y-71263719D01*
X114116635Y-71339485D01*
X114116632Y-71339487D01*
X114009487Y-71446632D01*
X114009485Y-71446635D01*
X113933719Y-71577863D01*
X113894500Y-71724234D01*
X109265500Y-71724234D01*
X109226281Y-71577865D01*
X109150515Y-71446635D01*
X109043365Y-71339485D01*
X108973500Y-71299148D01*
X108912136Y-71263719D01*
X108838950Y-71244109D01*
X108765766Y-71224500D01*
X108614234Y-71224500D01*
X108467863Y-71263719D01*
X108336635Y-71339485D01*
X108330189Y-71344432D01*
X108328099Y-71341709D01*
X108280217Y-71367466D01*
X108210558Y-71362043D01*
X108154888Y-71319821D01*
X108149299Y-71310976D01*
X108036751Y-71142537D01*
X108036748Y-71142533D01*
X107897466Y-71003251D01*
X107897462Y-71003248D01*
X107733684Y-70893814D01*
X107733671Y-70893807D01*
X107551691Y-70818429D01*
X107551683Y-70818427D01*
X107510000Y-70810135D01*
X107510000Y-71613011D01*
X107500060Y-71595795D01*
X107444205Y-71539940D01*
X107375796Y-71500444D01*
X107299496Y-71480000D01*
X107220504Y-71480000D01*
X107144204Y-71500444D01*
X107075795Y-71539940D01*
X107019940Y-71595795D01*
X107010000Y-71613011D01*
X107010000Y-70810136D01*
X107009999Y-70810135D01*
X106968316Y-70818427D01*
X106968308Y-70818429D01*
X106786328Y-70893807D01*
X106786315Y-70893814D01*
X106622537Y-71003248D01*
X106503482Y-71122303D01*
X106495355Y-71126740D01*
X106489783Y-71134133D01*
X106465178Y-71143217D01*
X106442159Y-71155787D01*
X106432924Y-71155126D01*
X106424238Y-71158334D01*
X106398627Y-71152673D01*
X106372467Y-71150803D01*
X106363242Y-71144853D01*
X106356015Y-71143256D01*
X106341705Y-71130961D01*
X106327830Y-71122012D01*
X106321205Y-71115343D01*
X106320480Y-71114087D01*
X106245913Y-71039520D01*
X106245910Y-71039518D01*
X103896818Y-68690426D01*
X103863333Y-68629103D01*
X103860499Y-68602745D01*
X103860499Y-67175143D01*
X103860499Y-67175136D01*
X103860497Y-67175117D01*
X103856511Y-67140742D01*
X103859837Y-67140356D01*
X103860891Y-67087214D01*
X103899823Y-67029196D01*
X103963941Y-67001436D01*
X103979152Y-67000500D01*
X106395923Y-67000500D01*
X106462962Y-67020185D01*
G37*
%TD.AperFunction*%
%TA.AperFunction,Conductor*%
G36*
X104139784Y-76110185D02*
G01*
X104160426Y-76126819D01*
X104861181Y-76827574D01*
X104894666Y-76888897D01*
X104897500Y-76915255D01*
X104897500Y-85984745D01*
X104877815Y-86051784D01*
X104861181Y-86072426D01*
X104779522Y-86154084D01*
X104779520Y-86154087D01*
X104726791Y-86245413D01*
X104707900Y-86315925D01*
X104703673Y-86331700D01*
X104699500Y-86347273D01*
X104699500Y-86550621D01*
X104699429Y-86552726D01*
X104689090Y-86583996D01*
X104679815Y-86615584D01*
X104677833Y-86618042D01*
X104677496Y-86619064D01*
X104676101Y-86620192D01*
X104663181Y-86636226D01*
X104403629Y-86895777D01*
X104403625Y-86895783D01*
X104350898Y-86987107D01*
X104350898Y-86987108D01*
X104346135Y-87004885D01*
X104314043Y-87060470D01*
X104051569Y-87322945D01*
X103998841Y-87414270D01*
X103985952Y-87462379D01*
X103971550Y-87516128D01*
X103971550Y-87815238D01*
X103951865Y-87882277D01*
X103899061Y-87928032D01*
X103829903Y-87937976D01*
X103766347Y-87908951D01*
X103737065Y-87871533D01*
X103728431Y-87854588D01*
X103693996Y-87787006D01*
X103631401Y-87700851D01*
X103587558Y-87640505D01*
X103587554Y-87640500D01*
X103459499Y-87512445D01*
X103459494Y-87512441D01*
X103312995Y-87406004D01*
X103181314Y-87338908D01*
X103130519Y-87290934D01*
X103113724Y-87223113D01*
X103136262Y-87156978D01*
X103190977Y-87113527D01*
X103199295Y-87110492D01*
X103228217Y-87101095D01*
X103417554Y-87004622D01*
X103471716Y-86965270D01*
X103471717Y-86965270D01*
X102839408Y-86332962D01*
X102902993Y-86315925D01*
X103017007Y-86250099D01*
X103110099Y-86157007D01*
X103175925Y-86042993D01*
X103192962Y-85979409D01*
X103825270Y-86611717D01*
X103825270Y-86611716D01*
X103864622Y-86557554D01*
X103961095Y-86368217D01*
X104026757Y-86166130D01*
X104026757Y-86166127D01*
X104060000Y-85956246D01*
X104060000Y-85743753D01*
X104026757Y-85533872D01*
X104026757Y-85533869D01*
X103961095Y-85331782D01*
X103864624Y-85142449D01*
X103825270Y-85088282D01*
X103825269Y-85088282D01*
X103192962Y-85720590D01*
X103175925Y-85657007D01*
X103110099Y-85542993D01*
X103017007Y-85449901D01*
X102902993Y-85384075D01*
X102839409Y-85367037D01*
X103471716Y-84734728D01*
X103417550Y-84695375D01*
X103228217Y-84598904D01*
X103199292Y-84589506D01*
X103141616Y-84550068D01*
X103114418Y-84485710D01*
X103126333Y-84416863D01*
X103173577Y-84365388D01*
X103181315Y-84361090D01*
X103312994Y-84293996D01*
X103459501Y-84187553D01*
X103587553Y-84059501D01*
X103693996Y-83912994D01*
X103776211Y-83751639D01*
X103832171Y-83579409D01*
X103846765Y-83487259D01*
X103860500Y-83400551D01*
X103860500Y-83219448D01*
X103844019Y-83115397D01*
X103832171Y-83040591D01*
X103776211Y-82868361D01*
X103776211Y-82868360D01*
X103747740Y-82812484D01*
X103693996Y-82707006D01*
X103631401Y-82620851D01*
X103587558Y-82560505D01*
X103587554Y-82560500D01*
X103459499Y-82432445D01*
X103459494Y-82432441D01*
X103312997Y-82326006D01*
X103312996Y-82326005D01*
X103312994Y-82326004D01*
X103261300Y-82299664D01*
X103151639Y-82243788D01*
X103151636Y-82243787D01*
X102979410Y-82187829D01*
X102819321Y-82162473D01*
X102756186Y-82132544D01*
X102719255Y-82073232D01*
X102720253Y-82003370D01*
X102758863Y-81945137D01*
X102819321Y-81917527D01*
X102889425Y-81906422D01*
X102979409Y-81892171D01*
X103151639Y-81836211D01*
X103312994Y-81753996D01*
X103459501Y-81647553D01*
X103587553Y-81519501D01*
X103693996Y-81372994D01*
X103776211Y-81211639D01*
X103832171Y-81039409D01*
X103846765Y-80947259D01*
X103860500Y-80860551D01*
X103860500Y-80679448D01*
X103844019Y-80575397D01*
X103832171Y-80500591D01*
X103776211Y-80328361D01*
X103776211Y-80328360D01*
X103747740Y-80272484D01*
X103693996Y-80167006D01*
X103631401Y-80080851D01*
X103587558Y-80020505D01*
X103587554Y-80020500D01*
X103459499Y-79892445D01*
X103459494Y-79892441D01*
X103312997Y-79786006D01*
X103312996Y-79786005D01*
X103312994Y-79786004D01*
X103261300Y-79759664D01*
X103151639Y-79703788D01*
X103151636Y-79703787D01*
X102979410Y-79647829D01*
X102819321Y-79622473D01*
X102756186Y-79592544D01*
X102719255Y-79533232D01*
X102720253Y-79463370D01*
X102758863Y-79405137D01*
X102819321Y-79377527D01*
X102889425Y-79366422D01*
X102979409Y-79352171D01*
X103151639Y-79296211D01*
X103312994Y-79213996D01*
X103459501Y-79107553D01*
X103587553Y-78979501D01*
X103693996Y-78832994D01*
X103776211Y-78671639D01*
X103832171Y-78499409D01*
X103846765Y-78407259D01*
X103860500Y-78320551D01*
X103860500Y-78139448D01*
X103844019Y-78035397D01*
X103832171Y-77960591D01*
X103776211Y-77788361D01*
X103776211Y-77788360D01*
X103747740Y-77732484D01*
X103693996Y-77627006D01*
X103631401Y-77540851D01*
X103587558Y-77480505D01*
X103587554Y-77480500D01*
X103459499Y-77352445D01*
X103459494Y-77352441D01*
X103312997Y-77246006D01*
X103312996Y-77246005D01*
X103312994Y-77246004D01*
X103261300Y-77219664D01*
X103151639Y-77163788D01*
X103151636Y-77163787D01*
X102979410Y-77107829D01*
X102819321Y-77082473D01*
X102756186Y-77052544D01*
X102719255Y-76993232D01*
X102720253Y-76923370D01*
X102758863Y-76865137D01*
X102819321Y-76837527D01*
X102889425Y-76826422D01*
X102979409Y-76812171D01*
X103151639Y-76756211D01*
X103312994Y-76673996D01*
X103459501Y-76567553D01*
X103587553Y-76439501D01*
X103693996Y-76292994D01*
X103762675Y-76158205D01*
X103773124Y-76147140D01*
X103779447Y-76133297D01*
X103796627Y-76122255D01*
X103810650Y-76107409D01*
X103826329Y-76103167D01*
X103838225Y-76095523D01*
X103873160Y-76090500D01*
X104072745Y-76090500D01*
X104139784Y-76110185D01*
G37*
%TD.AperFunction*%
%TA.AperFunction,Conductor*%
G36*
X121563181Y-86569627D02*
G01*
X121596666Y-86630950D01*
X121599500Y-86657308D01*
X121599500Y-87578113D01*
X121579815Y-87645152D01*
X121527011Y-87690907D01*
X121457853Y-87700851D01*
X121394297Y-87671826D01*
X121375182Y-87650998D01*
X121367558Y-87640505D01*
X121367554Y-87640500D01*
X121239499Y-87512445D01*
X121239494Y-87512441D01*
X121092995Y-87406004D01*
X120961314Y-87338908D01*
X120910519Y-87290934D01*
X120893724Y-87223113D01*
X120916262Y-87156978D01*
X120970977Y-87113527D01*
X120979295Y-87110492D01*
X121008217Y-87101095D01*
X121197554Y-87004622D01*
X121251716Y-86965270D01*
X121251717Y-86965270D01*
X120619408Y-86332962D01*
X120682993Y-86315925D01*
X120797007Y-86250099D01*
X120890099Y-86157007D01*
X120955925Y-86042993D01*
X120972962Y-85979408D01*
X121563181Y-86569627D01*
G37*
%TD.AperFunction*%
%TA.AperFunction,Conductor*%
G36*
X102244075Y-86042993D02*
G01*
X102309901Y-86157007D01*
X102402993Y-86250099D01*
X102517007Y-86315925D01*
X102580590Y-86332962D01*
X101948282Y-86965269D01*
X101948282Y-86965270D01*
X102002449Y-87004624D01*
X102191780Y-87101094D01*
X102220705Y-87110492D01*
X102278381Y-87149929D01*
X102305580Y-87214287D01*
X102293667Y-87283134D01*
X102246424Y-87334610D01*
X102238685Y-87338908D01*
X102107004Y-87406004D01*
X101960505Y-87512441D01*
X101960500Y-87512445D01*
X101832445Y-87640500D01*
X101832441Y-87640505D01*
X101824818Y-87650998D01*
X101769488Y-87693664D01*
X101699875Y-87699643D01*
X101638080Y-87667037D01*
X101603723Y-87606199D01*
X101600500Y-87578113D01*
X101600500Y-86657308D01*
X101620185Y-86590269D01*
X101636819Y-86569627D01*
X102227037Y-85979408D01*
X102244075Y-86042993D01*
G37*
%TD.AperFunction*%
%TA.AperFunction,Conductor*%
G36*
X101805703Y-84028173D02*
G01*
X101824821Y-84049004D01*
X101832446Y-84059500D01*
X101960500Y-84187554D01*
X101960505Y-84187558D01*
X102088287Y-84280396D01*
X102107006Y-84293996D01*
X102208780Y-84345853D01*
X102238684Y-84361090D01*
X102289480Y-84409065D01*
X102306275Y-84476886D01*
X102283737Y-84543021D01*
X102229022Y-84586472D01*
X102220708Y-84589506D01*
X102191781Y-84598905D01*
X102002439Y-84695380D01*
X101948282Y-84734727D01*
X101948282Y-84734728D01*
X102580591Y-85367037D01*
X102517007Y-85384075D01*
X102402993Y-85449901D01*
X102309901Y-85542993D01*
X102244075Y-85657007D01*
X102227037Y-85720591D01*
X101636819Y-85130373D01*
X101603334Y-85069050D01*
X101600500Y-85042692D01*
X101600500Y-84121886D01*
X101620185Y-84054847D01*
X101672989Y-84009092D01*
X101742147Y-83999148D01*
X101805703Y-84028173D01*
G37*
%TD.AperFunction*%
%TA.AperFunction,Conductor*%
G36*
X121561917Y-84032959D02*
G01*
X121596277Y-84093796D01*
X121599500Y-84121886D01*
X121599500Y-85042692D01*
X121579815Y-85109731D01*
X121563181Y-85130373D01*
X120972962Y-85720591D01*
X120955925Y-85657007D01*
X120890099Y-85542993D01*
X120797007Y-85449901D01*
X120682993Y-85384075D01*
X120619409Y-85367037D01*
X121251716Y-84734728D01*
X121197550Y-84695375D01*
X121008217Y-84598904D01*
X120979292Y-84589506D01*
X120921616Y-84550068D01*
X120894418Y-84485710D01*
X120906333Y-84416863D01*
X120953577Y-84365388D01*
X120961315Y-84361090D01*
X121092994Y-84293996D01*
X121239501Y-84187553D01*
X121367553Y-84059501D01*
X121375180Y-84049003D01*
X121430508Y-84006336D01*
X121500121Y-84000355D01*
X121561917Y-84032959D01*
G37*
%TD.AperFunction*%
%TA.AperFunction,Conductor*%
G36*
X104188572Y-72667839D02*
G01*
X104227985Y-72694378D01*
X105262181Y-73728574D01*
X105295666Y-73789897D01*
X105298500Y-73816255D01*
X105298500Y-75832745D01*
X105278815Y-75899784D01*
X105226011Y-75945539D01*
X105156853Y-75955483D01*
X105093297Y-75926458D01*
X105086819Y-75920426D01*
X104535915Y-75369522D01*
X104535913Y-75369520D01*
X104490250Y-75343156D01*
X104444589Y-75316793D01*
X104393657Y-75303146D01*
X104342727Y-75289500D01*
X104342726Y-75289500D01*
X103873160Y-75289500D01*
X103806121Y-75269815D01*
X103762675Y-75221795D01*
X103754009Y-75204787D01*
X103693996Y-75087006D01*
X103631401Y-75000851D01*
X103587558Y-74940505D01*
X103587554Y-74940500D01*
X103459499Y-74812445D01*
X103459494Y-74812441D01*
X103312995Y-74706004D01*
X103181314Y-74638908D01*
X103130519Y-74590934D01*
X103113724Y-74523113D01*
X103136262Y-74456978D01*
X103190977Y-74413527D01*
X103199295Y-74410492D01*
X103228217Y-74401095D01*
X103417554Y-74304622D01*
X103471716Y-74265270D01*
X103471717Y-74265270D01*
X102839408Y-73632962D01*
X102902993Y-73615925D01*
X103017007Y-73550099D01*
X103110099Y-73457007D01*
X103175925Y-73342993D01*
X103192962Y-73279408D01*
X103825270Y-73911717D01*
X103825270Y-73911716D01*
X103864622Y-73857554D01*
X103961095Y-73668217D01*
X104026757Y-73466130D01*
X104026757Y-73466127D01*
X104060000Y-73256246D01*
X104060000Y-73043753D01*
X104026758Y-72833873D01*
X104022373Y-72820378D01*
X104020377Y-72750537D01*
X104056457Y-72690704D01*
X104119158Y-72659875D01*
X104188572Y-72667839D01*
G37*
%TD.AperFunction*%
%TA.AperFunction,Conductor*%
G36*
X119103028Y-72665876D02*
G01*
X119158962Y-72707748D01*
X119183379Y-72773212D01*
X119177628Y-72820370D01*
X119173243Y-72833866D01*
X119173242Y-72833872D01*
X119140000Y-73043753D01*
X119140000Y-73256246D01*
X119173242Y-73466127D01*
X119173242Y-73466130D01*
X119238904Y-73668217D01*
X119335375Y-73857550D01*
X119374728Y-73911716D01*
X120007037Y-73279408D01*
X120024075Y-73342993D01*
X120089901Y-73457007D01*
X120182993Y-73550099D01*
X120297007Y-73615925D01*
X120360590Y-73632962D01*
X119728282Y-74265269D01*
X119728282Y-74265270D01*
X119782449Y-74304624D01*
X119971780Y-74401094D01*
X120000705Y-74410492D01*
X120058381Y-74449929D01*
X120085580Y-74514287D01*
X120073667Y-74583134D01*
X120026424Y-74634610D01*
X120018685Y-74638908D01*
X119887004Y-74706004D01*
X119740505Y-74812441D01*
X119740500Y-74812445D01*
X119612445Y-74940500D01*
X119612441Y-74940505D01*
X119506006Y-75087002D01*
X119437325Y-75221795D01*
X119426875Y-75232859D01*
X119420553Y-75246703D01*
X119403372Y-75257744D01*
X119389350Y-75272591D01*
X119373670Y-75276832D01*
X119361775Y-75284477D01*
X119326840Y-75289500D01*
X119270339Y-75289500D01*
X119270323Y-75289499D01*
X119262727Y-75289499D01*
X119157273Y-75289499D01*
X119089366Y-75307695D01*
X119055412Y-75316793D01*
X118964084Y-75369522D01*
X118412181Y-75921426D01*
X118350858Y-75954911D01*
X118281166Y-75949927D01*
X118225233Y-75908055D01*
X118200816Y-75842591D01*
X118200500Y-75833745D01*
X118200500Y-73517254D01*
X118220185Y-73450215D01*
X118236814Y-73429578D01*
X118972017Y-72694375D01*
X119033337Y-72660892D01*
X119103028Y-72665876D01*
G37*
%TD.AperFunction*%
%TA.AperFunction,Conductor*%
G36*
X121563181Y-73869627D02*
G01*
X121596666Y-73930950D01*
X121599500Y-73957308D01*
X121599500Y-74878113D01*
X121579815Y-74945152D01*
X121527011Y-74990907D01*
X121457853Y-75000851D01*
X121394297Y-74971826D01*
X121375182Y-74950998D01*
X121367558Y-74940505D01*
X121367554Y-74940500D01*
X121239499Y-74812445D01*
X121239494Y-74812441D01*
X121092995Y-74706004D01*
X120961314Y-74638908D01*
X120910519Y-74590934D01*
X120893724Y-74523113D01*
X120916262Y-74456978D01*
X120970977Y-74413527D01*
X120979295Y-74410492D01*
X121008217Y-74401095D01*
X121197554Y-74304622D01*
X121251716Y-74265270D01*
X121251717Y-74265270D01*
X120619408Y-73632962D01*
X120682993Y-73615925D01*
X120797007Y-73550099D01*
X120890099Y-73457007D01*
X120955925Y-73342993D01*
X120972962Y-73279408D01*
X121563181Y-73869627D01*
G37*
%TD.AperFunction*%
%TA.AperFunction,Conductor*%
G36*
X102244075Y-73342993D02*
G01*
X102309901Y-73457007D01*
X102402993Y-73550099D01*
X102517007Y-73615925D01*
X102580590Y-73632962D01*
X101948282Y-74265269D01*
X101948282Y-74265270D01*
X102002449Y-74304624D01*
X102191780Y-74401094D01*
X102220705Y-74410492D01*
X102278381Y-74449929D01*
X102305580Y-74514287D01*
X102293667Y-74583134D01*
X102246424Y-74634610D01*
X102238685Y-74638908D01*
X102107004Y-74706004D01*
X101960505Y-74812441D01*
X101960500Y-74812445D01*
X101832445Y-74940500D01*
X101832441Y-74940505D01*
X101824818Y-74950998D01*
X101769488Y-74993664D01*
X101699875Y-74999643D01*
X101638080Y-74967037D01*
X101603723Y-74906199D01*
X101600500Y-74878113D01*
X101600500Y-73957308D01*
X101620185Y-73890269D01*
X101636819Y-73869627D01*
X102227037Y-73279408D01*
X102244075Y-73342993D01*
G37*
%TD.AperFunction*%
%TA.AperFunction,Conductor*%
G36*
X101805703Y-71328173D02*
G01*
X101824821Y-71349004D01*
X101832446Y-71359500D01*
X101960500Y-71487554D01*
X101960505Y-71487558D01*
X102083962Y-71577254D01*
X102107006Y-71593996D01*
X102208780Y-71645853D01*
X102238684Y-71661090D01*
X102289480Y-71709065D01*
X102306275Y-71776886D01*
X102283737Y-71843021D01*
X102229022Y-71886472D01*
X102220708Y-71889506D01*
X102191781Y-71898905D01*
X102002439Y-71995380D01*
X101948282Y-72034727D01*
X101948282Y-72034728D01*
X102580591Y-72667037D01*
X102517007Y-72684075D01*
X102402993Y-72749901D01*
X102309901Y-72842993D01*
X102244075Y-72957007D01*
X102227037Y-73020591D01*
X101636819Y-72430373D01*
X101603334Y-72369050D01*
X101600500Y-72342692D01*
X101600500Y-71421886D01*
X101620185Y-71354847D01*
X101672989Y-71309092D01*
X101742147Y-71299148D01*
X101805703Y-71328173D01*
G37*
%TD.AperFunction*%
%TA.AperFunction,Conductor*%
G36*
X121561917Y-71332959D02*
G01*
X121596277Y-71393796D01*
X121599500Y-71421886D01*
X121599500Y-72342692D01*
X121579815Y-72409731D01*
X121563181Y-72430373D01*
X120972962Y-73020591D01*
X120955925Y-72957007D01*
X120890099Y-72842993D01*
X120797007Y-72749901D01*
X120682993Y-72684075D01*
X120619408Y-72667037D01*
X121251716Y-72034728D01*
X121197550Y-71995375D01*
X121008217Y-71898904D01*
X120979292Y-71889506D01*
X120921616Y-71850068D01*
X120894418Y-71785710D01*
X120906333Y-71716863D01*
X120953577Y-71665388D01*
X120961315Y-71661090D01*
X121092994Y-71593996D01*
X121239501Y-71487553D01*
X121367553Y-71359501D01*
X121375180Y-71349003D01*
X121430508Y-71306336D01*
X121500121Y-71300355D01*
X121561917Y-71332959D01*
G37*
%TD.AperFunction*%
%TD*%
M02*
