%TF.GenerationSoftware,KiCad,Pcbnew,9.0.6*%
%TF.CreationDate,2026-01-03T15:13:41+00:00*%
%TF.ProjectId,Metaboard,4d657461-626f-4617-9264-2e6b69636164,rev?*%
%TF.SameCoordinates,Original*%
%TF.FileFunction,Paste,Top*%
%TF.FilePolarity,Positive*%
%FSLAX46Y46*%
G04 Gerber Fmt 4.6, Leading zero omitted, Abs format (unit mm)*
G04 Created by KiCad (PCBNEW 9.0.6) date 2026-01-03 15:13:41*
%MOMM*%
%LPD*%
G01*
G04 APERTURE LIST*
G04 Aperture macros list*
%AMRoundRect*
0 Rectangle with rounded corners*
0 $1 Rounding radius*
0 $2 $3 $4 $5 $6 $7 $8 $9 X,Y pos of 4 corners*
0 Add a 4 corners polygon primitive as box body*
4,1,4,$2,$3,$4,$5,$6,$7,$8,$9,$2,$3,0*
0 Add four circle primitives for the rounded corners*
1,1,$1+$1,$2,$3*
1,1,$1+$1,$4,$5*
1,1,$1+$1,$6,$7*
1,1,$1+$1,$8,$9*
0 Add four rect primitives between the rounded corners*
20,1,$1+$1,$2,$3,$4,$5,0*
20,1,$1+$1,$4,$5,$6,$7,0*
20,1,$1+$1,$6,$7,$8,$9,0*
20,1,$1+$1,$8,$9,$2,$3,0*%
G04 Aperture macros list end*
%ADD10RoundRect,0.140000X-0.170000X0.140000X-0.170000X-0.140000X0.170000X-0.140000X0.170000X0.140000X0*%
%ADD11RoundRect,0.140000X-0.140000X-0.170000X0.140000X-0.170000X0.140000X0.170000X-0.140000X0.170000X0*%
%ADD12RoundRect,0.135000X-0.185000X0.135000X-0.185000X-0.135000X0.185000X-0.135000X0.185000X0.135000X0*%
%ADD13RoundRect,0.140000X0.170000X-0.140000X0.170000X0.140000X-0.170000X0.140000X-0.170000X-0.140000X0*%
%ADD14RoundRect,0.250000X0.450000X0.350000X-0.450000X0.350000X-0.450000X-0.350000X0.450000X-0.350000X0*%
%ADD15RoundRect,0.135000X0.135000X0.185000X-0.135000X0.185000X-0.135000X-0.185000X0.135000X-0.185000X0*%
%ADD16RoundRect,0.200000X0.800000X-0.200000X0.800000X0.200000X-0.800000X0.200000X-0.800000X-0.200000X0*%
%ADD17RoundRect,0.150000X0.150000X-0.587500X0.150000X0.587500X-0.150000X0.587500X-0.150000X-0.587500X0*%
%ADD18RoundRect,0.140000X0.140000X0.170000X-0.140000X0.170000X-0.140000X-0.170000X0.140000X-0.170000X0*%
%ADD19RoundRect,0.135000X-0.135000X-0.185000X0.135000X-0.185000X0.135000X0.185000X-0.135000X0.185000X0*%
%ADD20R,0.600000X1.450000*%
%ADD21R,0.300000X1.450000*%
%ADD22RoundRect,0.225000X0.225000X0.250000X-0.225000X0.250000X-0.225000X-0.250000X0.225000X-0.250000X0*%
%ADD23RoundRect,0.040000X-0.040000X-0.605000X0.040000X-0.605000X0.040000X0.605000X-0.040000X0.605000X0*%
%ADD24RoundRect,0.062500X-0.387500X-0.062500X0.387500X-0.062500X0.387500X0.062500X-0.387500X0.062500X0*%
%ADD25RoundRect,0.249999X-0.395001X-0.395001X0.395001X-0.395001X0.395001X0.395001X-0.395001X0.395001X0*%
%ADD26RoundRect,0.050000X-0.387500X-0.050000X0.387500X-0.050000X0.387500X0.050000X-0.387500X0.050000X0*%
%ADD27RoundRect,0.050000X-0.050000X-0.387500X0.050000X-0.387500X0.050000X0.387500X-0.050000X0.387500X0*%
%ADD28RoundRect,0.082000X0.718000X-0.328000X0.718000X0.328000X-0.718000X0.328000X-0.718000X-0.328000X0*%
%ADD29RoundRect,0.082000X-0.718000X0.328000X-0.718000X-0.328000X0.718000X-0.328000X0.718000X0.328000X0*%
G04 APERTURE END LIST*
D10*
%TO.C,C10*%
X115000000Y-102020000D03*
X115000000Y-102980000D03*
%TD*%
D11*
%TO.C,C3*%
X116200000Y-92660000D03*
X117160000Y-92660000D03*
%TD*%
D12*
%TO.C,R3*%
X112260000Y-90080000D03*
X112260000Y-91100000D03*
%TD*%
D13*
%TO.C,C4*%
X115300000Y-91460000D03*
X115300000Y-90500000D03*
%TD*%
D14*
%TO.C,Y1*%
X112145000Y-104090000D03*
X109945000Y-104090000D03*
X109945000Y-105790000D03*
X112145000Y-105790000D03*
%TD*%
D15*
%TO.C,R6*%
X108740000Y-107280000D03*
X107720000Y-107280000D03*
%TD*%
D13*
%TO.C,C11*%
X111200000Y-88380000D03*
X111200000Y-87420000D03*
%TD*%
D16*
%TO.C,SW1*%
X107600000Y-112800000D03*
X107600000Y-108600000D03*
%TD*%
D13*
%TO.C,C9*%
X113500000Y-87360000D03*
X113500000Y-86400000D03*
%TD*%
%TO.C,C1*%
X116300000Y-91480000D03*
X116300000Y-90520000D03*
%TD*%
D17*
%TO.C,U4*%
X108070000Y-79035000D03*
X109970000Y-79035000D03*
X109020000Y-77160000D03*
%TD*%
D13*
%TO.C,C2*%
X112400000Y-88400000D03*
X112400000Y-87440000D03*
%TD*%
D18*
%TO.C,C7*%
X106610000Y-97710000D03*
X105650000Y-97710000D03*
%TD*%
%TO.C,C6*%
X107220000Y-92700000D03*
X106260000Y-92700000D03*
%TD*%
D13*
%TO.C,C16*%
X113670000Y-105770000D03*
X113670000Y-104810000D03*
%TD*%
D11*
%TO.C,C5*%
X117280000Y-97180000D03*
X118240000Y-97180000D03*
%TD*%
D10*
%TO.C,C8*%
X113800000Y-102000000D03*
X113800000Y-102960000D03*
%TD*%
D13*
%TO.C,C12*%
X114300000Y-91290000D03*
X114300000Y-90330000D03*
%TD*%
D19*
%TO.C,R5*%
X111450000Y-102390000D03*
X112470000Y-102390000D03*
%TD*%
D20*
%TO.C,J1*%
X114830000Y-73245000D03*
X114030000Y-73245000D03*
D21*
X112830000Y-73245000D03*
X111830000Y-73245000D03*
X111330000Y-73245000D03*
X110330000Y-73245000D03*
D20*
X109130000Y-73245000D03*
X108330000Y-73245000D03*
X108330000Y-73245000D03*
X109130000Y-73245000D03*
D21*
X109830000Y-73245000D03*
X110830000Y-73245000D03*
X112330000Y-73245000D03*
X113330000Y-73245000D03*
D20*
X114030000Y-73245000D03*
X114830000Y-73245000D03*
%TD*%
D18*
%TO.C,C17*%
X110000000Y-87300000D03*
X109040000Y-87300000D03*
%TD*%
D12*
%TO.C,R1*%
X113060000Y-75060000D03*
X113060000Y-76080000D03*
%TD*%
%TO.C,R4*%
X113350000Y-90075000D03*
X113350000Y-91095000D03*
%TD*%
D22*
%TO.C,C14*%
X109775000Y-80900000D03*
X108225000Y-80900000D03*
%TD*%
%TO.C,C13*%
X108890000Y-75340000D03*
X107340000Y-75340000D03*
%TD*%
D10*
%TO.C,C15*%
X108400000Y-104140000D03*
X108400000Y-105100000D03*
%TD*%
D23*
%TO.C,U3*%
X108367102Y-89250000D03*
D24*
X106942102Y-88500000D03*
X106942102Y-89000000D03*
X106942102Y-89500000D03*
X106942102Y-90000000D03*
X109792102Y-90000000D03*
X109792102Y-89500000D03*
X109792102Y-89000000D03*
X109792102Y-88500000D03*
%TD*%
D12*
%TO.C,R2*%
X110190000Y-75050000D03*
X110190000Y-76070000D03*
%TD*%
D19*
%TO.C,R7*%
X106970000Y-87310000D03*
X107990000Y-87310000D03*
%TD*%
D25*
%TO.C,U1*%
X110800000Y-95400000D03*
X110800000Y-97000000D03*
X112400000Y-95400000D03*
X112400000Y-97000000D03*
D26*
X108162500Y-93600000D03*
X108162500Y-94000000D03*
X108162500Y-94400000D03*
X108162500Y-94800000D03*
X108162500Y-95200000D03*
X108162500Y-95600000D03*
X108162500Y-96000000D03*
X108162500Y-96400000D03*
X108162500Y-96800000D03*
X108162500Y-97200000D03*
X108162500Y-97600000D03*
X108162500Y-98000000D03*
X108162500Y-98400000D03*
X108162500Y-98800000D03*
D27*
X109000000Y-99637500D03*
X109400000Y-99637500D03*
X109800000Y-99637500D03*
X110200000Y-99637500D03*
X110600000Y-99637500D03*
X111000000Y-99637500D03*
X111400000Y-99637500D03*
X111800000Y-99637500D03*
X112200000Y-99637500D03*
X112600000Y-99637500D03*
X113000000Y-99637500D03*
X113400000Y-99637500D03*
X113800000Y-99637500D03*
X114200000Y-99637500D03*
D26*
X115037500Y-98800000D03*
X115037500Y-98400000D03*
X115037500Y-98000000D03*
X115037500Y-97600000D03*
X115037500Y-97200000D03*
X115037500Y-96800000D03*
X115037500Y-96400000D03*
X115037500Y-96000000D03*
X115037500Y-95600000D03*
X115037500Y-95200000D03*
X115037500Y-94800000D03*
X115037500Y-94400000D03*
X115037500Y-94000000D03*
X115037500Y-93600000D03*
D27*
X114200000Y-92762500D03*
X113800000Y-92762500D03*
X113400000Y-92762500D03*
X113000000Y-92762500D03*
X112600000Y-92762500D03*
X112200000Y-92762500D03*
X111800000Y-92762500D03*
X111400000Y-92762500D03*
X111000000Y-92762500D03*
X110600000Y-92762500D03*
X110200000Y-92762500D03*
X109800000Y-92762500D03*
X109400000Y-92762500D03*
X109000000Y-92762500D03*
%TD*%
D28*
%TO.C,D1*%
X110800000Y-111600000D03*
D29*
X116000000Y-111600000D03*
D28*
X116000000Y-110100000D03*
D29*
X110800000Y-110100000D03*
%TD*%
M02*
