%TF.GenerationSoftware,KiCad,Pcbnew,9.0.6*%
%TF.CreationDate,2026-01-03T15:14:00+00:00*%
%TF.ProjectId,Metaboard,4d657461-626f-4617-9264-2e6b69636164,rev?*%
%TF.SameCoordinates,Original*%
%TF.FileFunction,Drillmap*%
%TF.FilePolarity,Positive*%
%FSLAX45Y45*%
G04 Gerber Fmt 4.5, Leading zero omitted, Abs format (unit mm)*
G04 Created by KiCad (PCBNEW 9.0.6) date 2026-01-03 15:14:00*
%MOMM*%
%LPD*%
G01*
G04 APERTURE LIST*
%ADD10C,0.050000*%
%ADD11C,0.100000*%
%ADD12C,0.200000*%
G04 APERTURE END LIST*
D10*
X10110000Y-6650000D02*
X12210000Y-6650000D01*
X12210000Y-11790000D01*
X10110000Y-11790000D01*
X10110000Y-6650000D01*
D11*
X11170000Y-11014716D02*
X11170000Y-11155284D01*
X11260555Y-11235000D02*
X11419445Y-11235000D01*
X11419445Y-10935000D02*
X11260555Y-10935000D01*
X11510000Y-11155284D02*
X11510000Y-11014716D01*
X11165052Y-10993028D02*
G75*
G02*
X11170000Y-11014716I-45051J-21688D01*
G01*
X11165052Y-10993028D02*
G75*
G02*
X11235329Y-10928170I45052J21688D01*
G01*
X11170000Y-11155284D02*
G75*
G02*
X11165052Y-11176972I-49999J0D01*
G01*
X11235329Y-11241830D02*
G75*
G02*
X11165052Y-11176972I-25226J43170D01*
G01*
X11235329Y-11241830D02*
G75*
G02*
X11260555Y-11235000I25225J-43168D01*
G01*
X11260555Y-10935000D02*
G75*
G02*
X11235329Y-10928170I0J50001D01*
G01*
X11419445Y-11235000D02*
G75*
G02*
X11444671Y-11241830I0J-50001D01*
G01*
X11444671Y-10928170D02*
G75*
G02*
X11419445Y-10935000I-25225J43168D01*
G01*
X11444671Y-10928170D02*
G75*
G02*
X11514948Y-10993028I25226J-43170D01*
G01*
X11510000Y-11014716D02*
G75*
G02*
X11514948Y-10993028I49999J0D01*
G01*
X11514948Y-11176972D02*
G75*
G02*
X11444671Y-11241830I-45052J-21688D01*
G01*
X11514948Y-11176972D02*
G75*
G02*
X11509998Y-11155284I45052J21692D01*
G01*
D12*
D11*
X10415000Y-7715000D02*
X10445000Y-7745000D01*
X10445000Y-7715000D02*
X10415000Y-7745000D01*
X10425000Y-7415000D02*
X10455000Y-7445000D01*
X10455000Y-7415000D02*
X10425000Y-7445000D01*
X10425000Y-9915000D02*
X10455000Y-9945000D01*
X10455000Y-9915000D02*
X10425000Y-9945000D01*
X10425000Y-11035000D02*
X10455000Y-11065000D01*
X10455000Y-11035000D02*
X10425000Y-11065000D01*
X10565000Y-9845000D02*
X10595000Y-9875000D01*
X10595000Y-9845000D02*
X10565000Y-9875000D01*
X10614000Y-9445000D02*
X10644000Y-9475000D01*
X10644000Y-9445000D02*
X10614000Y-9475000D01*
X10615000Y-9165000D02*
X10645000Y-9195000D01*
X10645000Y-9165000D02*
X10615000Y-9195000D01*
X10620043Y-9365228D02*
X10650043Y-9395228D01*
X10650043Y-9365228D02*
X10620043Y-9395228D01*
X10635000Y-10505000D02*
X10665000Y-10535000D01*
X10665000Y-10505000D02*
X10635000Y-10535000D01*
X10675000Y-8075000D02*
X10705000Y-8105000D01*
X10705000Y-8075000D02*
X10675000Y-8105000D01*
X10706000Y-9355000D02*
X10736000Y-9385000D01*
X10736000Y-9355000D02*
X10706000Y-9385000D01*
X10725000Y-10495000D02*
X10755000Y-10525000D01*
X10755000Y-10495000D02*
X10725000Y-10525000D01*
X10745000Y-7655000D02*
X10775000Y-7685000D01*
X10775000Y-7655000D02*
X10745000Y-7685000D01*
X10745000Y-11035000D02*
X10775000Y-11065000D01*
X10775000Y-11035000D02*
X10745000Y-11065000D01*
X10785000Y-10255000D02*
X10815000Y-10285000D01*
X10815000Y-10255000D02*
X10785000Y-10285000D01*
X10815000Y-8525000D02*
X10845000Y-8555000D01*
X10845000Y-8525000D02*
X10815000Y-8555000D01*
X10835000Y-8615000D02*
X10865000Y-8645000D01*
X10865000Y-8615000D02*
X10835000Y-8645000D01*
X10880147Y-9125000D02*
X10910147Y-9155000D01*
X10910147Y-9125000D02*
X10880147Y-9155000D01*
X10893591Y-9750943D02*
X10923591Y-9780943D01*
X10923591Y-9750943D02*
X10893591Y-9780943D01*
X10955000Y-10255000D02*
X10985000Y-10285000D01*
X10985000Y-10255000D02*
X10955000Y-10285000D01*
X10985000Y-11265000D02*
X11015000Y-11295000D01*
X11015000Y-11265000D02*
X10985000Y-11295000D01*
X11025000Y-10845000D02*
X11055000Y-10875000D01*
X11055000Y-10845000D02*
X11025000Y-10875000D01*
X11085000Y-9605000D02*
X11115000Y-9635000D01*
X11115000Y-9605000D02*
X11085000Y-9635000D01*
X11095000Y-9354900D02*
X11125000Y-9384900D01*
X11125000Y-9354900D02*
X11095000Y-9384900D01*
X11105000Y-7665000D02*
X11135000Y-7695000D01*
X11135000Y-7665000D02*
X11105000Y-7695000D01*
X11145000Y-11395000D02*
X11175000Y-11425000D01*
X11175000Y-11395000D02*
X11145000Y-11425000D01*
X11155000Y-10735000D02*
X11185000Y-10765000D01*
X11185000Y-10735000D02*
X11155000Y-10765000D01*
X11160401Y-9815000D02*
X11190401Y-9845000D01*
X11190401Y-9815000D02*
X11160401Y-9845000D01*
X11185000Y-8910000D02*
X11215000Y-8940000D01*
X11215000Y-8910000D02*
X11185000Y-8940000D01*
X11185000Y-9171985D02*
X11215000Y-9201985D01*
X11215000Y-9171985D02*
X11185000Y-9201985D01*
X11255662Y-9815000D02*
X11285662Y-9845000D01*
X11285662Y-9815000D02*
X11255662Y-9845000D01*
X11265000Y-8525000D02*
X11295000Y-8555000D01*
X11295000Y-8525000D02*
X11265000Y-8555000D01*
X11295138Y-9354784D02*
X11325138Y-9384784D01*
X11325138Y-9354784D02*
X11295138Y-9384784D01*
X11335660Y-9815582D02*
X11365660Y-9845582D01*
X11365660Y-9815582D02*
X11335660Y-9845582D01*
X11355000Y-9695000D02*
X11385000Y-9725000D01*
X11385000Y-9695000D02*
X11355000Y-9725000D01*
X11405000Y-9545000D02*
X11435000Y-9575000D01*
X11435000Y-9545000D02*
X11405000Y-9575000D01*
X11475000Y-7945000D02*
X11505000Y-7975000D01*
X11505000Y-7945000D02*
X11475000Y-7975000D01*
X11505000Y-10535000D02*
X11535000Y-10565000D01*
X11535000Y-10535000D02*
X11505000Y-10565000D01*
X11565000Y-11465000D02*
X11595000Y-11495000D01*
X11595000Y-11465000D02*
X11565000Y-11495000D01*
X11575000Y-8195000D02*
X11605000Y-8225000D01*
X11605000Y-8195000D02*
X11575000Y-8225000D01*
X11585000Y-10495000D02*
X11615000Y-10525000D01*
X11615000Y-10495000D02*
X11585000Y-10525000D01*
X11605000Y-7455000D02*
X11635000Y-7485000D01*
X11635000Y-7455000D02*
X11605000Y-7485000D01*
X11615000Y-11365000D02*
X11645000Y-11395000D01*
X11645000Y-11365000D02*
X11615000Y-11395000D01*
X11623000Y-9351000D02*
X11653000Y-9381000D01*
X11653000Y-9351000D02*
X11623000Y-9381000D01*
X11645000Y-8875000D02*
X11675000Y-8905000D01*
X11675000Y-8875000D02*
X11645000Y-8905000D01*
X11700604Y-9165000D02*
X11730604Y-9195000D01*
X11730604Y-9165000D02*
X11700604Y-9195000D01*
X11704000Y-9396000D02*
X11734000Y-9426000D01*
X11734000Y-9396000D02*
X11704000Y-9426000D01*
X11807573Y-9797574D02*
X11837573Y-9827574D01*
X11837573Y-9797574D02*
X11807573Y-9827574D01*
X11835000Y-10835000D02*
X11865000Y-10865000D01*
X11865000Y-10835000D02*
X11835000Y-10865000D01*
X11865000Y-10995000D02*
X11895000Y-11025000D01*
X11895000Y-10995000D02*
X11865000Y-11025000D01*
X11895000Y-9905000D02*
X11925000Y-9935000D01*
X11925000Y-9905000D02*
X11895000Y-9935000D01*
X11905000Y-7685000D02*
X11935000Y-7715000D01*
X11935000Y-7685000D02*
X11905000Y-7715000D01*
X11925000Y-8695000D02*
X11955000Y-8725000D01*
X11955000Y-8695000D02*
X11925000Y-8725000D01*
X10756000Y-6815000D02*
G75*
G02*
X10696000Y-6815000I-30000J0D01*
G01*
X10696000Y-6815000D02*
G75*
G02*
X10756000Y-6815000I30000J0D01*
G01*
X10756000Y-6845000D02*
X10756000Y-6785000D01*
X10696000Y-6785000D02*
G75*
G02*
X10756000Y-6785000I30000J0D01*
G01*
X10696000Y-6785000D02*
X10696000Y-6845000D01*
X10696000Y-6845000D02*
G75*
G03*
X10756000Y-6845000I30000J0D01*
G01*
X10756000Y-7233000D02*
G75*
G02*
X10696000Y-7233000I-30000J0D01*
G01*
X10696000Y-7233000D02*
G75*
G02*
X10756000Y-7233000I30000J0D01*
G01*
X10756000Y-7288000D02*
X10756000Y-7178000D01*
X10696000Y-7178000D02*
G75*
G02*
X10756000Y-7178000I30000J0D01*
G01*
X10696000Y-7178000D02*
X10696000Y-7288000D01*
X10696000Y-7288000D02*
G75*
G03*
X10756000Y-7288000I30000J0D01*
G01*
X11620000Y-6815000D02*
G75*
G02*
X11560000Y-6815000I-30000J0D01*
G01*
X11560000Y-6815000D02*
G75*
G02*
X11620000Y-6815000I30000J0D01*
G01*
X11620000Y-6845000D02*
X11620000Y-6785000D01*
X11560000Y-6785000D02*
G75*
G02*
X11620000Y-6785000I30000J0D01*
G01*
X11560000Y-6785000D02*
X11560000Y-6845000D01*
X11560000Y-6845000D02*
G75*
G03*
X11620000Y-6845000I30000J0D01*
G01*
X11620000Y-7233000D02*
G75*
G02*
X11560000Y-7233000I-30000J0D01*
G01*
X11560000Y-7233000D02*
G75*
G02*
X11620000Y-7233000I30000J0D01*
G01*
X11620000Y-7288000D02*
X11620000Y-7178000D01*
X11560000Y-7178000D02*
G75*
G02*
X11620000Y-7178000I30000J0D01*
G01*
X11560000Y-7178000D02*
X11560000Y-7288000D01*
X11560000Y-7288000D02*
G75*
G03*
X11620000Y-7288000I30000J0D01*
G01*
X10271000Y-6757000D02*
X10271000Y-6857000D01*
X10221000Y-6807000D02*
X10321000Y-6807000D01*
X10271000Y-7011000D02*
X10271000Y-7111000D01*
X10221000Y-7061000D02*
X10321000Y-7061000D01*
X10271000Y-7265000D02*
X10271000Y-7365000D01*
X10221000Y-7315000D02*
X10321000Y-7315000D01*
X10271000Y-7519000D02*
X10271000Y-7619000D01*
X10221000Y-7569000D02*
X10321000Y-7569000D01*
X10271000Y-7773000D02*
X10271000Y-7873000D01*
X10221000Y-7823000D02*
X10321000Y-7823000D01*
X10271000Y-8027000D02*
X10271000Y-8127000D01*
X10221000Y-8077000D02*
X10321000Y-8077000D01*
X10271000Y-8281000D02*
X10271000Y-8381000D01*
X10221000Y-8331000D02*
X10321000Y-8331000D01*
X10271000Y-8535000D02*
X10271000Y-8635000D01*
X10221000Y-8585000D02*
X10321000Y-8585000D01*
X10271000Y-8789000D02*
X10271000Y-8889000D01*
X10221000Y-8839000D02*
X10321000Y-8839000D01*
X10271000Y-9043000D02*
X10271000Y-9143000D01*
X10221000Y-9093000D02*
X10321000Y-9093000D01*
X10271000Y-9297000D02*
X10271000Y-9397000D01*
X10221000Y-9347000D02*
X10321000Y-9347000D01*
X10271000Y-9551000D02*
X10271000Y-9651000D01*
X10221000Y-9601000D02*
X10321000Y-9601000D01*
X10271000Y-9805000D02*
X10271000Y-9905000D01*
X10221000Y-9855000D02*
X10321000Y-9855000D01*
X10271000Y-10059000D02*
X10271000Y-10159000D01*
X10221000Y-10109000D02*
X10321000Y-10109000D01*
X10271000Y-10313000D02*
X10271000Y-10413000D01*
X10221000Y-10363000D02*
X10321000Y-10363000D01*
X10271000Y-10567000D02*
X10271000Y-10667000D01*
X10221000Y-10617000D02*
X10321000Y-10617000D01*
X10271000Y-10821000D02*
X10271000Y-10921000D01*
X10221000Y-10871000D02*
X10321000Y-10871000D01*
X10271000Y-11075000D02*
X10271000Y-11175000D01*
X10221000Y-11125000D02*
X10321000Y-11125000D01*
X10271000Y-11329000D02*
X10271000Y-11429000D01*
X10221000Y-11379000D02*
X10321000Y-11379000D01*
X10271000Y-11583000D02*
X10271000Y-11683000D01*
X10221000Y-11633000D02*
X10321000Y-11633000D01*
X10906000Y-11559000D02*
X10906000Y-11659000D01*
X10856000Y-11609000D02*
X10956000Y-11609000D01*
X11160000Y-11559000D02*
X11160000Y-11659000D01*
X11110000Y-11609000D02*
X11210000Y-11609000D01*
X11414000Y-11559000D02*
X11414000Y-11659000D01*
X11364000Y-11609000D02*
X11464000Y-11609000D01*
X12049000Y-6757000D02*
X12049000Y-6857000D01*
X11999000Y-6807000D02*
X12099000Y-6807000D01*
X12049000Y-7011000D02*
X12049000Y-7111000D01*
X11999000Y-7061000D02*
X12099000Y-7061000D01*
X12049000Y-7265000D02*
X12049000Y-7365000D01*
X11999000Y-7315000D02*
X12099000Y-7315000D01*
X12049000Y-7519000D02*
X12049000Y-7619000D01*
X11999000Y-7569000D02*
X12099000Y-7569000D01*
X12049000Y-7773000D02*
X12049000Y-7873000D01*
X11999000Y-7823000D02*
X12099000Y-7823000D01*
X12049000Y-8027000D02*
X12049000Y-8127000D01*
X11999000Y-8077000D02*
X12099000Y-8077000D01*
X12049000Y-8281000D02*
X12049000Y-8381000D01*
X11999000Y-8331000D02*
X12099000Y-8331000D01*
X12049000Y-8535000D02*
X12049000Y-8635000D01*
X11999000Y-8585000D02*
X12099000Y-8585000D01*
X12049000Y-8789000D02*
X12049000Y-8889000D01*
X11999000Y-8839000D02*
X12099000Y-8839000D01*
X12049000Y-9043000D02*
X12049000Y-9143000D01*
X11999000Y-9093000D02*
X12099000Y-9093000D01*
X12049000Y-9297000D02*
X12049000Y-9397000D01*
X11999000Y-9347000D02*
X12099000Y-9347000D01*
X12049000Y-9551000D02*
X12049000Y-9651000D01*
X11999000Y-9601000D02*
X12099000Y-9601000D01*
X12049000Y-9805000D02*
X12049000Y-9905000D01*
X11999000Y-9855000D02*
X12099000Y-9855000D01*
X12049000Y-10059000D02*
X12049000Y-10159000D01*
X11999000Y-10109000D02*
X12099000Y-10109000D01*
X12049000Y-10313000D02*
X12049000Y-10413000D01*
X11999000Y-10363000D02*
X12099000Y-10363000D01*
X12049000Y-10567000D02*
X12049000Y-10667000D01*
X11999000Y-10617000D02*
X12099000Y-10617000D01*
X12049000Y-10821000D02*
X12049000Y-10921000D01*
X11999000Y-10871000D02*
X12099000Y-10871000D01*
X12049000Y-11075000D02*
X12049000Y-11175000D01*
X11999000Y-11125000D02*
X12099000Y-11125000D01*
X12049000Y-11329000D02*
X12049000Y-11429000D01*
X11999000Y-11379000D02*
X12099000Y-11379000D01*
X12049000Y-11583000D02*
X12049000Y-11683000D01*
X11999000Y-11633000D02*
X12099000Y-11633000D01*
X10891981Y-7202981D02*
X10891981Y-7157019D01*
X10846019Y-7157019D01*
X10846019Y-7202981D01*
X10891981Y-7202981D01*
X11469981Y-7202981D02*
X11469981Y-7157019D01*
X11424019Y-7157019D01*
X11424019Y-7202981D01*
X11469981Y-7202981D01*
D12*
X10368277Y-12103984D02*
X10368277Y-11903984D01*
X10368277Y-11903984D02*
X10415896Y-11903984D01*
X10415896Y-11903984D02*
X10444467Y-11913508D01*
X10444467Y-11913508D02*
X10463515Y-11932555D01*
X10463515Y-11932555D02*
X10473039Y-11951603D01*
X10473039Y-11951603D02*
X10482563Y-11989698D01*
X10482563Y-11989698D02*
X10482563Y-12018269D01*
X10482563Y-12018269D02*
X10473039Y-12056365D01*
X10473039Y-12056365D02*
X10463515Y-12075412D01*
X10463515Y-12075412D02*
X10444467Y-12094460D01*
X10444467Y-12094460D02*
X10415896Y-12103984D01*
X10415896Y-12103984D02*
X10368277Y-12103984D01*
X10568277Y-12103984D02*
X10568277Y-11970650D01*
X10568277Y-12008746D02*
X10577801Y-11989698D01*
X10577801Y-11989698D02*
X10587324Y-11980174D01*
X10587324Y-11980174D02*
X10606372Y-11970650D01*
X10606372Y-11970650D02*
X10625420Y-11970650D01*
X10692086Y-12103984D02*
X10692086Y-11970650D01*
X10692086Y-11903984D02*
X10682563Y-11913508D01*
X10682563Y-11913508D02*
X10692086Y-11923031D01*
X10692086Y-11923031D02*
X10701610Y-11913508D01*
X10701610Y-11913508D02*
X10692086Y-11903984D01*
X10692086Y-11903984D02*
X10692086Y-11923031D01*
X10815896Y-12103984D02*
X10796848Y-12094460D01*
X10796848Y-12094460D02*
X10787324Y-12075412D01*
X10787324Y-12075412D02*
X10787324Y-11903984D01*
X10920658Y-12103984D02*
X10901610Y-12094460D01*
X10901610Y-12094460D02*
X10892086Y-12075412D01*
X10892086Y-12075412D02*
X10892086Y-11903984D01*
X11149229Y-12103984D02*
X11149229Y-11903984D01*
X11149229Y-11903984D02*
X11215896Y-12046841D01*
X11215896Y-12046841D02*
X11282562Y-11903984D01*
X11282562Y-11903984D02*
X11282562Y-12103984D01*
X11463515Y-12103984D02*
X11463515Y-11999222D01*
X11463515Y-11999222D02*
X11453991Y-11980174D01*
X11453991Y-11980174D02*
X11434943Y-11970650D01*
X11434943Y-11970650D02*
X11396848Y-11970650D01*
X11396848Y-11970650D02*
X11377801Y-11980174D01*
X11463515Y-12094460D02*
X11444467Y-12103984D01*
X11444467Y-12103984D02*
X11396848Y-12103984D01*
X11396848Y-12103984D02*
X11377801Y-12094460D01*
X11377801Y-12094460D02*
X11368277Y-12075412D01*
X11368277Y-12075412D02*
X11368277Y-12056365D01*
X11368277Y-12056365D02*
X11377801Y-12037317D01*
X11377801Y-12037317D02*
X11396848Y-12027793D01*
X11396848Y-12027793D02*
X11444467Y-12027793D01*
X11444467Y-12027793D02*
X11463515Y-12018269D01*
X11558753Y-11970650D02*
X11558753Y-12170650D01*
X11558753Y-11980174D02*
X11577801Y-11970650D01*
X11577801Y-11970650D02*
X11615896Y-11970650D01*
X11615896Y-11970650D02*
X11634943Y-11980174D01*
X11634943Y-11980174D02*
X11644467Y-11989698D01*
X11644467Y-11989698D02*
X11653991Y-12008746D01*
X11653991Y-12008746D02*
X11653991Y-12065888D01*
X11653991Y-12065888D02*
X11644467Y-12084936D01*
X11644467Y-12084936D02*
X11634943Y-12094460D01*
X11634943Y-12094460D02*
X11615896Y-12103984D01*
X11615896Y-12103984D02*
X11577801Y-12103984D01*
X11577801Y-12103984D02*
X11558753Y-12094460D01*
X11739705Y-12084936D02*
X11749229Y-12094460D01*
X11749229Y-12094460D02*
X11739705Y-12103984D01*
X11739705Y-12103984D02*
X11730182Y-12094460D01*
X11730182Y-12094460D02*
X11739705Y-12084936D01*
X11739705Y-12084936D02*
X11739705Y-12103984D01*
X11739705Y-11980174D02*
X11749229Y-11989698D01*
X11749229Y-11989698D02*
X11739705Y-11999222D01*
X11739705Y-11999222D02*
X11730182Y-11989698D01*
X11730182Y-11989698D02*
X11739705Y-11980174D01*
X11739705Y-11980174D02*
X11739705Y-11999222D01*
D11*
X10077500Y-12417500D02*
X10107500Y-12447500D01*
X10107500Y-12417500D02*
X10077500Y-12447500D01*
D12*
X10406372Y-12323984D02*
X10425420Y-12323984D01*
X10425420Y-12323984D02*
X10444467Y-12333508D01*
X10444467Y-12333508D02*
X10453991Y-12343031D01*
X10453991Y-12343031D02*
X10463515Y-12362079D01*
X10463515Y-12362079D02*
X10473039Y-12400174D01*
X10473039Y-12400174D02*
X10473039Y-12447793D01*
X10473039Y-12447793D02*
X10463515Y-12485888D01*
X10463515Y-12485888D02*
X10453991Y-12504936D01*
X10453991Y-12504936D02*
X10444467Y-12514460D01*
X10444467Y-12514460D02*
X10425420Y-12523984D01*
X10425420Y-12523984D02*
X10406372Y-12523984D01*
X10406372Y-12523984D02*
X10387324Y-12514460D01*
X10387324Y-12514460D02*
X10377801Y-12504936D01*
X10377801Y-12504936D02*
X10368277Y-12485888D01*
X10368277Y-12485888D02*
X10358753Y-12447793D01*
X10358753Y-12447793D02*
X10358753Y-12400174D01*
X10358753Y-12400174D02*
X10368277Y-12362079D01*
X10368277Y-12362079D02*
X10377801Y-12343031D01*
X10377801Y-12343031D02*
X10387324Y-12333508D01*
X10387324Y-12333508D02*
X10406372Y-12323984D01*
X10558753Y-12504936D02*
X10568277Y-12514460D01*
X10568277Y-12514460D02*
X10558753Y-12523984D01*
X10558753Y-12523984D02*
X10549229Y-12514460D01*
X10549229Y-12514460D02*
X10558753Y-12504936D01*
X10558753Y-12504936D02*
X10558753Y-12523984D01*
X10634944Y-12323984D02*
X10758753Y-12323984D01*
X10758753Y-12323984D02*
X10692086Y-12400174D01*
X10692086Y-12400174D02*
X10720658Y-12400174D01*
X10720658Y-12400174D02*
X10739705Y-12409698D01*
X10739705Y-12409698D02*
X10749229Y-12419222D01*
X10749229Y-12419222D02*
X10758753Y-12438269D01*
X10758753Y-12438269D02*
X10758753Y-12485888D01*
X10758753Y-12485888D02*
X10749229Y-12504936D01*
X10749229Y-12504936D02*
X10739705Y-12514460D01*
X10739705Y-12514460D02*
X10720658Y-12523984D01*
X10720658Y-12523984D02*
X10663515Y-12523984D01*
X10663515Y-12523984D02*
X10644467Y-12514460D01*
X10644467Y-12514460D02*
X10634944Y-12504936D01*
X10882563Y-12323984D02*
X10901610Y-12323984D01*
X10901610Y-12323984D02*
X10920658Y-12333508D01*
X10920658Y-12333508D02*
X10930182Y-12343031D01*
X10930182Y-12343031D02*
X10939705Y-12362079D01*
X10939705Y-12362079D02*
X10949229Y-12400174D01*
X10949229Y-12400174D02*
X10949229Y-12447793D01*
X10949229Y-12447793D02*
X10939705Y-12485888D01*
X10939705Y-12485888D02*
X10930182Y-12504936D01*
X10930182Y-12504936D02*
X10920658Y-12514460D01*
X10920658Y-12514460D02*
X10901610Y-12523984D01*
X10901610Y-12523984D02*
X10882563Y-12523984D01*
X10882563Y-12523984D02*
X10863515Y-12514460D01*
X10863515Y-12514460D02*
X10853991Y-12504936D01*
X10853991Y-12504936D02*
X10844467Y-12485888D01*
X10844467Y-12485888D02*
X10834944Y-12447793D01*
X10834944Y-12447793D02*
X10834944Y-12400174D01*
X10834944Y-12400174D02*
X10844467Y-12362079D01*
X10844467Y-12362079D02*
X10853991Y-12343031D01*
X10853991Y-12343031D02*
X10863515Y-12333508D01*
X10863515Y-12333508D02*
X10882563Y-12323984D01*
X11073039Y-12323984D02*
X11092086Y-12323984D01*
X11092086Y-12323984D02*
X11111134Y-12333508D01*
X11111134Y-12333508D02*
X11120658Y-12343031D01*
X11120658Y-12343031D02*
X11130182Y-12362079D01*
X11130182Y-12362079D02*
X11139705Y-12400174D01*
X11139705Y-12400174D02*
X11139705Y-12447793D01*
X11139705Y-12447793D02*
X11130182Y-12485888D01*
X11130182Y-12485888D02*
X11120658Y-12504936D01*
X11120658Y-12504936D02*
X11111134Y-12514460D01*
X11111134Y-12514460D02*
X11092086Y-12523984D01*
X11092086Y-12523984D02*
X11073039Y-12523984D01*
X11073039Y-12523984D02*
X11053991Y-12514460D01*
X11053991Y-12514460D02*
X11044467Y-12504936D01*
X11044467Y-12504936D02*
X11034944Y-12485888D01*
X11034944Y-12485888D02*
X11025420Y-12447793D01*
X11025420Y-12447793D02*
X11025420Y-12400174D01*
X11025420Y-12400174D02*
X11034944Y-12362079D01*
X11034944Y-12362079D02*
X11044467Y-12343031D01*
X11044467Y-12343031D02*
X11053991Y-12333508D01*
X11053991Y-12333508D02*
X11073039Y-12323984D01*
X11225420Y-12523984D02*
X11225420Y-12390650D01*
X11225420Y-12409698D02*
X11234943Y-12400174D01*
X11234943Y-12400174D02*
X11253991Y-12390650D01*
X11253991Y-12390650D02*
X11282563Y-12390650D01*
X11282563Y-12390650D02*
X11301610Y-12400174D01*
X11301610Y-12400174D02*
X11311134Y-12419222D01*
X11311134Y-12419222D02*
X11311134Y-12523984D01*
X11311134Y-12419222D02*
X11320658Y-12400174D01*
X11320658Y-12400174D02*
X11339705Y-12390650D01*
X11339705Y-12390650D02*
X11368277Y-12390650D01*
X11368277Y-12390650D02*
X11387324Y-12400174D01*
X11387324Y-12400174D02*
X11396848Y-12419222D01*
X11396848Y-12419222D02*
X11396848Y-12523984D01*
X11492086Y-12523984D02*
X11492086Y-12390650D01*
X11492086Y-12409698D02*
X11501610Y-12400174D01*
X11501610Y-12400174D02*
X11520658Y-12390650D01*
X11520658Y-12390650D02*
X11549229Y-12390650D01*
X11549229Y-12390650D02*
X11568277Y-12400174D01*
X11568277Y-12400174D02*
X11577801Y-12419222D01*
X11577801Y-12419222D02*
X11577801Y-12523984D01*
X11577801Y-12419222D02*
X11587324Y-12400174D01*
X11587324Y-12400174D02*
X11606372Y-12390650D01*
X11606372Y-12390650D02*
X11634943Y-12390650D01*
X11634943Y-12390650D02*
X11653991Y-12400174D01*
X11653991Y-12400174D02*
X11663515Y-12419222D01*
X11663515Y-12419222D02*
X11663515Y-12523984D01*
X12053991Y-12314460D02*
X11882563Y-12571603D01*
X12311134Y-12323984D02*
X12330182Y-12323984D01*
X12330182Y-12323984D02*
X12349229Y-12333508D01*
X12349229Y-12333508D02*
X12358753Y-12343031D01*
X12358753Y-12343031D02*
X12368277Y-12362079D01*
X12368277Y-12362079D02*
X12377801Y-12400174D01*
X12377801Y-12400174D02*
X12377801Y-12447793D01*
X12377801Y-12447793D02*
X12368277Y-12485888D01*
X12368277Y-12485888D02*
X12358753Y-12504936D01*
X12358753Y-12504936D02*
X12349229Y-12514460D01*
X12349229Y-12514460D02*
X12330182Y-12523984D01*
X12330182Y-12523984D02*
X12311134Y-12523984D01*
X12311134Y-12523984D02*
X12292086Y-12514460D01*
X12292086Y-12514460D02*
X12282563Y-12504936D01*
X12282563Y-12504936D02*
X12273039Y-12485888D01*
X12273039Y-12485888D02*
X12263515Y-12447793D01*
X12263515Y-12447793D02*
X12263515Y-12400174D01*
X12263515Y-12400174D02*
X12273039Y-12362079D01*
X12273039Y-12362079D02*
X12282563Y-12343031D01*
X12282563Y-12343031D02*
X12292086Y-12333508D01*
X12292086Y-12333508D02*
X12311134Y-12323984D01*
X12463515Y-12504936D02*
X12473039Y-12514460D01*
X12473039Y-12514460D02*
X12463515Y-12523984D01*
X12463515Y-12523984D02*
X12453991Y-12514460D01*
X12453991Y-12514460D02*
X12463515Y-12504936D01*
X12463515Y-12504936D02*
X12463515Y-12523984D01*
X12596848Y-12323984D02*
X12615896Y-12323984D01*
X12615896Y-12323984D02*
X12634944Y-12333508D01*
X12634944Y-12333508D02*
X12644467Y-12343031D01*
X12644467Y-12343031D02*
X12653991Y-12362079D01*
X12653991Y-12362079D02*
X12663515Y-12400174D01*
X12663515Y-12400174D02*
X12663515Y-12447793D01*
X12663515Y-12447793D02*
X12653991Y-12485888D01*
X12653991Y-12485888D02*
X12644467Y-12504936D01*
X12644467Y-12504936D02*
X12634944Y-12514460D01*
X12634944Y-12514460D02*
X12615896Y-12523984D01*
X12615896Y-12523984D02*
X12596848Y-12523984D01*
X12596848Y-12523984D02*
X12577801Y-12514460D01*
X12577801Y-12514460D02*
X12568277Y-12504936D01*
X12568277Y-12504936D02*
X12558753Y-12485888D01*
X12558753Y-12485888D02*
X12549229Y-12447793D01*
X12549229Y-12447793D02*
X12549229Y-12400174D01*
X12549229Y-12400174D02*
X12558753Y-12362079D01*
X12558753Y-12362079D02*
X12568277Y-12343031D01*
X12568277Y-12343031D02*
X12577801Y-12333508D01*
X12577801Y-12333508D02*
X12596848Y-12323984D01*
X12853991Y-12523984D02*
X12739706Y-12523984D01*
X12796848Y-12523984D02*
X12796848Y-12323984D01*
X12796848Y-12323984D02*
X12777801Y-12352555D01*
X12777801Y-12352555D02*
X12758753Y-12371603D01*
X12758753Y-12371603D02*
X12739706Y-12381127D01*
X13044467Y-12523984D02*
X12930182Y-12523984D01*
X12987325Y-12523984D02*
X12987325Y-12323984D01*
X12987325Y-12323984D02*
X12968277Y-12352555D01*
X12968277Y-12352555D02*
X12949229Y-12371603D01*
X12949229Y-12371603D02*
X12930182Y-12381127D01*
X13158753Y-12409698D02*
X13139706Y-12400174D01*
X13139706Y-12400174D02*
X13130182Y-12390650D01*
X13130182Y-12390650D02*
X13120658Y-12371603D01*
X13120658Y-12371603D02*
X13120658Y-12362079D01*
X13120658Y-12362079D02*
X13130182Y-12343031D01*
X13130182Y-12343031D02*
X13139706Y-12333508D01*
X13139706Y-12333508D02*
X13158753Y-12323984D01*
X13158753Y-12323984D02*
X13196848Y-12323984D01*
X13196848Y-12323984D02*
X13215896Y-12333508D01*
X13215896Y-12333508D02*
X13225420Y-12343031D01*
X13225420Y-12343031D02*
X13234944Y-12362079D01*
X13234944Y-12362079D02*
X13234944Y-12371603D01*
X13234944Y-12371603D02*
X13225420Y-12390650D01*
X13225420Y-12390650D02*
X13215896Y-12400174D01*
X13215896Y-12400174D02*
X13196848Y-12409698D01*
X13196848Y-12409698D02*
X13158753Y-12409698D01*
X13158753Y-12409698D02*
X13139706Y-12419222D01*
X13139706Y-12419222D02*
X13130182Y-12428746D01*
X13130182Y-12428746D02*
X13120658Y-12447793D01*
X13120658Y-12447793D02*
X13120658Y-12485888D01*
X13120658Y-12485888D02*
X13130182Y-12504936D01*
X13130182Y-12504936D02*
X13139706Y-12514460D01*
X13139706Y-12514460D02*
X13158753Y-12523984D01*
X13158753Y-12523984D02*
X13196848Y-12523984D01*
X13196848Y-12523984D02*
X13215896Y-12514460D01*
X13215896Y-12514460D02*
X13225420Y-12504936D01*
X13225420Y-12504936D02*
X13234944Y-12485888D01*
X13234944Y-12485888D02*
X13234944Y-12447793D01*
X13234944Y-12447793D02*
X13225420Y-12428746D01*
X13225420Y-12428746D02*
X13215896Y-12419222D01*
X13215896Y-12419222D02*
X13196848Y-12409698D01*
X13311134Y-12323984D02*
X13311134Y-12362079D01*
X13387325Y-12323984D02*
X13387325Y-12362079D01*
X13682563Y-12600174D02*
X13673039Y-12590650D01*
X13673039Y-12590650D02*
X13653991Y-12562079D01*
X13653991Y-12562079D02*
X13644468Y-12543031D01*
X13644468Y-12543031D02*
X13634944Y-12514460D01*
X13634944Y-12514460D02*
X13625420Y-12466841D01*
X13625420Y-12466841D02*
X13625420Y-12428746D01*
X13625420Y-12428746D02*
X13634944Y-12381127D01*
X13634944Y-12381127D02*
X13644468Y-12352555D01*
X13644468Y-12352555D02*
X13653991Y-12333508D01*
X13653991Y-12333508D02*
X13673039Y-12304936D01*
X13673039Y-12304936D02*
X13682563Y-12295412D01*
X13853991Y-12323984D02*
X13758753Y-12323984D01*
X13758753Y-12323984D02*
X13749229Y-12419222D01*
X13749229Y-12419222D02*
X13758753Y-12409698D01*
X13758753Y-12409698D02*
X13777801Y-12400174D01*
X13777801Y-12400174D02*
X13825420Y-12400174D01*
X13825420Y-12400174D02*
X13844468Y-12409698D01*
X13844468Y-12409698D02*
X13853991Y-12419222D01*
X13853991Y-12419222D02*
X13863515Y-12438269D01*
X13863515Y-12438269D02*
X13863515Y-12485888D01*
X13863515Y-12485888D02*
X13853991Y-12504936D01*
X13853991Y-12504936D02*
X13844468Y-12514460D01*
X13844468Y-12514460D02*
X13825420Y-12523984D01*
X13825420Y-12523984D02*
X13777801Y-12523984D01*
X13777801Y-12523984D02*
X13758753Y-12514460D01*
X13758753Y-12514460D02*
X13749229Y-12504936D01*
X13930182Y-12323984D02*
X14053991Y-12323984D01*
X14053991Y-12323984D02*
X13987325Y-12400174D01*
X13987325Y-12400174D02*
X14015896Y-12400174D01*
X14015896Y-12400174D02*
X14034944Y-12409698D01*
X14034944Y-12409698D02*
X14044468Y-12419222D01*
X14044468Y-12419222D02*
X14053991Y-12438269D01*
X14053991Y-12438269D02*
X14053991Y-12485888D01*
X14053991Y-12485888D02*
X14044468Y-12504936D01*
X14044468Y-12504936D02*
X14034944Y-12514460D01*
X14034944Y-12514460D02*
X14015896Y-12523984D01*
X14015896Y-12523984D02*
X13958753Y-12523984D01*
X13958753Y-12523984D02*
X13939706Y-12514460D01*
X13939706Y-12514460D02*
X13930182Y-12504936D01*
X14292087Y-12523984D02*
X14292087Y-12323984D01*
X14377801Y-12523984D02*
X14377801Y-12419222D01*
X14377801Y-12419222D02*
X14368277Y-12400174D01*
X14368277Y-12400174D02*
X14349230Y-12390650D01*
X14349230Y-12390650D02*
X14320658Y-12390650D01*
X14320658Y-12390650D02*
X14301610Y-12400174D01*
X14301610Y-12400174D02*
X14292087Y-12409698D01*
X14501610Y-12523984D02*
X14482563Y-12514460D01*
X14482563Y-12514460D02*
X14473039Y-12504936D01*
X14473039Y-12504936D02*
X14463515Y-12485888D01*
X14463515Y-12485888D02*
X14463515Y-12428746D01*
X14463515Y-12428746D02*
X14473039Y-12409698D01*
X14473039Y-12409698D02*
X14482563Y-12400174D01*
X14482563Y-12400174D02*
X14501610Y-12390650D01*
X14501610Y-12390650D02*
X14530182Y-12390650D01*
X14530182Y-12390650D02*
X14549230Y-12400174D01*
X14549230Y-12400174D02*
X14558753Y-12409698D01*
X14558753Y-12409698D02*
X14568277Y-12428746D01*
X14568277Y-12428746D02*
X14568277Y-12485888D01*
X14568277Y-12485888D02*
X14558753Y-12504936D01*
X14558753Y-12504936D02*
X14549230Y-12514460D01*
X14549230Y-12514460D02*
X14530182Y-12523984D01*
X14530182Y-12523984D02*
X14501610Y-12523984D01*
X14682563Y-12523984D02*
X14663515Y-12514460D01*
X14663515Y-12514460D02*
X14653991Y-12495412D01*
X14653991Y-12495412D02*
X14653991Y-12323984D01*
X14834944Y-12514460D02*
X14815896Y-12523984D01*
X14815896Y-12523984D02*
X14777801Y-12523984D01*
X14777801Y-12523984D02*
X14758753Y-12514460D01*
X14758753Y-12514460D02*
X14749230Y-12495412D01*
X14749230Y-12495412D02*
X14749230Y-12419222D01*
X14749230Y-12419222D02*
X14758753Y-12400174D01*
X14758753Y-12400174D02*
X14777801Y-12390650D01*
X14777801Y-12390650D02*
X14815896Y-12390650D01*
X14815896Y-12390650D02*
X14834944Y-12400174D01*
X14834944Y-12400174D02*
X14844468Y-12419222D01*
X14844468Y-12419222D02*
X14844468Y-12438269D01*
X14844468Y-12438269D02*
X14749230Y-12457317D01*
X14920658Y-12514460D02*
X14939706Y-12523984D01*
X14939706Y-12523984D02*
X14977801Y-12523984D01*
X14977801Y-12523984D02*
X14996849Y-12514460D01*
X14996849Y-12514460D02*
X15006372Y-12495412D01*
X15006372Y-12495412D02*
X15006372Y-12485888D01*
X15006372Y-12485888D02*
X14996849Y-12466841D01*
X14996849Y-12466841D02*
X14977801Y-12457317D01*
X14977801Y-12457317D02*
X14949230Y-12457317D01*
X14949230Y-12457317D02*
X14930182Y-12447793D01*
X14930182Y-12447793D02*
X14920658Y-12428746D01*
X14920658Y-12428746D02*
X14920658Y-12419222D01*
X14920658Y-12419222D02*
X14930182Y-12400174D01*
X14930182Y-12400174D02*
X14949230Y-12390650D01*
X14949230Y-12390650D02*
X14977801Y-12390650D01*
X14977801Y-12390650D02*
X14996849Y-12400174D01*
X15073039Y-12600174D02*
X15082563Y-12590650D01*
X15082563Y-12590650D02*
X15101611Y-12562079D01*
X15101611Y-12562079D02*
X15111134Y-12543031D01*
X15111134Y-12543031D02*
X15120658Y-12514460D01*
X15120658Y-12514460D02*
X15130182Y-12466841D01*
X15130182Y-12466841D02*
X15130182Y-12428746D01*
X15130182Y-12428746D02*
X15120658Y-12381127D01*
X15120658Y-12381127D02*
X15111134Y-12352555D01*
X15111134Y-12352555D02*
X15101611Y-12333508D01*
X15101611Y-12333508D02*
X15082563Y-12304936D01*
X15082563Y-12304936D02*
X15073039Y-12295412D01*
D11*
X10107500Y-12696500D02*
G75*
G02*
X10047500Y-12696500I-30000J0D01*
G01*
X10047500Y-12696500D02*
G75*
G02*
X10107500Y-12696500I30000J0D01*
G01*
D12*
X10406372Y-12587984D02*
X10425420Y-12587984D01*
X10425420Y-12587984D02*
X10444467Y-12597508D01*
X10444467Y-12597508D02*
X10453991Y-12607031D01*
X10453991Y-12607031D02*
X10463515Y-12626079D01*
X10463515Y-12626079D02*
X10473039Y-12664174D01*
X10473039Y-12664174D02*
X10473039Y-12711793D01*
X10473039Y-12711793D02*
X10463515Y-12749888D01*
X10463515Y-12749888D02*
X10453991Y-12768936D01*
X10453991Y-12768936D02*
X10444467Y-12778460D01*
X10444467Y-12778460D02*
X10425420Y-12787984D01*
X10425420Y-12787984D02*
X10406372Y-12787984D01*
X10406372Y-12787984D02*
X10387324Y-12778460D01*
X10387324Y-12778460D02*
X10377801Y-12768936D01*
X10377801Y-12768936D02*
X10368277Y-12749888D01*
X10368277Y-12749888D02*
X10358753Y-12711793D01*
X10358753Y-12711793D02*
X10358753Y-12664174D01*
X10358753Y-12664174D02*
X10368277Y-12626079D01*
X10368277Y-12626079D02*
X10377801Y-12607031D01*
X10377801Y-12607031D02*
X10387324Y-12597508D01*
X10387324Y-12597508D02*
X10406372Y-12587984D01*
X10558753Y-12768936D02*
X10568277Y-12778460D01*
X10568277Y-12778460D02*
X10558753Y-12787984D01*
X10558753Y-12787984D02*
X10549229Y-12778460D01*
X10549229Y-12778460D02*
X10558753Y-12768936D01*
X10558753Y-12768936D02*
X10558753Y-12787984D01*
X10739705Y-12587984D02*
X10701610Y-12587984D01*
X10701610Y-12587984D02*
X10682563Y-12597508D01*
X10682563Y-12597508D02*
X10673039Y-12607031D01*
X10673039Y-12607031D02*
X10653991Y-12635603D01*
X10653991Y-12635603D02*
X10644467Y-12673698D01*
X10644467Y-12673698D02*
X10644467Y-12749888D01*
X10644467Y-12749888D02*
X10653991Y-12768936D01*
X10653991Y-12768936D02*
X10663515Y-12778460D01*
X10663515Y-12778460D02*
X10682563Y-12787984D01*
X10682563Y-12787984D02*
X10720658Y-12787984D01*
X10720658Y-12787984D02*
X10739705Y-12778460D01*
X10739705Y-12778460D02*
X10749229Y-12768936D01*
X10749229Y-12768936D02*
X10758753Y-12749888D01*
X10758753Y-12749888D02*
X10758753Y-12702269D01*
X10758753Y-12702269D02*
X10749229Y-12683222D01*
X10749229Y-12683222D02*
X10739705Y-12673698D01*
X10739705Y-12673698D02*
X10720658Y-12664174D01*
X10720658Y-12664174D02*
X10682563Y-12664174D01*
X10682563Y-12664174D02*
X10663515Y-12673698D01*
X10663515Y-12673698D02*
X10653991Y-12683222D01*
X10653991Y-12683222D02*
X10644467Y-12702269D01*
X10882563Y-12587984D02*
X10901610Y-12587984D01*
X10901610Y-12587984D02*
X10920658Y-12597508D01*
X10920658Y-12597508D02*
X10930182Y-12607031D01*
X10930182Y-12607031D02*
X10939705Y-12626079D01*
X10939705Y-12626079D02*
X10949229Y-12664174D01*
X10949229Y-12664174D02*
X10949229Y-12711793D01*
X10949229Y-12711793D02*
X10939705Y-12749888D01*
X10939705Y-12749888D02*
X10930182Y-12768936D01*
X10930182Y-12768936D02*
X10920658Y-12778460D01*
X10920658Y-12778460D02*
X10901610Y-12787984D01*
X10901610Y-12787984D02*
X10882563Y-12787984D01*
X10882563Y-12787984D02*
X10863515Y-12778460D01*
X10863515Y-12778460D02*
X10853991Y-12768936D01*
X10853991Y-12768936D02*
X10844467Y-12749888D01*
X10844467Y-12749888D02*
X10834944Y-12711793D01*
X10834944Y-12711793D02*
X10834944Y-12664174D01*
X10834944Y-12664174D02*
X10844467Y-12626079D01*
X10844467Y-12626079D02*
X10853991Y-12607031D01*
X10853991Y-12607031D02*
X10863515Y-12597508D01*
X10863515Y-12597508D02*
X10882563Y-12587984D01*
X11073039Y-12587984D02*
X11092086Y-12587984D01*
X11092086Y-12587984D02*
X11111134Y-12597508D01*
X11111134Y-12597508D02*
X11120658Y-12607031D01*
X11120658Y-12607031D02*
X11130182Y-12626079D01*
X11130182Y-12626079D02*
X11139705Y-12664174D01*
X11139705Y-12664174D02*
X11139705Y-12711793D01*
X11139705Y-12711793D02*
X11130182Y-12749888D01*
X11130182Y-12749888D02*
X11120658Y-12768936D01*
X11120658Y-12768936D02*
X11111134Y-12778460D01*
X11111134Y-12778460D02*
X11092086Y-12787984D01*
X11092086Y-12787984D02*
X11073039Y-12787984D01*
X11073039Y-12787984D02*
X11053991Y-12778460D01*
X11053991Y-12778460D02*
X11044467Y-12768936D01*
X11044467Y-12768936D02*
X11034944Y-12749888D01*
X11034944Y-12749888D02*
X11025420Y-12711793D01*
X11025420Y-12711793D02*
X11025420Y-12664174D01*
X11025420Y-12664174D02*
X11034944Y-12626079D01*
X11034944Y-12626079D02*
X11044467Y-12607031D01*
X11044467Y-12607031D02*
X11053991Y-12597508D01*
X11053991Y-12597508D02*
X11073039Y-12587984D01*
X11225420Y-12787984D02*
X11225420Y-12654650D01*
X11225420Y-12673698D02*
X11234943Y-12664174D01*
X11234943Y-12664174D02*
X11253991Y-12654650D01*
X11253991Y-12654650D02*
X11282563Y-12654650D01*
X11282563Y-12654650D02*
X11301610Y-12664174D01*
X11301610Y-12664174D02*
X11311134Y-12683222D01*
X11311134Y-12683222D02*
X11311134Y-12787984D01*
X11311134Y-12683222D02*
X11320658Y-12664174D01*
X11320658Y-12664174D02*
X11339705Y-12654650D01*
X11339705Y-12654650D02*
X11368277Y-12654650D01*
X11368277Y-12654650D02*
X11387324Y-12664174D01*
X11387324Y-12664174D02*
X11396848Y-12683222D01*
X11396848Y-12683222D02*
X11396848Y-12787984D01*
X11492086Y-12787984D02*
X11492086Y-12654650D01*
X11492086Y-12673698D02*
X11501610Y-12664174D01*
X11501610Y-12664174D02*
X11520658Y-12654650D01*
X11520658Y-12654650D02*
X11549229Y-12654650D01*
X11549229Y-12654650D02*
X11568277Y-12664174D01*
X11568277Y-12664174D02*
X11577801Y-12683222D01*
X11577801Y-12683222D02*
X11577801Y-12787984D01*
X11577801Y-12683222D02*
X11587324Y-12664174D01*
X11587324Y-12664174D02*
X11606372Y-12654650D01*
X11606372Y-12654650D02*
X11634943Y-12654650D01*
X11634943Y-12654650D02*
X11653991Y-12664174D01*
X11653991Y-12664174D02*
X11663515Y-12683222D01*
X11663515Y-12683222D02*
X11663515Y-12787984D01*
X12053991Y-12578460D02*
X11882563Y-12835603D01*
X12311134Y-12587984D02*
X12330182Y-12587984D01*
X12330182Y-12587984D02*
X12349229Y-12597508D01*
X12349229Y-12597508D02*
X12358753Y-12607031D01*
X12358753Y-12607031D02*
X12368277Y-12626079D01*
X12368277Y-12626079D02*
X12377801Y-12664174D01*
X12377801Y-12664174D02*
X12377801Y-12711793D01*
X12377801Y-12711793D02*
X12368277Y-12749888D01*
X12368277Y-12749888D02*
X12358753Y-12768936D01*
X12358753Y-12768936D02*
X12349229Y-12778460D01*
X12349229Y-12778460D02*
X12330182Y-12787984D01*
X12330182Y-12787984D02*
X12311134Y-12787984D01*
X12311134Y-12787984D02*
X12292086Y-12778460D01*
X12292086Y-12778460D02*
X12282563Y-12768936D01*
X12282563Y-12768936D02*
X12273039Y-12749888D01*
X12273039Y-12749888D02*
X12263515Y-12711793D01*
X12263515Y-12711793D02*
X12263515Y-12664174D01*
X12263515Y-12664174D02*
X12273039Y-12626079D01*
X12273039Y-12626079D02*
X12282563Y-12607031D01*
X12282563Y-12607031D02*
X12292086Y-12597508D01*
X12292086Y-12597508D02*
X12311134Y-12587984D01*
X12463515Y-12768936D02*
X12473039Y-12778460D01*
X12473039Y-12778460D02*
X12463515Y-12787984D01*
X12463515Y-12787984D02*
X12453991Y-12778460D01*
X12453991Y-12778460D02*
X12463515Y-12768936D01*
X12463515Y-12768936D02*
X12463515Y-12787984D01*
X12596848Y-12587984D02*
X12615896Y-12587984D01*
X12615896Y-12587984D02*
X12634944Y-12597508D01*
X12634944Y-12597508D02*
X12644467Y-12607031D01*
X12644467Y-12607031D02*
X12653991Y-12626079D01*
X12653991Y-12626079D02*
X12663515Y-12664174D01*
X12663515Y-12664174D02*
X12663515Y-12711793D01*
X12663515Y-12711793D02*
X12653991Y-12749888D01*
X12653991Y-12749888D02*
X12644467Y-12768936D01*
X12644467Y-12768936D02*
X12634944Y-12778460D01*
X12634944Y-12778460D02*
X12615896Y-12787984D01*
X12615896Y-12787984D02*
X12596848Y-12787984D01*
X12596848Y-12787984D02*
X12577801Y-12778460D01*
X12577801Y-12778460D02*
X12568277Y-12768936D01*
X12568277Y-12768936D02*
X12558753Y-12749888D01*
X12558753Y-12749888D02*
X12549229Y-12711793D01*
X12549229Y-12711793D02*
X12549229Y-12664174D01*
X12549229Y-12664174D02*
X12558753Y-12626079D01*
X12558753Y-12626079D02*
X12568277Y-12607031D01*
X12568277Y-12607031D02*
X12577801Y-12597508D01*
X12577801Y-12597508D02*
X12596848Y-12587984D01*
X12739706Y-12607031D02*
X12749229Y-12597508D01*
X12749229Y-12597508D02*
X12768277Y-12587984D01*
X12768277Y-12587984D02*
X12815896Y-12587984D01*
X12815896Y-12587984D02*
X12834944Y-12597508D01*
X12834944Y-12597508D02*
X12844467Y-12607031D01*
X12844467Y-12607031D02*
X12853991Y-12626079D01*
X12853991Y-12626079D02*
X12853991Y-12645127D01*
X12853991Y-12645127D02*
X12844467Y-12673698D01*
X12844467Y-12673698D02*
X12730182Y-12787984D01*
X12730182Y-12787984D02*
X12853991Y-12787984D01*
X12920658Y-12587984D02*
X13044467Y-12587984D01*
X13044467Y-12587984D02*
X12977801Y-12664174D01*
X12977801Y-12664174D02*
X13006372Y-12664174D01*
X13006372Y-12664174D02*
X13025420Y-12673698D01*
X13025420Y-12673698D02*
X13034944Y-12683222D01*
X13034944Y-12683222D02*
X13044467Y-12702269D01*
X13044467Y-12702269D02*
X13044467Y-12749888D01*
X13044467Y-12749888D02*
X13034944Y-12768936D01*
X13034944Y-12768936D02*
X13025420Y-12778460D01*
X13025420Y-12778460D02*
X13006372Y-12787984D01*
X13006372Y-12787984D02*
X12949229Y-12787984D01*
X12949229Y-12787984D02*
X12930182Y-12778460D01*
X12930182Y-12778460D02*
X12920658Y-12768936D01*
X13215896Y-12587984D02*
X13177801Y-12587984D01*
X13177801Y-12587984D02*
X13158753Y-12597508D01*
X13158753Y-12597508D02*
X13149229Y-12607031D01*
X13149229Y-12607031D02*
X13130182Y-12635603D01*
X13130182Y-12635603D02*
X13120658Y-12673698D01*
X13120658Y-12673698D02*
X13120658Y-12749888D01*
X13120658Y-12749888D02*
X13130182Y-12768936D01*
X13130182Y-12768936D02*
X13139706Y-12778460D01*
X13139706Y-12778460D02*
X13158753Y-12787984D01*
X13158753Y-12787984D02*
X13196848Y-12787984D01*
X13196848Y-12787984D02*
X13215896Y-12778460D01*
X13215896Y-12778460D02*
X13225420Y-12768936D01*
X13225420Y-12768936D02*
X13234944Y-12749888D01*
X13234944Y-12749888D02*
X13234944Y-12702269D01*
X13234944Y-12702269D02*
X13225420Y-12683222D01*
X13225420Y-12683222D02*
X13215896Y-12673698D01*
X13215896Y-12673698D02*
X13196848Y-12664174D01*
X13196848Y-12664174D02*
X13158753Y-12664174D01*
X13158753Y-12664174D02*
X13139706Y-12673698D01*
X13139706Y-12673698D02*
X13130182Y-12683222D01*
X13130182Y-12683222D02*
X13120658Y-12702269D01*
X13311134Y-12587984D02*
X13311134Y-12626079D01*
X13387325Y-12587984D02*
X13387325Y-12626079D01*
X13682563Y-12864174D02*
X13673039Y-12854650D01*
X13673039Y-12854650D02*
X13653991Y-12826079D01*
X13653991Y-12826079D02*
X13644468Y-12807031D01*
X13644468Y-12807031D02*
X13634944Y-12778460D01*
X13634944Y-12778460D02*
X13625420Y-12730841D01*
X13625420Y-12730841D02*
X13625420Y-12692746D01*
X13625420Y-12692746D02*
X13634944Y-12645127D01*
X13634944Y-12645127D02*
X13644468Y-12616555D01*
X13644468Y-12616555D02*
X13653991Y-12597508D01*
X13653991Y-12597508D02*
X13673039Y-12568936D01*
X13673039Y-12568936D02*
X13682563Y-12559412D01*
X13796848Y-12587984D02*
X13815896Y-12587984D01*
X13815896Y-12587984D02*
X13834944Y-12597508D01*
X13834944Y-12597508D02*
X13844468Y-12607031D01*
X13844468Y-12607031D02*
X13853991Y-12626079D01*
X13853991Y-12626079D02*
X13863515Y-12664174D01*
X13863515Y-12664174D02*
X13863515Y-12711793D01*
X13863515Y-12711793D02*
X13853991Y-12749888D01*
X13853991Y-12749888D02*
X13844468Y-12768936D01*
X13844468Y-12768936D02*
X13834944Y-12778460D01*
X13834944Y-12778460D02*
X13815896Y-12787984D01*
X13815896Y-12787984D02*
X13796848Y-12787984D01*
X13796848Y-12787984D02*
X13777801Y-12778460D01*
X13777801Y-12778460D02*
X13768277Y-12768936D01*
X13768277Y-12768936D02*
X13758753Y-12749888D01*
X13758753Y-12749888D02*
X13749229Y-12711793D01*
X13749229Y-12711793D02*
X13749229Y-12664174D01*
X13749229Y-12664174D02*
X13758753Y-12626079D01*
X13758753Y-12626079D02*
X13768277Y-12607031D01*
X13768277Y-12607031D02*
X13777801Y-12597508D01*
X13777801Y-12597508D02*
X13796848Y-12587984D01*
X14101610Y-12787984D02*
X14101610Y-12587984D01*
X14187325Y-12787984D02*
X14187325Y-12683222D01*
X14187325Y-12683222D02*
X14177801Y-12664174D01*
X14177801Y-12664174D02*
X14158753Y-12654650D01*
X14158753Y-12654650D02*
X14130182Y-12654650D01*
X14130182Y-12654650D02*
X14111134Y-12664174D01*
X14111134Y-12664174D02*
X14101610Y-12673698D01*
X14311134Y-12787984D02*
X14292087Y-12778460D01*
X14292087Y-12778460D02*
X14282563Y-12768936D01*
X14282563Y-12768936D02*
X14273039Y-12749888D01*
X14273039Y-12749888D02*
X14273039Y-12692746D01*
X14273039Y-12692746D02*
X14282563Y-12673698D01*
X14282563Y-12673698D02*
X14292087Y-12664174D01*
X14292087Y-12664174D02*
X14311134Y-12654650D01*
X14311134Y-12654650D02*
X14339706Y-12654650D01*
X14339706Y-12654650D02*
X14358753Y-12664174D01*
X14358753Y-12664174D02*
X14368277Y-12673698D01*
X14368277Y-12673698D02*
X14377801Y-12692746D01*
X14377801Y-12692746D02*
X14377801Y-12749888D01*
X14377801Y-12749888D02*
X14368277Y-12768936D01*
X14368277Y-12768936D02*
X14358753Y-12778460D01*
X14358753Y-12778460D02*
X14339706Y-12787984D01*
X14339706Y-12787984D02*
X14311134Y-12787984D01*
X14492087Y-12787984D02*
X14473039Y-12778460D01*
X14473039Y-12778460D02*
X14463515Y-12759412D01*
X14463515Y-12759412D02*
X14463515Y-12587984D01*
X14644468Y-12778460D02*
X14625420Y-12787984D01*
X14625420Y-12787984D02*
X14587325Y-12787984D01*
X14587325Y-12787984D02*
X14568277Y-12778460D01*
X14568277Y-12778460D02*
X14558753Y-12759412D01*
X14558753Y-12759412D02*
X14558753Y-12683222D01*
X14558753Y-12683222D02*
X14568277Y-12664174D01*
X14568277Y-12664174D02*
X14587325Y-12654650D01*
X14587325Y-12654650D02*
X14625420Y-12654650D01*
X14625420Y-12654650D02*
X14644468Y-12664174D01*
X14644468Y-12664174D02*
X14653991Y-12683222D01*
X14653991Y-12683222D02*
X14653991Y-12702269D01*
X14653991Y-12702269D02*
X14558753Y-12721317D01*
X14730182Y-12778460D02*
X14749230Y-12787984D01*
X14749230Y-12787984D02*
X14787325Y-12787984D01*
X14787325Y-12787984D02*
X14806372Y-12778460D01*
X14806372Y-12778460D02*
X14815896Y-12759412D01*
X14815896Y-12759412D02*
X14815896Y-12749888D01*
X14815896Y-12749888D02*
X14806372Y-12730841D01*
X14806372Y-12730841D02*
X14787325Y-12721317D01*
X14787325Y-12721317D02*
X14758753Y-12721317D01*
X14758753Y-12721317D02*
X14739706Y-12711793D01*
X14739706Y-12711793D02*
X14730182Y-12692746D01*
X14730182Y-12692746D02*
X14730182Y-12683222D01*
X14730182Y-12683222D02*
X14739706Y-12664174D01*
X14739706Y-12664174D02*
X14758753Y-12654650D01*
X14758753Y-12654650D02*
X14787325Y-12654650D01*
X14787325Y-12654650D02*
X14806372Y-12664174D01*
X15053992Y-12711793D02*
X15206373Y-12711793D01*
X15130182Y-12787984D02*
X15130182Y-12635603D01*
X15539706Y-12654650D02*
X15539706Y-12787984D01*
X15492087Y-12578460D02*
X15444468Y-12721317D01*
X15444468Y-12721317D02*
X15568277Y-12721317D01*
X15787325Y-12778460D02*
X15806373Y-12787984D01*
X15806373Y-12787984D02*
X15844468Y-12787984D01*
X15844468Y-12787984D02*
X15863515Y-12778460D01*
X15863515Y-12778460D02*
X15873039Y-12759412D01*
X15873039Y-12759412D02*
X15873039Y-12749888D01*
X15873039Y-12749888D02*
X15863515Y-12730841D01*
X15863515Y-12730841D02*
X15844468Y-12721317D01*
X15844468Y-12721317D02*
X15815896Y-12721317D01*
X15815896Y-12721317D02*
X15796849Y-12711793D01*
X15796849Y-12711793D02*
X15787325Y-12692746D01*
X15787325Y-12692746D02*
X15787325Y-12683222D01*
X15787325Y-12683222D02*
X15796849Y-12664174D01*
X15796849Y-12664174D02*
X15815896Y-12654650D01*
X15815896Y-12654650D02*
X15844468Y-12654650D01*
X15844468Y-12654650D02*
X15863515Y-12664174D01*
X15987325Y-12787984D02*
X15968277Y-12778460D01*
X15968277Y-12778460D02*
X15958754Y-12759412D01*
X15958754Y-12759412D02*
X15958754Y-12587984D01*
X16092087Y-12787984D02*
X16073039Y-12778460D01*
X16073039Y-12778460D02*
X16063515Y-12768936D01*
X16063515Y-12768936D02*
X16053992Y-12749888D01*
X16053992Y-12749888D02*
X16053992Y-12692746D01*
X16053992Y-12692746D02*
X16063515Y-12673698D01*
X16063515Y-12673698D02*
X16073039Y-12664174D01*
X16073039Y-12664174D02*
X16092087Y-12654650D01*
X16092087Y-12654650D02*
X16120658Y-12654650D01*
X16120658Y-12654650D02*
X16139706Y-12664174D01*
X16139706Y-12664174D02*
X16149230Y-12673698D01*
X16149230Y-12673698D02*
X16158754Y-12692746D01*
X16158754Y-12692746D02*
X16158754Y-12749888D01*
X16158754Y-12749888D02*
X16149230Y-12768936D01*
X16149230Y-12768936D02*
X16139706Y-12778460D01*
X16139706Y-12778460D02*
X16120658Y-12787984D01*
X16120658Y-12787984D02*
X16092087Y-12787984D01*
X16215896Y-12654650D02*
X16292087Y-12654650D01*
X16244468Y-12587984D02*
X16244468Y-12759412D01*
X16244468Y-12759412D02*
X16253992Y-12778460D01*
X16253992Y-12778460D02*
X16273039Y-12787984D01*
X16273039Y-12787984D02*
X16292087Y-12787984D01*
X16349230Y-12778460D02*
X16368277Y-12787984D01*
X16368277Y-12787984D02*
X16406373Y-12787984D01*
X16406373Y-12787984D02*
X16425420Y-12778460D01*
X16425420Y-12778460D02*
X16434944Y-12759412D01*
X16434944Y-12759412D02*
X16434944Y-12749888D01*
X16434944Y-12749888D02*
X16425420Y-12730841D01*
X16425420Y-12730841D02*
X16406373Y-12721317D01*
X16406373Y-12721317D02*
X16377801Y-12721317D01*
X16377801Y-12721317D02*
X16358754Y-12711793D01*
X16358754Y-12711793D02*
X16349230Y-12692746D01*
X16349230Y-12692746D02*
X16349230Y-12683222D01*
X16349230Y-12683222D02*
X16358754Y-12664174D01*
X16358754Y-12664174D02*
X16377801Y-12654650D01*
X16377801Y-12654650D02*
X16406373Y-12654650D01*
X16406373Y-12654650D02*
X16425420Y-12664174D01*
X16501611Y-12864174D02*
X16511135Y-12854650D01*
X16511135Y-12854650D02*
X16530182Y-12826079D01*
X16530182Y-12826079D02*
X16539706Y-12807031D01*
X16539706Y-12807031D02*
X16549230Y-12778460D01*
X16549230Y-12778460D02*
X16558754Y-12730841D01*
X16558754Y-12730841D02*
X16558754Y-12692746D01*
X16558754Y-12692746D02*
X16549230Y-12645127D01*
X16549230Y-12645127D02*
X16539706Y-12616555D01*
X16539706Y-12616555D02*
X16530182Y-12597508D01*
X16530182Y-12597508D02*
X16511135Y-12568936D01*
X16511135Y-12568936D02*
X16501611Y-12559412D01*
D11*
X10057500Y-12910500D02*
X10057500Y-13010500D01*
X10007500Y-12960500D02*
X10107500Y-12960500D01*
D12*
X10473039Y-13051984D02*
X10358753Y-13051984D01*
X10415896Y-13051984D02*
X10415896Y-12851984D01*
X10415896Y-12851984D02*
X10396848Y-12880555D01*
X10396848Y-12880555D02*
X10377801Y-12899603D01*
X10377801Y-12899603D02*
X10358753Y-12909127D01*
X10558753Y-13032936D02*
X10568277Y-13042460D01*
X10568277Y-13042460D02*
X10558753Y-13051984D01*
X10558753Y-13051984D02*
X10549229Y-13042460D01*
X10549229Y-13042460D02*
X10558753Y-13032936D01*
X10558753Y-13032936D02*
X10558753Y-13051984D01*
X10692086Y-12851984D02*
X10711134Y-12851984D01*
X10711134Y-12851984D02*
X10730182Y-12861508D01*
X10730182Y-12861508D02*
X10739705Y-12871031D01*
X10739705Y-12871031D02*
X10749229Y-12890079D01*
X10749229Y-12890079D02*
X10758753Y-12928174D01*
X10758753Y-12928174D02*
X10758753Y-12975793D01*
X10758753Y-12975793D02*
X10749229Y-13013888D01*
X10749229Y-13013888D02*
X10739705Y-13032936D01*
X10739705Y-13032936D02*
X10730182Y-13042460D01*
X10730182Y-13042460D02*
X10711134Y-13051984D01*
X10711134Y-13051984D02*
X10692086Y-13051984D01*
X10692086Y-13051984D02*
X10673039Y-13042460D01*
X10673039Y-13042460D02*
X10663515Y-13032936D01*
X10663515Y-13032936D02*
X10653991Y-13013888D01*
X10653991Y-13013888D02*
X10644467Y-12975793D01*
X10644467Y-12975793D02*
X10644467Y-12928174D01*
X10644467Y-12928174D02*
X10653991Y-12890079D01*
X10653991Y-12890079D02*
X10663515Y-12871031D01*
X10663515Y-12871031D02*
X10673039Y-12861508D01*
X10673039Y-12861508D02*
X10692086Y-12851984D01*
X10882563Y-12851984D02*
X10901610Y-12851984D01*
X10901610Y-12851984D02*
X10920658Y-12861508D01*
X10920658Y-12861508D02*
X10930182Y-12871031D01*
X10930182Y-12871031D02*
X10939705Y-12890079D01*
X10939705Y-12890079D02*
X10949229Y-12928174D01*
X10949229Y-12928174D02*
X10949229Y-12975793D01*
X10949229Y-12975793D02*
X10939705Y-13013888D01*
X10939705Y-13013888D02*
X10930182Y-13032936D01*
X10930182Y-13032936D02*
X10920658Y-13042460D01*
X10920658Y-13042460D02*
X10901610Y-13051984D01*
X10901610Y-13051984D02*
X10882563Y-13051984D01*
X10882563Y-13051984D02*
X10863515Y-13042460D01*
X10863515Y-13042460D02*
X10853991Y-13032936D01*
X10853991Y-13032936D02*
X10844467Y-13013888D01*
X10844467Y-13013888D02*
X10834944Y-12975793D01*
X10834944Y-12975793D02*
X10834944Y-12928174D01*
X10834944Y-12928174D02*
X10844467Y-12890079D01*
X10844467Y-12890079D02*
X10853991Y-12871031D01*
X10853991Y-12871031D02*
X10863515Y-12861508D01*
X10863515Y-12861508D02*
X10882563Y-12851984D01*
X11073039Y-12851984D02*
X11092086Y-12851984D01*
X11092086Y-12851984D02*
X11111134Y-12861508D01*
X11111134Y-12861508D02*
X11120658Y-12871031D01*
X11120658Y-12871031D02*
X11130182Y-12890079D01*
X11130182Y-12890079D02*
X11139705Y-12928174D01*
X11139705Y-12928174D02*
X11139705Y-12975793D01*
X11139705Y-12975793D02*
X11130182Y-13013888D01*
X11130182Y-13013888D02*
X11120658Y-13032936D01*
X11120658Y-13032936D02*
X11111134Y-13042460D01*
X11111134Y-13042460D02*
X11092086Y-13051984D01*
X11092086Y-13051984D02*
X11073039Y-13051984D01*
X11073039Y-13051984D02*
X11053991Y-13042460D01*
X11053991Y-13042460D02*
X11044467Y-13032936D01*
X11044467Y-13032936D02*
X11034944Y-13013888D01*
X11034944Y-13013888D02*
X11025420Y-12975793D01*
X11025420Y-12975793D02*
X11025420Y-12928174D01*
X11025420Y-12928174D02*
X11034944Y-12890079D01*
X11034944Y-12890079D02*
X11044467Y-12871031D01*
X11044467Y-12871031D02*
X11053991Y-12861508D01*
X11053991Y-12861508D02*
X11073039Y-12851984D01*
X11225420Y-13051984D02*
X11225420Y-12918650D01*
X11225420Y-12937698D02*
X11234943Y-12928174D01*
X11234943Y-12928174D02*
X11253991Y-12918650D01*
X11253991Y-12918650D02*
X11282563Y-12918650D01*
X11282563Y-12918650D02*
X11301610Y-12928174D01*
X11301610Y-12928174D02*
X11311134Y-12947222D01*
X11311134Y-12947222D02*
X11311134Y-13051984D01*
X11311134Y-12947222D02*
X11320658Y-12928174D01*
X11320658Y-12928174D02*
X11339705Y-12918650D01*
X11339705Y-12918650D02*
X11368277Y-12918650D01*
X11368277Y-12918650D02*
X11387324Y-12928174D01*
X11387324Y-12928174D02*
X11396848Y-12947222D01*
X11396848Y-12947222D02*
X11396848Y-13051984D01*
X11492086Y-13051984D02*
X11492086Y-12918650D01*
X11492086Y-12937698D02*
X11501610Y-12928174D01*
X11501610Y-12928174D02*
X11520658Y-12918650D01*
X11520658Y-12918650D02*
X11549229Y-12918650D01*
X11549229Y-12918650D02*
X11568277Y-12928174D01*
X11568277Y-12928174D02*
X11577801Y-12947222D01*
X11577801Y-12947222D02*
X11577801Y-13051984D01*
X11577801Y-12947222D02*
X11587324Y-12928174D01*
X11587324Y-12928174D02*
X11606372Y-12918650D01*
X11606372Y-12918650D02*
X11634943Y-12918650D01*
X11634943Y-12918650D02*
X11653991Y-12928174D01*
X11653991Y-12928174D02*
X11663515Y-12947222D01*
X11663515Y-12947222D02*
X11663515Y-13051984D01*
X12053991Y-12842460D02*
X11882563Y-13099603D01*
X12311134Y-12851984D02*
X12330182Y-12851984D01*
X12330182Y-12851984D02*
X12349229Y-12861508D01*
X12349229Y-12861508D02*
X12358753Y-12871031D01*
X12358753Y-12871031D02*
X12368277Y-12890079D01*
X12368277Y-12890079D02*
X12377801Y-12928174D01*
X12377801Y-12928174D02*
X12377801Y-12975793D01*
X12377801Y-12975793D02*
X12368277Y-13013888D01*
X12368277Y-13013888D02*
X12358753Y-13032936D01*
X12358753Y-13032936D02*
X12349229Y-13042460D01*
X12349229Y-13042460D02*
X12330182Y-13051984D01*
X12330182Y-13051984D02*
X12311134Y-13051984D01*
X12311134Y-13051984D02*
X12292086Y-13042460D01*
X12292086Y-13042460D02*
X12282563Y-13032936D01*
X12282563Y-13032936D02*
X12273039Y-13013888D01*
X12273039Y-13013888D02*
X12263515Y-12975793D01*
X12263515Y-12975793D02*
X12263515Y-12928174D01*
X12263515Y-12928174D02*
X12273039Y-12890079D01*
X12273039Y-12890079D02*
X12282563Y-12871031D01*
X12282563Y-12871031D02*
X12292086Y-12861508D01*
X12292086Y-12861508D02*
X12311134Y-12851984D01*
X12463515Y-13032936D02*
X12473039Y-13042460D01*
X12473039Y-13042460D02*
X12463515Y-13051984D01*
X12463515Y-13051984D02*
X12453991Y-13042460D01*
X12453991Y-13042460D02*
X12463515Y-13032936D01*
X12463515Y-13032936D02*
X12463515Y-13051984D01*
X12596848Y-12851984D02*
X12615896Y-12851984D01*
X12615896Y-12851984D02*
X12634944Y-12861508D01*
X12634944Y-12861508D02*
X12644467Y-12871031D01*
X12644467Y-12871031D02*
X12653991Y-12890079D01*
X12653991Y-12890079D02*
X12663515Y-12928174D01*
X12663515Y-12928174D02*
X12663515Y-12975793D01*
X12663515Y-12975793D02*
X12653991Y-13013888D01*
X12653991Y-13013888D02*
X12644467Y-13032936D01*
X12644467Y-13032936D02*
X12634944Y-13042460D01*
X12634944Y-13042460D02*
X12615896Y-13051984D01*
X12615896Y-13051984D02*
X12596848Y-13051984D01*
X12596848Y-13051984D02*
X12577801Y-13042460D01*
X12577801Y-13042460D02*
X12568277Y-13032936D01*
X12568277Y-13032936D02*
X12558753Y-13013888D01*
X12558753Y-13013888D02*
X12549229Y-12975793D01*
X12549229Y-12975793D02*
X12549229Y-12928174D01*
X12549229Y-12928174D02*
X12558753Y-12890079D01*
X12558753Y-12890079D02*
X12568277Y-12871031D01*
X12568277Y-12871031D02*
X12577801Y-12861508D01*
X12577801Y-12861508D02*
X12596848Y-12851984D01*
X12730182Y-12851984D02*
X12853991Y-12851984D01*
X12853991Y-12851984D02*
X12787325Y-12928174D01*
X12787325Y-12928174D02*
X12815896Y-12928174D01*
X12815896Y-12928174D02*
X12834944Y-12937698D01*
X12834944Y-12937698D02*
X12844467Y-12947222D01*
X12844467Y-12947222D02*
X12853991Y-12966269D01*
X12853991Y-12966269D02*
X12853991Y-13013888D01*
X12853991Y-13013888D02*
X12844467Y-13032936D01*
X12844467Y-13032936D02*
X12834944Y-13042460D01*
X12834944Y-13042460D02*
X12815896Y-13051984D01*
X12815896Y-13051984D02*
X12758753Y-13051984D01*
X12758753Y-13051984D02*
X12739706Y-13042460D01*
X12739706Y-13042460D02*
X12730182Y-13032936D01*
X12949229Y-13051984D02*
X12987325Y-13051984D01*
X12987325Y-13051984D02*
X13006372Y-13042460D01*
X13006372Y-13042460D02*
X13015896Y-13032936D01*
X13015896Y-13032936D02*
X13034944Y-13004365D01*
X13034944Y-13004365D02*
X13044467Y-12966269D01*
X13044467Y-12966269D02*
X13044467Y-12890079D01*
X13044467Y-12890079D02*
X13034944Y-12871031D01*
X13034944Y-12871031D02*
X13025420Y-12861508D01*
X13025420Y-12861508D02*
X13006372Y-12851984D01*
X13006372Y-12851984D02*
X12968277Y-12851984D01*
X12968277Y-12851984D02*
X12949229Y-12861508D01*
X12949229Y-12861508D02*
X12939706Y-12871031D01*
X12939706Y-12871031D02*
X12930182Y-12890079D01*
X12930182Y-12890079D02*
X12930182Y-12937698D01*
X12930182Y-12937698D02*
X12939706Y-12956746D01*
X12939706Y-12956746D02*
X12949229Y-12966269D01*
X12949229Y-12966269D02*
X12968277Y-12975793D01*
X12968277Y-12975793D02*
X13006372Y-12975793D01*
X13006372Y-12975793D02*
X13025420Y-12966269D01*
X13025420Y-12966269D02*
X13034944Y-12956746D01*
X13034944Y-12956746D02*
X13044467Y-12937698D01*
X13215896Y-12918650D02*
X13215896Y-13051984D01*
X13168277Y-12842460D02*
X13120658Y-12985317D01*
X13120658Y-12985317D02*
X13244467Y-12985317D01*
X13311134Y-12851984D02*
X13311134Y-12890079D01*
X13387325Y-12851984D02*
X13387325Y-12890079D01*
X13682563Y-13128174D02*
X13673039Y-13118650D01*
X13673039Y-13118650D02*
X13653991Y-13090079D01*
X13653991Y-13090079D02*
X13644468Y-13071031D01*
X13644468Y-13071031D02*
X13634944Y-13042460D01*
X13634944Y-13042460D02*
X13625420Y-12994841D01*
X13625420Y-12994841D02*
X13625420Y-12956746D01*
X13625420Y-12956746D02*
X13634944Y-12909127D01*
X13634944Y-12909127D02*
X13644468Y-12880555D01*
X13644468Y-12880555D02*
X13653991Y-12861508D01*
X13653991Y-12861508D02*
X13673039Y-12832936D01*
X13673039Y-12832936D02*
X13682563Y-12823412D01*
X13844468Y-12918650D02*
X13844468Y-13051984D01*
X13796848Y-12842460D02*
X13749229Y-12985317D01*
X13749229Y-12985317D02*
X13873039Y-12985317D01*
X13930182Y-12851984D02*
X14053991Y-12851984D01*
X14053991Y-12851984D02*
X13987325Y-12928174D01*
X13987325Y-12928174D02*
X14015896Y-12928174D01*
X14015896Y-12928174D02*
X14034944Y-12937698D01*
X14034944Y-12937698D02*
X14044468Y-12947222D01*
X14044468Y-12947222D02*
X14053991Y-12966269D01*
X14053991Y-12966269D02*
X14053991Y-13013888D01*
X14053991Y-13013888D02*
X14044468Y-13032936D01*
X14044468Y-13032936D02*
X14034944Y-13042460D01*
X14034944Y-13042460D02*
X14015896Y-13051984D01*
X14015896Y-13051984D02*
X13958753Y-13051984D01*
X13958753Y-13051984D02*
X13939706Y-13042460D01*
X13939706Y-13042460D02*
X13930182Y-13032936D01*
X14292087Y-13051984D02*
X14292087Y-12851984D01*
X14377801Y-13051984D02*
X14377801Y-12947222D01*
X14377801Y-12947222D02*
X14368277Y-12928174D01*
X14368277Y-12928174D02*
X14349230Y-12918650D01*
X14349230Y-12918650D02*
X14320658Y-12918650D01*
X14320658Y-12918650D02*
X14301610Y-12928174D01*
X14301610Y-12928174D02*
X14292087Y-12937698D01*
X14501610Y-13051984D02*
X14482563Y-13042460D01*
X14482563Y-13042460D02*
X14473039Y-13032936D01*
X14473039Y-13032936D02*
X14463515Y-13013888D01*
X14463515Y-13013888D02*
X14463515Y-12956746D01*
X14463515Y-12956746D02*
X14473039Y-12937698D01*
X14473039Y-12937698D02*
X14482563Y-12928174D01*
X14482563Y-12928174D02*
X14501610Y-12918650D01*
X14501610Y-12918650D02*
X14530182Y-12918650D01*
X14530182Y-12918650D02*
X14549230Y-12928174D01*
X14549230Y-12928174D02*
X14558753Y-12937698D01*
X14558753Y-12937698D02*
X14568277Y-12956746D01*
X14568277Y-12956746D02*
X14568277Y-13013888D01*
X14568277Y-13013888D02*
X14558753Y-13032936D01*
X14558753Y-13032936D02*
X14549230Y-13042460D01*
X14549230Y-13042460D02*
X14530182Y-13051984D01*
X14530182Y-13051984D02*
X14501610Y-13051984D01*
X14682563Y-13051984D02*
X14663515Y-13042460D01*
X14663515Y-13042460D02*
X14653991Y-13023412D01*
X14653991Y-13023412D02*
X14653991Y-12851984D01*
X14834944Y-13042460D02*
X14815896Y-13051984D01*
X14815896Y-13051984D02*
X14777801Y-13051984D01*
X14777801Y-13051984D02*
X14758753Y-13042460D01*
X14758753Y-13042460D02*
X14749230Y-13023412D01*
X14749230Y-13023412D02*
X14749230Y-12947222D01*
X14749230Y-12947222D02*
X14758753Y-12928174D01*
X14758753Y-12928174D02*
X14777801Y-12918650D01*
X14777801Y-12918650D02*
X14815896Y-12918650D01*
X14815896Y-12918650D02*
X14834944Y-12928174D01*
X14834944Y-12928174D02*
X14844468Y-12947222D01*
X14844468Y-12947222D02*
X14844468Y-12966269D01*
X14844468Y-12966269D02*
X14749230Y-12985317D01*
X14920658Y-13042460D02*
X14939706Y-13051984D01*
X14939706Y-13051984D02*
X14977801Y-13051984D01*
X14977801Y-13051984D02*
X14996849Y-13042460D01*
X14996849Y-13042460D02*
X15006372Y-13023412D01*
X15006372Y-13023412D02*
X15006372Y-13013888D01*
X15006372Y-13013888D02*
X14996849Y-12994841D01*
X14996849Y-12994841D02*
X14977801Y-12985317D01*
X14977801Y-12985317D02*
X14949230Y-12985317D01*
X14949230Y-12985317D02*
X14930182Y-12975793D01*
X14930182Y-12975793D02*
X14920658Y-12956746D01*
X14920658Y-12956746D02*
X14920658Y-12947222D01*
X14920658Y-12947222D02*
X14930182Y-12928174D01*
X14930182Y-12928174D02*
X14949230Y-12918650D01*
X14949230Y-12918650D02*
X14977801Y-12918650D01*
X14977801Y-12918650D02*
X14996849Y-12928174D01*
X15073039Y-13128174D02*
X15082563Y-13118650D01*
X15082563Y-13118650D02*
X15101611Y-13090079D01*
X15101611Y-13090079D02*
X15111134Y-13071031D01*
X15111134Y-13071031D02*
X15120658Y-13042460D01*
X15120658Y-13042460D02*
X15130182Y-12994841D01*
X15130182Y-12994841D02*
X15130182Y-12956746D01*
X15130182Y-12956746D02*
X15120658Y-12909127D01*
X15120658Y-12909127D02*
X15111134Y-12880555D01*
X15111134Y-12880555D02*
X15101611Y-12861508D01*
X15101611Y-12861508D02*
X15082563Y-12832936D01*
X15082563Y-12832936D02*
X15073039Y-12823412D01*
D11*
X10097981Y-13247481D02*
X10097981Y-13201519D01*
X10052019Y-13201519D01*
X10052019Y-13247481D01*
X10097981Y-13247481D01*
D12*
X10406372Y-13115984D02*
X10425420Y-13115984D01*
X10425420Y-13115984D02*
X10444467Y-13125508D01*
X10444467Y-13125508D02*
X10453991Y-13135031D01*
X10453991Y-13135031D02*
X10463515Y-13154079D01*
X10463515Y-13154079D02*
X10473039Y-13192174D01*
X10473039Y-13192174D02*
X10473039Y-13239793D01*
X10473039Y-13239793D02*
X10463515Y-13277888D01*
X10463515Y-13277888D02*
X10453991Y-13296936D01*
X10453991Y-13296936D02*
X10444467Y-13306460D01*
X10444467Y-13306460D02*
X10425420Y-13315984D01*
X10425420Y-13315984D02*
X10406372Y-13315984D01*
X10406372Y-13315984D02*
X10387324Y-13306460D01*
X10387324Y-13306460D02*
X10377801Y-13296936D01*
X10377801Y-13296936D02*
X10368277Y-13277888D01*
X10368277Y-13277888D02*
X10358753Y-13239793D01*
X10358753Y-13239793D02*
X10358753Y-13192174D01*
X10358753Y-13192174D02*
X10368277Y-13154079D01*
X10368277Y-13154079D02*
X10377801Y-13135031D01*
X10377801Y-13135031D02*
X10387324Y-13125508D01*
X10387324Y-13125508D02*
X10406372Y-13115984D01*
X10558753Y-13296936D02*
X10568277Y-13306460D01*
X10568277Y-13306460D02*
X10558753Y-13315984D01*
X10558753Y-13315984D02*
X10549229Y-13306460D01*
X10549229Y-13306460D02*
X10558753Y-13296936D01*
X10558753Y-13296936D02*
X10558753Y-13315984D01*
X10739705Y-13115984D02*
X10701610Y-13115984D01*
X10701610Y-13115984D02*
X10682563Y-13125508D01*
X10682563Y-13125508D02*
X10673039Y-13135031D01*
X10673039Y-13135031D02*
X10653991Y-13163603D01*
X10653991Y-13163603D02*
X10644467Y-13201698D01*
X10644467Y-13201698D02*
X10644467Y-13277888D01*
X10644467Y-13277888D02*
X10653991Y-13296936D01*
X10653991Y-13296936D02*
X10663515Y-13306460D01*
X10663515Y-13306460D02*
X10682563Y-13315984D01*
X10682563Y-13315984D02*
X10720658Y-13315984D01*
X10720658Y-13315984D02*
X10739705Y-13306460D01*
X10739705Y-13306460D02*
X10749229Y-13296936D01*
X10749229Y-13296936D02*
X10758753Y-13277888D01*
X10758753Y-13277888D02*
X10758753Y-13230269D01*
X10758753Y-13230269D02*
X10749229Y-13211222D01*
X10749229Y-13211222D02*
X10739705Y-13201698D01*
X10739705Y-13201698D02*
X10720658Y-13192174D01*
X10720658Y-13192174D02*
X10682563Y-13192174D01*
X10682563Y-13192174D02*
X10663515Y-13201698D01*
X10663515Y-13201698D02*
X10653991Y-13211222D01*
X10653991Y-13211222D02*
X10644467Y-13230269D01*
X10939705Y-13115984D02*
X10844467Y-13115984D01*
X10844467Y-13115984D02*
X10834944Y-13211222D01*
X10834944Y-13211222D02*
X10844467Y-13201698D01*
X10844467Y-13201698D02*
X10863515Y-13192174D01*
X10863515Y-13192174D02*
X10911134Y-13192174D01*
X10911134Y-13192174D02*
X10930182Y-13201698D01*
X10930182Y-13201698D02*
X10939705Y-13211222D01*
X10939705Y-13211222D02*
X10949229Y-13230269D01*
X10949229Y-13230269D02*
X10949229Y-13277888D01*
X10949229Y-13277888D02*
X10939705Y-13296936D01*
X10939705Y-13296936D02*
X10930182Y-13306460D01*
X10930182Y-13306460D02*
X10911134Y-13315984D01*
X10911134Y-13315984D02*
X10863515Y-13315984D01*
X10863515Y-13315984D02*
X10844467Y-13306460D01*
X10844467Y-13306460D02*
X10834944Y-13296936D01*
X11073039Y-13115984D02*
X11092086Y-13115984D01*
X11092086Y-13115984D02*
X11111134Y-13125508D01*
X11111134Y-13125508D02*
X11120658Y-13135031D01*
X11120658Y-13135031D02*
X11130182Y-13154079D01*
X11130182Y-13154079D02*
X11139705Y-13192174D01*
X11139705Y-13192174D02*
X11139705Y-13239793D01*
X11139705Y-13239793D02*
X11130182Y-13277888D01*
X11130182Y-13277888D02*
X11120658Y-13296936D01*
X11120658Y-13296936D02*
X11111134Y-13306460D01*
X11111134Y-13306460D02*
X11092086Y-13315984D01*
X11092086Y-13315984D02*
X11073039Y-13315984D01*
X11073039Y-13315984D02*
X11053991Y-13306460D01*
X11053991Y-13306460D02*
X11044467Y-13296936D01*
X11044467Y-13296936D02*
X11034944Y-13277888D01*
X11034944Y-13277888D02*
X11025420Y-13239793D01*
X11025420Y-13239793D02*
X11025420Y-13192174D01*
X11025420Y-13192174D02*
X11034944Y-13154079D01*
X11034944Y-13154079D02*
X11044467Y-13135031D01*
X11044467Y-13135031D02*
X11053991Y-13125508D01*
X11053991Y-13125508D02*
X11073039Y-13115984D01*
X11225420Y-13315984D02*
X11225420Y-13182650D01*
X11225420Y-13201698D02*
X11234943Y-13192174D01*
X11234943Y-13192174D02*
X11253991Y-13182650D01*
X11253991Y-13182650D02*
X11282563Y-13182650D01*
X11282563Y-13182650D02*
X11301610Y-13192174D01*
X11301610Y-13192174D02*
X11311134Y-13211222D01*
X11311134Y-13211222D02*
X11311134Y-13315984D01*
X11311134Y-13211222D02*
X11320658Y-13192174D01*
X11320658Y-13192174D02*
X11339705Y-13182650D01*
X11339705Y-13182650D02*
X11368277Y-13182650D01*
X11368277Y-13182650D02*
X11387324Y-13192174D01*
X11387324Y-13192174D02*
X11396848Y-13211222D01*
X11396848Y-13211222D02*
X11396848Y-13315984D01*
X11492086Y-13315984D02*
X11492086Y-13182650D01*
X11492086Y-13201698D02*
X11501610Y-13192174D01*
X11501610Y-13192174D02*
X11520658Y-13182650D01*
X11520658Y-13182650D02*
X11549229Y-13182650D01*
X11549229Y-13182650D02*
X11568277Y-13192174D01*
X11568277Y-13192174D02*
X11577801Y-13211222D01*
X11577801Y-13211222D02*
X11577801Y-13315984D01*
X11577801Y-13211222D02*
X11587324Y-13192174D01*
X11587324Y-13192174D02*
X11606372Y-13182650D01*
X11606372Y-13182650D02*
X11634943Y-13182650D01*
X11634943Y-13182650D02*
X11653991Y-13192174D01*
X11653991Y-13192174D02*
X11663515Y-13211222D01*
X11663515Y-13211222D02*
X11663515Y-13315984D01*
X12053991Y-13106460D02*
X11882563Y-13363603D01*
X12311134Y-13115984D02*
X12330182Y-13115984D01*
X12330182Y-13115984D02*
X12349229Y-13125508D01*
X12349229Y-13125508D02*
X12358753Y-13135031D01*
X12358753Y-13135031D02*
X12368277Y-13154079D01*
X12368277Y-13154079D02*
X12377801Y-13192174D01*
X12377801Y-13192174D02*
X12377801Y-13239793D01*
X12377801Y-13239793D02*
X12368277Y-13277888D01*
X12368277Y-13277888D02*
X12358753Y-13296936D01*
X12358753Y-13296936D02*
X12349229Y-13306460D01*
X12349229Y-13306460D02*
X12330182Y-13315984D01*
X12330182Y-13315984D02*
X12311134Y-13315984D01*
X12311134Y-13315984D02*
X12292086Y-13306460D01*
X12292086Y-13306460D02*
X12282563Y-13296936D01*
X12282563Y-13296936D02*
X12273039Y-13277888D01*
X12273039Y-13277888D02*
X12263515Y-13239793D01*
X12263515Y-13239793D02*
X12263515Y-13192174D01*
X12263515Y-13192174D02*
X12273039Y-13154079D01*
X12273039Y-13154079D02*
X12282563Y-13135031D01*
X12282563Y-13135031D02*
X12292086Y-13125508D01*
X12292086Y-13125508D02*
X12311134Y-13115984D01*
X12463515Y-13296936D02*
X12473039Y-13306460D01*
X12473039Y-13306460D02*
X12463515Y-13315984D01*
X12463515Y-13315984D02*
X12453991Y-13306460D01*
X12453991Y-13306460D02*
X12463515Y-13296936D01*
X12463515Y-13296936D02*
X12463515Y-13315984D01*
X12596848Y-13115984D02*
X12615896Y-13115984D01*
X12615896Y-13115984D02*
X12634944Y-13125508D01*
X12634944Y-13125508D02*
X12644467Y-13135031D01*
X12644467Y-13135031D02*
X12653991Y-13154079D01*
X12653991Y-13154079D02*
X12663515Y-13192174D01*
X12663515Y-13192174D02*
X12663515Y-13239793D01*
X12663515Y-13239793D02*
X12653991Y-13277888D01*
X12653991Y-13277888D02*
X12644467Y-13296936D01*
X12644467Y-13296936D02*
X12634944Y-13306460D01*
X12634944Y-13306460D02*
X12615896Y-13315984D01*
X12615896Y-13315984D02*
X12596848Y-13315984D01*
X12596848Y-13315984D02*
X12577801Y-13306460D01*
X12577801Y-13306460D02*
X12568277Y-13296936D01*
X12568277Y-13296936D02*
X12558753Y-13277888D01*
X12558753Y-13277888D02*
X12549229Y-13239793D01*
X12549229Y-13239793D02*
X12549229Y-13192174D01*
X12549229Y-13192174D02*
X12558753Y-13154079D01*
X12558753Y-13154079D02*
X12568277Y-13135031D01*
X12568277Y-13135031D02*
X12577801Y-13125508D01*
X12577801Y-13125508D02*
X12596848Y-13115984D01*
X12739706Y-13135031D02*
X12749229Y-13125508D01*
X12749229Y-13125508D02*
X12768277Y-13115984D01*
X12768277Y-13115984D02*
X12815896Y-13115984D01*
X12815896Y-13115984D02*
X12834944Y-13125508D01*
X12834944Y-13125508D02*
X12844467Y-13135031D01*
X12844467Y-13135031D02*
X12853991Y-13154079D01*
X12853991Y-13154079D02*
X12853991Y-13173127D01*
X12853991Y-13173127D02*
X12844467Y-13201698D01*
X12844467Y-13201698D02*
X12730182Y-13315984D01*
X12730182Y-13315984D02*
X12853991Y-13315984D01*
X13034944Y-13115984D02*
X12939706Y-13115984D01*
X12939706Y-13115984D02*
X12930182Y-13211222D01*
X12930182Y-13211222D02*
X12939706Y-13201698D01*
X12939706Y-13201698D02*
X12958753Y-13192174D01*
X12958753Y-13192174D02*
X13006372Y-13192174D01*
X13006372Y-13192174D02*
X13025420Y-13201698D01*
X13025420Y-13201698D02*
X13034944Y-13211222D01*
X13034944Y-13211222D02*
X13044467Y-13230269D01*
X13044467Y-13230269D02*
X13044467Y-13277888D01*
X13044467Y-13277888D02*
X13034944Y-13296936D01*
X13034944Y-13296936D02*
X13025420Y-13306460D01*
X13025420Y-13306460D02*
X13006372Y-13315984D01*
X13006372Y-13315984D02*
X12958753Y-13315984D01*
X12958753Y-13315984D02*
X12939706Y-13306460D01*
X12939706Y-13306460D02*
X12930182Y-13296936D01*
X13215896Y-13115984D02*
X13177801Y-13115984D01*
X13177801Y-13115984D02*
X13158753Y-13125508D01*
X13158753Y-13125508D02*
X13149229Y-13135031D01*
X13149229Y-13135031D02*
X13130182Y-13163603D01*
X13130182Y-13163603D02*
X13120658Y-13201698D01*
X13120658Y-13201698D02*
X13120658Y-13277888D01*
X13120658Y-13277888D02*
X13130182Y-13296936D01*
X13130182Y-13296936D02*
X13139706Y-13306460D01*
X13139706Y-13306460D02*
X13158753Y-13315984D01*
X13158753Y-13315984D02*
X13196848Y-13315984D01*
X13196848Y-13315984D02*
X13215896Y-13306460D01*
X13215896Y-13306460D02*
X13225420Y-13296936D01*
X13225420Y-13296936D02*
X13234944Y-13277888D01*
X13234944Y-13277888D02*
X13234944Y-13230269D01*
X13234944Y-13230269D02*
X13225420Y-13211222D01*
X13225420Y-13211222D02*
X13215896Y-13201698D01*
X13215896Y-13201698D02*
X13196848Y-13192174D01*
X13196848Y-13192174D02*
X13158753Y-13192174D01*
X13158753Y-13192174D02*
X13139706Y-13201698D01*
X13139706Y-13201698D02*
X13130182Y-13211222D01*
X13130182Y-13211222D02*
X13120658Y-13230269D01*
X13311134Y-13115984D02*
X13311134Y-13154079D01*
X13387325Y-13115984D02*
X13387325Y-13154079D01*
X13682563Y-13392174D02*
X13673039Y-13382650D01*
X13673039Y-13382650D02*
X13653991Y-13354079D01*
X13653991Y-13354079D02*
X13644468Y-13335031D01*
X13644468Y-13335031D02*
X13634944Y-13306460D01*
X13634944Y-13306460D02*
X13625420Y-13258841D01*
X13625420Y-13258841D02*
X13625420Y-13220746D01*
X13625420Y-13220746D02*
X13634944Y-13173127D01*
X13634944Y-13173127D02*
X13644468Y-13144555D01*
X13644468Y-13144555D02*
X13653991Y-13125508D01*
X13653991Y-13125508D02*
X13673039Y-13096936D01*
X13673039Y-13096936D02*
X13682563Y-13087412D01*
X13749229Y-13135031D02*
X13758753Y-13125508D01*
X13758753Y-13125508D02*
X13777801Y-13115984D01*
X13777801Y-13115984D02*
X13825420Y-13115984D01*
X13825420Y-13115984D02*
X13844468Y-13125508D01*
X13844468Y-13125508D02*
X13853991Y-13135031D01*
X13853991Y-13135031D02*
X13863515Y-13154079D01*
X13863515Y-13154079D02*
X13863515Y-13173127D01*
X13863515Y-13173127D02*
X13853991Y-13201698D01*
X13853991Y-13201698D02*
X13739706Y-13315984D01*
X13739706Y-13315984D02*
X13863515Y-13315984D01*
X14101610Y-13315984D02*
X14101610Y-13115984D01*
X14187325Y-13315984D02*
X14187325Y-13211222D01*
X14187325Y-13211222D02*
X14177801Y-13192174D01*
X14177801Y-13192174D02*
X14158753Y-13182650D01*
X14158753Y-13182650D02*
X14130182Y-13182650D01*
X14130182Y-13182650D02*
X14111134Y-13192174D01*
X14111134Y-13192174D02*
X14101610Y-13201698D01*
X14311134Y-13315984D02*
X14292087Y-13306460D01*
X14292087Y-13306460D02*
X14282563Y-13296936D01*
X14282563Y-13296936D02*
X14273039Y-13277888D01*
X14273039Y-13277888D02*
X14273039Y-13220746D01*
X14273039Y-13220746D02*
X14282563Y-13201698D01*
X14282563Y-13201698D02*
X14292087Y-13192174D01*
X14292087Y-13192174D02*
X14311134Y-13182650D01*
X14311134Y-13182650D02*
X14339706Y-13182650D01*
X14339706Y-13182650D02*
X14358753Y-13192174D01*
X14358753Y-13192174D02*
X14368277Y-13201698D01*
X14368277Y-13201698D02*
X14377801Y-13220746D01*
X14377801Y-13220746D02*
X14377801Y-13277888D01*
X14377801Y-13277888D02*
X14368277Y-13296936D01*
X14368277Y-13296936D02*
X14358753Y-13306460D01*
X14358753Y-13306460D02*
X14339706Y-13315984D01*
X14339706Y-13315984D02*
X14311134Y-13315984D01*
X14492087Y-13315984D02*
X14473039Y-13306460D01*
X14473039Y-13306460D02*
X14463515Y-13287412D01*
X14463515Y-13287412D02*
X14463515Y-13115984D01*
X14644468Y-13306460D02*
X14625420Y-13315984D01*
X14625420Y-13315984D02*
X14587325Y-13315984D01*
X14587325Y-13315984D02*
X14568277Y-13306460D01*
X14568277Y-13306460D02*
X14558753Y-13287412D01*
X14558753Y-13287412D02*
X14558753Y-13211222D01*
X14558753Y-13211222D02*
X14568277Y-13192174D01*
X14568277Y-13192174D02*
X14587325Y-13182650D01*
X14587325Y-13182650D02*
X14625420Y-13182650D01*
X14625420Y-13182650D02*
X14644468Y-13192174D01*
X14644468Y-13192174D02*
X14653991Y-13211222D01*
X14653991Y-13211222D02*
X14653991Y-13230269D01*
X14653991Y-13230269D02*
X14558753Y-13249317D01*
X14730182Y-13306460D02*
X14749230Y-13315984D01*
X14749230Y-13315984D02*
X14787325Y-13315984D01*
X14787325Y-13315984D02*
X14806372Y-13306460D01*
X14806372Y-13306460D02*
X14815896Y-13287412D01*
X14815896Y-13287412D02*
X14815896Y-13277888D01*
X14815896Y-13277888D02*
X14806372Y-13258841D01*
X14806372Y-13258841D02*
X14787325Y-13249317D01*
X14787325Y-13249317D02*
X14758753Y-13249317D01*
X14758753Y-13249317D02*
X14739706Y-13239793D01*
X14739706Y-13239793D02*
X14730182Y-13220746D01*
X14730182Y-13220746D02*
X14730182Y-13211222D01*
X14730182Y-13211222D02*
X14739706Y-13192174D01*
X14739706Y-13192174D02*
X14758753Y-13182650D01*
X14758753Y-13182650D02*
X14787325Y-13182650D01*
X14787325Y-13182650D02*
X14806372Y-13192174D01*
X14882563Y-13392174D02*
X14892087Y-13382650D01*
X14892087Y-13382650D02*
X14911134Y-13354079D01*
X14911134Y-13354079D02*
X14920658Y-13335031D01*
X14920658Y-13335031D02*
X14930182Y-13306460D01*
X14930182Y-13306460D02*
X14939706Y-13258841D01*
X14939706Y-13258841D02*
X14939706Y-13220746D01*
X14939706Y-13220746D02*
X14930182Y-13173127D01*
X14930182Y-13173127D02*
X14920658Y-13144555D01*
X14920658Y-13144555D02*
X14911134Y-13125508D01*
X14911134Y-13125508D02*
X14892087Y-13096936D01*
X14892087Y-13096936D02*
X14882563Y-13087412D01*
X15244468Y-13392174D02*
X15234944Y-13382650D01*
X15234944Y-13382650D02*
X15215896Y-13354079D01*
X15215896Y-13354079D02*
X15206372Y-13335031D01*
X15206372Y-13335031D02*
X15196849Y-13306460D01*
X15196849Y-13306460D02*
X15187325Y-13258841D01*
X15187325Y-13258841D02*
X15187325Y-13220746D01*
X15187325Y-13220746D02*
X15196849Y-13173127D01*
X15196849Y-13173127D02*
X15206372Y-13144555D01*
X15206372Y-13144555D02*
X15215896Y-13125508D01*
X15215896Y-13125508D02*
X15234944Y-13096936D01*
X15234944Y-13096936D02*
X15244468Y-13087412D01*
X15320658Y-13182650D02*
X15320658Y-13315984D01*
X15320658Y-13201698D02*
X15330182Y-13192174D01*
X15330182Y-13192174D02*
X15349230Y-13182650D01*
X15349230Y-13182650D02*
X15377801Y-13182650D01*
X15377801Y-13182650D02*
X15396849Y-13192174D01*
X15396849Y-13192174D02*
X15406372Y-13211222D01*
X15406372Y-13211222D02*
X15406372Y-13315984D01*
X15530182Y-13315984D02*
X15511134Y-13306460D01*
X15511134Y-13306460D02*
X15501611Y-13296936D01*
X15501611Y-13296936D02*
X15492087Y-13277888D01*
X15492087Y-13277888D02*
X15492087Y-13220746D01*
X15492087Y-13220746D02*
X15501611Y-13201698D01*
X15501611Y-13201698D02*
X15511134Y-13192174D01*
X15511134Y-13192174D02*
X15530182Y-13182650D01*
X15530182Y-13182650D02*
X15558753Y-13182650D01*
X15558753Y-13182650D02*
X15577801Y-13192174D01*
X15577801Y-13192174D02*
X15587325Y-13201698D01*
X15587325Y-13201698D02*
X15596849Y-13220746D01*
X15596849Y-13220746D02*
X15596849Y-13277888D01*
X15596849Y-13277888D02*
X15587325Y-13296936D01*
X15587325Y-13296936D02*
X15577801Y-13306460D01*
X15577801Y-13306460D02*
X15558753Y-13315984D01*
X15558753Y-13315984D02*
X15530182Y-13315984D01*
X15653992Y-13182650D02*
X15730182Y-13182650D01*
X15682563Y-13115984D02*
X15682563Y-13287412D01*
X15682563Y-13287412D02*
X15692087Y-13306460D01*
X15692087Y-13306460D02*
X15711134Y-13315984D01*
X15711134Y-13315984D02*
X15730182Y-13315984D01*
X15949230Y-13182650D02*
X15949230Y-13382650D01*
X15949230Y-13192174D02*
X15968277Y-13182650D01*
X15968277Y-13182650D02*
X16006373Y-13182650D01*
X16006373Y-13182650D02*
X16025420Y-13192174D01*
X16025420Y-13192174D02*
X16034944Y-13201698D01*
X16034944Y-13201698D02*
X16044468Y-13220746D01*
X16044468Y-13220746D02*
X16044468Y-13277888D01*
X16044468Y-13277888D02*
X16034944Y-13296936D01*
X16034944Y-13296936D02*
X16025420Y-13306460D01*
X16025420Y-13306460D02*
X16006373Y-13315984D01*
X16006373Y-13315984D02*
X15968277Y-13315984D01*
X15968277Y-13315984D02*
X15949230Y-13306460D01*
X16158753Y-13315984D02*
X16139706Y-13306460D01*
X16139706Y-13306460D02*
X16130182Y-13287412D01*
X16130182Y-13287412D02*
X16130182Y-13115984D01*
X16320658Y-13315984D02*
X16320658Y-13211222D01*
X16320658Y-13211222D02*
X16311134Y-13192174D01*
X16311134Y-13192174D02*
X16292087Y-13182650D01*
X16292087Y-13182650D02*
X16253992Y-13182650D01*
X16253992Y-13182650D02*
X16234944Y-13192174D01*
X16320658Y-13306460D02*
X16301611Y-13315984D01*
X16301611Y-13315984D02*
X16253992Y-13315984D01*
X16253992Y-13315984D02*
X16234944Y-13306460D01*
X16234944Y-13306460D02*
X16225420Y-13287412D01*
X16225420Y-13287412D02*
X16225420Y-13268365D01*
X16225420Y-13268365D02*
X16234944Y-13249317D01*
X16234944Y-13249317D02*
X16253992Y-13239793D01*
X16253992Y-13239793D02*
X16301611Y-13239793D01*
X16301611Y-13239793D02*
X16320658Y-13230269D01*
X16387325Y-13182650D02*
X16463515Y-13182650D01*
X16415896Y-13115984D02*
X16415896Y-13287412D01*
X16415896Y-13287412D02*
X16425420Y-13306460D01*
X16425420Y-13306460D02*
X16444468Y-13315984D01*
X16444468Y-13315984D02*
X16463515Y-13315984D01*
X16606373Y-13306460D02*
X16587325Y-13315984D01*
X16587325Y-13315984D02*
X16549230Y-13315984D01*
X16549230Y-13315984D02*
X16530182Y-13306460D01*
X16530182Y-13306460D02*
X16520658Y-13287412D01*
X16520658Y-13287412D02*
X16520658Y-13211222D01*
X16520658Y-13211222D02*
X16530182Y-13192174D01*
X16530182Y-13192174D02*
X16549230Y-13182650D01*
X16549230Y-13182650D02*
X16587325Y-13182650D01*
X16587325Y-13182650D02*
X16606373Y-13192174D01*
X16606373Y-13192174D02*
X16615896Y-13211222D01*
X16615896Y-13211222D02*
X16615896Y-13230269D01*
X16615896Y-13230269D02*
X16520658Y-13249317D01*
X16787325Y-13315984D02*
X16787325Y-13115984D01*
X16787325Y-13306460D02*
X16768277Y-13315984D01*
X16768277Y-13315984D02*
X16730182Y-13315984D01*
X16730182Y-13315984D02*
X16711134Y-13306460D01*
X16711134Y-13306460D02*
X16701611Y-13296936D01*
X16701611Y-13296936D02*
X16692087Y-13277888D01*
X16692087Y-13277888D02*
X16692087Y-13220746D01*
X16692087Y-13220746D02*
X16701611Y-13201698D01*
X16701611Y-13201698D02*
X16711134Y-13192174D01*
X16711134Y-13192174D02*
X16730182Y-13182650D01*
X16730182Y-13182650D02*
X16768277Y-13182650D01*
X16768277Y-13182650D02*
X16787325Y-13192174D01*
X16863516Y-13392174D02*
X16873039Y-13382650D01*
X16873039Y-13382650D02*
X16892087Y-13354079D01*
X16892087Y-13354079D02*
X16901611Y-13335031D01*
X16901611Y-13335031D02*
X16911135Y-13306460D01*
X16911135Y-13306460D02*
X16920658Y-13258841D01*
X16920658Y-13258841D02*
X16920658Y-13220746D01*
X16920658Y-13220746D02*
X16911135Y-13173127D01*
X16911135Y-13173127D02*
X16901611Y-13144555D01*
X16901611Y-13144555D02*
X16892087Y-13125508D01*
X16892087Y-13125508D02*
X16873039Y-13096936D01*
X16873039Y-13096936D02*
X16863516Y-13087412D01*
M02*
