%TF.GenerationSoftware,KiCad,Pcbnew,9.0.6*%
%TF.CreationDate,2026-01-03T15:13:41+00:00*%
%TF.ProjectId,Metaboard,4d657461-626f-4617-9264-2e6b69636164,rev?*%
%TF.SameCoordinates,Original*%
%TF.FileFunction,Copper,L1,Top*%
%TF.FilePolarity,Positive*%
%FSLAX46Y46*%
G04 Gerber Fmt 4.6, Leading zero omitted, Abs format (unit mm)*
G04 Created by KiCad (PCBNEW 9.0.6) date 2026-01-03 15:13:41*
%MOMM*%
%LPD*%
G01*
G04 APERTURE LIST*
G04 Aperture macros list*
%AMRoundRect*
0 Rectangle with rounded corners*
0 $1 Rounding radius*
0 $2 $3 $4 $5 $6 $7 $8 $9 X,Y pos of 4 corners*
0 Add a 4 corners polygon primitive as box body*
4,1,4,$2,$3,$4,$5,$6,$7,$8,$9,$2,$3,0*
0 Add four circle primitives for the rounded corners*
1,1,$1+$1,$2,$3*
1,1,$1+$1,$4,$5*
1,1,$1+$1,$6,$7*
1,1,$1+$1,$8,$9*
0 Add four rect primitives between the rounded corners*
20,1,$1+$1,$2,$3,$4,$5,0*
20,1,$1+$1,$4,$5,$6,$7,0*
20,1,$1+$1,$6,$7,$8,$9,0*
20,1,$1+$1,$8,$9,$2,$3,0*%
G04 Aperture macros list end*
%TA.AperFunction,SMDPad,CuDef*%
%ADD10RoundRect,0.140000X-0.170000X0.140000X-0.170000X-0.140000X0.170000X-0.140000X0.170000X0.140000X0*%
%TD*%
%TA.AperFunction,SMDPad,CuDef*%
%ADD11RoundRect,0.140000X-0.140000X-0.170000X0.140000X-0.170000X0.140000X0.170000X-0.140000X0.170000X0*%
%TD*%
%TA.AperFunction,SMDPad,CuDef*%
%ADD12RoundRect,0.135000X-0.185000X0.135000X-0.185000X-0.135000X0.185000X-0.135000X0.185000X0.135000X0*%
%TD*%
%TA.AperFunction,SMDPad,CuDef*%
%ADD13RoundRect,0.140000X0.170000X-0.140000X0.170000X0.140000X-0.170000X0.140000X-0.170000X-0.140000X0*%
%TD*%
%TA.AperFunction,SMDPad,CuDef*%
%ADD14RoundRect,0.250000X0.450000X0.350000X-0.450000X0.350000X-0.450000X-0.350000X0.450000X-0.350000X0*%
%TD*%
%TA.AperFunction,ComponentPad*%
%ADD15R,1.700000X1.700000*%
%TD*%
%TA.AperFunction,ComponentPad*%
%ADD16C,1.700000*%
%TD*%
%TA.AperFunction,SMDPad,CuDef*%
%ADD17RoundRect,0.135000X0.135000X0.185000X-0.135000X0.185000X-0.135000X-0.185000X0.135000X-0.185000X0*%
%TD*%
%TA.AperFunction,SMDPad,CuDef*%
%ADD18RoundRect,0.200000X0.800000X-0.200000X0.800000X0.200000X-0.800000X0.200000X-0.800000X-0.200000X0*%
%TD*%
%TA.AperFunction,SMDPad,CuDef*%
%ADD19RoundRect,0.150000X0.150000X-0.587500X0.150000X0.587500X-0.150000X0.587500X-0.150000X-0.587500X0*%
%TD*%
%TA.AperFunction,SMDPad,CuDef*%
%ADD20RoundRect,0.140000X0.140000X0.170000X-0.140000X0.170000X-0.140000X-0.170000X0.140000X-0.170000X0*%
%TD*%
%TA.AperFunction,SMDPad,CuDef*%
%ADD21RoundRect,0.135000X-0.135000X-0.185000X0.135000X-0.185000X0.135000X0.185000X-0.135000X0.185000X0*%
%TD*%
%TA.AperFunction,SMDPad,CuDef*%
%ADD22R,0.600000X1.450000*%
%TD*%
%TA.AperFunction,SMDPad,CuDef*%
%ADD23R,0.300000X1.450000*%
%TD*%
%TA.AperFunction,HeatsinkPad*%
%ADD24O,1.000000X2.100000*%
%TD*%
%TA.AperFunction,HeatsinkPad*%
%ADD25O,1.000000X1.600000*%
%TD*%
%TA.AperFunction,SMDPad,CuDef*%
%ADD26RoundRect,0.225000X0.225000X0.250000X-0.225000X0.250000X-0.225000X-0.250000X0.225000X-0.250000X0*%
%TD*%
%TA.AperFunction,SMDPad,CuDef*%
%ADD27RoundRect,0.062500X-0.387500X-0.062500X0.387500X-0.062500X0.387500X0.062500X-0.387500X0.062500X0*%
%TD*%
%TA.AperFunction,HeatsinkPad*%
%ADD28R,0.200000X1.600000*%
%TD*%
%TA.AperFunction,SMDPad,CuDef*%
%ADD29RoundRect,0.050000X-0.387500X-0.050000X0.387500X-0.050000X0.387500X0.050000X-0.387500X0.050000X0*%
%TD*%
%TA.AperFunction,SMDPad,CuDef*%
%ADD30RoundRect,0.050000X-0.050000X-0.387500X0.050000X-0.387500X0.050000X0.387500X-0.050000X0.387500X0*%
%TD*%
%TA.AperFunction,HeatsinkPad*%
%ADD31R,3.200000X3.200000*%
%TD*%
%TA.AperFunction,SMDPad,CuDef*%
%ADD32RoundRect,0.082000X0.718000X-0.328000X0.718000X0.328000X-0.718000X0.328000X-0.718000X-0.328000X0*%
%TD*%
%TA.AperFunction,SMDPad,CuDef*%
%ADD33RoundRect,0.082000X-0.718000X0.328000X-0.718000X-0.328000X0.718000X-0.328000X0.718000X0.328000X0*%
%TD*%
%TA.AperFunction,ViaPad*%
%ADD34C,0.600000*%
%TD*%
%TA.AperFunction,Conductor*%
%ADD35C,0.200000*%
%TD*%
G04 APERTURE END LIST*
D10*
%TO.P,C10,1*%
%TO.N,+1V1*%
X115000000Y-102020000D03*
%TO.P,C10,2*%
%TO.N,GND*%
X115000000Y-102980000D03*
%TD*%
D11*
%TO.P,C3,1*%
%TO.N,+3V3*%
X116200000Y-92660000D03*
%TO.P,C3,2*%
%TO.N,GND*%
X117160000Y-92660000D03*
%TD*%
D12*
%TO.P,R3,1*%
%TO.N,USB_D+*%
X112260000Y-90080000D03*
%TO.P,R3,2*%
%TO.N,Net-(U1-USB_DP)*%
X112260000Y-91100000D03*
%TD*%
D13*
%TO.P,C4,1*%
%TO.N,+3V3*%
X115300000Y-91460000D03*
%TO.P,C4,2*%
%TO.N,GND*%
X115300000Y-90500000D03*
%TD*%
D14*
%TO.P,Y1,1,1*%
%TO.N,Net-(C16-Pad2)*%
X112145000Y-104090000D03*
%TO.P,Y1,2,2*%
%TO.N,GND*%
X109945000Y-104090000D03*
%TO.P,Y1,3,3*%
%TO.N,XIN*%
X109945000Y-105790000D03*
%TO.P,Y1,4,4*%
%TO.N,GND*%
X112145000Y-105790000D03*
%TD*%
D15*
%TO.P,J3,1,Pin_1*%
%TO.N,VBUS*%
X120490000Y-68070000D03*
D16*
%TO.P,J3,2,Pin_2*%
%TO.N,GPIO29_ADC3*%
X120490000Y-70610000D03*
%TO.P,J3,3,Pin_3*%
%TO.N,GND*%
X120490000Y-73150000D03*
%TO.P,J3,4,Pin_4*%
%TO.N,GPIO28_ADC2*%
X120490000Y-75690000D03*
%TO.P,J3,5,Pin_5*%
%TO.N,+3V3*%
X120490000Y-78230000D03*
%TO.P,J3,6,Pin_6*%
%TO.N,GPIO27_ADC1*%
X120490000Y-80770000D03*
%TO.P,J3,7,Pin_7*%
%TO.N,GPIO26_ADC0*%
X120490000Y-83310000D03*
%TO.P,J3,8,Pin_8*%
%TO.N,GND*%
X120490000Y-85850000D03*
%TO.P,J3,9,Pin_9*%
%TO.N,GPIO24*%
X120490000Y-88390000D03*
%TO.P,J3,10,Pin_10*%
%TO.N,GPIO23*%
X120490000Y-90930000D03*
%TO.P,J3,11,Pin_11*%
%TO.N,RUN*%
X120490000Y-93470000D03*
%TO.P,J3,12,Pin_12*%
%TO.N,GPIO22*%
X120490000Y-96010000D03*
%TO.P,J3,13,Pin_13*%
%TO.N,GND*%
X120490000Y-98550000D03*
%TO.P,J3,14,Pin_14*%
%TO.N,GPIO21*%
X120490000Y-101090000D03*
%TO.P,J3,15,Pin_15*%
%TO.N,GPIO20*%
X120490000Y-103630000D03*
%TO.P,J3,16,Pin_16*%
%TO.N,GPIO19*%
X120490000Y-106170000D03*
%TO.P,J3,17,Pin_17*%
%TO.N,GPIO18*%
X120490000Y-108710000D03*
%TO.P,J3,18,Pin_18*%
%TO.N,GND*%
X120490000Y-111250000D03*
%TO.P,J3,19,Pin_19*%
%TO.N,GPIO17*%
X120490000Y-113790000D03*
%TO.P,J3,20,Pin_20*%
%TO.N,GPIO16*%
X120490000Y-116330000D03*
%TD*%
D17*
%TO.P,R6,1*%
%TO.N,Net-(R6-Pad1)*%
X108740000Y-107280000D03*
%TO.P,R6,2*%
%TO.N,QSPI_SS*%
X107720000Y-107280000D03*
%TD*%
D13*
%TO.P,C11,1*%
%TO.N,+1V1*%
X111200000Y-88380000D03*
%TO.P,C11,2*%
%TO.N,GND*%
X111200000Y-87420000D03*
%TD*%
D18*
%TO.P,SW1,1,1*%
%TO.N,GND*%
X107600000Y-112800000D03*
%TO.P,SW1,2,2*%
%TO.N,Net-(R6-Pad1)*%
X107600000Y-108600000D03*
%TD*%
D13*
%TO.P,C9,1*%
%TO.N,+3V3*%
X113500000Y-87360000D03*
%TO.P,C9,2*%
%TO.N,GND*%
X113500000Y-86400000D03*
%TD*%
D15*
%TO.P,J2,1,Pin_1*%
%TO.N,GPIO0*%
X102710000Y-68070000D03*
D16*
%TO.P,J2,2,Pin_2*%
%TO.N,GPIO1*%
X102710000Y-70610000D03*
%TO.P,J2,3,Pin_3*%
%TO.N,GND*%
X102710000Y-73150000D03*
%TO.P,J2,4,Pin_4*%
%TO.N,GPIO2*%
X102710000Y-75690000D03*
%TO.P,J2,5,Pin_5*%
%TO.N,GPIO3*%
X102710000Y-78230000D03*
%TO.P,J2,6,Pin_6*%
%TO.N,GPIO4*%
X102710000Y-80770000D03*
%TO.P,J2,7,Pin_7*%
%TO.N,GPIO5*%
X102710000Y-83310000D03*
%TO.P,J2,8,Pin_8*%
%TO.N,GND*%
X102710000Y-85850000D03*
%TO.P,J2,9,Pin_9*%
%TO.N,GPIO6*%
X102710000Y-88390000D03*
%TO.P,J2,10,Pin_10*%
%TO.N,GPIO7*%
X102710000Y-90930000D03*
%TO.P,J2,11,Pin_11*%
%TO.N,GPIO8*%
X102710000Y-93470000D03*
%TO.P,J2,12,Pin_12*%
%TO.N,GPIO9*%
X102710000Y-96010000D03*
%TO.P,J2,13,Pin_13*%
%TO.N,GND*%
X102710000Y-98550000D03*
%TO.P,J2,14,Pin_14*%
%TO.N,GPIO10*%
X102710000Y-101090000D03*
%TO.P,J2,15,Pin_15*%
%TO.N,GPIO11*%
X102710000Y-103630000D03*
%TO.P,J2,16,Pin_16*%
%TO.N,GPIO12*%
X102710000Y-106170000D03*
%TO.P,J2,17,Pin_17*%
%TO.N,GPIO13*%
X102710000Y-108710000D03*
%TO.P,J2,18,Pin_18*%
%TO.N,GND*%
X102710000Y-111250000D03*
%TO.P,J2,19,Pin_19*%
%TO.N,GPIO14*%
X102710000Y-113790000D03*
%TO.P,J2,20,Pin_20*%
%TO.N,GPIO15*%
X102710000Y-116330000D03*
%TD*%
D13*
%TO.P,C1,1*%
%TO.N,+3V3*%
X116300000Y-91480000D03*
%TO.P,C1,2*%
%TO.N,GND*%
X116300000Y-90520000D03*
%TD*%
D19*
%TO.P,U4,1,GND*%
%TO.N,GND*%
X108070000Y-79035000D03*
%TO.P,U4,2,VO*%
%TO.N,+3V3*%
X109970000Y-79035000D03*
%TO.P,U4,3,VI*%
%TO.N,VBUS*%
X109020000Y-77160000D03*
%TD*%
D13*
%TO.P,C2,1*%
%TO.N,+3V3*%
X112400000Y-88400000D03*
%TO.P,C2,2*%
%TO.N,GND*%
X112400000Y-87440000D03*
%TD*%
D20*
%TO.P,C7,1*%
%TO.N,+3V3*%
X106610000Y-97710000D03*
%TO.P,C7,2*%
%TO.N,GND*%
X105650000Y-97710000D03*
%TD*%
%TO.P,C6,1*%
%TO.N,+3V3*%
X107220000Y-92700000D03*
%TO.P,C6,2*%
%TO.N,GND*%
X106260000Y-92700000D03*
%TD*%
D13*
%TO.P,C16,1*%
%TO.N,GND*%
X113670000Y-105770000D03*
%TO.P,C16,2*%
%TO.N,Net-(C16-Pad2)*%
X113670000Y-104810000D03*
%TD*%
D11*
%TO.P,C5,1*%
%TO.N,+3V3*%
X117280000Y-97180000D03*
%TO.P,C5,2*%
%TO.N,GND*%
X118240000Y-97180000D03*
%TD*%
D15*
%TO.P,J4,1,Pin_1*%
%TO.N,SWCLK*%
X109060000Y-116090000D03*
D16*
%TO.P,J4,2,Pin_2*%
%TO.N,GND*%
X111600000Y-116090000D03*
%TO.P,J4,3,Pin_3*%
%TO.N,SWD*%
X114140000Y-116090000D03*
%TD*%
D10*
%TO.P,C8,1*%
%TO.N,+3V3*%
X113800000Y-102000000D03*
%TO.P,C8,2*%
%TO.N,GND*%
X113800000Y-102960000D03*
%TD*%
D13*
%TO.P,C12,1*%
%TO.N,+1V1*%
X114300000Y-91290000D03*
%TO.P,C12,2*%
%TO.N,GND*%
X114300000Y-90330000D03*
%TD*%
D21*
%TO.P,R5,1*%
%TO.N,Net-(C16-Pad2)*%
X111450000Y-102390000D03*
%TO.P,R5,2*%
%TO.N,XOUT*%
X112470000Y-102390000D03*
%TD*%
D22*
%TO.P,J1,A1,GND*%
%TO.N,GND*%
X114830000Y-73245000D03*
%TO.P,J1,A4,VBUS*%
%TO.N,VBUS*%
X114030000Y-73245000D03*
D23*
%TO.P,J1,A5,CC1*%
%TO.N,Net-(J1-CC1)*%
X112830000Y-73245000D03*
%TO.P,J1,A6,D+*%
%TO.N,USB_D+*%
X111830000Y-73245000D03*
%TO.P,J1,A7,D-*%
%TO.N,USB_D-*%
X111330000Y-73245000D03*
%TO.P,J1,A8*%
%TO.N,N/C*%
X110330000Y-73245000D03*
D22*
%TO.P,J1,A9,VBUS*%
%TO.N,VBUS*%
X109130000Y-73245000D03*
%TO.P,J1,A12,GND*%
%TO.N,GND*%
X108330000Y-73245000D03*
%TO.P,J1,B1,GND*%
X108330000Y-73245000D03*
%TO.P,J1,B4,VBUS*%
%TO.N,VBUS*%
X109130000Y-73245000D03*
D23*
%TO.P,J1,B5,CC2*%
%TO.N,Net-(J1-CC2)*%
X109830000Y-73245000D03*
%TO.P,J1,B6,D+*%
%TO.N,USB_D+*%
X110830000Y-73245000D03*
%TO.P,J1,B7,D-*%
%TO.N,USB_D-*%
X112330000Y-73245000D03*
%TO.P,J1,B8*%
%TO.N,N/C*%
X113330000Y-73245000D03*
D22*
%TO.P,J1,B9,VBUS*%
%TO.N,VBUS*%
X114030000Y-73245000D03*
%TO.P,J1,B12,GND*%
%TO.N,GND*%
X114830000Y-73245000D03*
D24*
%TO.P,J1,S1,SHIELD*%
X115900000Y-72330000D03*
D25*
X115900000Y-68150000D03*
D24*
X107260000Y-72330000D03*
D25*
X107260000Y-68150000D03*
%TD*%
D20*
%TO.P,C17,1*%
%TO.N,+3V3*%
X110000000Y-87300000D03*
%TO.P,C17,2*%
%TO.N,GND*%
X109040000Y-87300000D03*
%TD*%
D12*
%TO.P,R1,1*%
%TO.N,Net-(J1-CC1)*%
X113060000Y-75060000D03*
%TO.P,R1,2*%
%TO.N,GND*%
X113060000Y-76080000D03*
%TD*%
%TO.P,R4,1*%
%TO.N,USB_D-*%
X113350000Y-90075000D03*
%TO.P,R4,2*%
%TO.N,Net-(U1-USB_DM)*%
X113350000Y-91095000D03*
%TD*%
D26*
%TO.P,C14,1*%
%TO.N,+3V3*%
X109775000Y-80900000D03*
%TO.P,C14,2*%
%TO.N,GND*%
X108225000Y-80900000D03*
%TD*%
%TO.P,C13,1*%
%TO.N,VBUS*%
X108890000Y-75340000D03*
%TO.P,C13,2*%
%TO.N,GND*%
X107340000Y-75340000D03*
%TD*%
D10*
%TO.P,C15,1*%
%TO.N,GND*%
X108400000Y-104140000D03*
%TO.P,C15,2*%
%TO.N,XIN*%
X108400000Y-105100000D03*
%TD*%
D27*
%TO.P,U3,1,~{CS}*%
%TO.N,QSPI_SS*%
X106942102Y-88500000D03*
%TO.P,U3,2,DO/IO_{1}*%
%TO.N,QSPI_SD1*%
X106942102Y-89000000D03*
%TO.P,U3,3,~{WP}/IO_{2}*%
%TO.N,QSPI_SD2*%
X106942102Y-89500000D03*
%TO.P,U3,4,GND*%
%TO.N,GND*%
X106942102Y-90000000D03*
%TO.P,U3,5,DI/IO_{0}*%
%TO.N,QSPI_SD0*%
X109792102Y-90000000D03*
%TO.P,U3,6,CLK*%
%TO.N,QSPI_SCLK*%
X109792102Y-89500000D03*
%TO.P,U3,7,~{HOLD}/~{RESET}/IO_{3}*%
%TO.N,QSPI_SD3*%
X109792102Y-89000000D03*
%TO.P,U3,8,VCC*%
%TO.N,+3V3*%
X109792102Y-88500000D03*
D28*
%TO.P,U3,9*%
%TO.N,N/C*%
X108367102Y-89250000D03*
%TD*%
D12*
%TO.P,R2,1*%
%TO.N,Net-(J1-CC2)*%
X110190000Y-75050000D03*
%TO.P,R2,2*%
%TO.N,GND*%
X110190000Y-76070000D03*
%TD*%
D21*
%TO.P,R7,1*%
%TO.N,QSPI_SS*%
X106970000Y-87310000D03*
%TO.P,R7,2*%
%TO.N,+3V3*%
X107990000Y-87310000D03*
%TD*%
D29*
%TO.P,U1,1,IOVDD*%
%TO.N,+3V3*%
X108162500Y-93600000D03*
%TO.P,U1,2,GPIO0*%
%TO.N,GPIO0*%
X108162500Y-94000000D03*
%TO.P,U1,3,GPIO1*%
%TO.N,GPIO1*%
X108162500Y-94400000D03*
%TO.P,U1,4,GPIO2*%
%TO.N,GPIO2*%
X108162500Y-94800000D03*
%TO.P,U1,5,GPIO3*%
%TO.N,GPIO3*%
X108162500Y-95200000D03*
%TO.P,U1,6,GPIO4*%
%TO.N,GPIO4*%
X108162500Y-95600000D03*
%TO.P,U1,7,GPIO5*%
%TO.N,GPIO5*%
X108162500Y-96000000D03*
%TO.P,U1,8,GPIO6*%
%TO.N,GPIO6*%
X108162500Y-96400000D03*
%TO.P,U1,9,GPIO7*%
%TO.N,GPIO7*%
X108162500Y-96800000D03*
%TO.P,U1,10,IOVDD*%
%TO.N,+3V3*%
X108162500Y-97200000D03*
%TO.P,U1,11,GPIO8*%
%TO.N,GPIO8*%
X108162500Y-97600000D03*
%TO.P,U1,12,GPIO9*%
%TO.N,GPIO9*%
X108162500Y-98000000D03*
%TO.P,U1,13,GPIO10*%
%TO.N,GPIO10*%
X108162500Y-98400000D03*
%TO.P,U1,14,GPIO11*%
%TO.N,GPIO11*%
X108162500Y-98800000D03*
D30*
%TO.P,U1,15,GPIO12*%
%TO.N,GPIO12*%
X109000000Y-99637500D03*
%TO.P,U1,16,GPIO13*%
%TO.N,GPIO13*%
X109400000Y-99637500D03*
%TO.P,U1,17,GPIO14*%
%TO.N,GPIO14*%
X109800000Y-99637500D03*
%TO.P,U1,18,GPIO15*%
%TO.N,GPIO15*%
X110200000Y-99637500D03*
%TO.P,U1,19,TESTEN*%
%TO.N,GND*%
X110600000Y-99637500D03*
%TO.P,U1,20,XIN*%
%TO.N,XIN*%
X111000000Y-99637500D03*
%TO.P,U1,21,XOUT*%
%TO.N,XOUT*%
X111400000Y-99637500D03*
%TO.P,U1,22,IOVDD*%
%TO.N,+3V3*%
X111800000Y-99637500D03*
%TO.P,U1,23,DVDD*%
%TO.N,+1V1*%
X112200000Y-99637500D03*
%TO.P,U1,24,SWCLK*%
%TO.N,SWCLK*%
X112600000Y-99637500D03*
%TO.P,U1,25,SWD*%
%TO.N,SWD*%
X113000000Y-99637500D03*
%TO.P,U1,26,RUN*%
%TO.N,RUN*%
X113400000Y-99637500D03*
%TO.P,U1,27,GPIO16*%
%TO.N,GPIO16*%
X113800000Y-99637500D03*
%TO.P,U1,28,GPIO17*%
%TO.N,GPIO17*%
X114200000Y-99637500D03*
D29*
%TO.P,U1,29,GPIO18*%
%TO.N,GPIO18*%
X115037500Y-98800000D03*
%TO.P,U1,30,GPIO19*%
%TO.N,GPIO19*%
X115037500Y-98400000D03*
%TO.P,U1,31,GPIO20*%
%TO.N,GPIO20*%
X115037500Y-98000000D03*
%TO.P,U1,32,GPIO21*%
%TO.N,GPIO21*%
X115037500Y-97600000D03*
%TO.P,U1,33,IOVDD*%
%TO.N,+3V3*%
X115037500Y-97200000D03*
%TO.P,U1,34,GPIO22*%
%TO.N,GPIO22*%
X115037500Y-96800000D03*
%TO.P,U1,35,GPIO23*%
%TO.N,GPIO23*%
X115037500Y-96400000D03*
%TO.P,U1,36,GPIO24*%
%TO.N,GPIO24*%
X115037500Y-96000000D03*
%TO.P,U1,37,GPIO25*%
%TO.N,GPIO25*%
X115037500Y-95600000D03*
%TO.P,U1,38,GPIO26_ADC0*%
%TO.N,GPIO26_ADC0*%
X115037500Y-95200000D03*
%TO.P,U1,39,GPIO27_ADC1*%
%TO.N,GPIO27_ADC1*%
X115037500Y-94800000D03*
%TO.P,U1,40,GPIO28_ADC2*%
%TO.N,GPIO28_ADC2*%
X115037500Y-94400000D03*
%TO.P,U1,41,GPIO29_ADC3*%
%TO.N,GPIO29_ADC3*%
X115037500Y-94000000D03*
%TO.P,U1,42,IOVDD*%
%TO.N,+3V3*%
X115037500Y-93600000D03*
D30*
%TO.P,U1,43,ADC_AVDD*%
X114200000Y-92762500D03*
%TO.P,U1,44,VREG_IN*%
X113800000Y-92762500D03*
%TO.P,U1,45,VREG_VOUT*%
%TO.N,+1V1*%
X113400000Y-92762500D03*
%TO.P,U1,46,USB_DM*%
%TO.N,Net-(U1-USB_DM)*%
X113000000Y-92762500D03*
%TO.P,U1,47,USB_DP*%
%TO.N,Net-(U1-USB_DP)*%
X112600000Y-92762500D03*
%TO.P,U1,48,USB_VDD*%
%TO.N,+3V3*%
X112200000Y-92762500D03*
%TO.P,U1,49,IOVDD*%
X111800000Y-92762500D03*
%TO.P,U1,50,DVDD*%
%TO.N,+1V1*%
X111400000Y-92762500D03*
%TO.P,U1,51,QSPI_SD3*%
%TO.N,QSPI_SD3*%
X111000000Y-92762500D03*
%TO.P,U1,52,QSPI_SCLK*%
%TO.N,QSPI_SCLK*%
X110600000Y-92762500D03*
%TO.P,U1,53,QSPI_SD0*%
%TO.N,QSPI_SD0*%
X110200000Y-92762500D03*
%TO.P,U1,54,QSPI_SD2*%
%TO.N,QSPI_SD2*%
X109800000Y-92762500D03*
%TO.P,U1,55,QSPI_SD1*%
%TO.N,QSPI_SD1*%
X109400000Y-92762500D03*
%TO.P,U1,56,QSPI_SS*%
%TO.N,QSPI_SS*%
X109000000Y-92762500D03*
D31*
%TO.P,U1,57,GND*%
%TO.N,GND*%
X111600000Y-96200000D03*
%TD*%
D32*
%TO.P,D1,1,DOUT*%
%TO.N,GND*%
X110800000Y-111600000D03*
D33*
%TO.P,D1,2,VSS*%
X116000000Y-111600000D03*
D32*
%TO.P,D1,3,DIN*%
%TO.N,GPIO25*%
X116000000Y-110100000D03*
D33*
%TO.P,D1,4,VDD*%
%TO.N,VBUS*%
X110800000Y-110100000D03*
%TD*%
D34*
%TO.N,GND*%
X115900000Y-82100000D03*
X112800000Y-85400000D03*
X117156036Y-91800000D03*
X118500000Y-108500000D03*
X106300000Y-91800000D03*
X115800000Y-114800000D03*
X116200000Y-74700000D03*
X116300000Y-113800000D03*
X105800000Y-98600000D03*
X104400000Y-110500000D03*
X107600000Y-76700000D03*
X119400000Y-87100000D03*
X111700000Y-107500000D03*
X104400000Y-99300000D03*
X104400000Y-74300000D03*
X119200000Y-77000000D03*
X110400000Y-108600000D03*
X108951472Y-91400000D03*
X108300000Y-85400000D03*
X106900000Y-80900000D03*
X118800000Y-110100000D03*
X108000000Y-102700000D03*
X107600000Y-110500000D03*
X111000000Y-96200000D03*
X104300000Y-77300000D03*
X119100000Y-99200000D03*
X110000000Y-112800000D03*
X115200000Y-105500000D03*
X116600000Y-88900000D03*
X118225735Y-98125735D03*
X109700000Y-102700000D03*
X111600000Y-114100000D03*
X111200000Y-76800000D03*
%TO.N,+3V3*%
X112000000Y-91869852D03*
X112000000Y-89250000D03*
%TO.N,+1V1*%
X111754011Y-98300000D03*
X111100000Y-93699000D03*
X113101376Y-93697838D03*
%TO.N,VBUS*%
X114900000Y-79600000D03*
X107400000Y-105100000D03*
%TO.N,GPIO25*%
X116000000Y-105100000D03*
X114200000Y-95600000D03*
%TO.N,GPIO1*%
X106350433Y-93802284D03*
%TO.N,GPIO8*%
X109085909Y-97659429D03*
%TO.N,GPIO0*%
X107210000Y-93700000D03*
%TO.N,GPIO2*%
X106290000Y-94600000D03*
%TO.N,GPIO28_ADC2*%
X117190000Y-94110000D03*
%TO.N,GPIO29_ADC3*%
X116380000Y-93660000D03*
%TO.N,RUN*%
X113700002Y-97100000D03*
%TO.N,SWD*%
X113506599Y-98305824D03*
%TO.N,SWCLK*%
X112706619Y-98300002D03*
%TO.N,QSPI_SS*%
X106500000Y-105200000D03*
X108500000Y-86300000D03*
%TD*%
D35*
%TO.N,GND*%
X106942102Y-90000000D02*
X108342102Y-91400000D01*
X108450000Y-104090000D02*
X108400000Y-104140000D01*
X109700000Y-86640000D02*
X109040000Y-87300000D01*
X105650000Y-98450000D02*
X105800000Y-98600000D01*
X110470000Y-76070000D02*
X111200000Y-76800000D01*
X108300000Y-85400000D02*
X108626711Y-85400000D01*
X112800000Y-85700000D02*
X113500000Y-86400000D01*
X102710000Y-73150000D02*
X103860000Y-74300000D01*
X110600000Y-99637500D02*
X110600000Y-101732560D01*
X113800000Y-102960000D02*
X114150000Y-102960000D01*
X114830000Y-74730000D02*
X114830000Y-73245000D01*
X116200000Y-74700000D02*
X115800000Y-75100000D01*
X118240000Y-98111470D02*
X118240000Y-97180000D01*
X114890000Y-103700000D02*
X114890000Y-105190000D01*
X109700000Y-102632560D02*
X110600000Y-101732560D01*
X102710000Y-98550000D02*
X103650000Y-98550000D01*
X109700000Y-103845000D02*
X109945000Y-104090000D01*
X112145000Y-105790000D02*
X113650000Y-105790000D01*
X103860000Y-74300000D02*
X104400000Y-74300000D01*
X115800000Y-75100000D02*
X115200000Y-75100000D01*
X119400000Y-86901000D02*
X120451000Y-85850000D01*
X106260000Y-91840000D02*
X106300000Y-91800000D01*
X103650000Y-98550000D02*
X104400000Y-99300000D01*
X117156036Y-92656036D02*
X117160000Y-92660000D01*
X108626711Y-85400000D02*
X109700000Y-86473289D01*
X113650000Y-105790000D02*
X113670000Y-105770000D01*
X114890000Y-105190000D02*
X115200000Y-105500000D01*
X119400000Y-87100000D02*
X119400000Y-86901000D01*
X105650000Y-97710000D02*
X105650000Y-98450000D01*
X118225735Y-98125735D02*
X118650000Y-98550000D01*
X118225735Y-98125735D02*
X118240000Y-98111470D01*
X109945000Y-104090000D02*
X108450000Y-104090000D01*
X120451000Y-85850000D02*
X120490000Y-85850000D01*
X109570000Y-104465000D02*
X109945000Y-104090000D01*
X110190000Y-76070000D02*
X110470000Y-76070000D01*
X115200000Y-75100000D02*
X114830000Y-74730000D01*
X117156036Y-91800000D02*
X117156036Y-92656036D01*
X111600000Y-116090000D02*
X111600000Y-114100000D01*
X109700000Y-102700000D02*
X109700000Y-103845000D01*
X118650000Y-98550000D02*
X120490000Y-98550000D01*
X108342102Y-91400000D02*
X108951472Y-91400000D01*
X115000000Y-102980000D02*
X115000000Y-103590000D01*
X106260000Y-92700000D02*
X106260000Y-91840000D01*
X109700000Y-86473289D02*
X109700000Y-86640000D01*
X114150000Y-102960000D02*
X114890000Y-103700000D01*
X117160000Y-91803964D02*
X117156036Y-91800000D01*
X108000000Y-102700000D02*
X109700000Y-102700000D01*
X109700000Y-102700000D02*
X109700000Y-102632560D01*
X115000000Y-103590000D02*
X114890000Y-103700000D01*
X112800000Y-85400000D02*
X112800000Y-85700000D01*
%TO.N,+3V3*%
X110589000Y-88200000D02*
X110589000Y-86411000D01*
X109699000Y-97422577D02*
X109276423Y-97000000D01*
X108162500Y-97200000D02*
X107120000Y-97200000D01*
X108502450Y-87700000D02*
X108400000Y-87700000D01*
X116580000Y-91200000D02*
X116300000Y-91480000D01*
X108400000Y-87700000D02*
X108010000Y-87310000D01*
X112200000Y-92762500D02*
X112200000Y-93297774D01*
X117900000Y-90900000D02*
X117600000Y-91200000D01*
X111800000Y-100670000D02*
X113130000Y-102000000D01*
X109276423Y-97000000D02*
X108900000Y-97000000D01*
X109970000Y-80810000D02*
X109850000Y-80930000D01*
X108900000Y-94700000D02*
X109600000Y-94000000D01*
X110289000Y-88500000D02*
X110589000Y-88200000D01*
X115037500Y-93600000D02*
X115260000Y-93600000D01*
X115260000Y-93600000D02*
X116200000Y-92660000D01*
X115300000Y-91662500D02*
X114200000Y-92762500D01*
X107120000Y-97200000D02*
X106610000Y-97710000D01*
X113894000Y-87360000D02*
X113500000Y-87360000D01*
X117600000Y-91200000D02*
X116580000Y-91200000D01*
X112200000Y-92762500D02*
X112200000Y-92069852D01*
X112500000Y-83600000D02*
X114474000Y-85574000D01*
X113599000Y-95999000D02*
X114300000Y-96700000D01*
X120490000Y-78230000D02*
X118400000Y-80320000D01*
X111800000Y-92069852D02*
X112000000Y-91869852D01*
X112200000Y-93297774D02*
X112402226Y-93500000D01*
X111601000Y-94299000D02*
X109899000Y-94299000D01*
X108700000Y-97200000D02*
X108900000Y-97000000D01*
X114300000Y-97000000D02*
X114500000Y-97200000D01*
X110589000Y-86411000D02*
X112500000Y-84500000D01*
X115300000Y-91460000D02*
X115300000Y-91662500D01*
X112402226Y-93500000D02*
X112402226Y-93902226D01*
X109970000Y-79035000D02*
X109970000Y-80810000D01*
X109850000Y-80930000D02*
X109850000Y-80950000D01*
X108900000Y-97000000D02*
X108900000Y-94700000D01*
X109200000Y-93600000D02*
X108162500Y-93600000D01*
X112200000Y-92762500D02*
X111800000Y-92762500D01*
X112000000Y-88800000D02*
X112400000Y-88400000D01*
X113497000Y-94299000D02*
X113599000Y-94401000D01*
X112000000Y-89250000D02*
X112000000Y-88800000D01*
X117260000Y-97200000D02*
X117280000Y-97180000D01*
X116300000Y-91480000D02*
X115320000Y-91480000D01*
X109899000Y-94299000D02*
X109600000Y-94000000D01*
X118400000Y-83922900D02*
X117899000Y-84423900D01*
X111800000Y-99637500D02*
X111800000Y-99100000D01*
X112200000Y-92069852D02*
X112000000Y-91869852D01*
X109850000Y-80950000D02*
X112500000Y-83600000D01*
X108162500Y-93600000D02*
X107920000Y-93600000D01*
X111800000Y-99100000D02*
X111600000Y-98900000D01*
X112500000Y-84500000D02*
X112500000Y-83600000D01*
X109600000Y-94000000D02*
X109200000Y-93600000D01*
X110000000Y-87300000D02*
X109600000Y-87700000D01*
X114500000Y-97200000D02*
X115037500Y-97200000D01*
X110000000Y-87300000D02*
X110000000Y-88292102D01*
X117900000Y-90800000D02*
X117900000Y-90900000D01*
X108010000Y-87310000D02*
X107990000Y-87310000D01*
X113440000Y-87360000D02*
X112400000Y-88400000D01*
X115037500Y-97200000D02*
X117260000Y-97200000D01*
X109699000Y-98699000D02*
X109699000Y-97422577D01*
X110000000Y-88292102D02*
X109792102Y-88500000D01*
X116200000Y-91580000D02*
X116300000Y-91480000D01*
X108713450Y-87911000D02*
X108502450Y-87700000D01*
X109792102Y-88500000D02*
X110289000Y-88500000D01*
X109900000Y-98900000D02*
X109699000Y-98699000D01*
X112402226Y-93902226D02*
X112799000Y-94299000D01*
X108120000Y-93600000D02*
X107220000Y-92700000D01*
X111800000Y-94100000D02*
X111601000Y-94299000D01*
X114400000Y-93600000D02*
X115037500Y-93600000D01*
X111800000Y-92762500D02*
X111800000Y-94100000D01*
X114300000Y-96700000D02*
X114300000Y-97000000D01*
X113599000Y-94401000D02*
X114400000Y-93600000D01*
X112799000Y-94299000D02*
X113497000Y-94299000D01*
X113130000Y-102000000D02*
X113800000Y-102000000D01*
X115320000Y-91480000D02*
X115300000Y-91460000D01*
X114474000Y-86780000D02*
X113894000Y-87360000D01*
X111800000Y-92762500D02*
X111800000Y-92069852D01*
X113599000Y-94500000D02*
X113599000Y-95999000D01*
X109577550Y-87700000D02*
X109366550Y-87911000D01*
X111800000Y-99637500D02*
X111800000Y-100670000D01*
X108162500Y-93600000D02*
X108120000Y-93600000D01*
X114200000Y-92762500D02*
X113800000Y-92762500D01*
X111600000Y-98900000D02*
X109900000Y-98900000D01*
X116200000Y-92660000D02*
X116200000Y-91580000D01*
X109600000Y-87700000D02*
X109577550Y-87700000D01*
X113599000Y-94500000D02*
X113599000Y-94401000D01*
X117899000Y-84423900D02*
X117899000Y-90799000D01*
X118400000Y-80320000D02*
X118400000Y-83922900D01*
X114474000Y-85574000D02*
X114474000Y-86780000D01*
X109395000Y-80930000D02*
X109850000Y-80930000D01*
X117899000Y-90799000D02*
X117900000Y-90800000D01*
X109366550Y-87911000D02*
X108713450Y-87911000D01*
X108162500Y-97200000D02*
X108700000Y-97200000D01*
X113500000Y-87360000D02*
X113440000Y-87360000D01*
%TO.N,+1V1*%
X113400000Y-92762500D02*
X113400000Y-93399214D01*
X111654011Y-98200000D02*
X111600000Y-98200000D01*
X111400000Y-89400000D02*
X111400000Y-92762500D01*
X113300000Y-101400000D02*
X114380000Y-101400000D01*
X112200000Y-98700000D02*
X112200000Y-99637500D01*
X111400000Y-92762500D02*
X111400000Y-93399000D01*
X113400000Y-93399214D02*
X113101376Y-93697838D01*
X114380000Y-101400000D02*
X115000000Y-102020000D01*
X112200000Y-99637500D02*
X112200000Y-100300000D01*
X111200000Y-89200000D02*
X111400000Y-89400000D01*
X113400000Y-92190000D02*
X114300000Y-91290000D01*
X112200000Y-100300000D02*
X113300000Y-101400000D01*
X113400000Y-92762500D02*
X113400000Y-92190000D01*
X111754011Y-98300000D02*
X111654011Y-98200000D01*
X111400000Y-93399000D02*
X111100000Y-93699000D01*
X111754011Y-98300000D02*
X111800000Y-98300000D01*
X111800000Y-98300000D02*
X112200000Y-98700000D01*
X111200000Y-88380000D02*
X111200000Y-89200000D01*
%TO.N,VBUS*%
X109130000Y-75100000D02*
X109130000Y-73245000D01*
X109020000Y-75470000D02*
X108890000Y-75340000D01*
X109800000Y-109112500D02*
X110787500Y-110100000D01*
X109130000Y-73245000D02*
X109130000Y-72320000D01*
X107400000Y-105100000D02*
X108959000Y-106659000D01*
X109259000Y-106659000D02*
X109800000Y-107200000D01*
X108890000Y-75340000D02*
X108435000Y-75340000D01*
X113528000Y-71772000D02*
X114321000Y-70979000D01*
X108890000Y-75340000D02*
X109130000Y-75100000D01*
X109800000Y-107200000D02*
X109800000Y-109112500D01*
X113528000Y-71818000D02*
X113528000Y-71772000D01*
X109632000Y-71818000D02*
X113528000Y-71818000D01*
X114030000Y-74830000D02*
X114900000Y-75700000D01*
X114900000Y-75700000D02*
X114900000Y-79600000D01*
X114030000Y-72320000D02*
X114030000Y-73245000D01*
X109020000Y-77160000D02*
X109020000Y-75470000D01*
X113528000Y-71818000D02*
X114030000Y-72320000D01*
X117581000Y-70979000D02*
X120490000Y-68070000D01*
X114030000Y-73245000D02*
X114030000Y-74830000D01*
X109130000Y-72320000D02*
X109632000Y-71818000D01*
X108959000Y-106659000D02*
X109259000Y-106659000D01*
X114321000Y-70979000D02*
X117581000Y-70979000D01*
%TO.N,XIN*%
X110946000Y-103504840D02*
X110946000Y-104789000D01*
X110946000Y-104789000D02*
X109945000Y-105790000D01*
X111000000Y-101899660D02*
X110630160Y-102269500D01*
X109580000Y-105425000D02*
X109945000Y-105790000D01*
X111000000Y-99637500D02*
X111000000Y-101899660D01*
X109945000Y-105790000D02*
X109090000Y-105790000D01*
X110630160Y-102269500D02*
X110630160Y-103189000D01*
X110630160Y-103189000D02*
X110946000Y-103504840D01*
X109090000Y-105790000D02*
X108400000Y-105100000D01*
%TO.N,Net-(C16-Pad2)*%
X111450000Y-103395000D02*
X112145000Y-104090000D01*
X111450000Y-102390000D02*
X111450000Y-103395000D01*
X113670000Y-104810000D02*
X112865000Y-104810000D01*
X112865000Y-104810000D02*
X112145000Y-104090000D01*
%TO.N,GPIO25*%
X115037500Y-95600000D02*
X114200000Y-95600000D01*
X116000000Y-105100000D02*
X116000000Y-107405000D01*
X115987500Y-107417500D02*
X115987500Y-110100000D01*
X116000000Y-107405000D02*
X115987500Y-107417500D01*
%TO.N,USB_D+*%
X111850000Y-74222000D02*
X111801000Y-74271000D01*
X114875000Y-87225000D02*
X112300000Y-89800000D01*
X112300000Y-90040000D02*
X112260000Y-90080000D01*
X111850000Y-74332501D02*
X111875000Y-74357501D01*
X111875000Y-74357501D02*
X111875000Y-82395000D01*
X112300000Y-89800000D02*
X112300000Y-90040000D01*
X110899000Y-74271000D02*
X110850000Y-74222000D01*
X114875000Y-85395000D02*
X114875000Y-87225000D01*
X110850000Y-74222000D02*
X110850000Y-73245000D01*
X111801000Y-74271000D02*
X110899000Y-74271000D01*
X111875000Y-82395000D02*
X114875000Y-85395000D01*
X112260000Y-90280000D02*
X112260000Y-90230000D01*
X111850000Y-73245000D02*
X111850000Y-74222000D01*
X111850000Y-73245000D02*
X111850000Y-74332501D01*
%TO.N,USB_D-*%
X113350000Y-90280000D02*
X113350000Y-90230000D01*
X111350000Y-73245000D02*
X111350000Y-72268000D01*
X111399000Y-72219000D02*
X112219000Y-72219000D01*
X112375000Y-82255000D02*
X115410000Y-85290000D01*
X115410000Y-87336397D02*
X113350000Y-89396397D01*
X113350000Y-89396397D02*
X113350000Y-90075000D01*
X112375000Y-74425000D02*
X112375000Y-82255000D01*
X112350000Y-72350000D02*
X112350000Y-73245000D01*
X111350000Y-72268000D02*
X111399000Y-72219000D01*
X112219000Y-72219000D02*
X112350000Y-72350000D01*
X115410000Y-85290000D02*
X115410000Y-87336397D01*
X112325000Y-74375000D02*
X112375000Y-74425000D01*
X112350000Y-74332501D02*
X112350000Y-73245000D01*
%TO.N,Net-(J1-CC2)*%
X109850000Y-73245000D02*
X109850000Y-74710000D01*
X110190000Y-75050000D02*
X110260000Y-75050000D01*
X109850000Y-73245000D02*
X109850000Y-73900000D01*
X110260000Y-75050000D02*
X110290000Y-75080000D01*
X109850000Y-73900000D02*
X109880000Y-73930000D01*
X109850000Y-74710000D02*
X110190000Y-75050000D01*
%TO.N,Net-(J1-CC1)*%
X112850000Y-73245000D02*
X112850000Y-74850000D01*
X112850000Y-74850000D02*
X113060000Y-75060000D01*
%TO.N,GPIO11*%
X105413900Y-100259000D02*
X104269000Y-101403900D01*
X106703500Y-100259000D02*
X105413900Y-100259000D01*
X104269000Y-101403900D02*
X104269000Y-102831000D01*
X104269000Y-102831000D02*
X103470000Y-103630000D01*
X108162500Y-98800000D02*
X106703500Y-100259000D01*
X103470000Y-103630000D02*
X102710000Y-103630000D01*
%TO.N,GPIO3*%
X105174050Y-88398943D02*
X105174050Y-87901057D01*
X105730000Y-95200000D02*
X105530000Y-95000000D01*
X108162500Y-95200000D02*
X105730000Y-95200000D01*
X105174050Y-87901057D02*
X105374050Y-87701057D01*
X105374050Y-87598850D02*
X105700000Y-87272900D01*
X105700000Y-80100000D02*
X103830000Y-78230000D01*
X105700000Y-87272900D02*
X105700000Y-80100000D01*
X105530000Y-90944800D02*
X105175050Y-90589850D01*
X103830000Y-78230000D02*
X102710000Y-78230000D01*
X105374050Y-87701057D02*
X105374050Y-87598850D01*
X105175050Y-88399943D02*
X105174050Y-88398943D01*
X105530000Y-95000000D02*
X105530000Y-90944800D01*
X105175050Y-90589850D02*
X105175050Y-88399943D01*
%TO.N,GPIO15*%
X105900000Y-105449943D02*
X105899000Y-105448943D01*
X105900000Y-106700000D02*
X105900000Y-105449943D01*
X105899000Y-104951057D02*
X106000000Y-104850057D01*
X105899000Y-105448943D02*
X105899000Y-104951057D01*
X103570000Y-116330000D02*
X105500000Y-114400000D01*
X105500000Y-107100000D02*
X105900000Y-106700000D01*
X106000000Y-102230000D02*
X106367000Y-101863000D01*
X106000000Y-104850057D02*
X106000000Y-102230000D01*
X109271200Y-101863000D02*
X110200000Y-100934200D01*
X105500000Y-114400000D02*
X105500000Y-107100000D01*
X110200000Y-100934200D02*
X110200000Y-99637500D01*
X102710000Y-116330000D02*
X103570000Y-116330000D01*
X106367000Y-101863000D02*
X109271200Y-101863000D01*
%TO.N,GPIO4*%
X104774050Y-90755950D02*
X104774050Y-81774050D01*
X103770000Y-80770000D02*
X102710000Y-80770000D01*
X105113000Y-95383000D02*
X105113000Y-91094900D01*
X105113000Y-91094900D02*
X104774050Y-90755950D01*
X108162500Y-95600000D02*
X105330000Y-95600000D01*
X105330000Y-95600000D02*
X105113000Y-95383000D01*
X104774050Y-81774050D02*
X103770000Y-80770000D01*
%TO.N,GPIO14*%
X105479000Y-102021000D02*
X106038000Y-101462000D01*
X109800000Y-100767100D02*
X109105100Y-101462000D01*
X109105100Y-101462000D02*
X106070000Y-101462000D01*
X105472000Y-106515100D02*
X105100000Y-106887100D01*
X109800000Y-99637500D02*
X109800000Y-100767100D01*
X105472000Y-103800000D02*
X105472000Y-106515100D01*
X106070000Y-101462000D02*
X105472000Y-102060000D01*
X105479000Y-102183900D02*
X105479000Y-102021000D01*
X105100000Y-106887100D02*
X105100000Y-113000000D01*
X104310000Y-113790000D02*
X102710000Y-113790000D01*
X105472000Y-102190900D02*
X105479000Y-102183900D01*
X105100000Y-113000000D02*
X104310000Y-113790000D01*
X105472000Y-102060000D02*
X105472000Y-103800000D01*
X105472000Y-103800000D02*
X105472000Y-102190900D01*
%TO.N,GPIO1*%
X106948149Y-94400000D02*
X106350433Y-93802284D01*
X108162500Y-94400000D02*
X106948149Y-94400000D01*
%TO.N,GPIO8*%
X109085909Y-97659429D02*
X108858643Y-97659429D01*
X108799214Y-97600000D02*
X108162500Y-97600000D01*
X108858643Y-97659429D02*
X108799214Y-97600000D01*
%TO.N,GPIO7*%
X103910000Y-96160000D02*
X103910000Y-92130000D01*
X104550000Y-96800000D02*
X103910000Y-96160000D01*
X103910000Y-92130000D02*
X102710000Y-90930000D01*
X108162500Y-96800000D02*
X104550000Y-96800000D01*
%TO.N,GPIO5*%
X105130000Y-96000000D02*
X104712000Y-95582000D01*
X104321000Y-83721000D02*
X103910000Y-83310000D01*
X104321000Y-90870000D02*
X104321000Y-83721000D01*
X104712000Y-91261000D02*
X104321000Y-90870000D01*
X104712000Y-95582000D02*
X104712000Y-91261000D01*
X103910000Y-83310000D02*
X102710000Y-83310000D01*
X108162500Y-96000000D02*
X105130000Y-96000000D01*
%TO.N,GPIO13*%
X105071000Y-106349000D02*
X102710000Y-108710000D01*
X105071000Y-101736100D02*
X105071000Y-106349000D01*
X105746100Y-101061000D02*
X105071000Y-101736100D01*
X109400000Y-100600000D02*
X108939000Y-101061000D01*
X109400000Y-99637500D02*
X109400000Y-100600000D01*
X108939000Y-101061000D02*
X105746100Y-101061000D01*
%TO.N,GPIO10*%
X104015800Y-101090000D02*
X102710000Y-101090000D01*
X108162500Y-98400000D02*
X107620000Y-98400000D01*
X105265800Y-99840000D02*
X104015800Y-101090000D01*
X107620000Y-98400000D02*
X106180000Y-99840000D01*
X106180000Y-99840000D02*
X105265800Y-99840000D01*
%TO.N,GPIO9*%
X108162500Y-98000000D02*
X107430000Y-98000000D01*
X102857943Y-96010000D02*
X102710000Y-96010000D01*
X105199000Y-98848943D02*
X105199000Y-98351057D01*
X105551057Y-99201000D02*
X105199000Y-98848943D01*
X106229000Y-99201000D02*
X105551057Y-99201000D01*
X105199000Y-98351057D02*
X102857943Y-96010000D01*
X107430000Y-98000000D02*
X106229000Y-99201000D01*
%TO.N,GPIO12*%
X109000000Y-99637500D02*
X109000000Y-100380000D01*
X108720000Y-100660000D02*
X105580000Y-100660000D01*
X104670000Y-101570000D02*
X104670000Y-104210000D01*
X109000000Y-100380000D02*
X108720000Y-100660000D01*
X105580000Y-100660000D02*
X104670000Y-101570000D01*
X104670000Y-104210000D02*
X102710000Y-106170000D01*
%TO.N,GPIO0*%
X108162500Y-94000000D02*
X107510000Y-94000000D01*
X107510000Y-94000000D02*
X107210000Y-93700000D01*
%TO.N,GPIO6*%
X103920000Y-89600000D02*
X102710000Y-88390000D01*
X104311000Y-91641000D02*
X103920000Y-91250000D01*
X104311000Y-95991000D02*
X104311000Y-91641000D01*
X103920000Y-91250000D02*
X103920000Y-89600000D01*
X108162500Y-96400000D02*
X104720000Y-96400000D01*
X104720000Y-96400000D02*
X104311000Y-95991000D01*
%TO.N,GPIO2*%
X108162500Y-94800000D02*
X106490000Y-94800000D01*
X106490000Y-94800000D02*
X106290000Y-94600000D01*
%TO.N,GPIO21*%
X118795000Y-100995000D02*
X118800000Y-100990000D01*
X118790000Y-100990000D02*
X116700000Y-98900000D01*
X120390000Y-100990000D02*
X120490000Y-101090000D01*
X116700000Y-98300000D02*
X116700000Y-98900000D01*
X118800000Y-100990000D02*
X118790000Y-100990000D01*
X118800000Y-100990000D02*
X120390000Y-100990000D01*
X115037500Y-97600000D02*
X116000000Y-97600000D01*
X116000000Y-97600000D02*
X116700000Y-98300000D01*
%TO.N,GPIO27_ADC1*%
X117760000Y-94800000D02*
X118000000Y-94560000D01*
X119020000Y-83870000D02*
X119020000Y-82240000D01*
X119020000Y-82240000D02*
X120490000Y-80770000D01*
X118300000Y-91200000D02*
X118300000Y-84590000D01*
X118300000Y-84590000D02*
X119020000Y-83870000D01*
X118000000Y-94560000D02*
X118000000Y-91500000D01*
X118000000Y-91500000D02*
X118300000Y-91200000D01*
X115037500Y-94800000D02*
X117760000Y-94800000D01*
%TO.N,GPIO18*%
X120490000Y-108710000D02*
X117831000Y-106051000D01*
X117831000Y-106051000D02*
X117831000Y-101963900D01*
X117831000Y-101963900D02*
X115103600Y-99236500D01*
X115037500Y-99236500D02*
X115037500Y-98800000D01*
X115103600Y-99236500D02*
X115037500Y-99236500D01*
%TO.N,GPIO28_ADC2*%
X115037500Y-94400000D02*
X116900000Y-94400000D01*
X116900000Y-94400000D02*
X117190000Y-94110000D01*
%TO.N,GPIO20*%
X118681000Y-101581000D02*
X118681000Y-101821000D01*
X116300000Y-98500000D02*
X116300000Y-99200000D01*
X115037500Y-98000000D02*
X115800000Y-98000000D01*
X118681000Y-101821000D02*
X120490000Y-103630000D01*
X116300000Y-99200000D02*
X118681000Y-101581000D01*
X115800000Y-98000000D02*
X116300000Y-98500000D01*
%TO.N,GPIO23*%
X119320000Y-92100000D02*
X120490000Y-90930000D01*
X115037500Y-96400000D02*
X116555350Y-96400000D01*
X119320000Y-95200000D02*
X119320000Y-92100000D01*
X116786350Y-96169000D02*
X118351000Y-96169000D01*
X118351000Y-96169000D02*
X119320000Y-95200000D01*
X116555350Y-96400000D02*
X116786350Y-96169000D01*
%TO.N,GPIO29_ADC3*%
X116040000Y-94000000D02*
X116380000Y-93660000D01*
X115037500Y-94000000D02*
X116040000Y-94000000D01*
%TO.N,GPIO24*%
X118856450Y-91943550D02*
X119200000Y-91600000D01*
X115037500Y-96000000D02*
X116350000Y-96000000D01*
X116350000Y-96000000D02*
X116582000Y-95768000D01*
X119200000Y-89680000D02*
X120490000Y-88390000D01*
X119200000Y-91600000D02*
X119200000Y-89680000D01*
X118184900Y-95768000D02*
X118856450Y-95096450D01*
X118856450Y-95096450D02*
X118856450Y-91943550D01*
X116582000Y-95768000D02*
X118184900Y-95768000D01*
%TO.N,GPIO19*%
X118234200Y-101800000D02*
X118280000Y-101800000D01*
X118280000Y-103960000D02*
X120490000Y-106170000D01*
X118280000Y-101800000D02*
X118280000Y-103960000D01*
X115037500Y-98400000D02*
X115600000Y-98400000D01*
X115867100Y-98667100D02*
X115867100Y-99432900D01*
X115600000Y-98400000D02*
X115867100Y-98667100D01*
X115867100Y-99432900D02*
X118234200Y-101800000D01*
%TO.N,GPIO26_ADC0*%
X115777000Y-95367000D02*
X118018800Y-95367000D01*
X118455450Y-94930350D02*
X118455450Y-91777450D01*
X118455450Y-91777450D02*
X118700000Y-91532900D01*
X115610000Y-95200000D02*
X115777000Y-95367000D01*
X118700000Y-85100000D02*
X120490000Y-83310000D01*
X118700000Y-91532900D02*
X118700000Y-85100000D01*
X115037500Y-95200000D02*
X115610000Y-95200000D01*
X118018800Y-95367000D02*
X118455450Y-94930350D01*
%TO.N,GPIO17*%
X119490000Y-113790000D02*
X120490000Y-113790000D01*
X118400000Y-112700000D02*
X119490000Y-113790000D01*
X114200000Y-99637500D02*
X114937500Y-99637500D01*
X117430000Y-106217100D02*
X117900000Y-106687100D01*
X118400000Y-111200000D02*
X118400000Y-112700000D01*
X114937500Y-99637500D02*
X117430000Y-102130000D01*
X117900000Y-106687100D02*
X117900000Y-110700000D01*
X117900000Y-110700000D02*
X118400000Y-111200000D01*
X117430000Y-102130000D02*
X117430000Y-106217100D01*
%TO.N,GPIO22*%
X119930000Y-96570000D02*
X120490000Y-96010000D01*
X115037500Y-96800000D02*
X116722450Y-96800000D01*
X118561000Y-96570000D02*
X119930000Y-96570000D01*
X116953450Y-96569000D02*
X118560000Y-96569000D01*
X116722450Y-96800000D02*
X116953450Y-96569000D01*
X118560000Y-96569000D02*
X118561000Y-96570000D01*
%TO.N,GPIO16*%
X117000000Y-102300000D02*
X115290000Y-100590000D01*
X118000000Y-111400000D02*
X117500000Y-110900000D01*
X117500000Y-110900000D02*
X117500000Y-107000000D01*
X114210000Y-100590000D02*
X113800000Y-100180000D01*
X118740000Y-114840000D02*
X118000000Y-114100000D01*
X120490000Y-116330000D02*
X119000000Y-114840000D01*
X115290000Y-100590000D02*
X114210000Y-100590000D01*
X113800000Y-100180000D02*
X113800000Y-99637500D01*
X118000000Y-114100000D02*
X118000000Y-111400000D01*
X117000000Y-106500000D02*
X117000000Y-102300000D01*
X117500000Y-107000000D02*
X117000000Y-106500000D01*
X119000000Y-114840000D02*
X118740000Y-114840000D01*
%TO.N,RUN*%
X113700000Y-97500000D02*
X114299000Y-98099000D01*
X113700002Y-97100000D02*
X113700000Y-97100002D01*
X113700000Y-97100002D02*
X113700000Y-97500000D01*
X114300000Y-98600000D02*
X114000000Y-98900000D01*
X114302226Y-98200000D02*
X114299000Y-98203226D01*
X114299000Y-98203226D02*
X114299000Y-98301000D01*
X114300000Y-98302000D02*
X114300000Y-98600000D01*
X114299000Y-98099000D02*
X114299000Y-98196774D01*
X113400000Y-99090000D02*
X113400000Y-99637500D01*
X113590000Y-98900000D02*
X113400000Y-99090000D01*
X114299000Y-98301000D02*
X114300000Y-98302000D01*
X114000000Y-98900000D02*
X113590000Y-98900000D01*
X114299000Y-98196774D02*
X114302226Y-98200000D01*
%TO.N,SWD*%
X113041465Y-98900000D02*
X113000000Y-98941465D01*
X113041465Y-98858535D02*
X113041465Y-98900000D01*
X113000000Y-98941465D02*
X113000000Y-99637500D01*
X113506599Y-98305824D02*
X113487374Y-98305824D01*
X113487374Y-98305824D02*
X113343245Y-98449953D01*
X113343245Y-98449953D02*
X113343245Y-98556755D01*
X113343245Y-98556755D02*
X113041465Y-98858535D01*
%TO.N,SWCLK*%
X112600000Y-99637500D02*
X112600000Y-98406621D01*
X112600000Y-98406621D02*
X112706619Y-98300002D01*
X112706619Y-98300002D02*
X112706618Y-98300001D01*
%TO.N,Net-(U1-USB_DP)*%
X112600000Y-92762500D02*
X112600000Y-91440000D01*
X112600000Y-91440000D02*
X112260000Y-91100000D01*
%TO.N,Net-(U1-USB_DM)*%
X113000000Y-91445000D02*
X113350000Y-91095000D01*
X113000000Y-92762500D02*
X113000000Y-91445000D01*
%TO.N,XOUT*%
X111400000Y-99637500D02*
X111400000Y-100930000D01*
X112470000Y-102000000D02*
X112470000Y-102390000D01*
X111400000Y-100930000D02*
X112470000Y-102000000D01*
%TO.N,Net-(R6-Pad1)*%
X107600000Y-108600000D02*
X108400000Y-107800000D01*
X108400000Y-107620000D02*
X108740000Y-107280000D01*
X108400000Y-107800000D02*
X108400000Y-107620000D01*
%TO.N,QSPI_SS*%
X106970000Y-86930000D02*
X106970000Y-87310000D01*
X105790102Y-89119102D02*
X106409204Y-88500000D01*
X106942102Y-88500000D02*
X106942102Y-87337898D01*
X107720000Y-107280000D02*
X107720000Y-106420000D01*
X107546550Y-92089000D02*
X107489000Y-92089000D01*
X106409204Y-88500000D02*
X106942102Y-88500000D01*
X107801000Y-92401000D02*
X107801000Y-92343450D01*
X108500000Y-86300000D02*
X107600000Y-86300000D01*
X106942102Y-87337898D02*
X106970000Y-87310000D01*
X107801000Y-92343450D02*
X107546550Y-92089000D01*
X107720000Y-106420000D02*
X106500000Y-105200000D01*
X105790102Y-90390102D02*
X105790102Y-89119102D01*
X108162500Y-92762500D02*
X107801000Y-92401000D01*
X107600000Y-86300000D02*
X106970000Y-86930000D01*
X107489000Y-92089000D02*
X105790102Y-90390102D01*
X109000000Y-92762500D02*
X108162500Y-92762500D01*
%TO.N,QSPI_SD2*%
X107700000Y-90084898D02*
X107700000Y-89792100D01*
X108800000Y-90400000D02*
X108015102Y-90400000D01*
X107407900Y-89500000D02*
X106942102Y-89500000D01*
X108015102Y-90400000D02*
X107700000Y-90084898D01*
X109800000Y-91400000D02*
X108800000Y-90400000D01*
X109800000Y-92762500D02*
X109800000Y-91400000D01*
X107700000Y-89792100D02*
X107407900Y-89500000D01*
%TO.N,QSPI_SD1*%
X106191102Y-89285202D02*
X106476304Y-89000000D01*
X109200000Y-92000000D02*
X108200000Y-92000000D01*
X106500000Y-90500000D02*
X106476304Y-90500000D01*
X107600000Y-91600000D02*
X106500000Y-90500000D01*
X108200000Y-92000000D02*
X107800000Y-91600000D01*
X106476304Y-90500000D02*
X106191102Y-90214798D01*
X106476304Y-89000000D02*
X106942102Y-89000000D01*
X109400000Y-92200000D02*
X109200000Y-92000000D01*
X106191102Y-90214798D02*
X106191102Y-89285202D01*
X109400000Y-92762500D02*
X109400000Y-92200000D01*
X107800000Y-91600000D02*
X107600000Y-91600000D01*
%TO.N,QSPI_SCLK*%
X109792102Y-89500000D02*
X110257900Y-89500000D01*
X110600000Y-89842100D02*
X110600000Y-92762500D01*
X110257900Y-89500000D02*
X110600000Y-89842100D01*
%TO.N,QSPI_SD0*%
X109792102Y-90000000D02*
X110200000Y-90407898D01*
X110200000Y-90407898D02*
X110200000Y-92762500D01*
%TO.N,QSPI_SD3*%
X110325000Y-89000000D02*
X111000000Y-89675000D01*
X109792102Y-89000000D02*
X110325000Y-89000000D01*
X111000000Y-89675000D02*
X111000000Y-92762500D01*
%TD*%
%TA.AperFunction,Conductor*%
%TO.N,GND*%
G36*
X106549784Y-105820185D02*
G01*
X106570426Y-105836819D01*
X107283181Y-106549573D01*
X107297884Y-106576500D01*
X107314477Y-106602319D01*
X107315368Y-106608519D01*
X107316666Y-106610896D01*
X107319500Y-106637254D01*
X107319500Y-106687085D01*
X107299815Y-106754124D01*
X107279232Y-106776084D01*
X107280151Y-106777003D01*
X107273577Y-106783577D01*
X107195618Y-106889207D01*
X107152258Y-107013118D01*
X107152258Y-107013120D01*
X107149500Y-107042538D01*
X107149500Y-107517453D01*
X107152258Y-107546874D01*
X107152260Y-107546884D01*
X107195618Y-107670792D01*
X107218552Y-107701867D01*
X107242522Y-107767496D01*
X107227206Y-107835666D01*
X107177466Y-107884734D01*
X107118781Y-107899500D01*
X106752130Y-107899500D01*
X106752123Y-107899501D01*
X106692516Y-107905908D01*
X106557671Y-107956202D01*
X106557664Y-107956206D01*
X106442455Y-108042452D01*
X106442452Y-108042455D01*
X106356206Y-108157664D01*
X106356202Y-108157671D01*
X106305910Y-108292513D01*
X106305909Y-108292517D01*
X106299500Y-108352127D01*
X106299500Y-108352134D01*
X106299500Y-108352135D01*
X106299500Y-108847870D01*
X106299501Y-108847876D01*
X106305908Y-108907483D01*
X106356202Y-109042328D01*
X106356206Y-109042335D01*
X106442452Y-109157544D01*
X106442455Y-109157547D01*
X106557664Y-109243793D01*
X106557671Y-109243797D01*
X106692517Y-109294091D01*
X106692516Y-109294091D01*
X106699444Y-109294835D01*
X106752127Y-109300500D01*
X108447872Y-109300499D01*
X108507483Y-109294091D01*
X108642331Y-109243796D01*
X108757546Y-109157546D01*
X108843796Y-109042331D01*
X108894091Y-108907483D01*
X108900500Y-108847873D01*
X108900499Y-108352128D01*
X108894091Y-108292517D01*
X108885081Y-108268361D01*
X108843797Y-108157671D01*
X108843796Y-108157669D01*
X108799734Y-108098810D01*
X108775317Y-108033346D01*
X108790168Y-107965073D01*
X108839573Y-107915667D01*
X108899001Y-107900499D01*
X108927454Y-107900499D01*
X108927456Y-107900499D01*
X108956879Y-107897741D01*
X109080794Y-107854381D01*
X109186423Y-107776423D01*
X109186423Y-107776421D01*
X109186425Y-107776421D01*
X109187819Y-107775028D01*
X109189719Y-107773989D01*
X109193900Y-107770905D01*
X109194322Y-107771476D01*
X109249142Y-107741543D01*
X109318834Y-107746527D01*
X109374767Y-107788399D01*
X109399184Y-107853863D01*
X109399500Y-107862709D01*
X109399500Y-109165226D01*
X109426793Y-109267089D01*
X109453156Y-109312750D01*
X109479520Y-109358413D01*
X109479522Y-109358415D01*
X109675510Y-109554403D01*
X109708995Y-109615726D01*
X109710534Y-109659959D01*
X109705576Y-109693993D01*
X109699500Y-109735698D01*
X109699500Y-110464302D01*
X109710332Y-110538650D01*
X109710332Y-110538651D01*
X109710333Y-110538653D01*
X109767095Y-110654762D01*
X109778855Y-110723635D01*
X109751511Y-110787932D01*
X109731182Y-110807597D01*
X109666915Y-110856911D01*
X109573621Y-110978492D01*
X109573621Y-110978493D01*
X109514981Y-111120064D01*
X109514979Y-111120069D01*
X109500000Y-111233853D01*
X109500000Y-111350000D01*
X110676000Y-111350000D01*
X110743039Y-111369685D01*
X110788794Y-111422489D01*
X110800000Y-111474000D01*
X110800000Y-111600000D01*
X110926000Y-111600000D01*
X110993039Y-111619685D01*
X111038794Y-111672489D01*
X111050000Y-111724000D01*
X111050000Y-112510000D01*
X111181053Y-112510000D01*
X111248092Y-112529685D01*
X111280254Y-112559602D01*
X111314435Y-112605180D01*
X111355436Y-112659853D01*
X111355437Y-112659854D01*
X111355438Y-112659855D01*
X111489630Y-112783696D01*
X111644023Y-112881198D01*
X111681911Y-112896386D01*
X111813512Y-112949141D01*
X111813513Y-112949141D01*
X111813515Y-112949142D01*
X111992506Y-112985281D01*
X111992500Y-112985281D01*
X112008820Y-112985561D01*
X112175082Y-112988422D01*
X112355210Y-112958460D01*
X112482522Y-112912441D01*
X112526933Y-112896388D01*
X112526933Y-112896387D01*
X112526938Y-112896386D01*
X112542133Y-112887530D01*
X112548617Y-112883760D01*
X112548870Y-112883692D01*
X112576914Y-112867306D01*
X112579749Y-112866609D01*
X112639255Y-112850503D01*
X112671392Y-112850506D01*
X112671394Y-112850505D01*
X112679486Y-112850506D01*
X112679609Y-112850499D01*
X114120307Y-112850499D01*
X114128588Y-112850499D01*
X114128608Y-112850505D01*
X114160763Y-112850502D01*
X114161009Y-112850574D01*
X114223302Y-112867433D01*
X114251130Y-112883691D01*
X114251133Y-112883691D01*
X114257277Y-112887281D01*
X114258944Y-112888112D01*
X114273078Y-112896349D01*
X114444800Y-112958420D01*
X114624921Y-112988381D01*
X114801796Y-112985337D01*
X114807491Y-112985240D01*
X114986464Y-112949105D01*
X114986466Y-112949104D01*
X114986473Y-112949103D01*
X115155958Y-112881162D01*
X115310345Y-112783664D01*
X115444531Y-112659828D01*
X115519694Y-112559602D01*
X115575664Y-112517781D01*
X115618897Y-112510000D01*
X115750000Y-112510000D01*
X116250000Y-112510000D01*
X116756147Y-112510000D01*
X116869930Y-112495020D01*
X116869935Y-112495018D01*
X117011506Y-112436378D01*
X117011507Y-112436378D01*
X117133086Y-112343086D01*
X117226378Y-112221507D01*
X117226378Y-112221506D01*
X117285018Y-112079935D01*
X117285020Y-112079930D01*
X117300000Y-111966146D01*
X117300000Y-111850000D01*
X116250000Y-111850000D01*
X116250000Y-112510000D01*
X115750000Y-112510000D01*
X115750000Y-111724000D01*
X115769685Y-111656961D01*
X115822489Y-111611206D01*
X115874000Y-111600000D01*
X116000000Y-111600000D01*
X116000000Y-111474000D01*
X116019685Y-111406961D01*
X116072489Y-111361206D01*
X116124000Y-111350000D01*
X117332246Y-111350000D01*
X117399285Y-111369685D01*
X117419927Y-111386319D01*
X117563181Y-111529573D01*
X117596666Y-111590896D01*
X117599500Y-111617254D01*
X117599500Y-114152726D01*
X117626793Y-114254589D01*
X117653156Y-114300250D01*
X117679520Y-114345913D01*
X118494087Y-115160480D01*
X118554125Y-115195143D01*
X118584095Y-115212447D01*
X118585412Y-115213207D01*
X118687273Y-115240500D01*
X118782745Y-115240500D01*
X118849784Y-115260185D01*
X118870426Y-115276819D01*
X119384325Y-115790718D01*
X119417810Y-115852041D01*
X119414575Y-115916716D01*
X119367829Y-116060587D01*
X119339500Y-116239448D01*
X119339500Y-116420551D01*
X119367829Y-116599410D01*
X119423787Y-116771636D01*
X119423788Y-116771639D01*
X119506006Y-116932997D01*
X119612441Y-117079494D01*
X119612445Y-117079499D01*
X119720765Y-117187819D01*
X119754250Y-117249142D01*
X119749266Y-117318834D01*
X119707394Y-117374767D01*
X119641930Y-117399184D01*
X119633084Y-117399500D01*
X114615778Y-117399500D01*
X114548739Y-117379815D01*
X114502984Y-117327011D01*
X114493040Y-117257853D01*
X114522065Y-117194297D01*
X114577461Y-117157568D01*
X114581639Y-117156211D01*
X114742994Y-117073996D01*
X114889501Y-116967553D01*
X115017553Y-116839501D01*
X115123996Y-116692994D01*
X115206211Y-116531639D01*
X115262171Y-116359409D01*
X115281171Y-116239448D01*
X115290500Y-116180551D01*
X115290500Y-115999448D01*
X115266800Y-115849819D01*
X115262171Y-115820591D01*
X115206211Y-115648361D01*
X115206211Y-115648360D01*
X115171633Y-115580499D01*
X115123996Y-115487006D01*
X115098883Y-115452441D01*
X115017558Y-115340505D01*
X115017554Y-115340500D01*
X114889499Y-115212445D01*
X114889494Y-115212441D01*
X114742997Y-115106006D01*
X114742996Y-115106005D01*
X114742994Y-115106004D01*
X114666906Y-115067235D01*
X114581639Y-115023788D01*
X114581636Y-115023787D01*
X114409410Y-114967829D01*
X114230551Y-114939500D01*
X114230546Y-114939500D01*
X114049454Y-114939500D01*
X114049449Y-114939500D01*
X113870589Y-114967829D01*
X113698363Y-115023787D01*
X113698360Y-115023788D01*
X113537002Y-115106006D01*
X113390505Y-115212441D01*
X113390500Y-115212445D01*
X113262445Y-115340500D01*
X113262441Y-115340505D01*
X113156004Y-115487004D01*
X113088908Y-115618685D01*
X113040933Y-115669480D01*
X112973112Y-115686275D01*
X112906977Y-115663737D01*
X112863527Y-115609021D01*
X112860492Y-115600705D01*
X112851094Y-115571780D01*
X112754624Y-115382449D01*
X112715270Y-115328282D01*
X112715269Y-115328282D01*
X112082962Y-115960590D01*
X112065925Y-115897007D01*
X112000099Y-115782993D01*
X111907007Y-115689901D01*
X111792993Y-115624075D01*
X111729409Y-115607037D01*
X112361716Y-114974728D01*
X112307550Y-114935375D01*
X112118217Y-114838904D01*
X111916129Y-114773242D01*
X111706246Y-114740000D01*
X111493754Y-114740000D01*
X111283872Y-114773242D01*
X111283869Y-114773242D01*
X111081782Y-114838904D01*
X110892439Y-114935380D01*
X110838282Y-114974727D01*
X110838282Y-114974728D01*
X111470591Y-115607037D01*
X111407007Y-115624075D01*
X111292993Y-115689901D01*
X111199901Y-115782993D01*
X111134075Y-115897007D01*
X111117037Y-115960591D01*
X110484728Y-115328282D01*
X110484727Y-115328282D01*
X110445380Y-115382440D01*
X110445377Y-115382445D01*
X110444981Y-115383223D01*
X110444752Y-115383464D01*
X110442838Y-115386590D01*
X110442180Y-115386187D01*
X110397004Y-115434017D01*
X110329183Y-115450809D01*
X110263049Y-115428268D01*
X110219600Y-115373551D01*
X110210499Y-115326923D01*
X110210499Y-115195143D01*
X110210499Y-115195136D01*
X110210497Y-115195117D01*
X110207586Y-115170012D01*
X110207585Y-115170011D01*
X110207585Y-115170009D01*
X110162206Y-115067235D01*
X110082765Y-114987794D01*
X110082763Y-114987793D01*
X109979992Y-114942415D01*
X109954865Y-114939500D01*
X108165143Y-114939500D01*
X108165117Y-114939502D01*
X108140012Y-114942413D01*
X108140008Y-114942415D01*
X108037235Y-114987793D01*
X107957794Y-115067234D01*
X107912415Y-115170006D01*
X107912415Y-115170008D01*
X107909500Y-115195131D01*
X107909500Y-116984856D01*
X107909502Y-116984882D01*
X107912413Y-117009987D01*
X107912415Y-117009991D01*
X107957793Y-117112764D01*
X108032848Y-117187819D01*
X108066333Y-117249142D01*
X108061349Y-117318834D01*
X108019477Y-117374767D01*
X107954013Y-117399184D01*
X107945167Y-117399500D01*
X103566916Y-117399500D01*
X103499877Y-117379815D01*
X103454122Y-117327011D01*
X103444178Y-117257853D01*
X103473203Y-117194297D01*
X103479235Y-117187819D01*
X103510844Y-117156210D01*
X103587553Y-117079501D01*
X103693996Y-116932994D01*
X103776211Y-116771639D01*
X103806216Y-116679288D01*
X103836463Y-116629929D01*
X105820480Y-114645913D01*
X105873207Y-114554588D01*
X105900500Y-114452727D01*
X105900500Y-114347273D01*
X105900500Y-113281052D01*
X105920185Y-113214013D01*
X105972989Y-113168258D01*
X106042147Y-113158314D01*
X106105703Y-113187339D01*
X106142885Y-113244161D01*
X106156981Y-113289396D01*
X106244927Y-113434877D01*
X106365122Y-113555072D01*
X106510604Y-113643019D01*
X106510603Y-113643019D01*
X106672894Y-113693590D01*
X106672893Y-113693590D01*
X106743427Y-113699999D01*
X107349999Y-113699999D01*
X107850000Y-113699999D01*
X108456581Y-113699999D01*
X108527102Y-113693591D01*
X108527107Y-113693590D01*
X108689396Y-113643018D01*
X108834877Y-113555072D01*
X108955072Y-113434877D01*
X109043019Y-113289395D01*
X109093590Y-113127106D01*
X109100000Y-113056572D01*
X109100000Y-113050000D01*
X107850000Y-113050000D01*
X107850000Y-113699999D01*
X107349999Y-113699999D01*
X107350000Y-113699998D01*
X107350000Y-112550000D01*
X107850000Y-112550000D01*
X109099999Y-112550000D01*
X109099999Y-112543417D01*
X109093591Y-112472897D01*
X109093590Y-112472892D01*
X109043018Y-112310603D01*
X108955072Y-112165122D01*
X108834877Y-112044927D01*
X108704557Y-111966146D01*
X109500000Y-111966146D01*
X109514979Y-112079930D01*
X109514981Y-112079935D01*
X109573621Y-112221506D01*
X109573621Y-112221507D01*
X109666913Y-112343086D01*
X109788493Y-112436378D01*
X109930064Y-112495018D01*
X109930069Y-112495020D01*
X110043853Y-112510000D01*
X110550000Y-112510000D01*
X110550000Y-111850000D01*
X109500000Y-111850000D01*
X109500000Y-111966146D01*
X108704557Y-111966146D01*
X108689395Y-111956980D01*
X108689396Y-111956980D01*
X108561167Y-111917023D01*
X108527105Y-111906409D01*
X108527106Y-111906409D01*
X108456572Y-111900000D01*
X107850000Y-111900000D01*
X107850000Y-112550000D01*
X107350000Y-112550000D01*
X107350000Y-111900000D01*
X106743417Y-111900000D01*
X106672897Y-111906408D01*
X106672892Y-111906409D01*
X106510603Y-111956981D01*
X106365122Y-112044927D01*
X106244927Y-112165122D01*
X106156981Y-112310603D01*
X106142885Y-112355839D01*
X106104147Y-112413986D01*
X106040122Y-112441960D01*
X105971137Y-112430878D01*
X105919094Y-112384259D01*
X105900500Y-112318948D01*
X105900500Y-107317255D01*
X105920185Y-107250216D01*
X105936819Y-107229574D01*
X106036820Y-107129573D01*
X106220480Y-106945913D01*
X106246699Y-106900500D01*
X106273207Y-106854587D01*
X106300500Y-106752727D01*
X106300500Y-105924500D01*
X106303050Y-105915814D01*
X106301762Y-105906853D01*
X106312740Y-105882812D01*
X106320185Y-105857461D01*
X106327025Y-105851533D01*
X106330787Y-105843297D01*
X106353021Y-105829007D01*
X106372989Y-105811706D01*
X106383503Y-105809418D01*
X106389565Y-105805523D01*
X106424500Y-105800500D01*
X106482745Y-105800500D01*
X106549784Y-105820185D01*
G37*
%TD.AperFunction*%
%TA.AperFunction,Conductor*%
G36*
X111134075Y-116282993D02*
G01*
X111199901Y-116397007D01*
X111292993Y-116490099D01*
X111407007Y-116555925D01*
X111470590Y-116572962D01*
X110838282Y-117205269D01*
X110842768Y-117262259D01*
X110842264Y-117262298D01*
X110845515Y-117300119D01*
X110812912Y-117361916D01*
X110752075Y-117396276D01*
X110723983Y-117399500D01*
X110174833Y-117399500D01*
X110107794Y-117379815D01*
X110062039Y-117327011D01*
X110052095Y-117257853D01*
X110081120Y-117194297D01*
X110087152Y-117187819D01*
X110118761Y-117156210D01*
X110162206Y-117112765D01*
X110207585Y-117009991D01*
X110210500Y-116984865D01*
X110210499Y-116853076D01*
X110230183Y-116786040D01*
X110282987Y-116740285D01*
X110352145Y-116730341D01*
X110415701Y-116759365D01*
X110442495Y-116793600D01*
X110442829Y-116793396D01*
X110444607Y-116796297D01*
X110444977Y-116796770D01*
X110445373Y-116797547D01*
X110484728Y-116851716D01*
X111117037Y-116219408D01*
X111134075Y-116282993D01*
G37*
%TD.AperFunction*%
%TA.AperFunction,Conductor*%
G36*
X112715270Y-116851717D02*
G01*
X112715270Y-116851716D01*
X112754622Y-116797554D01*
X112851095Y-116608217D01*
X112860492Y-116579295D01*
X112899928Y-116521618D01*
X112964286Y-116494419D01*
X113033133Y-116506331D01*
X113084610Y-116553574D01*
X113088908Y-116561314D01*
X113156004Y-116692995D01*
X113262441Y-116839494D01*
X113262445Y-116839499D01*
X113390500Y-116967554D01*
X113390505Y-116967558D01*
X113518287Y-117060396D01*
X113537006Y-117073996D01*
X113698361Y-117156211D01*
X113702538Y-117157568D01*
X113760214Y-117197005D01*
X113787413Y-117261363D01*
X113775500Y-117330209D01*
X113728257Y-117381686D01*
X113664222Y-117399500D01*
X112476016Y-117399500D01*
X112408977Y-117379815D01*
X112363222Y-117327011D01*
X112353278Y-117257853D01*
X112358474Y-117246474D01*
X112361717Y-117205270D01*
X111729408Y-116572962D01*
X111792993Y-116555925D01*
X111907007Y-116490099D01*
X112000099Y-116397007D01*
X112065925Y-116282993D01*
X112082962Y-116219408D01*
X112715270Y-116851717D01*
G37*
%TD.AperFunction*%
%TA.AperFunction,Conductor*%
G36*
X104618834Y-107470072D02*
G01*
X104674767Y-107511944D01*
X104699184Y-107577408D01*
X104699500Y-107586254D01*
X104699500Y-112782745D01*
X104679815Y-112849784D01*
X104663181Y-112870426D01*
X104180426Y-113353181D01*
X104153498Y-113367884D01*
X104127680Y-113384477D01*
X104121479Y-113385368D01*
X104119103Y-113386666D01*
X104092745Y-113389500D01*
X103873160Y-113389500D01*
X103806121Y-113369815D01*
X103762675Y-113321795D01*
X103723118Y-113244161D01*
X103693996Y-113187006D01*
X103661793Y-113142682D01*
X103587558Y-113040505D01*
X103587554Y-113040500D01*
X103459499Y-112912445D01*
X103459494Y-112912441D01*
X103312995Y-112806004D01*
X103181314Y-112738908D01*
X103130519Y-112690934D01*
X103113724Y-112623113D01*
X103136262Y-112556978D01*
X103190977Y-112513527D01*
X103199295Y-112510492D01*
X103228217Y-112501095D01*
X103417554Y-112404622D01*
X103471716Y-112365270D01*
X103471717Y-112365270D01*
X102839408Y-111732962D01*
X102902993Y-111715925D01*
X103017007Y-111650099D01*
X103110099Y-111557007D01*
X103175925Y-111442993D01*
X103192962Y-111379409D01*
X103825270Y-112011717D01*
X103825270Y-112011716D01*
X103864622Y-111957554D01*
X103961095Y-111768217D01*
X104026757Y-111566130D01*
X104026757Y-111566127D01*
X104060000Y-111356246D01*
X104060000Y-111143753D01*
X104026757Y-110933872D01*
X104026757Y-110933869D01*
X103961095Y-110731782D01*
X103864624Y-110542449D01*
X103825270Y-110488282D01*
X103825269Y-110488282D01*
X103192962Y-111120590D01*
X103175925Y-111057007D01*
X103110099Y-110942993D01*
X103017007Y-110849901D01*
X102902993Y-110784075D01*
X102839409Y-110767037D01*
X103471716Y-110134728D01*
X103417550Y-110095375D01*
X103228217Y-109998904D01*
X103199292Y-109989506D01*
X103141616Y-109950068D01*
X103114418Y-109885710D01*
X103126333Y-109816863D01*
X103173577Y-109765388D01*
X103181315Y-109761090D01*
X103312994Y-109693996D01*
X103459501Y-109587553D01*
X103587553Y-109459501D01*
X103693996Y-109312994D01*
X103776211Y-109151639D01*
X103832171Y-108979409D01*
X103846765Y-108887259D01*
X103860500Y-108800551D01*
X103860500Y-108619448D01*
X103844019Y-108515397D01*
X103832171Y-108440591D01*
X103785424Y-108296716D01*
X103783429Y-108226875D01*
X103815672Y-108170719D01*
X104487820Y-107498572D01*
X104549142Y-107465088D01*
X104618834Y-107470072D01*
G37*
%TD.AperFunction*%
%TA.AperFunction,Conductor*%
G36*
X118505703Y-107292542D02*
G01*
X118512181Y-107298574D01*
X119384325Y-108170718D01*
X119417810Y-108232041D01*
X119414575Y-108296716D01*
X119367829Y-108440587D01*
X119339500Y-108619448D01*
X119339500Y-108800551D01*
X119367829Y-108979410D01*
X119423787Y-109151636D01*
X119423788Y-109151639D01*
X119470746Y-109243797D01*
X119499637Y-109300499D01*
X119506006Y-109312997D01*
X119612441Y-109459494D01*
X119612445Y-109459499D01*
X119740500Y-109587554D01*
X119740505Y-109587558D01*
X119840158Y-109659959D01*
X119887006Y-109693996D01*
X119988780Y-109745853D01*
X120018684Y-109761090D01*
X120069480Y-109809065D01*
X120086275Y-109876886D01*
X120063737Y-109943021D01*
X120009022Y-109986472D01*
X120000708Y-109989506D01*
X119971781Y-109998905D01*
X119782439Y-110095380D01*
X119728282Y-110134727D01*
X119728282Y-110134728D01*
X120360591Y-110767037D01*
X120297007Y-110784075D01*
X120182993Y-110849901D01*
X120089901Y-110942993D01*
X120024075Y-111057007D01*
X120007037Y-111120591D01*
X119374728Y-110488282D01*
X119374727Y-110488282D01*
X119335380Y-110542439D01*
X119238904Y-110731782D01*
X119173242Y-110933869D01*
X119173242Y-110933872D01*
X119140000Y-111143753D01*
X119140000Y-111356246D01*
X119173242Y-111566127D01*
X119173242Y-111566130D01*
X119238904Y-111768217D01*
X119335375Y-111957550D01*
X119374728Y-112011716D01*
X120007037Y-111379408D01*
X120024075Y-111442993D01*
X120089901Y-111557007D01*
X120182993Y-111650099D01*
X120297007Y-111715925D01*
X120360590Y-111732962D01*
X119728282Y-112365269D01*
X119728282Y-112365270D01*
X119782449Y-112404624D01*
X119971780Y-112501094D01*
X120000705Y-112510492D01*
X120058381Y-112549929D01*
X120085580Y-112614287D01*
X120073667Y-112683134D01*
X120026424Y-112734610D01*
X120018685Y-112738908D01*
X119887004Y-112806004D01*
X119740505Y-112912441D01*
X119740500Y-112912445D01*
X119612445Y-113040500D01*
X119569204Y-113100017D01*
X119513874Y-113142682D01*
X119444260Y-113148661D01*
X119382465Y-113116055D01*
X119381205Y-113114812D01*
X118836819Y-112570426D01*
X118803334Y-112509103D01*
X118800500Y-112482745D01*
X118800500Y-111147275D01*
X118800500Y-111147273D01*
X118784207Y-111086466D01*
X118773207Y-111045412D01*
X118746699Y-110999500D01*
X118720480Y-110954087D01*
X118645913Y-110879520D01*
X118645910Y-110879518D01*
X118336819Y-110570426D01*
X118303334Y-110509103D01*
X118300500Y-110482745D01*
X118300500Y-107386255D01*
X118320185Y-107319216D01*
X118372989Y-107273461D01*
X118442147Y-107263517D01*
X118505703Y-107292542D01*
G37*
%TD.AperFunction*%
%TA.AperFunction,Conductor*%
G36*
X121563181Y-111969627D02*
G01*
X121596666Y-112030950D01*
X121599500Y-112057308D01*
X121599500Y-112978113D01*
X121579815Y-113045152D01*
X121527011Y-113090907D01*
X121457853Y-113100851D01*
X121394297Y-113071826D01*
X121375182Y-113050998D01*
X121367558Y-113040505D01*
X121367554Y-113040500D01*
X121239499Y-112912445D01*
X121239494Y-112912441D01*
X121092995Y-112806004D01*
X120961314Y-112738908D01*
X120910519Y-112690934D01*
X120893724Y-112623113D01*
X120916262Y-112556978D01*
X120970977Y-112513527D01*
X120979295Y-112510492D01*
X121008217Y-112501095D01*
X121197554Y-112404622D01*
X121251716Y-112365270D01*
X121251717Y-112365270D01*
X120619408Y-111732962D01*
X120682993Y-111715925D01*
X120797007Y-111650099D01*
X120890099Y-111557007D01*
X120955925Y-111442993D01*
X120972962Y-111379408D01*
X121563181Y-111969627D01*
G37*
%TD.AperFunction*%
%TA.AperFunction,Conductor*%
G36*
X102244075Y-111442993D02*
G01*
X102309901Y-111557007D01*
X102402993Y-111650099D01*
X102517007Y-111715925D01*
X102580590Y-111732962D01*
X101948282Y-112365269D01*
X101948282Y-112365270D01*
X102002449Y-112404624D01*
X102191780Y-112501094D01*
X102220705Y-112510492D01*
X102278381Y-112549929D01*
X102305580Y-112614287D01*
X102293667Y-112683134D01*
X102246424Y-112734610D01*
X102238685Y-112738908D01*
X102107004Y-112806004D01*
X101960505Y-112912441D01*
X101960500Y-112912445D01*
X101832445Y-113040500D01*
X101832441Y-113040505D01*
X101824818Y-113050998D01*
X101769488Y-113093664D01*
X101699875Y-113099643D01*
X101638080Y-113067037D01*
X101603723Y-113006199D01*
X101600500Y-112978113D01*
X101600500Y-112057308D01*
X101620185Y-111990269D01*
X101636819Y-111969627D01*
X102227037Y-111379408D01*
X102244075Y-111442993D01*
G37*
%TD.AperFunction*%
%TA.AperFunction,Conductor*%
G36*
X101805703Y-109428173D02*
G01*
X101824821Y-109449004D01*
X101832446Y-109459500D01*
X101960500Y-109587554D01*
X101960505Y-109587558D01*
X102060158Y-109659959D01*
X102107006Y-109693996D01*
X102208780Y-109745853D01*
X102238684Y-109761090D01*
X102289480Y-109809065D01*
X102306275Y-109876886D01*
X102283737Y-109943021D01*
X102229022Y-109986472D01*
X102220708Y-109989506D01*
X102191781Y-109998905D01*
X102002439Y-110095380D01*
X101948282Y-110134727D01*
X101948282Y-110134728D01*
X102580591Y-110767037D01*
X102517007Y-110784075D01*
X102402993Y-110849901D01*
X102309901Y-110942993D01*
X102244075Y-111057007D01*
X102227037Y-111120591D01*
X101636819Y-110530373D01*
X101603334Y-110469050D01*
X101600500Y-110442692D01*
X101600500Y-109521886D01*
X101620185Y-109454847D01*
X101672989Y-109409092D01*
X101742147Y-109399148D01*
X101805703Y-109428173D01*
G37*
%TD.AperFunction*%
%TA.AperFunction,Conductor*%
G36*
X121561917Y-109432959D02*
G01*
X121596277Y-109493796D01*
X121599500Y-109521886D01*
X121599500Y-110442692D01*
X121579815Y-110509731D01*
X121563181Y-110530373D01*
X120972962Y-111120591D01*
X120955925Y-111057007D01*
X120890099Y-110942993D01*
X120797007Y-110849901D01*
X120682993Y-110784075D01*
X120619409Y-110767037D01*
X121251716Y-110134728D01*
X121197550Y-110095375D01*
X121008217Y-109998904D01*
X120979292Y-109989506D01*
X120921616Y-109950068D01*
X120894418Y-109885710D01*
X120906333Y-109816863D01*
X120953577Y-109765388D01*
X120961315Y-109761090D01*
X121092994Y-109693996D01*
X121239501Y-109587553D01*
X121367553Y-109459501D01*
X121375180Y-109449003D01*
X121430508Y-109406336D01*
X121500121Y-109400355D01*
X121561917Y-109432959D01*
G37*
%TD.AperFunction*%
%TA.AperFunction,Conductor*%
G36*
X115788149Y-101661690D02*
G01*
X115816503Y-101682896D01*
X116563181Y-102429574D01*
X116596666Y-102490897D01*
X116599500Y-102517255D01*
X116599500Y-104550902D01*
X116579815Y-104617941D01*
X116527011Y-104663696D01*
X116457853Y-104673640D01*
X116394297Y-104644615D01*
X116387819Y-104638583D01*
X116368717Y-104619481D01*
X116368709Y-104619475D01*
X116231790Y-104540426D01*
X116231786Y-104540424D01*
X116231784Y-104540423D01*
X116079057Y-104499500D01*
X115920943Y-104499500D01*
X115768216Y-104540423D01*
X115768209Y-104540426D01*
X115631290Y-104619475D01*
X115631282Y-104619481D01*
X115519481Y-104731282D01*
X115519475Y-104731290D01*
X115440426Y-104868209D01*
X115440423Y-104868216D01*
X115399500Y-105020943D01*
X115399500Y-105179057D01*
X115414390Y-105234625D01*
X115440423Y-105331783D01*
X115440426Y-105331790D01*
X115519475Y-105468709D01*
X115519481Y-105468717D01*
X115563181Y-105512417D01*
X115596666Y-105573740D01*
X115599500Y-105600098D01*
X115599500Y-107301797D01*
X115595275Y-107333888D01*
X115587000Y-107364769D01*
X115587000Y-108888425D01*
X115567315Y-108955464D01*
X115514511Y-109001219D01*
X115445353Y-109011163D01*
X115381797Y-108982138D01*
X115378904Y-108979551D01*
X115310371Y-108916305D01*
X115204587Y-108849500D01*
X115155978Y-108818802D01*
X115155976Y-108818801D01*
X114986488Y-108750858D01*
X114986478Y-108750856D01*
X114807493Y-108714718D01*
X114807500Y-108714718D01*
X114635795Y-108711765D01*
X114624919Y-108711578D01*
X114624918Y-108711578D01*
X114624915Y-108711578D01*
X114444797Y-108741538D01*
X114444784Y-108741541D01*
X114273063Y-108803613D01*
X114258548Y-108812070D01*
X114258460Y-108812121D01*
X114251376Y-108816239D01*
X114251130Y-108816308D01*
X114223608Y-108832386D01*
X114223087Y-108832690D01*
X114220371Y-108833357D01*
X114160746Y-108849495D01*
X114120513Y-108849492D01*
X114120391Y-108849500D01*
X112639263Y-108849500D01*
X112623694Y-108845312D01*
X112609794Y-108845947D01*
X112577524Y-108832892D01*
X112577054Y-108832766D01*
X112576769Y-108832600D01*
X112548951Y-108816342D01*
X112548540Y-108816229D01*
X112541320Y-108812042D01*
X112541286Y-108812006D01*
X112541095Y-108811911D01*
X112526923Y-108803652D01*
X112526918Y-108803649D01*
X112355202Y-108741580D01*
X112355194Y-108741578D01*
X112175083Y-108711619D01*
X112175080Y-108711619D01*
X112166406Y-108711768D01*
X111992510Y-108714759D01*
X111813535Y-108750895D01*
X111813526Y-108750897D01*
X111644041Y-108818837D01*
X111489661Y-108916332D01*
X111489655Y-108916337D01*
X111355467Y-109040172D01*
X111245917Y-109186250D01*
X111179058Y-109320710D01*
X111131583Y-109371973D01*
X111068027Y-109389500D01*
X110694755Y-109389500D01*
X110627716Y-109369815D01*
X110607074Y-109353181D01*
X110236819Y-108982926D01*
X110203334Y-108921603D01*
X110200500Y-108895245D01*
X110200500Y-107262729D01*
X110200501Y-107262716D01*
X110200501Y-107147274D01*
X110195758Y-107129573D01*
X110173207Y-107045413D01*
X110166668Y-107034087D01*
X110120480Y-106954087D01*
X110112304Y-106945911D01*
X110068574Y-106902180D01*
X110035090Y-106840857D01*
X110040075Y-106771165D01*
X110081946Y-106715232D01*
X110147411Y-106690816D01*
X110156256Y-106690500D01*
X110438097Y-106690500D01*
X110438102Y-106690500D01*
X110526564Y-106679877D01*
X110667342Y-106624361D01*
X110787922Y-106532922D01*
X110826502Y-106482046D01*
X110882692Y-106440524D01*
X110952413Y-106435971D01*
X111013528Y-106469836D01*
X111030843Y-106491875D01*
X111102680Y-106608340D01*
X111102683Y-106608344D01*
X111226654Y-106732315D01*
X111375875Y-106824356D01*
X111375880Y-106824358D01*
X111542302Y-106879505D01*
X111542309Y-106879506D01*
X111645019Y-106889999D01*
X111894999Y-106889999D01*
X112395000Y-106889999D01*
X112644972Y-106889999D01*
X112644986Y-106889998D01*
X112747697Y-106879505D01*
X112914119Y-106824358D01*
X112914124Y-106824356D01*
X113063345Y-106732315D01*
X113187315Y-106608345D01*
X113201978Y-106584573D01*
X113253925Y-106537848D01*
X113322887Y-106526624D01*
X113342114Y-106530592D01*
X113399088Y-106547145D01*
X113420000Y-106548789D01*
X113920000Y-106548789D01*
X113940910Y-106547145D01*
X114096195Y-106502031D01*
X114235374Y-106419721D01*
X114235383Y-106419714D01*
X114349714Y-106305383D01*
X114349721Y-106305374D01*
X114432031Y-106166195D01*
X114474504Y-106020000D01*
X113920000Y-106020000D01*
X113920000Y-106548789D01*
X113420000Y-106548789D01*
X113420000Y-106040000D01*
X112395000Y-106040000D01*
X112395000Y-106889999D01*
X111894999Y-106889999D01*
X111895000Y-106889998D01*
X111895000Y-105914000D01*
X111914685Y-105846961D01*
X111967489Y-105801206D01*
X112019000Y-105790000D01*
X112145000Y-105790000D01*
X112145000Y-105664000D01*
X112164685Y-105596961D01*
X112217489Y-105551206D01*
X112269000Y-105540000D01*
X112743567Y-105540000D01*
X112775004Y-105522834D01*
X112801362Y-105520000D01*
X114474504Y-105520000D01*
X114432031Y-105373804D01*
X114349721Y-105234625D01*
X114349714Y-105234616D01*
X114299159Y-105184061D01*
X114265674Y-105122738D01*
X114269798Y-105055428D01*
X114277710Y-105032819D01*
X114280500Y-105003066D01*
X114280500Y-104616934D01*
X114280224Y-104613996D01*
X114277710Y-104587185D01*
X114277710Y-104587181D01*
X114277708Y-104587177D01*
X114277708Y-104587173D01*
X114238631Y-104475500D01*
X114233852Y-104461843D01*
X114154999Y-104355001D01*
X114048157Y-104276148D01*
X114048155Y-104276147D01*
X113922826Y-104232291D01*
X113922814Y-104232289D01*
X113893070Y-104229500D01*
X113893066Y-104229500D01*
X113446934Y-104229500D01*
X113446930Y-104229500D01*
X113417185Y-104232289D01*
X113417173Y-104232291D01*
X113310455Y-104269635D01*
X113240677Y-104273198D01*
X113180049Y-104238469D01*
X113147821Y-104176476D01*
X113145500Y-104152594D01*
X113145500Y-103774407D01*
X113165185Y-103707368D01*
X113217989Y-103661613D01*
X113287147Y-103651669D01*
X113332622Y-103667676D01*
X113373802Y-103692030D01*
X113373804Y-103692031D01*
X113529089Y-103737145D01*
X113550000Y-103738789D01*
X113550000Y-103254863D01*
X114050000Y-103254863D01*
X114050000Y-103738789D01*
X114070910Y-103737145D01*
X114226193Y-103692032D01*
X114319968Y-103636573D01*
X114387692Y-103619390D01*
X114446211Y-103636573D01*
X114573804Y-103712031D01*
X114729089Y-103757145D01*
X114750000Y-103758789D01*
X115250000Y-103758789D01*
X115270910Y-103757145D01*
X115426195Y-103712031D01*
X115565374Y-103629721D01*
X115565383Y-103629714D01*
X115679714Y-103515383D01*
X115679721Y-103515374D01*
X115762031Y-103376195D01*
X115804504Y-103230000D01*
X115250000Y-103230000D01*
X115250000Y-103758789D01*
X114750000Y-103758789D01*
X114750000Y-103230000D01*
X114147001Y-103230000D01*
X114050000Y-103254863D01*
X113550000Y-103254863D01*
X113550000Y-103210000D01*
X112994690Y-103210000D01*
X112974520Y-103225053D01*
X112954749Y-103244102D01*
X112946920Y-103245652D01*
X112940525Y-103250426D01*
X112913141Y-103252344D01*
X112886211Y-103257680D01*
X112874986Y-103255018D01*
X112870826Y-103255310D01*
X112851870Y-103249537D01*
X112759537Y-103213126D01*
X112704392Y-103170220D01*
X112681199Y-103104312D01*
X112697319Y-103036328D01*
X112747636Y-102987851D01*
X112764061Y-102980733D01*
X112810794Y-102964381D01*
X112916423Y-102886423D01*
X112994381Y-102780794D01*
X112994383Y-102780785D01*
X112996884Y-102776057D01*
X113045614Y-102725985D01*
X113106514Y-102710000D01*
X114668638Y-102710000D01*
X114735677Y-102729685D01*
X114736068Y-102730000D01*
X115804504Y-102730000D01*
X115762031Y-102583804D01*
X115679721Y-102444625D01*
X115679714Y-102444616D01*
X115629159Y-102394061D01*
X115595674Y-102332738D01*
X115599798Y-102265428D01*
X115607710Y-102242819D01*
X115607711Y-102242809D01*
X115610500Y-102213070D01*
X115610500Y-101826929D01*
X115607711Y-101797188D01*
X115607710Y-101797185D01*
X115607710Y-101797181D01*
X115607708Y-101797176D01*
X115607680Y-101797046D01*
X115607687Y-101796938D01*
X115607006Y-101789669D01*
X115608208Y-101789556D01*
X115612601Y-101727350D01*
X115654421Y-101671378D01*
X115719863Y-101646901D01*
X115788149Y-101661690D01*
G37*
%TD.AperFunction*%
%TA.AperFunction,Conductor*%
G36*
X110518833Y-101284271D02*
G01*
X110574767Y-101326142D01*
X110599184Y-101391607D01*
X110599500Y-101400453D01*
X110599500Y-101682405D01*
X110579815Y-101749444D01*
X110563181Y-101770086D01*
X110309682Y-102023584D01*
X110309680Y-102023587D01*
X110256953Y-102114912D01*
X110240695Y-102175588D01*
X110237936Y-102185884D01*
X110229660Y-102216770D01*
X110229660Y-102903978D01*
X110209975Y-102971017D01*
X110195000Y-102989600D01*
X110195000Y-103966000D01*
X110175315Y-104033039D01*
X110122511Y-104078794D01*
X110071000Y-104090000D01*
X109945000Y-104090000D01*
X109945000Y-104216000D01*
X109925315Y-104283039D01*
X109872511Y-104328794D01*
X109821000Y-104340000D01*
X109340000Y-104340000D01*
X109326319Y-104353681D01*
X109264996Y-104387166D01*
X109238638Y-104390000D01*
X107595495Y-104390000D01*
X107581037Y-104409255D01*
X107581033Y-104410774D01*
X107543091Y-104469444D01*
X107479453Y-104498288D01*
X107462156Y-104499500D01*
X107320943Y-104499500D01*
X107168216Y-104540423D01*
X107168209Y-104540426D01*
X107031290Y-104619475D01*
X107031286Y-104619478D01*
X106975662Y-104675102D01*
X106914338Y-104708586D01*
X106844646Y-104703601D01*
X106825982Y-104694807D01*
X106731790Y-104640425D01*
X106731784Y-104640423D01*
X106579057Y-104599500D01*
X106524500Y-104599500D01*
X106457461Y-104579815D01*
X106411706Y-104527011D01*
X106400500Y-104475500D01*
X106400500Y-103890000D01*
X107595496Y-103890000D01*
X108150000Y-103890000D01*
X108150000Y-103409163D01*
X108650000Y-103409163D01*
X108650000Y-103840000D01*
X109695000Y-103840000D01*
X109695000Y-102990000D01*
X109445029Y-102990000D01*
X109445012Y-102990001D01*
X109342302Y-103000494D01*
X109175880Y-103055641D01*
X109175875Y-103055643D01*
X109026654Y-103147684D01*
X108902682Y-103271656D01*
X108869288Y-103325797D01*
X108844677Y-103347932D01*
X108820770Y-103370811D01*
X108818275Y-103371679D01*
X108817340Y-103372521D01*
X108814557Y-103372973D01*
X108787438Y-103382415D01*
X108650000Y-103409163D01*
X108150000Y-103409163D01*
X108150000Y-103361210D01*
X108149999Y-103361209D01*
X108129087Y-103362854D01*
X108129081Y-103362855D01*
X107973809Y-103407966D01*
X107973804Y-103407968D01*
X107834625Y-103490278D01*
X107834616Y-103490285D01*
X107720285Y-103604616D01*
X107720278Y-103604625D01*
X107637968Y-103743804D01*
X107595496Y-103890000D01*
X106400500Y-103890000D01*
X106400500Y-102447255D01*
X106409144Y-102417814D01*
X106415668Y-102387828D01*
X106419422Y-102382812D01*
X106420185Y-102380216D01*
X106436819Y-102359574D01*
X106496574Y-102299819D01*
X106557897Y-102266334D01*
X106584255Y-102263500D01*
X109323925Y-102263500D01*
X109323927Y-102263500D01*
X109425788Y-102236207D01*
X109517113Y-102183480D01*
X110387819Y-101312771D01*
X110449142Y-101279287D01*
X110518833Y-101284271D01*
G37*
%TD.AperFunction*%
%TA.AperFunction,Conductor*%
G36*
X104148773Y-97867222D02*
G01*
X104762181Y-98480630D01*
X104795666Y-98541953D01*
X104798500Y-98568311D01*
X104798500Y-98796216D01*
X104798500Y-98901670D01*
X104801160Y-98911596D01*
X104825793Y-99003532D01*
X104878522Y-99094859D01*
X105085221Y-99301557D01*
X105118706Y-99362880D01*
X105113722Y-99432571D01*
X105071851Y-99488505D01*
X105059542Y-99496624D01*
X105019890Y-99519517D01*
X105019884Y-99519522D01*
X103935655Y-100603751D01*
X103874332Y-100637236D01*
X103804640Y-100632252D01*
X103748707Y-100590380D01*
X103737489Y-100572365D01*
X103727714Y-100553181D01*
X103693996Y-100487006D01*
X103631094Y-100400428D01*
X103587558Y-100340505D01*
X103587554Y-100340500D01*
X103459499Y-100212445D01*
X103459494Y-100212441D01*
X103312995Y-100106004D01*
X103181314Y-100038908D01*
X103130519Y-99990934D01*
X103113724Y-99923113D01*
X103136262Y-99856978D01*
X103190977Y-99813527D01*
X103199295Y-99810492D01*
X103228217Y-99801095D01*
X103417554Y-99704622D01*
X103471716Y-99665270D01*
X103471717Y-99665270D01*
X102839408Y-99032962D01*
X102902993Y-99015925D01*
X103017007Y-98950099D01*
X103110099Y-98857007D01*
X103175925Y-98742993D01*
X103192962Y-98679408D01*
X103825270Y-99311717D01*
X103825270Y-99311716D01*
X103864622Y-99257554D01*
X103961095Y-99068217D01*
X104026757Y-98866130D01*
X104026757Y-98866127D01*
X104060000Y-98656246D01*
X104060000Y-98443753D01*
X104026757Y-98233872D01*
X104026757Y-98233869D01*
X103961095Y-98031782D01*
X103950607Y-98011198D01*
X103937711Y-97942529D01*
X103963987Y-97877788D01*
X104021093Y-97837531D01*
X104090899Y-97834539D01*
X104148773Y-97867222D01*
G37*
%TD.AperFunction*%
%TA.AperFunction,Conductor*%
G36*
X118507807Y-96970500D02*
G01*
X118508273Y-96970500D01*
X118613727Y-96970500D01*
X119814377Y-96970500D01*
X119881416Y-96990185D01*
X119886860Y-96993906D01*
X119887000Y-96993992D01*
X119887006Y-96993996D01*
X119950722Y-97026461D01*
X120018684Y-97061090D01*
X120069480Y-97109065D01*
X120086275Y-97176886D01*
X120063737Y-97243021D01*
X120009022Y-97286472D01*
X120000708Y-97289506D01*
X119971781Y-97298905D01*
X119782439Y-97395380D01*
X119728282Y-97434727D01*
X119728282Y-97434728D01*
X120360591Y-98067037D01*
X120297007Y-98084075D01*
X120182993Y-98149901D01*
X120089901Y-98242993D01*
X120024075Y-98357007D01*
X120007037Y-98420591D01*
X119374728Y-97788282D01*
X119374727Y-97788282D01*
X119335380Y-97842439D01*
X119238904Y-98031782D01*
X119173242Y-98233869D01*
X119173242Y-98233872D01*
X119140000Y-98443753D01*
X119140000Y-98656246D01*
X119173242Y-98866127D01*
X119173242Y-98866130D01*
X119238904Y-99068217D01*
X119335375Y-99257550D01*
X119374728Y-99311716D01*
X120007037Y-98679408D01*
X120024075Y-98742993D01*
X120089901Y-98857007D01*
X120182993Y-98950099D01*
X120297007Y-99015925D01*
X120360590Y-99032962D01*
X119728282Y-99665269D01*
X119728282Y-99665270D01*
X119782449Y-99704624D01*
X119971780Y-99801094D01*
X120000705Y-99810492D01*
X120058381Y-99849929D01*
X120085580Y-99914287D01*
X120073667Y-99983134D01*
X120026424Y-100034610D01*
X120018685Y-100038908D01*
X119887004Y-100106004D01*
X119740505Y-100212441D01*
X119740500Y-100212445D01*
X119612445Y-100340500D01*
X119612441Y-100340505D01*
X119506006Y-100487002D01*
X119488278Y-100521795D01*
X119440303Y-100572591D01*
X119377793Y-100589500D01*
X119007255Y-100589500D01*
X118940216Y-100569815D01*
X118919574Y-100553181D01*
X117136819Y-98770426D01*
X117122115Y-98743498D01*
X117105523Y-98717680D01*
X117104631Y-98711479D01*
X117103334Y-98709103D01*
X117100500Y-98682745D01*
X117100500Y-98247275D01*
X117100500Y-98247273D01*
X117073207Y-98145413D01*
X117020480Y-98054087D01*
X116965999Y-97999606D01*
X116932514Y-97938283D01*
X116937498Y-97868591D01*
X116979370Y-97812658D01*
X117044834Y-97788241D01*
X117065252Y-97788466D01*
X117086934Y-97790500D01*
X117473070Y-97790500D01*
X117502809Y-97787711D01*
X117502809Y-97787710D01*
X117502819Y-97787710D01*
X117525427Y-97779798D01*
X117595202Y-97776236D01*
X117654061Y-97809159D01*
X117704616Y-97859714D01*
X117704625Y-97859721D01*
X117843804Y-97942031D01*
X117990000Y-97984504D01*
X117990000Y-97984503D01*
X118490000Y-97984503D01*
X118636195Y-97942031D01*
X118775374Y-97859721D01*
X118775383Y-97859714D01*
X118889714Y-97745383D01*
X118889721Y-97745374D01*
X118972031Y-97606195D01*
X118972033Y-97606190D01*
X119017144Y-97450918D01*
X119017145Y-97450912D01*
X119018790Y-97430000D01*
X118490000Y-97430000D01*
X118490000Y-97984503D01*
X117990000Y-97984503D01*
X117990000Y-97304000D01*
X118009685Y-97236961D01*
X118062489Y-97191206D01*
X118114000Y-97180000D01*
X118240000Y-97180000D01*
X118240000Y-97093500D01*
X118242550Y-97084814D01*
X118241262Y-97075853D01*
X118252240Y-97051812D01*
X118259685Y-97026461D01*
X118266525Y-97020533D01*
X118270287Y-97012297D01*
X118292521Y-96998007D01*
X118312489Y-96980706D01*
X118323003Y-96978418D01*
X118329065Y-96974523D01*
X118364000Y-96969500D01*
X118492551Y-96969500D01*
X118507807Y-96970500D01*
G37*
%TD.AperFunction*%
%TA.AperFunction,Conductor*%
G36*
X121563181Y-99269627D02*
G01*
X121596666Y-99330950D01*
X121599500Y-99357308D01*
X121599500Y-100278113D01*
X121579815Y-100345152D01*
X121527011Y-100390907D01*
X121457853Y-100400851D01*
X121394297Y-100371826D01*
X121375182Y-100350998D01*
X121367558Y-100340505D01*
X121367554Y-100340500D01*
X121239499Y-100212445D01*
X121239494Y-100212441D01*
X121092995Y-100106004D01*
X120961314Y-100038908D01*
X120910519Y-99990934D01*
X120893724Y-99923113D01*
X120916262Y-99856978D01*
X120970977Y-99813527D01*
X120979295Y-99810492D01*
X121008217Y-99801095D01*
X121197554Y-99704622D01*
X121251716Y-99665270D01*
X121251717Y-99665270D01*
X120619408Y-99032962D01*
X120682993Y-99015925D01*
X120797007Y-98950099D01*
X120890099Y-98857007D01*
X120955925Y-98742993D01*
X120972962Y-98679408D01*
X121563181Y-99269627D01*
G37*
%TD.AperFunction*%
%TA.AperFunction,Conductor*%
G36*
X102244075Y-98742993D02*
G01*
X102309901Y-98857007D01*
X102402993Y-98950099D01*
X102517007Y-99015925D01*
X102580590Y-99032962D01*
X101948282Y-99665269D01*
X101948282Y-99665270D01*
X102002449Y-99704624D01*
X102191780Y-99801094D01*
X102220705Y-99810492D01*
X102278381Y-99849929D01*
X102305580Y-99914287D01*
X102293667Y-99983134D01*
X102246424Y-100034610D01*
X102238685Y-100038908D01*
X102107004Y-100106004D01*
X101960505Y-100212441D01*
X101960500Y-100212445D01*
X101832445Y-100340500D01*
X101832441Y-100340505D01*
X101824818Y-100350998D01*
X101769488Y-100393664D01*
X101699875Y-100399643D01*
X101638080Y-100367037D01*
X101603723Y-100306199D01*
X101600500Y-100278113D01*
X101600500Y-99357308D01*
X101620185Y-99290269D01*
X101636819Y-99269627D01*
X102227037Y-98679408D01*
X102244075Y-98742993D01*
G37*
%TD.AperFunction*%
%TA.AperFunction,Conductor*%
G36*
X105843039Y-97729685D02*
G01*
X105888794Y-97782489D01*
X105900000Y-97834000D01*
X105900000Y-98514503D01*
X106046191Y-98472032D01*
X106046590Y-98471797D01*
X106046945Y-98471706D01*
X106053353Y-98468934D01*
X106053800Y-98469967D01*
X106114312Y-98454609D01*
X106180577Y-98476763D01*
X106224345Y-98531225D01*
X106231720Y-98600704D01*
X106200362Y-98663141D01*
X106197402Y-98666205D01*
X106099424Y-98764182D01*
X106038104Y-98797666D01*
X106011745Y-98800500D01*
X105768312Y-98800500D01*
X105738874Y-98791855D01*
X105708884Y-98785332D01*
X105703868Y-98781577D01*
X105701273Y-98780815D01*
X105680630Y-98764180D01*
X105635818Y-98719367D01*
X105602333Y-98658044D01*
X105599500Y-98631687D01*
X105599500Y-98413786D01*
X105599501Y-98413773D01*
X105599501Y-98298331D01*
X105591203Y-98267365D01*
X105572207Y-98196470D01*
X105572206Y-98196469D01*
X105572206Y-98196467D01*
X105572204Y-98196464D01*
X105552930Y-98163080D01*
X105552927Y-98163076D01*
X105547737Y-98154087D01*
X105519480Y-98105144D01*
X105444913Y-98030577D01*
X105444910Y-98030575D01*
X105436319Y-98021984D01*
X105436289Y-98021930D01*
X105432665Y-98017544D01*
X105428173Y-98007065D01*
X105402834Y-97960661D01*
X105400000Y-97934303D01*
X105400000Y-97834000D01*
X105419685Y-97766961D01*
X105472489Y-97721206D01*
X105524000Y-97710000D01*
X105776000Y-97710000D01*
X105843039Y-97729685D01*
G37*
%TD.AperFunction*%
%TA.AperFunction,Conductor*%
G36*
X112243334Y-94325573D02*
G01*
X112287681Y-94354074D01*
X112553087Y-94619480D01*
X112644412Y-94672207D01*
X112746273Y-94699500D01*
X113074500Y-94699500D01*
X113141539Y-94719185D01*
X113187294Y-94771989D01*
X113198500Y-94823500D01*
X113198500Y-96051726D01*
X113225793Y-96153589D01*
X113234980Y-96169500D01*
X113278520Y-96244913D01*
X113278522Y-96244915D01*
X113421031Y-96387424D01*
X113454516Y-96448747D01*
X113449532Y-96518439D01*
X113407660Y-96574372D01*
X113395350Y-96582492D01*
X113331289Y-96619477D01*
X113331284Y-96619481D01*
X113219483Y-96731282D01*
X113219477Y-96731290D01*
X113140428Y-96868209D01*
X113140425Y-96868216D01*
X113099502Y-97020943D01*
X113099502Y-97179057D01*
X113132981Y-97304000D01*
X113140425Y-97331783D01*
X113140428Y-97331790D01*
X113219477Y-97468709D01*
X113219483Y-97468717D01*
X113274544Y-97523778D01*
X113282561Y-97537664D01*
X113292744Y-97546921D01*
X113306637Y-97579364D01*
X113313826Y-97606195D01*
X113316473Y-97616071D01*
X113314810Y-97685921D01*
X113275647Y-97743783D01*
X113258698Y-97755551D01*
X113173651Y-97804653D01*
X113105751Y-97821126D01*
X113049652Y-97804654D01*
X112938403Y-97740425D01*
X112938396Y-97740423D01*
X112785676Y-97699502D01*
X112627562Y-97699502D01*
X112474835Y-97740425D01*
X112474828Y-97740428D01*
X112337909Y-97819477D01*
X112337901Y-97819483D01*
X112317997Y-97839388D01*
X112256674Y-97872873D01*
X112186982Y-97867889D01*
X112142635Y-97839388D01*
X112122728Y-97819481D01*
X112122720Y-97819475D01*
X111985801Y-97740426D01*
X111985797Y-97740424D01*
X111985795Y-97740423D01*
X111833068Y-97699500D01*
X111674954Y-97699500D01*
X111522227Y-97740423D01*
X111522220Y-97740426D01*
X111385301Y-97819475D01*
X111385293Y-97819481D01*
X111273492Y-97931282D01*
X111273486Y-97931290D01*
X111194437Y-98068209D01*
X111194434Y-98068216D01*
X111153511Y-98220943D01*
X111153511Y-98375500D01*
X111133826Y-98442539D01*
X111081022Y-98488294D01*
X111029511Y-98499500D01*
X110223500Y-98499500D01*
X110156461Y-98479815D01*
X110110706Y-98427011D01*
X110099500Y-98375500D01*
X110099500Y-97369851D01*
X110099500Y-97369850D01*
X110089300Y-97331784D01*
X110072207Y-97267989D01*
X110019480Y-97176664D01*
X109522336Y-96679520D01*
X109431011Y-96626793D01*
X109392404Y-96616448D01*
X109332745Y-96580083D01*
X109302217Y-96517236D01*
X109300500Y-96496674D01*
X109300500Y-94917255D01*
X109320185Y-94850216D01*
X109336819Y-94829574D01*
X109394404Y-94771989D01*
X109518497Y-94647895D01*
X109579818Y-94614412D01*
X109649509Y-94619396D01*
X109668169Y-94628188D01*
X109703536Y-94648607D01*
X109744409Y-94672206D01*
X109744411Y-94672206D01*
X109744412Y-94672207D01*
X109846273Y-94699500D01*
X109846275Y-94699500D01*
X111653725Y-94699500D01*
X111653727Y-94699500D01*
X111755588Y-94672207D01*
X111846913Y-94619480D01*
X112112319Y-94354074D01*
X112173642Y-94320589D01*
X112243334Y-94325573D01*
G37*
%TD.AperFunction*%
%TA.AperFunction,Conductor*%
G36*
X101805703Y-96728173D02*
G01*
X101824821Y-96749004D01*
X101832446Y-96759500D01*
X101960500Y-96887554D01*
X101960505Y-96887558D01*
X102073290Y-96969500D01*
X102107006Y-96993996D01*
X102170722Y-97026461D01*
X102238684Y-97061090D01*
X102289480Y-97109065D01*
X102306275Y-97176886D01*
X102283737Y-97243021D01*
X102229022Y-97286472D01*
X102220708Y-97289506D01*
X102191781Y-97298905D01*
X102002439Y-97395380D01*
X101948282Y-97434727D01*
X101948282Y-97434728D01*
X102580591Y-98067037D01*
X102517007Y-98084075D01*
X102402993Y-98149901D01*
X102309901Y-98242993D01*
X102244075Y-98357007D01*
X102227037Y-98420591D01*
X101636819Y-97830373D01*
X101603334Y-97769050D01*
X101600500Y-97742692D01*
X101600500Y-96821886D01*
X101620185Y-96754847D01*
X101672989Y-96709092D01*
X101742147Y-96699148D01*
X101805703Y-96728173D01*
G37*
%TD.AperFunction*%
%TA.AperFunction,Conductor*%
G36*
X121561917Y-96732959D02*
G01*
X121596277Y-96793796D01*
X121599500Y-96821886D01*
X121599500Y-97742692D01*
X121579815Y-97809731D01*
X121563181Y-97830373D01*
X120972962Y-98420591D01*
X120955925Y-98357007D01*
X120890099Y-98242993D01*
X120797007Y-98149901D01*
X120682993Y-98084075D01*
X120619409Y-98067037D01*
X121251716Y-97434728D01*
X121197550Y-97395375D01*
X121008217Y-97298904D01*
X120979292Y-97289506D01*
X120921616Y-97250068D01*
X120894418Y-97185710D01*
X120906333Y-97116863D01*
X120953577Y-97065388D01*
X120961315Y-97061090D01*
X120979524Y-97051812D01*
X121092994Y-96993996D01*
X121239501Y-96887553D01*
X121367553Y-96759501D01*
X121375180Y-96749003D01*
X121430508Y-96706336D01*
X121500121Y-96700355D01*
X121561917Y-96732959D01*
G37*
%TD.AperFunction*%
%TA.AperFunction,Conductor*%
G36*
X106135703Y-91302541D02*
G01*
X106142181Y-91308573D01*
X106534098Y-91700490D01*
X106567583Y-91761813D01*
X106562599Y-91831505D01*
X106520871Y-91887331D01*
X106510000Y-91895493D01*
X106510000Y-92576000D01*
X106490315Y-92643039D01*
X106437511Y-92688794D01*
X106386000Y-92700000D01*
X106134000Y-92700000D01*
X106066961Y-92680315D01*
X106021206Y-92627511D01*
X106010000Y-92576000D01*
X106010000Y-91895493D01*
X105980047Y-91873004D01*
X105938256Y-91817011D01*
X105930500Y-91773844D01*
X105930500Y-91396254D01*
X105950185Y-91329215D01*
X106002989Y-91283460D01*
X106072147Y-91273516D01*
X106135703Y-91302541D01*
G37*
%TD.AperFunction*%
%TA.AperFunction,Conductor*%
G36*
X117444984Y-91620185D02*
G01*
X117490739Y-91672989D01*
X117500683Y-91742147D01*
X117471658Y-91805703D01*
X117452398Y-91823661D01*
X117410000Y-91855494D01*
X117410000Y-92536000D01*
X117390315Y-92603039D01*
X117337511Y-92648794D01*
X117286000Y-92660000D01*
X117034000Y-92660000D01*
X116966961Y-92640315D01*
X116921206Y-92587511D01*
X116910000Y-92536000D01*
X116910000Y-91844934D01*
X116906992Y-91842199D01*
X116903868Y-91830530D01*
X116896642Y-91820849D01*
X116894999Y-91797405D01*
X116888922Y-91774707D01*
X116892162Y-91756926D01*
X116891758Y-91751150D01*
X116894781Y-91739902D01*
X116895281Y-91738337D01*
X116907710Y-91702819D01*
X116908152Y-91698100D01*
X116911793Y-91686720D01*
X116928226Y-91662449D01*
X116942289Y-91636747D01*
X116947584Y-91633860D01*
X116950967Y-91628866D01*
X116977908Y-91617335D01*
X117003640Y-91603312D01*
X117013019Y-91602307D01*
X117015201Y-91601374D01*
X117017741Y-91601801D01*
X117029898Y-91600500D01*
X117377945Y-91600500D01*
X117444984Y-91620185D01*
G37*
%TD.AperFunction*%
%TA.AperFunction,Conductor*%
G36*
X107661093Y-90612496D02*
G01*
X107664280Y-90615571D01*
X107694620Y-90645911D01*
X107694622Y-90645913D01*
X107769189Y-90720480D01*
X107769191Y-90720481D01*
X107769195Y-90720484D01*
X107830962Y-90756145D01*
X107830969Y-90756149D01*
X107860509Y-90773204D01*
X107860510Y-90773205D01*
X107860512Y-90773205D01*
X107860515Y-90773207D01*
X107962376Y-90800501D01*
X107962379Y-90800501D01*
X108075425Y-90800501D01*
X108075441Y-90800500D01*
X108582745Y-90800500D01*
X108649784Y-90820185D01*
X108670426Y-90836819D01*
X109014883Y-91181276D01*
X109221427Y-91387819D01*
X109254912Y-91449142D01*
X109249928Y-91518833D01*
X109208057Y-91574767D01*
X109142592Y-91599184D01*
X109133746Y-91599500D01*
X108417255Y-91599500D01*
X108350216Y-91579815D01*
X108329574Y-91563181D01*
X108045915Y-91279522D01*
X108045913Y-91279520D01*
X108000250Y-91253156D01*
X107954589Y-91226793D01*
X107903657Y-91213146D01*
X107852727Y-91199500D01*
X107852726Y-91199500D01*
X107817255Y-91199500D01*
X107788373Y-91191019D01*
X107758896Y-91184908D01*
X107755192Y-91181276D01*
X107750216Y-91179815D01*
X107729574Y-91163181D01*
X107389560Y-90823167D01*
X107356075Y-90761844D01*
X107361059Y-90692152D01*
X107402931Y-90636219D01*
X107461059Y-90612546D01*
X107476447Y-90610520D01*
X107529144Y-90588692D01*
X107598614Y-90581222D01*
X107661093Y-90612496D01*
G37*
%TD.AperFunction*%
%TA.AperFunction,Conductor*%
G36*
X120399914Y-69240184D02*
G01*
X120445669Y-69292988D01*
X120455613Y-69362146D01*
X120426588Y-69425702D01*
X120367810Y-69463476D01*
X120352273Y-69466972D01*
X120220589Y-69487829D01*
X120048363Y-69543787D01*
X120048360Y-69543788D01*
X119887002Y-69626006D01*
X119755755Y-69721361D01*
X119755747Y-69721368D01*
X119740499Y-69732447D01*
X119612447Y-69860499D01*
X119601370Y-69875744D01*
X119601361Y-69875754D01*
X119506005Y-70007003D01*
X119423788Y-70168360D01*
X119423787Y-70168363D01*
X119367829Y-70340589D01*
X119339500Y-70519448D01*
X119339500Y-70700551D01*
X119367829Y-70879410D01*
X119423787Y-71051636D01*
X119423788Y-71051639D01*
X119506006Y-71212997D01*
X119612441Y-71359494D01*
X119612445Y-71359499D01*
X119740500Y-71487554D01*
X119740505Y-71487558D01*
X119864803Y-71577865D01*
X119887006Y-71593996D01*
X119988780Y-71645853D01*
X120018684Y-71661090D01*
X120069480Y-71709065D01*
X120086275Y-71776886D01*
X120063737Y-71843021D01*
X120009022Y-71886472D01*
X120000708Y-71889506D01*
X119971781Y-71898905D01*
X119782439Y-71995380D01*
X119728282Y-72034727D01*
X119728282Y-72034728D01*
X120360591Y-72667037D01*
X120297007Y-72684075D01*
X120182993Y-72749901D01*
X120089901Y-72842993D01*
X120024075Y-72957007D01*
X120007037Y-73020591D01*
X119374728Y-72388282D01*
X119374727Y-72388282D01*
X119335380Y-72442439D01*
X119238904Y-72631782D01*
X119173242Y-72833869D01*
X119173242Y-72833872D01*
X119140000Y-73043753D01*
X119140000Y-73256246D01*
X119173242Y-73466127D01*
X119173242Y-73466130D01*
X119238904Y-73668217D01*
X119335375Y-73857550D01*
X119374728Y-73911716D01*
X120007037Y-73279408D01*
X120024075Y-73342993D01*
X120089901Y-73457007D01*
X120182993Y-73550099D01*
X120297007Y-73615925D01*
X120360590Y-73632962D01*
X119728282Y-74265269D01*
X119728282Y-74265270D01*
X119782449Y-74304624D01*
X119971780Y-74401094D01*
X120000705Y-74410492D01*
X120058381Y-74449929D01*
X120085580Y-74514287D01*
X120073667Y-74583134D01*
X120026424Y-74634610D01*
X120018685Y-74638908D01*
X119887004Y-74706004D01*
X119740505Y-74812441D01*
X119740500Y-74812445D01*
X119612445Y-74940500D01*
X119612441Y-74940505D01*
X119506006Y-75087002D01*
X119423788Y-75248360D01*
X119423787Y-75248363D01*
X119367829Y-75420589D01*
X119339500Y-75599448D01*
X119339500Y-75780551D01*
X119367829Y-75959410D01*
X119423787Y-76131636D01*
X119423788Y-76131639D01*
X119506006Y-76292997D01*
X119612441Y-76439494D01*
X119612445Y-76439499D01*
X119740500Y-76567554D01*
X119740505Y-76567558D01*
X119795198Y-76607294D01*
X119887006Y-76673996D01*
X119959116Y-76710738D01*
X120048360Y-76756211D01*
X120048363Y-76756212D01*
X120134476Y-76784191D01*
X120220591Y-76812171D01*
X120293639Y-76823740D01*
X120380678Y-76837527D01*
X120443813Y-76867456D01*
X120480744Y-76926768D01*
X120479746Y-76996631D01*
X120441136Y-77054863D01*
X120380678Y-77082473D01*
X120220589Y-77107829D01*
X120048363Y-77163787D01*
X120048360Y-77163788D01*
X119887002Y-77246006D01*
X119740505Y-77352441D01*
X119740500Y-77352445D01*
X119612445Y-77480500D01*
X119612441Y-77480505D01*
X119506006Y-77627002D01*
X119423788Y-77788360D01*
X119423787Y-77788363D01*
X119367829Y-77960589D01*
X119339500Y-78139448D01*
X119339500Y-78320551D01*
X119367829Y-78499410D01*
X119414575Y-78643281D01*
X119416570Y-78713122D01*
X119384325Y-78769280D01*
X118079522Y-80074084D01*
X118079520Y-80074087D01*
X118026793Y-80165410D01*
X118017391Y-80200500D01*
X118005096Y-80246390D01*
X118002899Y-80254588D01*
X118002898Y-80254591D01*
X117999500Y-80267269D01*
X117999500Y-83705645D01*
X117979815Y-83772684D01*
X117963181Y-83793326D01*
X117578522Y-84177984D01*
X117578520Y-84177987D01*
X117525793Y-84269310D01*
X117498500Y-84371173D01*
X117498500Y-90675500D01*
X117478815Y-90742539D01*
X117426011Y-90788294D01*
X117374500Y-90799500D01*
X117188614Y-90799500D01*
X117121575Y-90779815D01*
X117111017Y-90770000D01*
X115431362Y-90770000D01*
X115364323Y-90750315D01*
X115363932Y-90750000D01*
X114681655Y-90750000D01*
X114656764Y-90747476D01*
X114648584Y-90745799D01*
X114552819Y-90712290D01*
X114523066Y-90709500D01*
X114471427Y-90709500D01*
X114459109Y-90706976D01*
X114438903Y-90696258D01*
X114416961Y-90689815D01*
X114408628Y-90680198D01*
X114397386Y-90674235D01*
X114386181Y-90654293D01*
X114371206Y-90637011D01*
X114367879Y-90621719D01*
X114363161Y-90613322D01*
X114363781Y-90602880D01*
X114360000Y-90585500D01*
X114360000Y-90580000D01*
X114336319Y-90556319D01*
X114302834Y-90494996D01*
X114300000Y-90468638D01*
X114300000Y-90330000D01*
X114174000Y-90330000D01*
X114106961Y-90310315D01*
X114072028Y-90270000D01*
X116550000Y-90270000D01*
X117104504Y-90270000D01*
X117062031Y-90123804D01*
X116979721Y-89984625D01*
X116979714Y-89984616D01*
X116865383Y-89870285D01*
X116865374Y-89870278D01*
X116726195Y-89787968D01*
X116726190Y-89787966D01*
X116570918Y-89742855D01*
X116570912Y-89742854D01*
X116550000Y-89741209D01*
X116550000Y-90270000D01*
X114072028Y-90270000D01*
X114061206Y-90257511D01*
X114059572Y-90250000D01*
X115550000Y-90250000D01*
X116050000Y-90250000D01*
X116050000Y-89741210D01*
X116049999Y-89741209D01*
X116029087Y-89742854D01*
X116029081Y-89742855D01*
X115873809Y-89787966D01*
X115866644Y-89791067D01*
X115865335Y-89788043D01*
X115812124Y-89801462D01*
X115753787Y-89784286D01*
X115726195Y-89767968D01*
X115570909Y-89722854D01*
X115570912Y-89722854D01*
X115550000Y-89721209D01*
X115550000Y-90250000D01*
X114059572Y-90250000D01*
X114050000Y-90206000D01*
X114050000Y-90080000D01*
X114550000Y-90080000D01*
X115050000Y-90080000D01*
X115050000Y-89761217D01*
X114937857Y-89730064D01*
X114936899Y-89729468D01*
X114935771Y-89729465D01*
X114883365Y-89698268D01*
X114865382Y-89680285D01*
X114865374Y-89680278D01*
X114726195Y-89597968D01*
X114726190Y-89597966D01*
X114570918Y-89552855D01*
X114570912Y-89552854D01*
X114550000Y-89551209D01*
X114550000Y-90080000D01*
X114050000Y-90080000D01*
X114050000Y-89565026D01*
X113995703Y-89530461D01*
X113975614Y-89507478D01*
X113953887Y-89486059D01*
X113952845Y-89481429D01*
X113949721Y-89477855D01*
X113945247Y-89447662D01*
X113938549Y-89417894D01*
X113940175Y-89413435D01*
X113939480Y-89408740D01*
X113952039Y-89380922D01*
X113962499Y-89352257D01*
X113967723Y-89346184D01*
X113968231Y-89345060D01*
X113969271Y-89344385D01*
X113974612Y-89338177D01*
X114741715Y-88571074D01*
X115730480Y-87582310D01*
X115783207Y-87490985D01*
X115810500Y-87389124D01*
X115810500Y-87283670D01*
X115810500Y-85237273D01*
X115783207Y-85135413D01*
X115783207Y-85135412D01*
X115730480Y-85044087D01*
X112811819Y-82125426D01*
X112778334Y-82064103D01*
X112775500Y-82037745D01*
X112775500Y-76936060D01*
X112795185Y-76869021D01*
X112810000Y-76851356D01*
X112810000Y-76849930D01*
X113310000Y-76849930D01*
X113345122Y-76847167D01*
X113345128Y-76847166D01*
X113499188Y-76802407D01*
X113499191Y-76802406D01*
X113637285Y-76720738D01*
X113637294Y-76720731D01*
X113750731Y-76607294D01*
X113750738Y-76607285D01*
X113832404Y-76469194D01*
X113872844Y-76330000D01*
X113310000Y-76330000D01*
X113310000Y-76849930D01*
X112810000Y-76849930D01*
X112810000Y-76204000D01*
X112829685Y-76136961D01*
X112882489Y-76091206D01*
X112934000Y-76080000D01*
X113060000Y-76080000D01*
X113060000Y-75954000D01*
X113079685Y-75886961D01*
X113132489Y-75841206D01*
X113184000Y-75830000D01*
X113872844Y-75830000D01*
X113832404Y-75690805D01*
X113750738Y-75552714D01*
X113750734Y-75552709D01*
X113680256Y-75482232D01*
X113672304Y-75467670D01*
X113660339Y-75456183D01*
X113655907Y-75437641D01*
X113646771Y-75420909D01*
X113647819Y-75403798D01*
X113644098Y-75388227D01*
X113650894Y-75353601D01*
X113672893Y-75290732D01*
X113713615Y-75233957D01*
X113778569Y-75208211D01*
X113847130Y-75221668D01*
X113877615Y-75244008D01*
X114463181Y-75829574D01*
X114496666Y-75890897D01*
X114499500Y-75917255D01*
X114499500Y-79099902D01*
X114479815Y-79166941D01*
X114463181Y-79187583D01*
X114419481Y-79231282D01*
X114419475Y-79231290D01*
X114340426Y-79368209D01*
X114340423Y-79368216D01*
X114299500Y-79520943D01*
X114299500Y-79679057D01*
X114335842Y-79814685D01*
X114340423Y-79831783D01*
X114340426Y-79831790D01*
X114419475Y-79968709D01*
X114419479Y-79968714D01*
X114419480Y-79968716D01*
X114531284Y-80080520D01*
X114531286Y-80080521D01*
X114531290Y-80080524D01*
X114625025Y-80134641D01*
X114668216Y-80159577D01*
X114820943Y-80200500D01*
X114820945Y-80200500D01*
X114979055Y-80200500D01*
X114979057Y-80200500D01*
X115131784Y-80159577D01*
X115268716Y-80080520D01*
X115380520Y-79968716D01*
X115459577Y-79831784D01*
X115500500Y-79679057D01*
X115500500Y-79520943D01*
X115459577Y-79368216D01*
X115440789Y-79335674D01*
X115380524Y-79231290D01*
X115380518Y-79231282D01*
X115336819Y-79187583D01*
X115303334Y-79126260D01*
X115300500Y-79099902D01*
X115300500Y-75647273D01*
X115300499Y-75647267D01*
X115296007Y-75630503D01*
X115296006Y-75630501D01*
X115296006Y-75630500D01*
X115273207Y-75545412D01*
X115220480Y-75454087D01*
X114466819Y-74700426D01*
X114452115Y-74673498D01*
X114435523Y-74647680D01*
X114434631Y-74641479D01*
X114433334Y-74639103D01*
X114430500Y-74612745D01*
X114430500Y-74594000D01*
X114450185Y-74526961D01*
X114502989Y-74481206D01*
X114554500Y-74470000D01*
X114580000Y-74470000D01*
X114580000Y-74173917D01*
X114590565Y-74123832D01*
X114627585Y-74039991D01*
X114630500Y-74014865D01*
X114630499Y-73344859D01*
X114650183Y-73277822D01*
X114702987Y-73232067D01*
X114769248Y-73221741D01*
X114970749Y-73245880D01*
X114996336Y-73256844D01*
X115023039Y-73264685D01*
X115028002Y-73270412D01*
X115034971Y-73273399D01*
X115050569Y-73296456D01*
X115068794Y-73317489D01*
X115070688Y-73326196D01*
X115074121Y-73331271D01*
X115074403Y-73343276D01*
X115080000Y-73369000D01*
X115080000Y-74470000D01*
X115177828Y-74470000D01*
X115177844Y-74469999D01*
X115237372Y-74463598D01*
X115237379Y-74463596D01*
X115372086Y-74413354D01*
X115372093Y-74413350D01*
X115487187Y-74327190D01*
X115487190Y-74327187D01*
X115573350Y-74212093D01*
X115573354Y-74212086D01*
X115623596Y-74077379D01*
X115623598Y-74077372D01*
X115629999Y-74017844D01*
X115630000Y-74017827D01*
X115630000Y-73924923D01*
X115649685Y-73857884D01*
X115650000Y-73857530D01*
X115650000Y-73046988D01*
X115659940Y-73064205D01*
X115715795Y-73120060D01*
X115784204Y-73159556D01*
X115860504Y-73180000D01*
X115939496Y-73180000D01*
X116015796Y-73159556D01*
X116084205Y-73120060D01*
X116140060Y-73064205D01*
X116150000Y-73046988D01*
X116150000Y-73849862D01*
X116191690Y-73841569D01*
X116191692Y-73841569D01*
X116373671Y-73766192D01*
X116373684Y-73766185D01*
X116537462Y-73656751D01*
X116537466Y-73656748D01*
X116676748Y-73517466D01*
X116676751Y-73517462D01*
X116786185Y-73353684D01*
X116786192Y-73353671D01*
X116861569Y-73171693D01*
X116861572Y-73171681D01*
X116892800Y-73014690D01*
X116899999Y-72978494D01*
X116900000Y-72978492D01*
X116900000Y-72580000D01*
X116200000Y-72580000D01*
X116200000Y-72080000D01*
X116900000Y-72080000D01*
X116900000Y-71681508D01*
X116899999Y-71681504D01*
X116869405Y-71527691D01*
X116875632Y-71458099D01*
X116918496Y-71402922D01*
X116984386Y-71379678D01*
X116991022Y-71379500D01*
X117633725Y-71379500D01*
X117633727Y-71379500D01*
X117735588Y-71352207D01*
X117826913Y-71299480D01*
X119869574Y-69256817D01*
X119930897Y-69223333D01*
X119957255Y-69220499D01*
X120332875Y-69220499D01*
X120399914Y-69240184D01*
G37*
%TD.AperFunction*%
%TA.AperFunction,Conductor*%
G36*
X106462962Y-67020185D02*
G01*
X106508717Y-67072989D01*
X106518661Y-67142147D01*
X106489636Y-67205703D01*
X106483604Y-67212181D01*
X106483251Y-67212533D01*
X106483248Y-67212537D01*
X106373814Y-67376315D01*
X106373807Y-67376328D01*
X106298430Y-67558306D01*
X106298427Y-67558318D01*
X106260000Y-67751504D01*
X106260000Y-67900000D01*
X106960000Y-67900000D01*
X106960000Y-68400000D01*
X106260000Y-68400000D01*
X106260000Y-68548495D01*
X106298427Y-68741681D01*
X106298430Y-68741693D01*
X106373807Y-68923671D01*
X106373814Y-68923684D01*
X106483248Y-69087462D01*
X106483251Y-69087466D01*
X106622533Y-69226748D01*
X106622537Y-69226751D01*
X106786315Y-69336185D01*
X106786328Y-69336192D01*
X106968308Y-69411569D01*
X107010000Y-69419862D01*
X107010000Y-68616988D01*
X107019940Y-68634205D01*
X107075795Y-68690060D01*
X107144204Y-68729556D01*
X107220504Y-68750000D01*
X107299496Y-68750000D01*
X107375796Y-68729556D01*
X107444205Y-68690060D01*
X107500060Y-68634205D01*
X107510000Y-68616988D01*
X107510000Y-69419862D01*
X107551690Y-69411569D01*
X107551692Y-69411569D01*
X107733671Y-69336192D01*
X107733684Y-69336185D01*
X107897462Y-69226751D01*
X107897466Y-69226748D01*
X108036748Y-69087466D01*
X108036751Y-69087462D01*
X108146185Y-68923684D01*
X108146192Y-68923671D01*
X108221569Y-68741693D01*
X108221572Y-68741681D01*
X108259999Y-68548495D01*
X108260000Y-68548492D01*
X108260000Y-68400000D01*
X107560000Y-68400000D01*
X107560000Y-67900000D01*
X108260000Y-67900000D01*
X108260000Y-67751508D01*
X108259999Y-67751504D01*
X108221572Y-67558318D01*
X108221569Y-67558306D01*
X108146192Y-67376328D01*
X108146185Y-67376315D01*
X108036751Y-67212537D01*
X108036748Y-67212533D01*
X108036396Y-67212181D01*
X108036270Y-67211950D01*
X108032886Y-67207827D01*
X108033668Y-67207185D01*
X108002911Y-67150858D01*
X108007895Y-67081166D01*
X108049767Y-67025233D01*
X108115231Y-67000816D01*
X108124077Y-67000500D01*
X115035923Y-67000500D01*
X115102962Y-67020185D01*
X115148717Y-67072989D01*
X115158661Y-67142147D01*
X115129636Y-67205703D01*
X115123604Y-67212181D01*
X115123251Y-67212533D01*
X115123248Y-67212537D01*
X115013814Y-67376315D01*
X115013807Y-67376328D01*
X114938430Y-67558306D01*
X114938427Y-67558318D01*
X114900000Y-67751504D01*
X114900000Y-67900000D01*
X115600000Y-67900000D01*
X115600000Y-68400000D01*
X114900000Y-68400000D01*
X114900000Y-68548495D01*
X114938427Y-68741681D01*
X114938430Y-68741693D01*
X115013807Y-68923671D01*
X115013814Y-68923684D01*
X115123248Y-69087462D01*
X115123251Y-69087466D01*
X115262533Y-69226748D01*
X115262537Y-69226751D01*
X115426315Y-69336185D01*
X115426328Y-69336192D01*
X115608308Y-69411569D01*
X115650000Y-69419862D01*
X115650000Y-68616988D01*
X115659940Y-68634205D01*
X115715795Y-68690060D01*
X115784204Y-68729556D01*
X115860504Y-68750000D01*
X115939496Y-68750000D01*
X116015796Y-68729556D01*
X116084205Y-68690060D01*
X116140060Y-68634205D01*
X116150000Y-68616988D01*
X116150000Y-69419862D01*
X116191690Y-69411569D01*
X116191692Y-69411569D01*
X116373671Y-69336192D01*
X116373684Y-69336185D01*
X116537462Y-69226751D01*
X116537466Y-69226748D01*
X116676748Y-69087466D01*
X116676751Y-69087462D01*
X116786185Y-68923684D01*
X116786192Y-68923671D01*
X116861569Y-68741693D01*
X116861572Y-68741681D01*
X116899999Y-68548495D01*
X116900000Y-68548492D01*
X116900000Y-68400000D01*
X116200000Y-68400000D01*
X116200000Y-67900000D01*
X116900000Y-67900000D01*
X116900000Y-67751508D01*
X116899999Y-67751504D01*
X116861572Y-67558318D01*
X116861569Y-67558306D01*
X116786192Y-67376328D01*
X116786185Y-67376315D01*
X116676751Y-67212537D01*
X116676748Y-67212533D01*
X116676396Y-67212181D01*
X116676270Y-67211950D01*
X116672886Y-67207827D01*
X116673668Y-67207185D01*
X116642911Y-67150858D01*
X116647895Y-67081166D01*
X116689767Y-67025233D01*
X116755231Y-67000816D01*
X116764077Y-67000500D01*
X119220848Y-67000500D01*
X119287887Y-67020185D01*
X119333642Y-67072989D01*
X119343382Y-67140732D01*
X119343490Y-67140745D01*
X119343442Y-67141151D01*
X119343586Y-67142147D01*
X119342998Y-67144984D01*
X119339500Y-67175131D01*
X119339500Y-68602744D01*
X119319815Y-68669783D01*
X119303181Y-68690425D01*
X117451426Y-70542181D01*
X117390103Y-70575666D01*
X117363745Y-70578500D01*
X114268273Y-70578500D01*
X114166413Y-70605793D01*
X114166410Y-70605794D01*
X114075085Y-70658521D01*
X113352426Y-71381181D01*
X113291103Y-71414666D01*
X113264745Y-71417500D01*
X109579273Y-71417500D01*
X109477410Y-71444793D01*
X109386087Y-71497520D01*
X109386081Y-71497524D01*
X109369629Y-71513976D01*
X109308305Y-71547458D01*
X109238613Y-71542471D01*
X109182682Y-71500597D01*
X109174565Y-71488291D01*
X109174142Y-71487558D01*
X109150515Y-71446635D01*
X109043365Y-71339485D01*
X108973500Y-71299148D01*
X108912136Y-71263719D01*
X108838950Y-71244109D01*
X108765766Y-71224500D01*
X108614234Y-71224500D01*
X108467863Y-71263719D01*
X108336635Y-71339485D01*
X108330189Y-71344432D01*
X108328099Y-71341709D01*
X108280217Y-71367466D01*
X108210558Y-71362043D01*
X108154888Y-71319821D01*
X108149299Y-71310976D01*
X108036751Y-71142537D01*
X108036748Y-71142533D01*
X107897466Y-71003251D01*
X107897462Y-71003248D01*
X107733684Y-70893814D01*
X107733671Y-70893807D01*
X107551691Y-70818429D01*
X107551683Y-70818427D01*
X107510000Y-70810135D01*
X107510000Y-71613011D01*
X107500060Y-71595795D01*
X107444205Y-71539940D01*
X107375796Y-71500444D01*
X107299496Y-71480000D01*
X107220504Y-71480000D01*
X107144204Y-71500444D01*
X107075795Y-71539940D01*
X107019940Y-71595795D01*
X107010000Y-71613011D01*
X107010000Y-70810136D01*
X107009999Y-70810135D01*
X106968316Y-70818427D01*
X106968308Y-70818429D01*
X106786328Y-70893807D01*
X106786315Y-70893814D01*
X106622537Y-71003248D01*
X106622533Y-71003251D01*
X106483251Y-71142533D01*
X106483248Y-71142537D01*
X106373814Y-71306315D01*
X106373807Y-71306328D01*
X106298430Y-71488306D01*
X106298427Y-71488318D01*
X106260000Y-71681504D01*
X106260000Y-72080000D01*
X106960000Y-72080000D01*
X106960000Y-72580000D01*
X106260000Y-72580000D01*
X106260000Y-72978495D01*
X106298427Y-73171681D01*
X106298430Y-73171693D01*
X106373807Y-73353671D01*
X106373814Y-73353684D01*
X106483248Y-73517462D01*
X106483251Y-73517466D01*
X106622533Y-73656748D01*
X106622537Y-73656751D01*
X106786315Y-73766185D01*
X106786328Y-73766192D01*
X106968308Y-73841569D01*
X107010000Y-73849862D01*
X107010000Y-73046988D01*
X107019940Y-73064205D01*
X107075795Y-73120060D01*
X107144204Y-73159556D01*
X107220504Y-73180000D01*
X107299496Y-73180000D01*
X107375796Y-73159556D01*
X107444205Y-73120060D01*
X107500060Y-73064205D01*
X107539556Y-72995796D01*
X107539769Y-72995000D01*
X108206000Y-72995000D01*
X108273039Y-73014685D01*
X108318794Y-73067489D01*
X108330000Y-73119000D01*
X108330000Y-73245000D01*
X108405501Y-73245000D01*
X108472540Y-73264685D01*
X108518295Y-73317489D01*
X108529501Y-73369000D01*
X108529501Y-74014856D01*
X108529502Y-74014882D01*
X108532413Y-74039987D01*
X108532414Y-74039988D01*
X108532414Y-74039990D01*
X108532415Y-74039991D01*
X108569434Y-74123832D01*
X108580000Y-74173917D01*
X108580000Y-74474240D01*
X108576354Y-74486654D01*
X108577389Y-74499550D01*
X108566699Y-74519534D01*
X108560315Y-74541279D01*
X108549775Y-74551177D01*
X108544436Y-74561160D01*
X108526505Y-74573031D01*
X108516365Y-74582555D01*
X108509161Y-74586569D01*
X108405025Y-74627636D01*
X108320604Y-74691654D01*
X108312985Y-74695901D01*
X108287069Y-74701773D01*
X108262233Y-74711213D01*
X108253523Y-74709374D01*
X108244843Y-74711342D01*
X108219870Y-74702272D01*
X108193869Y-74696785D01*
X108187042Y-74690349D01*
X108179170Y-74687491D01*
X108166824Y-74671292D01*
X108147082Y-74652684D01*
X108137573Y-74637268D01*
X108112833Y-74612528D01*
X108079348Y-74551205D01*
X108081482Y-74521362D01*
X108080000Y-74521362D01*
X108080000Y-73495000D01*
X107510000Y-73495000D01*
X107510000Y-73866262D01*
X107523999Y-73886813D01*
X107530000Y-73924923D01*
X107530000Y-74017844D01*
X107536401Y-74077372D01*
X107536403Y-74077379D01*
X107586645Y-74212086D01*
X107586647Y-74212090D01*
X107589158Y-74215444D01*
X107590620Y-74219365D01*
X107590897Y-74219872D01*
X107590824Y-74219911D01*
X107613571Y-74280910D01*
X107598716Y-74349182D01*
X107590000Y-74360824D01*
X107590000Y-76314999D01*
X107613308Y-76314999D01*
X107613322Y-76314998D01*
X107712607Y-76304855D01*
X107873481Y-76251547D01*
X107873492Y-76251542D01*
X108017728Y-76162575D01*
X108017732Y-76162572D01*
X108137573Y-76042731D01*
X108147081Y-76027317D01*
X108152476Y-76022463D01*
X108155177Y-76015726D01*
X108178108Y-75999408D01*
X108199029Y-75980592D01*
X108206191Y-75979426D01*
X108212106Y-75975218D01*
X108240215Y-75973889D01*
X108267991Y-75969369D01*
X108276359Y-75972180D01*
X108281897Y-75971919D01*
X108297145Y-75979164D01*
X108314658Y-75985048D01*
X108321372Y-75988927D01*
X108405025Y-76052364D01*
X108487321Y-76084817D01*
X108495300Y-76089428D01*
X108513299Y-76108318D01*
X108533896Y-76124344D01*
X108537015Y-76133208D01*
X108543498Y-76140012D01*
X108548427Y-76165637D01*
X108557089Y-76190252D01*
X108554920Y-76199395D01*
X108556696Y-76208624D01*
X108546988Y-76232847D01*
X108540968Y-76258237D01*
X108533033Y-76270426D01*
X108467207Y-76359618D01*
X108467206Y-76359619D01*
X108422353Y-76487798D01*
X108422353Y-76487800D01*
X108419500Y-76518230D01*
X108419500Y-77673878D01*
X108399815Y-77740917D01*
X108347011Y-77786672D01*
X108331722Y-77789371D01*
X108320000Y-77800203D01*
X108320000Y-78785000D01*
X108870000Y-78785000D01*
X108870000Y-78381865D01*
X108869999Y-78381850D01*
X108867100Y-78345008D01*
X108866967Y-78344280D01*
X108867010Y-78343868D01*
X108866603Y-78338692D01*
X108867563Y-78338616D01*
X108874286Y-78274795D01*
X108918009Y-78220297D01*
X108984255Y-78198089D01*
X108988949Y-78198000D01*
X109224265Y-78198000D01*
X109224266Y-78198000D01*
X109244532Y-78196099D01*
X109313116Y-78209436D01*
X109363603Y-78257737D01*
X109379962Y-78325664D01*
X109373158Y-78360500D01*
X109372354Y-78362798D01*
X109372353Y-78362800D01*
X109369500Y-78393230D01*
X109369500Y-79676769D01*
X109372353Y-79707199D01*
X109372353Y-79707201D01*
X109416656Y-79833807D01*
X109417207Y-79835382D01*
X109459321Y-79892445D01*
X109494810Y-79940531D01*
X109518780Y-80006160D01*
X109503464Y-80074330D01*
X109453724Y-80123398D01*
X109425441Y-80134379D01*
X109424423Y-80134636D01*
X109290023Y-80187636D01*
X109212545Y-80246390D01*
X109147233Y-80271213D01*
X109078869Y-80256785D01*
X109032082Y-80212684D01*
X109022573Y-80197268D01*
X108902731Y-80077426D01*
X108862262Y-80052465D01*
X108815537Y-80000517D01*
X108804314Y-79931555D01*
X108818513Y-79889995D01*
X108818185Y-79889854D01*
X108819973Y-79885721D01*
X108820632Y-79883794D01*
X108821284Y-79882690D01*
X108867099Y-79724995D01*
X108867100Y-79724989D01*
X108869999Y-79688149D01*
X108870000Y-79688134D01*
X108870000Y-79285000D01*
X108320000Y-79285000D01*
X108320000Y-79795000D01*
X108351000Y-79795000D01*
X108418039Y-79814685D01*
X108463794Y-79867489D01*
X108475000Y-79919000D01*
X108475000Y-81874999D01*
X108498308Y-81874999D01*
X108498322Y-81874998D01*
X108597607Y-81864855D01*
X108758481Y-81811547D01*
X108758492Y-81811542D01*
X108902728Y-81722575D01*
X108902732Y-81722572D01*
X109022573Y-81602731D01*
X109032081Y-81587317D01*
X109084029Y-81540592D01*
X109152991Y-81529369D01*
X109212544Y-81553608D01*
X109290025Y-81612364D01*
X109424410Y-81665359D01*
X109508856Y-81675500D01*
X109957745Y-81675500D01*
X110024784Y-81695185D01*
X110045426Y-81711819D01*
X112063181Y-83729574D01*
X112096666Y-83790897D01*
X112099500Y-83817255D01*
X112099500Y-84282745D01*
X112079815Y-84349784D01*
X112063181Y-84370426D01*
X110268522Y-86165084D01*
X110268518Y-86165090D01*
X110215792Y-86256412D01*
X110215793Y-86256413D01*
X110188500Y-86358273D01*
X110188500Y-86565500D01*
X110168815Y-86632539D01*
X110116011Y-86678294D01*
X110064500Y-86689500D01*
X109806930Y-86689500D01*
X109777181Y-86692289D01*
X109777180Y-86692289D01*
X109754571Y-86700201D01*
X109684793Y-86703762D01*
X109625936Y-86670839D01*
X109575383Y-86620285D01*
X109575374Y-86620278D01*
X109436196Y-86537969D01*
X109280909Y-86492854D01*
X109244644Y-86490000D01*
X109224500Y-86490000D01*
X109157461Y-86470315D01*
X109111706Y-86417511D01*
X109100500Y-86366000D01*
X109100500Y-86220945D01*
X109100500Y-86220943D01*
X109059577Y-86068216D01*
X109008369Y-85979520D01*
X108980524Y-85931290D01*
X108980518Y-85931282D01*
X108868717Y-85819481D01*
X108868709Y-85819475D01*
X108731790Y-85740426D01*
X108731786Y-85740424D01*
X108731784Y-85740423D01*
X108579057Y-85699500D01*
X108420943Y-85699500D01*
X108268216Y-85740423D01*
X108268209Y-85740426D01*
X108131290Y-85819475D01*
X108131282Y-85819481D01*
X108087583Y-85863181D01*
X108026260Y-85896666D01*
X107999902Y-85899500D01*
X107660339Y-85899500D01*
X107660323Y-85899499D01*
X107652727Y-85899499D01*
X107547273Y-85899499D01*
X107479366Y-85917695D01*
X107445412Y-85926793D01*
X107354084Y-85979522D01*
X107279518Y-86054089D01*
X106649521Y-86684084D01*
X106625692Y-86725354D01*
X106591944Y-86763117D01*
X106523578Y-86813576D01*
X106445618Y-86919207D01*
X106402258Y-87043118D01*
X106402258Y-87043120D01*
X106399500Y-87072538D01*
X106399500Y-87547453D01*
X106402258Y-87576874D01*
X106402260Y-87576884D01*
X106441641Y-87689427D01*
X106445619Y-87700794D01*
X106509244Y-87787002D01*
X106517372Y-87798015D01*
X106524828Y-87818429D01*
X106536579Y-87836714D01*
X106539871Y-87859616D01*
X106541343Y-87863644D01*
X106541602Y-87871649D01*
X106541602Y-87964880D01*
X106521917Y-88031919D01*
X106469113Y-88077674D01*
X106454214Y-88083352D01*
X106449593Y-88084779D01*
X106445257Y-88086900D01*
X106390796Y-88099500D01*
X106356477Y-88099500D01*
X106254617Y-88126793D01*
X106254614Y-88126794D01*
X106215287Y-88149500D01*
X106167342Y-88177181D01*
X106164541Y-88178798D01*
X106163287Y-88179522D01*
X105787231Y-88555579D01*
X105768185Y-88565978D01*
X105751887Y-88580312D01*
X105738123Y-88582393D01*
X105725908Y-88589064D01*
X105704262Y-88587515D01*
X105682803Y-88590762D01*
X105670099Y-88585072D01*
X105656216Y-88584080D01*
X105638843Y-88571074D01*
X105619036Y-88562204D01*
X105611424Y-88550548D01*
X105600283Y-88542208D01*
X105592699Y-88521876D01*
X105580832Y-88503704D01*
X105577501Y-88481130D01*
X105575866Y-88476744D01*
X105575553Y-88468807D01*
X105575550Y-88468397D01*
X105575550Y-88347216D01*
X105574636Y-88343806D01*
X105574553Y-88332403D01*
X105574598Y-88332242D01*
X105574550Y-88331494D01*
X105574550Y-88118312D01*
X105594235Y-88051273D01*
X105610869Y-88030631D01*
X105619963Y-88021537D01*
X105694530Y-87946970D01*
X105747257Y-87855644D01*
X105749217Y-87848330D01*
X105761940Y-87800844D01*
X105794030Y-87745261D01*
X106020480Y-87518813D01*
X106073207Y-87427488D01*
X106100500Y-87325627D01*
X106100500Y-87220173D01*
X106100500Y-81198322D01*
X107275001Y-81198322D01*
X107285144Y-81297607D01*
X107338452Y-81458481D01*
X107338457Y-81458492D01*
X107427424Y-81602728D01*
X107427427Y-81602732D01*
X107547267Y-81722572D01*
X107547271Y-81722575D01*
X107691507Y-81811542D01*
X107691518Y-81811547D01*
X107852393Y-81864855D01*
X107951683Y-81874999D01*
X107975000Y-81874998D01*
X107975000Y-81150000D01*
X107275001Y-81150000D01*
X107275001Y-81198322D01*
X106100500Y-81198322D01*
X106100500Y-80047273D01*
X106073207Y-79945413D01*
X106020480Y-79854087D01*
X105945913Y-79779520D01*
X105854542Y-79688149D01*
X107270000Y-79688149D01*
X107272899Y-79724989D01*
X107272900Y-79724995D01*
X107318716Y-79882693D01*
X107318717Y-79882696D01*
X107402314Y-80024052D01*
X107402321Y-80024061D01*
X107414792Y-80036532D01*
X107448277Y-80097855D01*
X107443293Y-80167547D01*
X107430327Y-80190571D01*
X107431218Y-80191121D01*
X107338457Y-80341507D01*
X107338452Y-80341518D01*
X107285144Y-80502393D01*
X107275000Y-80601677D01*
X107275000Y-80650000D01*
X107975000Y-80650000D01*
X107975000Y-80402500D01*
X107944000Y-80402500D01*
X107876961Y-80382815D01*
X107831206Y-80330011D01*
X107820000Y-80278500D01*
X107820000Y-79285000D01*
X107270000Y-79285000D01*
X107270000Y-79688149D01*
X105854542Y-79688149D01*
X104548243Y-78381850D01*
X107270000Y-78381850D01*
X107270000Y-78785000D01*
X107820000Y-78785000D01*
X107820000Y-77800203D01*
X107817503Y-77800400D01*
X107659806Y-77846216D01*
X107659803Y-77846217D01*
X107518447Y-77929814D01*
X107518438Y-77929821D01*
X107402321Y-78045938D01*
X107402314Y-78045947D01*
X107318717Y-78187303D01*
X107318716Y-78187306D01*
X107272900Y-78345004D01*
X107272899Y-78345010D01*
X107270000Y-78381850D01*
X104548243Y-78381850D01*
X104075913Y-77909520D01*
X104006301Y-77869329D01*
X103984589Y-77856793D01*
X103933657Y-77843146D01*
X103882727Y-77829500D01*
X103882726Y-77829500D01*
X103873160Y-77829500D01*
X103806121Y-77809815D01*
X103762675Y-77761795D01*
X103752037Y-77740917D01*
X103693996Y-77627006D01*
X103631401Y-77540851D01*
X103587558Y-77480505D01*
X103587554Y-77480500D01*
X103459499Y-77352445D01*
X103459494Y-77352441D01*
X103312997Y-77246006D01*
X103312996Y-77246005D01*
X103312994Y-77246004D01*
X103261300Y-77219664D01*
X103151639Y-77163788D01*
X103151636Y-77163787D01*
X102979410Y-77107829D01*
X102819321Y-77082473D01*
X102756186Y-77052544D01*
X102719255Y-76993232D01*
X102720253Y-76923370D01*
X102758863Y-76865137D01*
X102819321Y-76837527D01*
X102889425Y-76826422D01*
X102979409Y-76812171D01*
X103151639Y-76756211D01*
X103312994Y-76673996D01*
X103459501Y-76567553D01*
X103587553Y-76439501D01*
X103693996Y-76292994D01*
X103776211Y-76131639D01*
X103832171Y-75959409D01*
X103849504Y-75849975D01*
X103860500Y-75780551D01*
X103860500Y-75638322D01*
X106390001Y-75638322D01*
X106400144Y-75737607D01*
X106453452Y-75898481D01*
X106453457Y-75898492D01*
X106542424Y-76042728D01*
X106542427Y-76042732D01*
X106662267Y-76162572D01*
X106662271Y-76162575D01*
X106806507Y-76251542D01*
X106806518Y-76251547D01*
X106967393Y-76304855D01*
X107066683Y-76314999D01*
X107090000Y-76314998D01*
X107090000Y-75590000D01*
X106390001Y-75590000D01*
X106390001Y-75638322D01*
X103860500Y-75638322D01*
X103860500Y-75599448D01*
X103853941Y-75558036D01*
X103832171Y-75420589D01*
X103776212Y-75248363D01*
X103776211Y-75248360D01*
X103697979Y-75094823D01*
X103697978Y-75094821D01*
X103693995Y-75087004D01*
X103661063Y-75041677D01*
X106390000Y-75041677D01*
X106390000Y-75090000D01*
X107090000Y-75090000D01*
X107090000Y-74364999D01*
X107066693Y-74365000D01*
X107066674Y-74365001D01*
X106967392Y-74375144D01*
X106806518Y-74428452D01*
X106806507Y-74428457D01*
X106662271Y-74517424D01*
X106662267Y-74517427D01*
X106542427Y-74637267D01*
X106542424Y-74637271D01*
X106453457Y-74781507D01*
X106453452Y-74781518D01*
X106400144Y-74942393D01*
X106390000Y-75041677D01*
X103661063Y-75041677D01*
X103587558Y-74940505D01*
X103587554Y-74940500D01*
X103459499Y-74812445D01*
X103459494Y-74812441D01*
X103312995Y-74706004D01*
X103181314Y-74638908D01*
X103130519Y-74590934D01*
X103113724Y-74523113D01*
X103136262Y-74456978D01*
X103190977Y-74413527D01*
X103199295Y-74410492D01*
X103228217Y-74401095D01*
X103417554Y-74304622D01*
X103471716Y-74265270D01*
X103471717Y-74265270D01*
X102839408Y-73632962D01*
X102902993Y-73615925D01*
X103017007Y-73550099D01*
X103110099Y-73457007D01*
X103175925Y-73342993D01*
X103192962Y-73279409D01*
X103825270Y-73911717D01*
X103825270Y-73911716D01*
X103864622Y-73857554D01*
X103961095Y-73668217D01*
X104026757Y-73466130D01*
X104026757Y-73466127D01*
X104060000Y-73256246D01*
X104060000Y-73043753D01*
X104026757Y-72833872D01*
X104026757Y-72833869D01*
X103961094Y-72631780D01*
X103937225Y-72584934D01*
X103937224Y-72584933D01*
X103864624Y-72442449D01*
X103825270Y-72388282D01*
X103825269Y-72388282D01*
X103192962Y-73020590D01*
X103175925Y-72957007D01*
X103110099Y-72842993D01*
X103017007Y-72749901D01*
X102902993Y-72684075D01*
X102839409Y-72667037D01*
X103471716Y-72034728D01*
X103417550Y-71995375D01*
X103228217Y-71898904D01*
X103199292Y-71889506D01*
X103182653Y-71878129D01*
X103163735Y-71871167D01*
X103154399Y-71858808D01*
X103141616Y-71850068D01*
X103133769Y-71831500D01*
X103121619Y-71815417D01*
X103120446Y-71799975D01*
X103114418Y-71785710D01*
X103117855Y-71765848D01*
X103116329Y-71745748D01*
X103123692Y-71732121D01*
X103126333Y-71716863D01*
X103139961Y-71702013D01*
X103149545Y-71684279D01*
X103169823Y-71669477D01*
X103173577Y-71665388D01*
X103177707Y-71663004D01*
X103179492Y-71662018D01*
X103312994Y-71593996D01*
X103345239Y-71570568D01*
X103345242Y-71570567D01*
X103445777Y-71497524D01*
X103459501Y-71487553D01*
X103587553Y-71359501D01*
X103693996Y-71212994D01*
X103776211Y-71051639D01*
X103832171Y-70879409D01*
X103846765Y-70787259D01*
X103860500Y-70700551D01*
X103860500Y-70519448D01*
X103844019Y-70415397D01*
X103832171Y-70340591D01*
X103776211Y-70168361D01*
X103776211Y-70168360D01*
X103747740Y-70112484D01*
X103693996Y-70007006D01*
X103631401Y-69920851D01*
X103587558Y-69860505D01*
X103587554Y-69860500D01*
X103459499Y-69732445D01*
X103459494Y-69732441D01*
X103312997Y-69626006D01*
X103312996Y-69626005D01*
X103312994Y-69626004D01*
X103261300Y-69599664D01*
X103151639Y-69543788D01*
X103151636Y-69543787D01*
X102979410Y-69487829D01*
X102847728Y-69466972D01*
X102784594Y-69437042D01*
X102747663Y-69377731D01*
X102748661Y-69307868D01*
X102787271Y-69249636D01*
X102851235Y-69221522D01*
X102867120Y-69220499D01*
X103604864Y-69220499D01*
X103604879Y-69220497D01*
X103604882Y-69220497D01*
X103629987Y-69217586D01*
X103629988Y-69217585D01*
X103629991Y-69217585D01*
X103732765Y-69172206D01*
X103812206Y-69092765D01*
X103857585Y-68989991D01*
X103860500Y-68964865D01*
X103860499Y-67900000D01*
X103860499Y-67175143D01*
X103860499Y-67175136D01*
X103860497Y-67175117D01*
X103856511Y-67140742D01*
X103859837Y-67140356D01*
X103860891Y-67087214D01*
X103899823Y-67029196D01*
X103963941Y-67001436D01*
X103979152Y-67000500D01*
X106395923Y-67000500D01*
X106462962Y-67020185D01*
G37*
%TD.AperFunction*%
%TA.AperFunction,Conductor*%
G36*
X120024075Y-86042993D02*
G01*
X120089901Y-86157007D01*
X120182993Y-86250099D01*
X120297007Y-86315925D01*
X120360590Y-86332962D01*
X119728282Y-86965269D01*
X119728282Y-86965270D01*
X119782449Y-87004624D01*
X119971780Y-87101094D01*
X120000705Y-87110492D01*
X120058381Y-87149929D01*
X120085580Y-87214287D01*
X120073667Y-87283134D01*
X120026424Y-87334610D01*
X120018685Y-87338908D01*
X119887004Y-87406004D01*
X119740505Y-87512441D01*
X119740500Y-87512445D01*
X119612445Y-87640500D01*
X119612441Y-87640505D01*
X119506006Y-87787002D01*
X119423788Y-87948360D01*
X119423787Y-87948363D01*
X119367829Y-88120589D01*
X119346973Y-88252266D01*
X119317044Y-88315401D01*
X119257732Y-88352332D01*
X119187869Y-88351334D01*
X119129637Y-88312724D01*
X119101523Y-88248760D01*
X119100500Y-88232868D01*
X119100500Y-86613079D01*
X119120185Y-86546040D01*
X119172989Y-86500285D01*
X119242147Y-86490341D01*
X119305703Y-86519366D01*
X119332493Y-86553601D01*
X119332829Y-86553396D01*
X119334622Y-86556322D01*
X119334986Y-86556787D01*
X119335373Y-86557548D01*
X119374728Y-86611716D01*
X120007037Y-85979408D01*
X120024075Y-86042993D01*
G37*
%TD.AperFunction*%
%TA.AperFunction,Conductor*%
G36*
X103839341Y-86625788D02*
G01*
X103855143Y-86629107D01*
X103904902Y-86678156D01*
X103920500Y-86738364D01*
X103920500Y-87717128D01*
X103900815Y-87784167D01*
X103848011Y-87829922D01*
X103778853Y-87839866D01*
X103715297Y-87810841D01*
X103696182Y-87790013D01*
X103587558Y-87640505D01*
X103587554Y-87640500D01*
X103459499Y-87512445D01*
X103459494Y-87512441D01*
X103312995Y-87406004D01*
X103181314Y-87338908D01*
X103130519Y-87290934D01*
X103113724Y-87223113D01*
X103136262Y-87156978D01*
X103190977Y-87113527D01*
X103199295Y-87110492D01*
X103228217Y-87101095D01*
X103417554Y-87004622D01*
X103471716Y-86965270D01*
X103471717Y-86965270D01*
X102839408Y-86332962D01*
X102902993Y-86315925D01*
X103017007Y-86250099D01*
X103110099Y-86157007D01*
X103175925Y-86042993D01*
X103192962Y-85979409D01*
X103839341Y-86625788D01*
G37*
%TD.AperFunction*%
%TA.AperFunction,Conductor*%
G36*
X121563181Y-86569627D02*
G01*
X121596666Y-86630950D01*
X121599500Y-86657308D01*
X121599500Y-87578113D01*
X121579815Y-87645152D01*
X121527011Y-87690907D01*
X121457853Y-87700851D01*
X121394297Y-87671826D01*
X121375182Y-87650998D01*
X121367558Y-87640505D01*
X121367554Y-87640500D01*
X121239499Y-87512445D01*
X121239494Y-87512441D01*
X121092995Y-87406004D01*
X120961314Y-87338908D01*
X120910519Y-87290934D01*
X120893724Y-87223113D01*
X120916262Y-87156978D01*
X120970977Y-87113527D01*
X120979295Y-87110492D01*
X121008217Y-87101095D01*
X121197554Y-87004622D01*
X121251716Y-86965270D01*
X121251717Y-86965270D01*
X120619408Y-86332962D01*
X120682993Y-86315925D01*
X120797007Y-86250099D01*
X120890099Y-86157007D01*
X120955925Y-86042993D01*
X120972962Y-85979408D01*
X121563181Y-86569627D01*
G37*
%TD.AperFunction*%
%TA.AperFunction,Conductor*%
G36*
X102244075Y-86042993D02*
G01*
X102309901Y-86157007D01*
X102402993Y-86250099D01*
X102517007Y-86315925D01*
X102580590Y-86332962D01*
X101948282Y-86965269D01*
X101948282Y-86965270D01*
X102002449Y-87004624D01*
X102191780Y-87101094D01*
X102220705Y-87110492D01*
X102278381Y-87149929D01*
X102305580Y-87214287D01*
X102293667Y-87283134D01*
X102246424Y-87334610D01*
X102238685Y-87338908D01*
X102107004Y-87406004D01*
X101960505Y-87512441D01*
X101960500Y-87512445D01*
X101832445Y-87640500D01*
X101832441Y-87640505D01*
X101824818Y-87650998D01*
X101769488Y-87693664D01*
X101699875Y-87699643D01*
X101638080Y-87667037D01*
X101603723Y-87606199D01*
X101600500Y-87578113D01*
X101600500Y-86657308D01*
X101620185Y-86590269D01*
X101636819Y-86569627D01*
X102227037Y-85979408D01*
X102244075Y-86042993D01*
G37*
%TD.AperFunction*%
%TA.AperFunction,Conductor*%
G36*
X113018532Y-84686165D02*
G01*
X113029563Y-84695956D01*
X113469020Y-85135413D01*
X113765238Y-85431630D01*
X113798723Y-85492953D01*
X113793739Y-85562644D01*
X113761728Y-85610367D01*
X113750000Y-85621208D01*
X113750000Y-86276000D01*
X113730315Y-86343039D01*
X113677511Y-86388794D01*
X113626000Y-86400000D01*
X113500000Y-86400000D01*
X113500000Y-86526000D01*
X113480315Y-86593039D01*
X113427511Y-86638794D01*
X113376000Y-86650000D01*
X112671606Y-86650000D01*
X112669938Y-86651245D01*
X112659154Y-86652748D01*
X112650000Y-86661210D01*
X112650000Y-87316000D01*
X112630315Y-87383039D01*
X112577511Y-87428794D01*
X112526000Y-87440000D01*
X112400000Y-87440000D01*
X112400000Y-87566000D01*
X112380315Y-87633039D01*
X112327511Y-87678794D01*
X112276000Y-87690000D01*
X111531362Y-87690000D01*
X111519457Y-87689427D01*
X111312095Y-87669427D01*
X111284982Y-87658543D01*
X111256961Y-87650315D01*
X111252947Y-87645683D01*
X111247255Y-87643398D01*
X111230327Y-87619577D01*
X111211206Y-87597511D01*
X111209688Y-87590536D01*
X111206781Y-87586445D01*
X111206229Y-87574636D01*
X111200000Y-87546000D01*
X111200000Y-87420000D01*
X111113500Y-87420000D01*
X111046461Y-87400315D01*
X111000706Y-87347511D01*
X110989500Y-87296000D01*
X110989500Y-87170000D01*
X111450000Y-87170000D01*
X112068638Y-87170000D01*
X112135677Y-87189685D01*
X112136068Y-87190000D01*
X112150000Y-87190000D01*
X112150000Y-86661210D01*
X112149999Y-86661209D01*
X112129087Y-86662854D01*
X112129081Y-86662855D01*
X111973809Y-86707966D01*
X111973803Y-86707968D01*
X111880030Y-86763426D01*
X111812306Y-86780609D01*
X111753788Y-86763426D01*
X111626195Y-86687968D01*
X111626190Y-86687966D01*
X111470918Y-86642855D01*
X111470912Y-86642854D01*
X111450000Y-86641209D01*
X111450000Y-87170000D01*
X110989500Y-87170000D01*
X110989500Y-86628255D01*
X110998144Y-86598814D01*
X111004668Y-86568828D01*
X111008422Y-86563812D01*
X111009185Y-86561216D01*
X111025819Y-86540574D01*
X111416393Y-86150000D01*
X112695496Y-86150000D01*
X113250000Y-86150000D01*
X113250000Y-85621210D01*
X113249999Y-85621209D01*
X113229087Y-85622854D01*
X113229081Y-85622855D01*
X113073809Y-85667966D01*
X113073804Y-85667968D01*
X112934625Y-85750278D01*
X112934616Y-85750285D01*
X112820285Y-85864616D01*
X112820278Y-85864625D01*
X112737968Y-86003804D01*
X112695496Y-86150000D01*
X111416393Y-86150000D01*
X111479169Y-86087224D01*
X112134763Y-85431630D01*
X112820480Y-84745913D01*
X112834495Y-84721637D01*
X112885060Y-84673422D01*
X112953667Y-84660198D01*
X113018532Y-84686165D01*
G37*
%TD.AperFunction*%
%TA.AperFunction,Conductor*%
G36*
X101805703Y-84028173D02*
G01*
X101824821Y-84049004D01*
X101832446Y-84059500D01*
X101960500Y-84187554D01*
X101960505Y-84187558D01*
X102073028Y-84269310D01*
X102107006Y-84293996D01*
X102185728Y-84334107D01*
X102238684Y-84361090D01*
X102289480Y-84409065D01*
X102306275Y-84476886D01*
X102283737Y-84543021D01*
X102229022Y-84586472D01*
X102220708Y-84589506D01*
X102191781Y-84598905D01*
X102002439Y-84695380D01*
X101948282Y-84734727D01*
X101948282Y-84734728D01*
X102580591Y-85367037D01*
X102517007Y-85384075D01*
X102402993Y-85449901D01*
X102309901Y-85542993D01*
X102244075Y-85657007D01*
X102227037Y-85720591D01*
X101636819Y-85130373D01*
X101603334Y-85069050D01*
X101600500Y-85042692D01*
X101600500Y-84121886D01*
X101620185Y-84054847D01*
X101672989Y-84009092D01*
X101742147Y-83999148D01*
X101805703Y-84028173D01*
G37*
%TD.AperFunction*%
%TA.AperFunction,Conductor*%
G36*
X121561917Y-84032959D02*
G01*
X121596277Y-84093796D01*
X121599500Y-84121886D01*
X121599500Y-85042692D01*
X121579815Y-85109731D01*
X121563181Y-85130373D01*
X120972962Y-85720591D01*
X120955925Y-85657007D01*
X120890099Y-85542993D01*
X120797007Y-85449901D01*
X120682993Y-85384075D01*
X120619408Y-85367037D01*
X121251716Y-84734728D01*
X121197550Y-84695375D01*
X121008217Y-84598904D01*
X120979292Y-84589506D01*
X120921616Y-84550068D01*
X120894418Y-84485710D01*
X120906333Y-84416863D01*
X120953577Y-84365388D01*
X120961315Y-84361090D01*
X121092994Y-84293996D01*
X121239501Y-84187553D01*
X121367553Y-84059501D01*
X121375180Y-84049003D01*
X121430508Y-84006336D01*
X121500121Y-84000355D01*
X121561917Y-84032959D01*
G37*
%TD.AperFunction*%
%TA.AperFunction,Conductor*%
G36*
X103882920Y-83893946D02*
G01*
X103917277Y-83954785D01*
X103920500Y-83982871D01*
X103920500Y-84961634D01*
X103900815Y-85028673D01*
X103848011Y-85074428D01*
X103837216Y-85076336D01*
X103192962Y-85720590D01*
X103175925Y-85657007D01*
X103110099Y-85542993D01*
X103017007Y-85449901D01*
X102902993Y-85384075D01*
X102839409Y-85367037D01*
X103471716Y-84734728D01*
X103417550Y-84695375D01*
X103228217Y-84598904D01*
X103199292Y-84589506D01*
X103141616Y-84550068D01*
X103114418Y-84485710D01*
X103126333Y-84416863D01*
X103173577Y-84365388D01*
X103181315Y-84361090D01*
X103312994Y-84293996D01*
X103459501Y-84187553D01*
X103587553Y-84059501D01*
X103587555Y-84059497D01*
X103587558Y-84059495D01*
X103696182Y-83909986D01*
X103751511Y-83867320D01*
X103821125Y-83861341D01*
X103882920Y-83893946D01*
G37*
%TD.AperFunction*%
%TA.AperFunction,Conductor*%
G36*
X111417539Y-74691185D02*
G01*
X111463294Y-74743989D01*
X111474500Y-74795500D01*
X111474500Y-81708745D01*
X111454815Y-81775784D01*
X111402011Y-81821539D01*
X111332853Y-81831483D01*
X111269297Y-81802458D01*
X111262819Y-81796426D01*
X110561819Y-81095426D01*
X110528334Y-81034103D01*
X110525500Y-81007745D01*
X110525500Y-80608862D01*
X110525500Y-80608856D01*
X110515359Y-80524410D01*
X110462364Y-80390025D01*
X110462363Y-80390024D01*
X110462363Y-80390023D01*
X110395696Y-80302109D01*
X110387696Y-80281061D01*
X110375523Y-80262119D01*
X110372496Y-80241067D01*
X110370873Y-80236797D01*
X110370500Y-80227184D01*
X110370500Y-80060128D01*
X110390185Y-79993089D01*
X110420866Y-79960357D01*
X110442150Y-79944650D01*
X110522793Y-79835382D01*
X110561419Y-79724995D01*
X110567646Y-79707201D01*
X110567646Y-79707199D01*
X110570500Y-79676769D01*
X110570500Y-78393230D01*
X110567646Y-78362800D01*
X110567646Y-78362798D01*
X110522793Y-78234619D01*
X110522792Y-78234617D01*
X110442150Y-78125350D01*
X110332882Y-78044707D01*
X110332880Y-78044706D01*
X110204700Y-77999853D01*
X110174270Y-77997000D01*
X110174266Y-77997000D01*
X109765734Y-77997000D01*
X109749852Y-77998489D01*
X109745462Y-77998901D01*
X109676878Y-77985560D01*
X109626394Y-77937257D01*
X109610038Y-77869329D01*
X109616847Y-77834484D01*
X109617646Y-77832199D01*
X109620500Y-77801769D01*
X109620500Y-76919700D01*
X109640185Y-76852661D01*
X109692989Y-76806906D01*
X109762147Y-76796962D01*
X109779095Y-76800624D01*
X109904871Y-76837166D01*
X109904877Y-76837167D01*
X109940000Y-76839931D01*
X109940000Y-76839930D01*
X110440000Y-76839930D01*
X110475122Y-76837167D01*
X110475128Y-76837166D01*
X110629188Y-76792407D01*
X110629191Y-76792406D01*
X110767285Y-76710738D01*
X110767294Y-76710731D01*
X110880731Y-76597294D01*
X110880738Y-76597285D01*
X110962404Y-76459194D01*
X111002844Y-76320000D01*
X110440000Y-76320000D01*
X110440000Y-76839930D01*
X109940000Y-76839930D01*
X109940000Y-76194000D01*
X109959685Y-76126961D01*
X110012489Y-76081206D01*
X110064000Y-76070000D01*
X110190000Y-76070000D01*
X110190000Y-75944000D01*
X110209685Y-75876961D01*
X110262489Y-75831206D01*
X110314000Y-75820000D01*
X111002844Y-75820000D01*
X110962404Y-75680805D01*
X110880738Y-75542714D01*
X110880734Y-75542709D01*
X110810256Y-75472232D01*
X110776771Y-75410909D01*
X110780895Y-75343598D01*
X110807741Y-75266879D01*
X110810500Y-75237457D01*
X110810499Y-74862544D01*
X110807741Y-74833121D01*
X110807738Y-74833114D01*
X110806131Y-74825751D01*
X110808337Y-74825269D01*
X110805345Y-74766681D01*
X110840071Y-74706052D01*
X110902063Y-74673822D01*
X110925949Y-74671500D01*
X111350500Y-74671500D01*
X111417539Y-74691185D01*
G37*
%TD.AperFunction*%
%TA.AperFunction,Conductor*%
G36*
X121563181Y-73869627D02*
G01*
X121596666Y-73930950D01*
X121599500Y-73957308D01*
X121599500Y-74878113D01*
X121579815Y-74945152D01*
X121527011Y-74990907D01*
X121457853Y-75000851D01*
X121394297Y-74971826D01*
X121375182Y-74950998D01*
X121367558Y-74940505D01*
X121367554Y-74940500D01*
X121239499Y-74812445D01*
X121239494Y-74812441D01*
X121092995Y-74706004D01*
X120961314Y-74638908D01*
X120910519Y-74590934D01*
X120893724Y-74523113D01*
X120916262Y-74456978D01*
X120970977Y-74413527D01*
X120979295Y-74410492D01*
X121008217Y-74401095D01*
X121197554Y-74304622D01*
X121251716Y-74265270D01*
X121251717Y-74265270D01*
X120619408Y-73632962D01*
X120682993Y-73615925D01*
X120797007Y-73550099D01*
X120890099Y-73457007D01*
X120955925Y-73342993D01*
X120972962Y-73279408D01*
X121563181Y-73869627D01*
G37*
%TD.AperFunction*%
%TA.AperFunction,Conductor*%
G36*
X102244075Y-73342993D02*
G01*
X102309901Y-73457007D01*
X102402993Y-73550099D01*
X102517007Y-73615925D01*
X102580590Y-73632962D01*
X101948282Y-74265269D01*
X101948282Y-74265270D01*
X102002449Y-74304624D01*
X102191780Y-74401094D01*
X102220705Y-74410492D01*
X102278381Y-74449929D01*
X102305580Y-74514287D01*
X102293667Y-74583134D01*
X102246424Y-74634610D01*
X102238685Y-74638908D01*
X102107004Y-74706004D01*
X101960505Y-74812441D01*
X101960500Y-74812445D01*
X101832445Y-74940500D01*
X101832441Y-74940505D01*
X101824818Y-74950998D01*
X101769488Y-74993664D01*
X101699875Y-74999643D01*
X101638080Y-74967037D01*
X101603723Y-74906199D01*
X101600500Y-74878113D01*
X101600500Y-73957308D01*
X101620185Y-73890269D01*
X101636819Y-73869627D01*
X102227037Y-73279408D01*
X102244075Y-73342993D01*
G37*
%TD.AperFunction*%
%TA.AperFunction,Conductor*%
G36*
X101805703Y-71328173D02*
G01*
X101824821Y-71349004D01*
X101832446Y-71359500D01*
X101960500Y-71487554D01*
X101960505Y-71487558D01*
X102084803Y-71577865D01*
X102107006Y-71593996D01*
X102208780Y-71645853D01*
X102238684Y-71661090D01*
X102289480Y-71709065D01*
X102306275Y-71776886D01*
X102283737Y-71843021D01*
X102229022Y-71886472D01*
X102220708Y-71889506D01*
X102191781Y-71898905D01*
X102002439Y-71995380D01*
X101948282Y-72034727D01*
X101948282Y-72034728D01*
X102580591Y-72667037D01*
X102517007Y-72684075D01*
X102402993Y-72749901D01*
X102309901Y-72842993D01*
X102244075Y-72957007D01*
X102227037Y-73020591D01*
X101636819Y-72430373D01*
X101603334Y-72369050D01*
X101600500Y-72342692D01*
X101600500Y-71421886D01*
X101620185Y-71354847D01*
X101672989Y-71309092D01*
X101742147Y-71299148D01*
X101805703Y-71328173D01*
G37*
%TD.AperFunction*%
%TA.AperFunction,Conductor*%
G36*
X121561917Y-71332959D02*
G01*
X121596277Y-71393796D01*
X121599500Y-71421886D01*
X121599500Y-72342692D01*
X121579815Y-72409731D01*
X121563181Y-72430373D01*
X120972962Y-73020591D01*
X120955925Y-72957007D01*
X120890099Y-72842993D01*
X120797007Y-72749901D01*
X120682993Y-72684075D01*
X120619409Y-72667037D01*
X121251716Y-72034728D01*
X121197550Y-71995375D01*
X121008217Y-71898904D01*
X120979292Y-71889506D01*
X120921616Y-71850068D01*
X120894418Y-71785710D01*
X120906333Y-71716863D01*
X120953577Y-71665388D01*
X120961315Y-71661090D01*
X121092994Y-71593996D01*
X121239501Y-71487553D01*
X121367553Y-71359501D01*
X121375180Y-71349003D01*
X121430508Y-71306336D01*
X121500121Y-71300355D01*
X121561917Y-71332959D01*
G37*
%TD.AperFunction*%
%TD*%
M02*
