M48
; DRILL file {KiCad 9.0.6} date 2026-01-03T15:14:00+0000
; FORMAT={-:-/ absolute / metric / decimal}
; #@! TF.CreationDate,2026-01-03T15:14:00+00:00
; #@! TF.GenerationSoftware,Kicad,Pcbnew,9.0.6
; #@! TF.FileFunction,MixedPlating,1,2
FMAT,2
METRIC
; #@! TA.AperFunction,Plated,PTH,ViaDrill
T1C0.300
; #@! TA.AperFunction,Plated,PTH,ComponentDrill
T2C0.600
; #@! TA.AperFunction,Plated,PTH,ComponentDrill
T3C1.000
; #@! TA.AperFunction,NonPlated,NPTH,ComponentDrill
T4C0.650
%
G90
G05
T1
X104.3Y-77.3
X104.4Y-74.3
X104.4Y-99.3
X104.4Y-110.5
X105.8Y-98.6
X106.29Y-94.6
X106.3Y-91.8
X106.35Y-93.802
X106.5Y-105.2
X106.9Y-80.9
X107.21Y-93.7
X107.4Y-105.1
X107.6Y-76.7
X107.6Y-110.5
X108.0Y-102.7
X108.3Y-85.4
X108.5Y-86.3
X108.951Y-91.4
X109.086Y-97.659
X109.7Y-102.7
X110.0Y-112.8
X110.4Y-108.6
X111.0Y-96.2
X111.1Y-93.699
X111.2Y-76.8
X111.6Y-114.1
X111.7Y-107.5
X111.754Y-98.3
X112.0Y-89.25
X112.0Y-91.87
X112.707Y-98.3
X112.8Y-85.4
X113.101Y-93.698
X113.507Y-98.306
X113.7Y-97.1
X114.2Y-95.6
X114.9Y-79.6
X115.2Y-105.5
X115.8Y-114.8
X115.9Y-82.1
X116.0Y-105.1
X116.2Y-74.7
X116.3Y-113.8
X116.38Y-93.66
X116.6Y-88.9
X117.156Y-91.8
X117.19Y-94.11
X118.226Y-98.126
X118.5Y-108.5
X118.8Y-110.1
X119.1Y-99.2
X119.2Y-77.0
X119.4Y-87.1
T3
X102.71Y-68.07
X102.71Y-70.61
X102.71Y-73.15
X102.71Y-75.69
X102.71Y-78.23
X102.71Y-80.77
X102.71Y-83.31
X102.71Y-85.85
X102.71Y-88.39
X102.71Y-90.93
X102.71Y-93.47
X102.71Y-96.01
X102.71Y-98.55
X102.71Y-101.09
X102.71Y-103.63
X102.71Y-106.17
X102.71Y-108.71
X102.71Y-111.25
X102.71Y-113.79
X102.71Y-116.33
X109.06Y-116.09
X111.6Y-116.09
X114.14Y-116.09
X120.49Y-68.07
X120.49Y-70.61
X120.49Y-73.15
X120.49Y-75.69
X120.49Y-78.23
X120.49Y-80.77
X120.49Y-83.31
X120.49Y-85.85
X120.49Y-88.39
X120.49Y-90.93
X120.49Y-93.47
X120.49Y-96.01
X120.49Y-98.55
X120.49Y-101.09
X120.49Y-103.63
X120.49Y-106.17
X120.49Y-108.71
X120.49Y-111.25
X120.49Y-113.79
X120.49Y-116.33
T4
X108.69Y-71.8
X114.47Y-71.8
T2
G00X107.26Y-68.45
M15
G01X107.26Y-67.85
M16
G05
G00X107.26Y-72.88
M15
G01X107.26Y-71.78
M16
G05
G00X115.9Y-68.45
M15
G01X115.9Y-67.85
M16
G05
G00X115.9Y-72.88
M15
G01X115.9Y-71.78
M16
G05
M30
